<?xml version="1.0" encoding="utf-8"?>
<!-- Generator: Adobe Illustrator 24.3.0, SVG Export Plug-In . SVG Version: 6.00 Build 0)  -->
<svg version="1.1" id="Layer_1" xmlns="http://www.w3.org/2000/svg" xmlns:xlink="http://www.w3.org/1999/xlink" x="0px" y="0px"
	 viewBox="0 0 500 250" style="enable-background:new 0 0 500 250;" xml:space="preserve">
<style type="text/css">
	.st0{fill:#FFFFFF;}
</style>
<g>
	<polygon class="st0" points="484.4,144 250,241.3 15.7,144 250.5,201.7 	"/>
	<polygon class="st0" points="418.6,144 250,184.5 81.5,144 250.5,163.8 	"/>
	<g>
		<path class="st0" d="M16,68.4c-0.2-0.2-0.3-0.4-0.3-0.7V10.4c0-0.3,0.1-0.5,0.3-0.7c0.2-0.2,0.4-0.3,0.7-0.3h21.6
			c4.4,0,8.3,0.8,11.7,2.3s6,3.7,7.9,6.5s2.8,6.1,2.8,9.8v22.2c0,3.7-0.9,6.9-2.8,9.8c-1.9,2.8-4.5,5-7.9,6.5
			c-3.4,1.5-7.3,2.3-11.7,2.3H16.7C16.4,68.7,16.2,68.6,16,68.4z M30.2,56.7h8.7c2.3,0,4.1-0.8,5.5-2.4s2.2-3.8,2.2-6.5V30.3
			c0-2.7-0.7-4.9-2.2-6.5c-1.4-1.6-3.3-2.4-5.6-2.4h-8.6c-0.3,0-0.4,0.1-0.4,0.4v34.4C29.8,56.5,29.9,56.7,30.2,56.7z"/>
		<path class="st0" d="M109.9,21.1c-0.2,0.2-0.4,0.3-0.7,0.3H82.6c-0.3,0-0.4,0.1-0.4,0.4v10.4c0,0.3,0.1,0.4,0.4,0.4h17
			c0.3,0,0.5,0.1,0.7,0.3c0.2,0.2,0.3,0.4,0.3,0.7v9.9c0,0.3-0.1,0.5-0.3,0.7c-0.2,0.2-0.4,0.3-0.7,0.3h-17c-0.3,0-0.4,0.1-0.4,0.4
			v11.2c0,0.3,0.1,0.4,0.4,0.4h26.6c0.3,0,0.5,0.1,0.7,0.3c0.2,0.2,0.3,0.4,0.3,0.7v10c0,0.3-0.1,0.5-0.3,0.7
			c-0.2,0.2-0.4,0.3-0.7,0.3H69.1c-0.3,0-0.5-0.1-0.7-0.3c-0.2-0.2-0.3-0.4-0.3-0.7V10.4c0-0.3,0.1-0.5,0.3-0.7
			c0.2-0.2,0.4-0.3,0.7-0.3h40.1c0.3,0,0.5,0.1,0.7,0.3c0.2,0.2,0.3,0.4,0.3,0.7v10C110.2,20.7,110.1,20.9,109.9,21.1z"/>
		<path class="st0" d="M115.2,68.4c-0.2-0.2-0.1-0.5,0.1-0.8l16-28.2c0.1-0.2,0.1-0.3,0-0.5l-16-28.2l-0.2-0.5
			c0-0.4,0.3-0.7,0.9-0.7h13.1c0.6,0,1.1,0.2,1.3,0.7l9.6,17.8c0.2,0.2,0.3,0.2,0.5,0l9.7-17.8c0.2-0.4,0.6-0.7,1.3-0.7h13.1
			c0.4,0,0.6,0.1,0.8,0.3c0.1,0.2,0.1,0.5-0.1,0.9l-15.9,28.2c-0.1,0.2-0.1,0.3,0,0.5l15.9,28.2c0.1,0.2,0.2,0.4,0.2,0.5
			c0,0.4-0.3,0.7-0.9,0.7h-13c-0.6,0-1-0.2-1.3-0.7l-9.8-17.7c-0.2-0.3-0.3-0.3-0.5,0L130.3,68c-0.3,0.4-0.7,0.7-1.3,0.7h-13
			C115.7,68.7,115.4,68.6,115.2,68.4z"/>
		<path class="st0" d="M215.7,20.5c0,0.3-0.1,0.5-0.3,0.7c-0.2,0.2-0.4,0.3-0.7,0.3h-14.8c-0.3,0-0.4,0.1-0.4,0.4v45.8
			c0,0.3-0.1,0.5-0.3,0.7c-0.2,0.2-0.4,0.3-0.7,0.3h-12c-0.3,0-0.5-0.1-0.7-0.3c-0.2-0.2-0.3-0.4-0.3-0.7V21.9
			c0-0.3-0.1-0.4-0.4-0.4h-14.3c-0.3,0-0.5-0.1-0.7-0.3c-0.2-0.2-0.3-0.4-0.3-0.7V10.4c0-0.3,0.1-0.5,0.3-0.7
			c0.2-0.2,0.4-0.3,0.7-0.3h37C207.9,9.3,215.7,20.5,215.7,20.5z"/>
		<path class="st0" d="M280.5,21.1c-0.2,0.2-0.4,0.3-0.7,0.3h-26.5c-0.3,0-0.4,0.1-0.4,0.4v10.4c0,0.3,0.1,0.4,0.4,0.4h17
			c0.3,0,0.5,0.1,0.7,0.3s0.3,0.4,0.3,0.7v9.9c0,0.3-0.1,0.5-0.3,0.7c-0.2,0.2-0.4,0.3-0.7,0.3h-17c-0.3,0-0.4,0.1-0.4,0.4v22.6
			c0,0.3-0.1,0.5-0.3,0.7c-0.2,0.2-0.4,0.3-0.7,0.3h-12c-0.3,0-0.5-0.1-0.7-0.3c-0.2-0.2-0.3-0.4-0.3-0.7V10.4
			c0-0.3,0.1-0.5,0.3-0.7c0.2-0.2,0.4-0.3,0.7-0.3h40c0.3,0,0.5,0.1,0.7,0.3s0.3,0.4,0.3,0.7v10C280.8,20.7,280.7,20.9,280.5,21.1z"
			/>
		<path class="st0" d="M295.9,66.9c-3.5-1.8-6.2-4.4-8.1-7.8c-1.9-3.3-2.9-7.2-2.9-11.6V30.5c0-4.3,1-8.1,2.9-11.4s4.6-5.9,8.1-7.7
			s7.5-2.8,12.1-2.8s8.6,0.9,12.1,2.8s6.2,4.4,8.1,7.7s2.9,7.1,2.9,11.4v17c0,4.4-1,8.3-2.9,11.6s-4.6,5.9-8.1,7.8
			c-3.5,1.8-7.5,2.8-12.1,2.8C303.4,69.6,299.4,68.7,295.9,66.9z M314.6,55c1.7-1.8,2.5-4.1,2.5-7V30.4c0-2.9-0.8-5.2-2.5-7
			c-1.7-1.8-3.9-2.7-6.6-2.7c-2.7,0-4.8,0.9-6.5,2.7c-1.7,1.8-2.5,4.1-2.5,7v17.6c0,2.9,0.8,5.3,2.5,7s3.8,2.6,6.5,2.6
			C310.7,57.6,312.9,56.7,314.6,55z"/>
		<path class="st0" d="M369.1,67.9l-10-22.5c-0.1-0.2-0.3-0.3-0.5-0.3H353c-0.3,0-0.4,0.1-0.4,0.4v22.2c0,0.3-0.1,0.5-0.3,0.7
			c-0.2,0.2-0.4,0.3-0.7,0.3h-12c-0.3,0-0.5-0.1-0.7-0.3c-0.2-0.2-0.3-0.4-0.3-0.7V10.4c0-0.3,0.1-0.5,0.3-0.7
			c0.2-0.2,0.4-0.3,0.7-0.3h25.2c3.7,0,7,0.8,9.8,2.3s5,3.7,6.6,6.5c1.5,2.8,2.3,6,2.3,9.6c0,3.8-0.9,7.1-2.8,9.8
			c-1.9,2.8-4.5,4.8-7.8,6c-0.3,0.1-0.4,0.3-0.2,0.6l11.2,23.3c0.1,0.2,0.2,0.4,0.2,0.5c0,0.4-0.3,0.7-0.9,0.7h-12.7
			C369.8,68.7,369.4,68.4,369.1,67.9z M352.6,21.8v12c0,0.3,0.1,0.4,0.4,0.4h9.4c2.1,0,3.8-0.6,5.1-1.7c1.3-1.2,2-2.7,2-4.6
			c0-2-0.6-3.6-2-4.8c-1.3-1.2-3-1.8-5.1-1.8H353C352.8,21.4,352.6,21.5,352.6,21.8z"/>
		<path class="st0" d="M400.5,66.7c-3.4-1.8-6.1-4.2-8-7.5s-2.8-7-2.8-11.2V29.8c0-4.2,1-7.9,2.8-11.1c1.9-3.2,4.5-5.7,8-7.4
			s7.4-2.6,11.9-2.6s8.5,0.8,11.9,2.5s6.1,4,8,7c1.9,3,2.8,6.5,2.8,10.5c0,0.3-0.1,0.5-0.3,0.7c-0.2,0.2-0.4,0.2-0.7,0.2l-12,0.8
			c-0.7,0-1-0.3-1-0.9c0-2.7-0.8-4.8-2.4-6.4s-3.7-2.4-6.3-2.4c-2.6,0-4.7,0.8-6.3,2.4s-2.4,3.7-2.4,6.3v19.2c0,2.6,0.8,4.7,2.4,6.3
			s3.7,2.4,6.3,2.4c2.6,0,4.7-0.8,6.3-2.4c1.6-1.6,2.4-3.7,2.4-6.3c0-0.6,0.3-0.9,1-0.9l12,0.6c0.3,0,0.5,0.1,0.7,0.2
			s0.3,0.4,0.3,0.6c0,4-1,7.5-2.8,10.6c-1.9,3-4.5,5.4-8,7.1c-3.4,1.7-7.4,2.5-11.9,2.5C407.9,69.4,403.9,68.5,400.5,66.7z"/>
		<path class="st0" d="M484.1,21.1c-0.2,0.2-0.4,0.3-0.7,0.3h-26.6c-0.3,0-0.4,0.1-0.4,0.4v10.4c0,0.3,0.1,0.4,0.4,0.4h17
			c0.3,0,0.5,0.1,0.7,0.3s0.3,0.4,0.3,0.7v9.9c0,0.3-0.1,0.5-0.3,0.7c-0.2,0.2-0.4,0.3-0.7,0.3h-17c-0.3,0-0.4,0.1-0.4,0.4v11.2
			c0,0.3,0.1,0.4,0.4,0.4h26.6c0.3,0,0.5,0.1,0.7,0.3s0.3,0.4,0.3,0.7v10c0,0.3-0.1,0.5-0.3,0.7c-0.2,0.2-0.4,0.3-0.7,0.3h-40.1
			c-0.3,0-0.5-0.1-0.7-0.3c-0.2-0.2-0.3-0.4-0.3-0.7V10.4c0-0.3,0.1-0.5,0.3-0.7c0.2-0.2,0.4-0.3,0.7-0.3h40.1
			c0.3,0,0.5,0.1,0.7,0.3s0.3,0.4,0.3,0.7v10C484.4,20.7,484.3,20.9,484.1,21.1z"/>
		<path class="st0" d="M21.7,130.3L15.6,102c0-0.3,0.1-0.5,0.4-0.5h1.5c0.2,0,0.4,0.1,0.5,0.4l4.9,24.4c0,0.2,0.1,0.2,0.2,0
			l4.8-24.4c0-0.2,0.2-0.4,0.5-0.4h1.5c0.3,0,0.4,0.2,0.4,0.5l-6,28.2c0,0.2-0.2,0.4-0.5,0.4h-1.5C21.9,130.6,21.8,130.5,21.7,130.3
			z"/>
		<path class="st0" d="M93.9,103.5h-9.8c-0.1,0-0.2,0.1-0.2,0.2v11.3c0,0.1,0.1,0.2,0.2,0.2h6.3c0.2,0,0.4,0.2,0.4,0.4v1.1
			c0,0.2-0.2,0.4-0.4,0.4h-6.3c-0.1,0-0.2,0.1-0.2,0.2v11.3c0,0.1,0.1,0.2,0.2,0.2h9.8c0.2,0,0.4,0.2,0.4,0.4v1.1
			c0,0.2-0.2,0.4-0.4,0.4H82.1c-0.2,0-0.4-0.2-0.4-0.4V102c0-0.2,0.2-0.4,0.4-0.4h11.8c0.2,0,0.4,0.2,0.4,0.4v1.1
			C94.3,103.3,94.2,103.5,93.9,103.5z"/>
		<path class="st0" d="M146,130.2V102c0-0.2,0.2-0.4,0.4-0.4h1.5c0.2,0,0.4,0.1,0.5,0.3l9,22.8c0,0.2,0.2,0.1,0.2,0V102
			c0-0.2,0.2-0.4,0.4-0.4h1.3c0.2,0,0.4,0.2,0.4,0.4v28.2c0,0.2-0.2,0.4-0.4,0.4h-1.5c-0.2,0-0.4-0.1-0.5-0.3l-9-22.8
			c0-0.2-0.2-0.1-0.2,0l0,22.7c0,0.2-0.2,0.4-0.4,0.4h-1.4C146.2,130.6,146,130.5,146,130.2z"/>
		<path class="st0" d="M225.2,102v1.1c0,0.2-0.2,0.4-0.4,0.4h-5.5c-0.1,0-0.2,0.1-0.2,0.2v26.5c0,0.2-0.2,0.4-0.4,0.4h-1.4
			c-0.2,0-0.4-0.2-0.4-0.4v-26.6c0-0.1-0.1-0.2-0.2-0.2h-5.2c-0.2,0-0.4-0.2-0.4-0.4V102c0-0.2,0.2-0.4,0.4-0.4h13.2
			C225.1,101.6,225.2,101.7,225.2,102z"/>
		<path class="st0" d="M276.4,123.1V102c0-0.2,0.2-0.4,0.4-0.4h1.4c0.2,0,0.4,0.2,0.4,0.4v21.4c0,3.4,1.8,5.7,4.6,5.7
			s4.7-2.3,4.7-5.7V102c0-0.2,0.2-0.4,0.4-0.4h1.4c0.2,0,0.4,0.2,0.4,0.4v21.2c0,4.7-2.8,7.8-6.9,7.8S276.4,127.9,276.4,123.1z"/>
		<path class="st0" d="M354.2,130.3l-4.6-13.2c0-0.1-0.1-0.1-0.2-0.1h-4.1c-0.1,0-0.2,0.1-0.2,0.2v13.1c0,0.2-0.2,0.4-0.4,0.4h-1.4
			c-0.2,0-0.4-0.2-0.4-0.4v-28.3c0-0.2,0.2-0.4,0.4-0.4h6.4c3.9,0,6.5,3.2,6.5,7.8c0,3.8-1.7,6.5-4.5,7.4c-0.1,0-0.2,0.1-0.1,0.2
			l4.7,13.3c0.1,0.3,0,0.5-0.3,0.5h-1.4C354.5,130.6,354.2,130.5,354.2,130.3z M345.1,103.6v11.3c0,0.1,0.1,0.2,0.2,0.2h4.2
			c2.7,0,4.5-2.3,4.5-5.8c0-3.6-1.8-5.9-4.5-5.9h-4.2C345.2,103.5,345.1,103.5,345.1,103.6z"/>
		<path class="st0" d="M419.9,103.5H410c-0.1,0-0.2,0.1-0.2,0.2v11.3c0,0.1,0.1,0.2,0.2,0.2h6.3c0.2,0,0.4,0.2,0.4,0.4v1.1
			c0,0.2-0.2,0.4-0.4,0.4H410c-0.1,0-0.2,0.1-0.2,0.2v11.3c0,0.1,0.1,0.2,0.2,0.2h9.9c0.2,0,0.4,0.2,0.4,0.4v1.1
			c0,0.2-0.2,0.4-0.4,0.4h-11.8c-0.2,0-0.4-0.2-0.4-0.4V102c0-0.2,0.2-0.4,0.4-0.4h11.8c0.2,0,0.4,0.2,0.4,0.4v1.1
			C420.3,103.3,420.1,103.5,419.9,103.5z"/>
		<path class="st0" d="M471,123.7v-0.9c0-0.2,0.2-0.4,0.4-0.4h1.3c0.2,0,0.4,0.2,0.4,0.4v0.8c0,3.3,1.9,5.4,4.5,5.4s4.5-2.1,4.5-5.2
			c0-3.2-2.1-4.7-5.2-7c-3.3-2.5-5.9-4.4-5.9-8.7c0-4.4,2.7-6.9,6.4-6.9c4,0,6.6,2.9,6.6,7.4v1c0,0.2-0.2,0.4-0.4,0.4h-1.3
			c-0.2,0-0.4-0.2-0.4-0.4v-1c0-3.3-1.8-5.5-4.5-5.5c-2.4,0-4.2,1.7-4.2,5c0,2.9,1.5,4.2,4.9,6.8c4.2,3.1,6.2,4.7,6.2,8.6
			c0,4.6-2.8,7.4-6.6,7.4C473.8,131,471,128.1,471,123.7z"/>
	</g>
	<g>
		<path class="st0" d="M241.6,91.6c0-1.1,0-2.1,0-3.2c0.9-0.4,1.8-0.8,2.7-1.2c3.6-1.6,7.2-3.2,10.7-4.7c0.1,0,0.1,0,0.1-0.1
			c0-0.1-0.1-0.1-0.1-0.1c-0.6-0.3-1.2-0.7-1.9-1.1c0.2-0.1,0.5-0.2,0.7-0.3c0.8-0.3,1.5-0.7,2.3-1c0.1,0,0.2-0.1,0.3,0
			c0.6,0.3,1.3,0.7,2,1c0.1,0.1,0.1,0.1,0.1,0.2c0,0.9,0,1.9,0,2.8c0,0.1,0,0.2-0.2,0.3c-2.4,1-4.7,2.1-7.1,3.1
			c-2.1,0.9-4.3,1.9-6.5,2.9c0.7,0.4,1.3,0.7,2,1.1c-0.3,0.1-0.6,0.3-0.9,0.4c-0.6,0.3-1.3,0.6-2,0.9c-0.1,0-0.1,0.1-0.2,0
			C242.9,92.3,242.2,91.9,241.6,91.6z"/>
		<path class="st0" d="M241.6,86.3c0-1.8,0-3.6,0-5.3c0.8-0.4,1.6-0.8,2.4-1.2c0.1,0,0.1,0,0.2,0c1.9,0.9,3.8,1.9,5.7,2.9
			c0,0,0,0,0.1,0c-0.4,0.2-0.7,0.3-1,0.5c-0.6,0.2-1.1,0.5-1.6,0.7c-0.1,0-0.2,0-0.2,0c-0.9-0.5-1.7-0.9-2.6-1.4
			c-0.1,0-0.1-0.1-0.2-0.1c-0.1,0.1,0,0.1,0,0.2c0,0.8,0,1.6,0,2.4c0,0.1,0,0.2-0.2,0.3C243.2,85.6,242.4,86,241.6,86.3z"/>
		<path class="st0" d="M258.5,86.2c0,0.2,0,0.3,0,0.5c0,1.6,0,3.2,0,4.8c-0.8,0.4-1.6,0.8-2.4,1.2c-0.1,0-0.1,0-0.2,0
			c-1.9-0.9-3.8-1.9-5.7-2.8c0,0,0,0,0-0.1c0.3-0.2,0.6-0.3,1-0.4c0.6-0.2,1.1-0.5,1.7-0.7c0.1,0,0.2,0,0.3,0
			c0.9,0.5,1.8,0.9,2.7,1.4c0.1,0,0.1,0.1,0.2,0.1c0.1-0.1,0-0.1,0-0.2c0-0.8,0-1.7,0-2.5c0-0.1,0-0.2,0.1-0.2
			C256.8,86.9,257.6,86.5,258.5,86.2z"/>
		<path class="st0" d="M245.7,78.9c1.4-0.7,2.8-1.4,4.2-2.1c0.1,0,0.1,0,0.2,0c1.4,0.7,2.9,1.5,4.3,2.2c0,0,0,0,0.1,0
			c0,0.1-0.1,0.1-0.2,0.1c-0.9,0.4-1.8,0.8-2.7,1.2c-0.1,0.1-0.2,0.1-0.3,0c-0.4-0.2-0.7-0.4-1.1-0.6c-0.1-0.1-0.2-0.1-0.3,0
			c-0.4,0.2-0.8,0.4-1.1,0.6c-0.1,0-0.1,0-0.2,0C247.6,79.9,246.7,79.4,245.7,78.9C245.8,78.9,245.7,78.9,245.7,78.9z"/>
		<path class="st0" d="M245.7,93.6c0.9-0.4,1.8-0.8,2.7-1.2c0.2-0.1,0.3-0.1,0.5,0c0.3,0.2,0.7,0.3,1,0.5c0.1,0.1,0.2,0.1,0.3,0
			c0.5-0.2,1-0.4,1.5-0.6c0.1,0,0.1-0.1,0.2,0c0.9,0.4,1.7,0.9,2.6,1.3c0,0.1-0.1,0.1-0.1,0.1c-1.4,0.7-2.8,1.3-4.2,2
			c-0.1,0-0.1,0.1-0.2,0C248.5,95,247.1,94.3,245.7,93.6C245.7,93.7,245.7,93.6,245.7,93.6z"/>
	</g>
	<g>
		<rect x="15.7" y="84.5" class="st0" width="218.8" height="3.4"/>
		<rect x="265.5" y="84.5" class="st0" width="218.8" height="3.4"/>
	</g>
</g>
</svg>
