<?xml version="1.0" encoding="utf-8"?>
<!-- Generator: Adobe Illustrator 24.3.0, SVG Export Plug-In . SVG Version: 6.00 Build 0)  -->
<svg version="1.1" id="Capa_1" xmlns="http://www.w3.org/2000/svg" xmlns:xlink="http://www.w3.org/1999/xlink" x="0px" y="0px"
	 viewBox="0 0 419.1 120" style="enable-background:new 0 0 419.1 120;" xml:space="preserve">
<style type="text/css">
	.st0{fill:#FFFFFF;}
</style>
<g>
	<g id="Gruppe_24892" transform="translate(5229.713 416.42)">
		<g id="Gruppe_24889" transform="translate(0 0)">
			<path id="Pfad_67475" class="st0" d="M-5081.3-377.7c5.7,0,11.8,0.8,17.1,6c3.8,3.7,6.3,8.8,6.3,15.6c0,6.8-2.3,11.8-5.9,15.4
				c-6,6.1-13.5,6.5-17.1,6.5h-14.1v-43.4L-5081.3-377.7L-5081.3-377.7z M-5085-342.7h2.7c2.1,0,6.6-0.2,9.9-2.9
				c2.3-2,4.2-5.7,4.2-10.5c0.1-3.5-1.2-6.9-3.6-9.4c-3.3-3.3-7.5-3.7-10.6-3.7h-2.7L-5085-342.7L-5085-342.7z"/>
			<path id="Pfad_67476" class="st0" d="M-5030.2-369.2h-14.5v8.4h11.8v8.5h-11.8v9.6h14.5v8.5h-24.6v-43.4h24.6V-369.2z"/>
		</g>
		<g id="Gruppe_24891" transform="translate(108.235 0)">
			<g id="Gruppe_24890">
				<path id="Pfad_67477" class="st0" d="M-5070.4-377.7h-24.6v9.1h9.1v34.3h10.7v-34.3h10.7L-5070.4-377.7z"/>
			</g>
		</g>
		<path id="Pfad_67478" class="st0" d="M-4986.8-377.7h-12.1l-9.6,13.4l-9.6-13.4h-12l15.7,21.7l-15.7,21.7h12l9.6-13.4l9.6,13.4
			h12.1l-15.7-21.7L-4986.8-377.7z"/>
	</g>
	<g>
		<path class="st0" d="M310,75.7c-4.3,4.1-10.3,6.2-16.6,6.2c-6.2,0-12.3-2.1-16.6-6.2c-4.5-4.3-6.6-10.2-6.6-15.7
			c0-5.6,2.1-11.5,6.6-15.8c4.3-4.1,10.3-6.2,16.6-6.2c6.2,0,12.3,2.1,16.6,6.2c4.5,4.2,6.6,10.2,6.6,15.8
			C316.6,65.6,314.5,71.5,310,75.7z M284.9,52c-2.3,2.2-3.3,5.3-3.3,8.3c0,3.7,1.8,6.3,3.3,7.8c2,2,4.9,3.3,8.5,3.3
			c3.7,0,6.5-1.3,8.5-3.3c2-2,3.4-4.9,3.4-8.1c0-3.3-1.4-6.2-3.4-8.1c-2.3-2.2-5.6-3.3-8.5-3.3C290.4,48.6,287.2,49.7,284.9,52z"/>
		<path class="st0" d="M356.9,75.7c-4.3,4.1-10.3,6.2-16.6,6.2c-6.2,0-12.3-2.1-16.6-6.2c-4.5-4.3-6.6-10.2-6.6-15.7
			c0-5.6,2.1-11.5,6.6-15.8c4.3-4.1,10.3-6.2,16.6-6.2c6.2,0,12.3,2.1,16.6,6.2c4.5,4.2,6.6,10.2,6.6,15.8
			C363.5,65.6,361.4,71.5,356.9,75.7z M331.8,52c-2.3,2.2-3.3,5.3-3.3,8.3c0,3.7,1.8,6.3,3.3,7.8c2,2,4.9,3.3,8.5,3.3
			c3.7,0,6.5-1.3,8.5-3.3c2-2,3.4-4.9,3.4-8.1c0-3.3-1.5-6.2-3.4-8.1c-2.3-2.2-5.6-3.3-8.5-3.3C337.3,48.6,334.1,49.7,331.8,52z"/>
		<path class="st0" d="M376.8,39v32.8h13.1V81h-24V39H376.8z"/>
		<path class="st0" d="M392.7,68.4c2.3,2.2,5.9,4.3,9.7,4.3c2.2,0,3.5-0.7,4.2-1.4c0.6-0.6,1.1-1.6,1.1-2.6c0-0.8-0.3-1.8-1.2-2.5
			c-1.1-0.9-2.7-1.4-5.4-2.2l-2.8-0.9c-1.8-0.6-4.4-1.5-6.1-3.4c-2.1-2.3-2.4-5.3-2.4-7.4c0-5.2,2-8.3,3.9-10.2
			c2.1-2.1,5.7-4,10.8-4c4.2,0,9,1.3,13,3.4l-4.4,8.5c-3.3-2.6-5.7-2.8-7.2-2.8c-1.1,0-2.5,0.3-3.6,1.3c-0.6,0.6-1.1,1.3-1.1,2.3
			c0,0.8,0.1,1.3,0.6,1.9c0.3,0.4,1.1,1.1,3.7,1.9l3.3,1c2.6,0.8,5.4,1.8,7.6,4.2c2.1,2.3,2.7,4.6,2.7,7.5c0,3.8-0.9,7.6-4,10.6
			c-3.6,3.6-7.9,4.3-12.4,4.3c-2.6,0-5.2-0.3-8.3-1.4c-0.7-0.3-3.3-1.3-6.4-3.3L392.7,68.4z"/>
	</g>
</g>
<g id="Gruppe_24888" transform="translate(5095.035 377.663)">
	<g id="Gruppe_24879" transform="translate(0 17.139)">
		<path id="Pfad_67466" class="st0" d="M-4990.5-351.9v-17.1l-104.6,51.4v17.1L-4990.5-351.9z"/>
		<g id="Gruppe_265" transform="translate(69.83)">
			<path id="Pfad_449" class="st0" d="M-5060.3-369.2l-17.2-8.4l-17.6,8.6l34.7,17.1L-5060.3-369.2z"/>
		</g>
		<g id="Gruppe_24878" transform="translate(0 60.004)">
			<path id="Pfad_67468" class="st0" d="M-5095-377.7v17.1l17.4,8.6l17.4-8.6L-5095-377.7z"/>
		</g>
	</g>
	<g id="Gruppe_24883" transform="translate(0 0)">
		<g id="Gruppe_266" transform="translate(0 17.143)">
			<path id="Pfad_450" class="st0" d="M-5095-369.1v40l17.4-8.6v-40L-5095-369.1z"/>
			<path id="Pfad_451" class="st0" d="M-5077.6-377.7l-17.4,8.6l40.7,20l17.4-8.6L-5077.6-377.7z"/>
		</g>
		<g id="Gruppe_267" transform="translate(29.046)">
			<path id="Pfad_452" class="st0" d="M-5077.6-357.7l5.8-2.9l5.8,2.8l17.5-8.6l-23.3-11.4l-23.2,11.4L-5077.6-357.7z"/>
		</g>
	</g>
	<g id="Gruppe_268" transform="translate(46.496 54.298)">
		<path id="Pfad_453" class="st0" d="M-5077.5-357.7l-17.5,8.6l40.6,20l17.4-8.6L-5077.5-357.7z"/>
		<path id="Pfad_454" class="st0" d="M-5037-377.7l-17.4,8.6v40l17.4-8.6L-5037-377.7z"/>
	</g>
	<g id="Gruppe_24887" transform="translate(29.047 99.999)">
		<path id="Pfad_67474" class="st0" d="M-5066-377.7l-5.8,2.9l-5.8-2.9l-17.4,8.6l23.2,11.4l23.2-11.4L-5066-377.7z"/>
	</g>
</g>
</svg>
