<?xml version="1.0" encoding="utf-8"?>
<!-- Generator: Adobe Illustrator 24.3.0, SVG Export Plug-In . SVG Version: 6.00 Build 0)  -->
<svg version="1.1" id="Capa_1" xmlns:serif="http://www.serif.com/"
	 xmlns="http://www.w3.org/2000/svg" xmlns:xlink="http://www.w3.org/1999/xlink" x="0px" y="0px" viewBox="0 0 40.2 11.2"
	 style="enable-background:new 0 0 40.2 11.2;" xml:space="preserve">
<style type="text/css">
	.st0{fill:#FFFFFF;}
	.st1{fill:#11C1E1;}
	.st2{fill-rule:evenodd;clip-rule:evenodd;fill:#11C1E1;}
</style>
<g id="Capa1">
</g>
<g id="B">
	<g>
		<path class="st0" d="M8.6,5.6C8.6,5.5,8.6,5.5,8.6,5.6L10,3c0,0,0,0,0,0L8.6,0.5l0,0c0,0,0-0.1,0.1-0.1h1.1c0.1,0,0.1,0,0.1,0.1
			L10.7,2c0,0,0,0,0,0l0.8-1.6c0,0,0.1-0.1,0.1-0.1h1.1c0,0,0.1,0,0.1,0c0,0,0,0,0,0.1L11.5,3c0,0,0,0,0,0l1.3,2.5c0,0,0,0,0,0
			c0,0,0,0.1-0.1,0.1h-1.1c0,0-0.1,0-0.1-0.1L10.7,4c0,0,0,0,0,0L9.9,5.5c0,0-0.1,0.1-0.1,0.1L8.6,5.6C8.6,5.6,8.6,5.6,8.6,5.6"/>
		<path class="st0" d="M17.1,1.4C17.1,1.4,17.1,1.4,17.1,1.4C17,1.4,17,1.5,17.1,1.4l-1.3,0.1c0,0,0,0,0,0v4c0,0,0,0,0,0.1
			c0,0,0,0-0.1,0h-1c0,0,0,0-0.1,0c0,0,0,0,0-0.1v-4c0,0,0,0,0,0h-1.2c0,0,0,0-0.1,0c0,0,0,0,0-0.1V0.5c0,0,0,0,0-0.1c0,0,0,0,0.1,0
			h3.1C16.4,0.4,17.1,1.4,17.1,1.4"/>
		<path class="st0" d="M22.5,1.4C22.5,1.4,22.5,1.4,22.5,1.4l-2.3,0c0,0,0,0,0,0v0.9c0,0,0,0,0,0h1.4c0,0,0,0,0.1,0c0,0,0,0,0,0.1
			v0.9c0,0,0,0,0,0.1c0,0,0,0-0.1,0h-1.4c0,0,0,0,0,0v2c0,0,0,0,0,0.1c0,0,0,0-0.1,0h-1c0,0,0,0-0.1,0c0,0,0,0,0-0.1v-5
			c0,0,0,0,0-0.1c0,0,0,0,0.1,0h3.4c0,0,0,0,0.1,0c0,0,0,0,0,0.1L22.5,1.4C22.5,1.4,22.5,1.4,22.5,1.4"/>
		<path class="st0" d="M25.4,4.4c0.1-0.2,0.2-0.4,0.2-0.6V2.2c0-0.3-0.1-0.5-0.2-0.6c-0.1-0.2-0.3-0.2-0.6-0.2
			c-0.2,0-0.4,0.1-0.5,0.2c-0.1,0.2-0.2,0.4-0.2,0.6v1.5c0,0.3,0.1,0.5,0.2,0.6c0.1,0.2,0.3,0.2,0.5,0.2C25.1,4.6,25.2,4.5,25.4,4.4
			 M23.8,5.4c-0.3-0.2-0.5-0.4-0.7-0.7c-0.2-0.3-0.2-0.6-0.2-1V2.2c0-0.4,0.1-0.7,0.2-1c0.2-0.3,0.4-0.5,0.7-0.7
			c0.3-0.2,0.6-0.2,1-0.2c0.4,0,0.7,0.1,1,0.2c0.3,0.2,0.5,0.4,0.7,0.7c0.2,0.3,0.2,0.6,0.2,1v1.5c0,0.4-0.1,0.7-0.2,1
			c-0.2,0.3-0.4,0.5-0.7,0.7c-0.3,0.2-0.6,0.2-1,0.2C24.4,5.7,24.1,5.6,23.8,5.4"/>
		<path class="st0" d="M28.6,1.5v1.1c0,0,0,0,0,0h0.8c0.2,0,0.3-0.1,0.4-0.2C29.9,2.3,30,2.2,30,2c0-0.2-0.1-0.3-0.2-0.4
			c-0.1-0.1-0.3-0.2-0.4-0.2L28.6,1.5C28.6,1.4,28.6,1.5,28.6,1.5 M30,5.5l-0.8-2c0,0,0,0,0,0h-0.5c0,0,0,0,0,0v1.9c0,0,0,0,0,0.1
			c0,0,0,0-0.1,0h-1c0,0,0,0-0.1,0c0,0,0,0,0-0.1v-5c0,0,0,0,0-0.1c0,0,0,0,0.1,0h2.1c0.3,0,0.6,0.1,0.8,0.2
			c0.2,0.1,0.4,0.3,0.6,0.6c0.1,0.2,0.2,0.5,0.2,0.8c0,0.3-0.1,0.6-0.2,0.9c-0.2,0.2-0.4,0.4-0.7,0.5c0,0,0,0,0,0.1l0.9,2
			c0,0,0,0,0,0c0,0,0,0.1-0.1,0.1h-1.1C30,5.6,30,5.6,30,5.5"/>
		<path class="st0" d="M32.6,5.4c-0.3-0.2-0.5-0.4-0.7-0.7c-0.2-0.3-0.2-0.6-0.2-1V2.2c0-0.4,0.1-0.7,0.2-1c0.2-0.3,0.4-0.5,0.7-0.6
			c0.3-0.2,0.6-0.2,1-0.2c0.4,0,0.7,0.1,1,0.2c0.3,0.1,0.5,0.4,0.7,0.6c0.2,0.3,0.2,0.6,0.2,0.9c0,0,0,0,0,0.1c0,0,0,0-0.1,0l-1,0.1
			c-0.1,0-0.1,0-0.1-0.1c0-0.2-0.1-0.4-0.2-0.6c-0.1-0.1-0.3-0.2-0.5-0.2c-0.2,0-0.4,0.1-0.5,0.2c-0.1,0.1-0.2,0.3-0.2,0.6v1.7
			c0,0.2,0.1,0.4,0.2,0.5c0.1,0.1,0.3,0.2,0.5,0.2c0.2,0,0.4-0.1,0.5-0.2c0.1-0.1,0.2-0.3,0.2-0.5c0-0.1,0-0.1,0.1-0.1l1,0.1
			c0,0,0,0,0.1,0c0,0,0,0,0,0.1c0,0.4-0.1,0.7-0.2,0.9c-0.2,0.3-0.4,0.5-0.7,0.6c-0.3,0.1-0.6,0.2-1,0.2C33.2,5.6,32.9,5.6,32.6,5.4
			"/>
		<path class="st0" d="M39.6,1.4C39.6,1.4,39.6,1.4,39.6,1.4l-2.3,0c0,0,0,0,0,0v0.9c0,0,0,0,0,0h1.4c0,0,0,0,0.1,0c0,0,0,0,0,0.1
			v0.9c0,0,0,0,0,0.1c0,0,0,0-0.1,0h-1.4c0,0,0,0,0,0v1c0,0,0,0,0,0h2.2c0,0,0,0,0.1,0c0,0,0,0,0,0.1v0.9c0,0,0,0,0,0.1
			c0,0,0,0-0.1,0h-3.4c0,0,0,0-0.1,0c0,0,0,0,0-0.1v-5c0,0,0,0,0-0.1c0,0,0,0,0.1,0h3.4c0,0,0,0,0.1,0c0,0,0,0,0,0.1L39.6,1.4
			C39.7,1.4,39.7,1.4,39.6,1.4"/>
		<g id="recorte">
			<g>
				<g>
					<path class="st0" d="M4,3.5V4c0,0.3-0.1,0.6-0.2,0.9C3.6,5.1,3.4,5.3,3.1,5.4c-0.3,0.1-0.6,0.2-1,0.2H0.3c0,0,0,0-0.1,0
						c0,0,0,0,0-0.1V4.1l1.2-0.2v0.6c0,0,0,0,0,0h0.7c0.2,0,0.3-0.1,0.5-0.2C2.8,4.2,2.8,4,2.8,3.8V3.7C2.8,3.7,4,3.5,4,3.5z
						 M0.2,3.5v-3c0,0,0,0,0-0.1c0,0,0,0,0.1,0h1.8c0.4,0,0.7,0.1,1,0.2c0.3,0.1,0.5,0.3,0.7,0.6C3.9,1.4,4,1.7,4,2v0.7
						c-0.4,0-0.8,0.1-1.2,0.1V2.2c0-0.2-0.1-0.4-0.2-0.6C2.5,1.5,2.4,1.5,2.2,1.5H1.5c0,0,0,0,0,0v1.7C1,3.3,0.6,3.4,0.2,3.5z"/>
					<path class="st0" d="M4.6,2.7V0.5c0,0,0,0,0-0.1c0,0,0,0,0.1,0h3.4c0,0,0,0,0.1,0c0,0,0,0,0,0.1v0.9c0,0,0,0,0,0.1
						c0,0,0,0-0.1,0H5.9c0,0,0,0,0,0v0.9c0,0,0,0,0,0h1.4c0,0,0,0,0.1,0c0,0,0,0,0,0.1v0.9c0,0,0,0,0,0.1c0,0,0,0-0.1,0H5.9
						c0,0,0,0,0,0v1c0,0,0,0,0,0h2.2c0,0,0,0,0.1,0c0,0,0,0,0,0.1v0.9c0,0,0,0,0,0.1c0,0,0,0-0.1,0H4.7c0,0,0,0-0.1,0c0,0,0,0,0-0.1
						V3.4L6.9,3C6.1,2.8,5.4,2.7,4.6,2.7z"/>
				</g>
			</g>
		</g>
	</g>
	<g>
		<g>
			<g id="launcher">
				<path class="st1" d="M0.5,10.8h0.8V11H0.2V8.5h0.2C0.5,8.5,0.5,10.8,0.5,10.8z"/>
				<path class="st1" d="M16.7,11V8.5c0,0,0,0,0,0h0.1c0,0,0,0,0,0l0.8,2c0,0,0,0,0,0v-2c0,0,0,0,0,0h0.1c0,0,0,0,0,0V11
					c0,0,0,0,0,0h-0.1c0,0,0,0,0,0l-0.8-2c0,0,0,0,0,0l0,2c0,0,0,0,0,0L16.7,11C16.7,11,16.7,11,16.7,11"/>
				<path class="st1" d="M6.7,10.4H6L5.9,11H5.7l0.6-2.5h0.2L7,11H6.9C6.9,11,6.7,10.4,6.7,10.4z M6.7,10.2L6.4,8.8l-0.3,1.4
					C6.1,10.2,6.7,10.2,6.7,10.2z"/>
				<path class="st1" d="M11.2,10.3V8.5c0,0,0,0,0,0h0.1c0,0,0,0,0,0v1.8c0,0.3,0.2,0.5,0.4,0.5c0.2,0,0.4-0.2,0.4-0.5V8.5
					c0,0,0,0,0,0h0.1c0,0,0,0,0,0v1.8c0,0.4-0.2,0.7-0.6,0.7C11.4,11,11.2,10.7,11.2,10.3"/>
				<path class="st1" d="M22,9.7c0-0.2,0-0.5,0.1-0.7c0.1-0.2,0.2-0.3,0.3-0.5c0.1-0.1,0.2-0.2,0.4-0.2c0.2,0,0.3,0.1,0.5,0.2
					c0.1,0.1,0.2,0.3,0.3,0.6h-0.2c0-0.2-0.1-0.3-0.2-0.4c-0.1-0.1-0.2-0.1-0.3-0.1c-0.1,0-0.2,0-0.3,0.1c-0.1,0.1-0.2,0.2-0.2,0.4
					c-0.1,0.2-0.1,0.3-0.1,0.6c0,0.2,0,0.4,0.1,0.6c0.1,0.2,0.1,0.3,0.2,0.4c0.1,0.1,0.2,0.1,0.3,0.1c0.1,0,0.2,0,0.3-0.1
					c0.1-0.1,0.2-0.2,0.2-0.4h0.2c-0.1,0.2-0.1,0.4-0.3,0.6C23.1,11,22.9,11,22.7,11c-0.1,0-0.3-0.1-0.4-0.2
					c-0.1-0.1-0.2-0.3-0.3-0.4C22,10.2,22,10,22,9.7z"/>
				<path class="st1" d="M29,8.5V11h-0.2V9.8h-1V11h-0.2V8.5h0.2v1.1h1V8.5H29z"/>
				<path class="st1" d="M34.3,8.6h-0.8c0,0,0,0,0,0v1c0,0,0,0,0,0h0.5c0,0,0,0,0,0v0.1c0,0,0,0,0,0h-0.5c0,0,0,0,0,0v1c0,0,0,0,0,0
					h0.8c0,0,0,0,0,0V11c0,0,0,0,0,0h-1c0,0,0,0,0,0V8.5c0,0,0,0,0,0h1c0,0,0,0,0,0L34.3,8.6C34.3,8.6,34.3,8.6,34.3,8.6"/>
				<path class="st1" d="M38.7,8.7v1c0,0,0,0,0,0h0.4c0.2,0,0.4-0.2,0.4-0.5c0-0.3-0.2-0.5-0.4-0.5L38.7,8.7
					C38.7,8.6,38.7,8.7,38.7,8.7 M39.5,11l-0.4-1.2c0,0,0,0,0,0h-0.4c0,0,0,0,0,0V11c0,0,0,0,0,0h-0.1c0,0,0,0,0,0V8.5c0,0,0,0,0,0
					h0.6c0.3,0,0.6,0.3,0.6,0.7c0,0.3-0.2,0.6-0.4,0.6c0,0,0,0,0,0l0.4,1.2c0,0,0,0,0,0L39.5,11C39.5,11,39.5,11,39.5,11"/>
			</g>
		</g>
	</g>
	<g id="AZUL">
		<g>
			<g>
				<path class="st1" d="M19.2,7.6c0-0.1,0-0.2,0-0.3c0.1,0,0.2-0.1,0.3-0.1c0.3-0.2,0.7-0.3,1-0.5c0,0,0,0,0,0c0,0,0,0,0,0
					c-0.1,0-0.1-0.1-0.2-0.1c0,0,0,0,0.1,0c0.1,0,0.1-0.1,0.2-0.1c0,0,0,0,0,0c0.1,0,0.1,0.1,0.2,0.1c0,0,0,0,0,0c0,0.1,0,0.2,0,0.3
					c0,0,0,0,0,0C20.5,7,20.3,7.1,20,7.2c-0.2,0.1-0.4,0.2-0.6,0.3c0.1,0,0.1,0.1,0.2,0.1c0,0-0.1,0-0.1,0c-0.1,0-0.1,0.1-0.2,0.1
					c0,0,0,0,0,0C19.3,7.6,19.2,7.6,19.2,7.6"/>
				<path class="st1" d="M19.2,7.1V6.6c0.1,0,0.1-0.1,0.2-0.1c0,0,0,0,0,0c0.2,0.1,0.4,0.2,0.5,0.3c0,0,0,0,0,0c0,0-0.1,0-0.1,0
					c-0.1,0-0.1,0-0.2,0.1c0,0,0,0,0,0c-0.1,0-0.2-0.1-0.2-0.1c0,0,0,0,0,0c0,0,0,0,0,0c0,0.1,0,0.2,0,0.2c0,0,0,0,0,0
					C19.3,7,19.2,7,19.2,7.1"/>
				<path class="st1" d="M20.7,7.1C20.7,7.1,20.7,7.1,20.7,7.1c0,0.2,0,0.4,0,0.5c-0.1,0-0.2,0.1-0.2,0.1c0,0,0,0,0,0
					c-0.2-0.1-0.4-0.2-0.5-0.3c0,0,0,0,0,0c0,0,0.1,0,0.1,0c0.1,0,0.1,0,0.2-0.1c0,0,0,0,0,0c0.1,0,0.2,0.1,0.2,0.1c0,0,0,0,0,0
					c0,0,0,0,0,0c0-0.1,0-0.2,0-0.2c0,0,0,0,0,0C20.6,7.1,20.6,7.1,20.7,7.1"/>
				<path class="st1" d="M19.5,6.4c0.1-0.1,0.3-0.1,0.4-0.2c0,0,0,0,0,0c0.1,0.1,0.3,0.1,0.4,0.2c0,0,0,0,0,0c0,0,0,0,0,0
					c-0.1,0-0.2,0.1-0.3,0.1c0,0,0,0,0,0c0,0-0.1,0-0.1-0.1c0,0,0,0,0,0c0,0-0.1,0-0.1,0.1c0,0,0,0,0,0C19.7,6.4,19.6,6.4,19.5,6.4
					C19.5,6.4,19.5,6.4,19.5,6.4"/>
				<path class="st1" d="M19.5,7.8c0.1,0,0.2-0.1,0.2-0.1c0,0,0,0,0,0c0,0,0.1,0,0.1,0c0,0,0,0,0,0c0,0,0.1,0,0.1-0.1c0,0,0,0,0,0
					c0.1,0,0.2,0.1,0.2,0.1c0,0,0,0,0,0C20.2,7.8,20.1,7.9,20,8c0,0,0,0,0,0C19.8,7.9,19.7,7.8,19.5,7.8C19.5,7.8,19.5,7.8,19.5,7.8
					"/>
			</g>
			<rect x="0.2" y="7" class="st2" width="18.4" height="0.3"/>
			<rect x="21.3" y="7" class="st2" width="18.4" height="0.3"/>
		</g>
	</g>
</g>
</svg>
