<?xml version="1.0" encoding="utf-8"?>
<!-- Generator: Adobe Illustrator 24.3.0, SVG Export Plug-In . SVG Version: 6.00 Build 0)  -->
<svg version="1.1" id="Capa_1" xmlns="http://www.w3.org/2000/svg" xmlns:xlink="http://www.w3.org/1999/xlink" x="0px" y="0px"
	 viewBox="0 0 107.5 111.2" style="enable-background:new 0 0 107.5 111.2;" xml:space="preserve">
<style type="text/css">
	.st0{fill:#F5A907;}
	.st1{fill:#FDC439;}
	.st2{fill:#C09428;}
	.st3{fill-rule:evenodd;clip-rule:evenodd;fill:#CC9E36;}
</style>
<g>
	<g>
		<path class="st0" d="M68.7,59.1c0,0.1,0,0.2,0,0.4c0,0,0,0,0,0c0,0.1,0,0.3,0,0.4c0,0,0,0,0,0c0,0,0,0.1,0,0.1c0,0,0,0.1,0,0.1
			c0,0.1-0.1,0.2-0.1,0.4c0,0.1-0.1,0.3-0.1,0.4c0,0,0,0.1-0.1,0.1c0,0,0,0.1,0,0.1c0,0.1-0.1,0.2-0.2,0.3c-0.1,0.1-0.1,0.3-0.2,0.4
			c0,0.1-0.1,0.1-0.1,0.2c0,0,0,0.1-0.1,0.1c-0.1,0.1-0.1,0.2-0.2,0.3c-0.1,0.1-0.2,0.3-0.3,0.4c-0.1,0.1-0.1,0.2-0.2,0.2
			c0,0.1-0.1,0.1-0.1,0.2c0,0.1-0.1,0.1-0.2,0.2c-0.1,0.1-0.2,0.2-0.3,0.3c-0.2,0.2-0.4,0.4-0.5,0.5c-0.1,0.1-0.1,0.1-0.2,0.2
			c0,0-0.1,0.1-0.1,0.1c0,0-0.1,0.1-0.1,0.1c-0.2,0.1-0.3,0.3-0.5,0.4c-0.2,0.1-0.3,0.3-0.5,0.4c0,0-0.1,0.1-0.1,0.1
			c-0.2,0.1-0.4,0.3-0.6,0.4c-0.2,0.1-0.3,0.2-0.5,0.3c-0.1,0-0.2,0.1-0.2,0.1c-0.6,0.3-1.2,0.6-1.8,0.9c-0.2,0.1-0.4,0.2-0.5,0.2
			c-0.5,0.2-1,0.4-1.5,0.6c-0.1,0-0.2,0.1-0.3,0.1c-0.1,0-0.1,0-0.2,0.1c-0.3,0.1-0.6,0.2-0.9,0.3c-0.2,0.1-0.5,0.1-0.7,0.2
			c-0.3,0.1-0.7,0.2-1.1,0.2c-0.2,0-0.4,0.1-0.6,0.1c0,0-0.1,0-0.1,0c-0.7,0.1-1.4,0.2-2.1,0.3c-0.1,0-0.1,0-0.2,0
			c-0.2,0-0.3,0-0.5,0c-0.4,0-0.8,0.1-1.3,0.1c-0.1,0-0.2,0-0.3,0c-0.2,0-0.3,0-0.5,0c-0.3,0-0.7,0-1,0c-0.1,0-0.2,0-0.4,0
			c-0.2,0-0.3,0-0.5,0c-0.3,0-0.6,0-1-0.1c-0.1,0-0.3,0-0.4,0c-0.1,0-0.3,0-0.4-0.1c-0.3,0-0.6-0.1-0.9-0.1c-0.1,0-0.3,0-0.4,0
			c-0.1,0-0.3,0-0.4-0.1c-0.3-0.1-0.7-0.1-1-0.2c-0.2,0-0.3,0-0.5-0.1c-0.1,0-0.2-0.1-0.3-0.1c-0.4-0.1-0.8-0.2-1.2-0.3
			c-0.2,0-0.3-0.1-0.5-0.1c-0.1,0-0.1,0-0.2-0.1c-0.7-0.2-1.4-0.4-2-0.7c0,0-0.1,0-0.1,0c-0.3-0.1-0.6-0.2-0.9-0.4
			c-0.2-0.1-0.3-0.1-0.5-0.2c-0.5-0.2-0.9-0.5-1.4-0.7c-0.5-0.3-0.9-0.5-1.3-0.8c-0.1-0.1-0.2-0.1-0.3-0.2c-0.3-0.2-0.6-0.4-0.8-0.7
			c-0.1-0.1-0.2-0.2-0.3-0.3c-0.2-0.2-0.5-0.4-0.7-0.6c-0.1-0.1-0.2-0.2-0.3-0.3c-0.2-0.2-0.4-0.4-0.5-0.6c-0.1-0.1-0.2-0.3-0.2-0.4
			c-0.1-0.2-0.3-0.4-0.4-0.6c-0.1-0.1-0.1-0.3-0.2-0.4c-0.1-0.2-0.2-0.4-0.2-0.6c0-0.1-0.1-0.3-0.1-0.5c-0.1-0.2-0.1-0.4-0.1-0.6
			c0-0.2,0-0.3,0-0.5c0-0.2,0-0.4,0-0.6c0,0,0,0,0,0l0,3.8c0,2.8,1.8,5.6,5.5,7.7c0.4,0.3,0.9,0.5,1.4,0.7c0.2,0.1,0.3,0.1,0.5,0.2
			c0.3,0.1,0.5,0.2,0.8,0.3c0,0,0.1,0,0.1,0c0.6,0.3,1.3,0.5,2,0.7c0.1,0,0.1,0,0.2,0c0.2,0,0.3,0.1,0.5,0.1
			c0.4,0.1,0.8,0.2,1.2,0.3c0.1,0,0.2,0,0.3,0.1c0.2,0,0.3,0.1,0.5,0.1c0.3,0.1,0.7,0.1,1,0.2c0.1,0,0.3,0,0.4,0.1
			c0.1,0,0.3,0,0.4,0.1c0.3,0,0.6,0.1,0.9,0.1c0.1,0,0.3,0,0.4,0c0.1,0,0.3,0,0.4,0c0.3,0,0.6,0,0.9,0c0.2,0,0.3,0,0.5,0
			c0.1,0,0.3,0,0.4,0c0.3,0,0.7,0,1,0c0.2,0,0.3,0,0.5,0c0.1,0,0.2,0,0.3,0c0.4,0,0.9,0,1.3-0.1c0.2,0,0.3,0,0.5,0c0,0,0.1,0,0.2,0
			c0.7-0.1,1.4-0.2,2.1-0.3c0,0,0.1,0,0.1,0c0.2,0,0.4-0.1,0.6-0.1c0.3-0.1,0.7-0.1,1-0.2c0.2-0.1,0.5-0.1,0.7-0.2
			c0.3-0.1,0.7-0.2,1-0.3c0.1,0,0.1,0,0.2-0.1c0.1,0,0.2-0.1,0.3-0.1c0.5-0.2,1-0.4,1.5-0.6c0.2-0.1,0.4-0.1,0.5-0.2
			c0.6-0.3,1.2-0.6,1.8-0.9c0.1,0,0.1-0.1,0.2-0.1c0.2-0.1,0.3-0.2,0.5-0.3c0.2-0.1,0.5-0.3,0.7-0.4c0.2-0.1,0.4-0.3,0.5-0.4
			c0.2-0.2,0.4-0.3,0.6-0.5c0,0,0.1-0.1,0.1-0.1c0.1-0.1,0.1-0.1,0.2-0.2c0.3-0.3,0.5-0.6,0.8-0.8c0.1-0.1,0.1-0.1,0.2-0.2
			c0-0.1,0.1-0.1,0.1-0.2c0.2-0.2,0.3-0.4,0.4-0.6c0.1-0.1,0.1-0.2,0.2-0.3c0,0,0-0.1,0.1-0.1c0.1-0.2,0.2-0.4,0.3-0.6
			c0.1-0.1,0.1-0.3,0.2-0.4c0,0,0-0.1,0-0.1c0.1-0.2,0.1-0.4,0.2-0.5c0-0.2,0.1-0.3,0.1-0.5c0,0,0,0,0,0c0-0.2,0-0.4,0.1-0.6
			c0-0.2,0-0.4,0-0.6c0,0,0,0,0,0l0-3.8C68.7,59,68.7,59.1,68.7,59.1z"/>
		<path class="st1" d="M31.4,59.5c0,0.2,0,0.3,0,0.5c0,0.2,0.1,0.4,0.1,0.6c0,0.2,0.1,0.3,0.1,0.5c0.1,0.2,0.2,0.4,0.2,0.6
			c0.1,0.1,0.1,0.3,0.2,0.4c0.1,0.2,0.2,0.4,0.4,0.6c0.1,0.1,0.1,0.3,0.2,0.4c0.1,0.2,0.3,0.4,0.5,0.6c0.1,0.1,0.2,0.2,0.3,0.3
			c0.2,0.2,0.4,0.4,0.7,0.6c0.1,0.1,0.2,0.2,0.3,0.3c0.3,0.2,0.5,0.4,0.8,0.7c0.1,0.1,0.2,0.1,0.3,0.2c0.4,0.3,0.8,0.6,1.3,0.8
			c0.4,0.3,0.9,0.5,1.4,0.7c0.1,0.1,0.3,0.1,0.5,0.2c0.3,0.1,0.6,0.3,1,0.4c0.6,0.3,1.3,0.5,2,0.7c0.2,0.1,0.4,0.1,0.7,0.2
			c0.4,0.1,0.8,0.2,1.2,0.3c0.3,0.1,0.5,0.1,0.8,0.2c0.3,0.1,0.7,0.1,1,0.2c0.3,0,0.6,0.1,0.8,0.1c0.3,0,0.6,0.1,0.9,0.1
			c0.3,0,0.6,0.1,0.9,0.1c0.3,0,0.6,0,1,0.1c0.3,0,0.6,0,0.8,0c0.3,0,0.7,0,1,0c0.3,0,0.5,0,0.8,0c0.4,0,0.8,0,1.3-0.1
			c0.2,0,0.4,0,0.7-0.1c0.7-0.1,1.4-0.2,2.1-0.3c0.2,0,0.4-0.1,0.7-0.1c0.4-0.1,0.7-0.1,1.1-0.2c0.3-0.1,0.5-0.1,0.7-0.2
			c0.3-0.1,0.6-0.2,0.9-0.3c0.2-0.1,0.4-0.1,0.6-0.2c0.5-0.2,1-0.4,1.5-0.6c0.2-0.1,0.4-0.1,0.5-0.2c0.6-0.3,1.2-0.6,1.8-0.9
			c0.5-0.3,0.9-0.5,1.3-0.8c0,0,0.1-0.1,0.1-0.1c0.4-0.3,0.7-0.5,1-0.8c0,0,0.1-0.1,0.1-0.1c0.3-0.3,0.6-0.5,0.8-0.8
			c0.1-0.1,0.2-0.2,0.3-0.3c0.2-0.2,0.3-0.4,0.5-0.6c0.1-0.1,0.2-0.3,0.3-0.4c0.1-0.2,0.2-0.4,0.3-0.6c0.1-0.1,0.1-0.3,0.2-0.4
			c0.1-0.2,0.2-0.4,0.2-0.6c0-0.1,0.1-0.3,0.1-0.4c0.1-0.2,0.1-0.4,0.1-0.6c0,0,0,0,0,0c0.5-3.1-1.3-6.3-5.4-8.7
			c-2.7-1.6-6.1-2.6-9.7-3c-2.2-0.2-4.4-0.3-6.6,0c-0.2,0-0.4,0-0.6,0c0,0-0.1,0-0.1,0c-3.5,0.4-6.8,1.4-9.5,3
			c-1.5,0.9-2.7,1.9-3.6,3c-1.2,1.5-1.8,3-1.8,4.6C31.3,59.1,31.4,59.3,31.4,59.5z M41.7,60.3c0-0.4,0.1-0.8,0.4-1.2
			c0.2-0.3,0.6-0.6,1.1-1l2.4,1.4c-0.5,0.3-0.7,0.6-0.7,1c0,0.3,0.3,0.6,0.7,0.9l0.1,0.1c0.5,0.3,1,0.4,1.6,0.4
			c0.6,0,1.2-0.1,1.6-0.4c0.5-0.3,0.8-0.7,0.7-1.1c0-0.3-0.2-0.6-0.6-1.1c-0.1-0.1-0.2-0.2-0.3-0.3c-0.2-0.2-0.3-0.3-0.3-0.4
			c-0.3-0.4-0.5-0.6-0.6-0.9c-0.2-0.5-0.2-0.9,0.1-1.4c0.2-0.5,0.7-0.9,1.3-1.2c0.6-0.4,1.4-0.6,2.3-0.7c0.9-0.1,1.8-0.1,2.6,0
			c0.4,0.1,0.8,0.2,1.2,0.3l0,0l2.2-1.3l0.9,0.5l1.1,0.6l-2.1,1.2c0.2,0.2,0.4,0.4,0.5,0.7c0.3,0.5,0.3,1,0.1,1.5
			c-0.2,0.5-0.7,1-1.3,1.4L54.4,58c0.4-0.3,0.5-0.5,0.5-0.8c0-0.3-0.2-0.5-0.6-0.7l0,0c-0.4-0.2-0.8-0.3-1.3-0.3
			c-0.5,0-0.9,0.1-1.3,0.3c-0.4,0.2-0.6,0.5-0.6,0.7c0,0.2,0.2,0.5,0.4,0.9c0.1,0.1,0.1,0.2,0.2,0.2l0.4,0.4c0.6,0.7,0.9,1.2,1,1.7
			c0.2,0.9-0.3,1.7-1.5,2.4c-0.7,0.4-1.6,0.7-2.6,0.9c-1,0.1-2,0.1-2.9,0c-0.5-0.1-1-0.2-1.4-0.3l-2.1,1.2l-1.1-0.6l-0.9-0.5
			l2.1-1.2C42,61.6,41.7,61,41.7,60.3z"/>
		<path class="st2" d="M41.4,63.9l1.1,0.6l2.1-1.2c0.4,0.1,0.9,0.3,1.4,0.3c1,0.2,2,0.2,2.9,0c1-0.2,1.8-0.4,2.6-0.9
			c1.2-0.7,1.6-1.5,1.5-2.4c-0.1-0.5-0.4-1-1-1.7l-0.4-0.4c-0.1-0.1-0.1-0.2-0.2-0.2c-0.3-0.4-0.4-0.6-0.4-0.9
			c0-0.3,0.2-0.5,0.6-0.7c0.4-0.2,0.8-0.3,1.3-0.3c0.5,0,0.9,0.1,1.3,0.3l0,0c0.4,0.2,0.6,0.5,0.6,0.7c0,0.3-0.2,0.5-0.5,0.8
			l2.4,1.4c0.7-0.4,1.1-0.9,1.3-1.4c0.2-0.5,0.2-1-0.1-1.5c-0.1-0.2-0.3-0.5-0.5-0.7l2.1-1.2L58.6,54l-0.9-0.5l-2.2,1.3l0,0
			c-0.4-0.1-0.8-0.2-1.2-0.3c-0.9-0.1-1.8-0.2-2.6,0c-0.9,0.1-1.6,0.4-2.3,0.7c-0.6,0.3-1,0.8-1.3,1.2c-0.2,0.5-0.3,1-0.1,1.4
			c0.1,0.2,0.3,0.5,0.6,0.9c0,0,0.2,0.2,0.3,0.4c0.1,0.1,0.2,0.2,0.3,0.3c0.3,0.4,0.5,0.8,0.6,1.1c0.1,0.4-0.2,0.8-0.7,1.1
			c-0.5,0.3-1,0.4-1.6,0.4c-0.6,0-1.2-0.1-1.6-0.4l-0.1-0.1c-0.4-0.3-0.7-0.6-0.7-0.9c0-0.3,0.2-0.7,0.7-1l-2.4-1.4
			c-0.6,0.3-0.9,0.7-1.1,1c-0.3,0.4-0.4,0.8-0.4,1.2c0,0.7,0.3,1.3,0.9,1.8l-2.1,1.2L41.4,63.9z"/>
	</g>
	<g>
		<path class="st0" d="M68.7,54.2c0,0.1,0,0.2,0,0.4c0,0,0,0,0,0.1c0,0.1,0,0.3,0,0.4c0,0,0,0,0,0c0,0,0,0.1,0,0.1c0,0,0,0.1,0,0.1
			c0,0.1-0.1,0.2-0.1,0.4c0,0.1-0.1,0.3-0.1,0.4c0,0,0,0.1-0.1,0.1c0,0,0,0.1,0,0.1c0,0.1-0.1,0.2-0.2,0.3c-0.1,0.1-0.1,0.3-0.2,0.4
			c0,0.1-0.1,0.1-0.1,0.2c0,0,0,0.1-0.1,0.1c-0.1,0.1-0.1,0.2-0.2,0.3c-0.1,0.1-0.2,0.3-0.3,0.4c-0.1,0.1-0.1,0.2-0.2,0.2
			c0,0.1-0.1,0.1-0.1,0.2c0,0.1-0.1,0.1-0.2,0.2c-0.1,0.1-0.2,0.2-0.3,0.3c-0.2,0.2-0.4,0.4-0.5,0.5c-0.1,0.1-0.1,0.1-0.2,0.2
			c0,0-0.1,0.1-0.1,0.1c0,0-0.1,0.1-0.1,0.1c-0.2,0.1-0.3,0.3-0.5,0.4c-0.2,0.1-0.3,0.3-0.5,0.4c0,0-0.1,0.1-0.1,0.1
			c-0.2,0.1-0.4,0.3-0.6,0.4c-0.2,0.1-0.3,0.2-0.5,0.3c-0.1,0-0.2,0.1-0.2,0.1c-0.6,0.3-1.2,0.6-1.8,0.9c-0.2,0.1-0.4,0.2-0.5,0.2
			c-0.5,0.2-1,0.4-1.5,0.6c-0.1,0-0.2,0.1-0.3,0.1c-0.1,0-0.1,0-0.2,0.1c-0.3,0.1-0.6,0.2-0.9,0.3c-0.2,0.1-0.5,0.1-0.7,0.2
			c-0.3,0.1-0.7,0.2-1.1,0.2c-0.2,0-0.4,0.1-0.6,0.1c0,0-0.1,0-0.1,0c-0.7,0.1-1.4,0.2-2.1,0.3c-0.1,0-0.1,0-0.2,0
			c-0.2,0-0.3,0-0.5,0c-0.4,0-0.8,0.1-1.3,0.1c-0.1,0-0.2,0-0.3,0c-0.2,0-0.3,0-0.5,0c-0.3,0-0.7,0-1,0c-0.1,0-0.2,0-0.4,0
			c-0.2,0-0.3,0-0.5,0c-0.3,0-0.6,0-1-0.1c-0.1,0-0.3,0-0.4,0c-0.1,0-0.3,0-0.4-0.1c-0.3,0-0.6-0.1-0.9-0.1c-0.1,0-0.3,0-0.4,0
			c-0.1,0-0.3,0-0.4-0.1c-0.3-0.1-0.7-0.1-1-0.2c-0.2,0-0.3-0.1-0.5-0.1c-0.1,0-0.2-0.1-0.3-0.1c-0.4-0.1-0.8-0.2-1.2-0.3
			c-0.2,0-0.3-0.1-0.5-0.1c-0.1,0-0.1,0-0.2-0.1c-0.7-0.2-1.4-0.4-2-0.7c0,0-0.1,0-0.1,0c-0.3-0.1-0.6-0.2-0.9-0.4
			c-0.2-0.1-0.3-0.1-0.5-0.2c-0.5-0.2-0.9-0.5-1.4-0.7c-0.5-0.3-0.9-0.5-1.3-0.8c-0.1-0.1-0.2-0.1-0.3-0.2c-0.3-0.2-0.6-0.4-0.8-0.7
			c-0.1-0.1-0.2-0.2-0.3-0.3c-0.2-0.2-0.5-0.4-0.7-0.6c-0.1-0.1-0.2-0.2-0.3-0.3c-0.2-0.2-0.4-0.4-0.5-0.6c-0.1-0.1-0.2-0.3-0.2-0.4
			c-0.1-0.2-0.3-0.4-0.4-0.6c-0.1-0.1-0.1-0.3-0.2-0.4c-0.1-0.2-0.2-0.4-0.2-0.6c0-0.1-0.1-0.3-0.1-0.5c-0.1-0.2-0.1-0.4-0.1-0.6
			c0-0.2,0-0.3,0-0.5c0-0.2,0-0.4,0-0.6c0,0,0,0,0,0l0,3.8c0,2.8,1.8,5.6,5.5,7.7c0.4,0.3,0.9,0.5,1.4,0.7c0.2,0.1,0.3,0.1,0.5,0.2
			c0.3,0.1,0.5,0.2,0.8,0.3c0,0,0.1,0,0.1,0c0.6,0.3,1.3,0.5,2,0.7c0.1,0,0.1,0,0.2,0c0.2,0,0.3,0.1,0.5,0.1
			c0.4,0.1,0.8,0.2,1.2,0.3c0.1,0,0.2,0,0.3,0.1c0.2,0,0.3,0.1,0.5,0.1c0.3,0.1,0.7,0.1,1,0.2c0.1,0,0.3,0,0.4,0.1
			c0.1,0,0.3,0,0.4,0.1c0.3,0,0.6,0.1,0.9,0.1c0.1,0,0.3,0,0.4,0c0.1,0,0.3,0,0.4,0c0.3,0,0.6,0,0.9,0.1c0.2,0,0.3,0,0.5,0
			c0.1,0,0.3,0,0.4,0c0.3,0,0.7,0,1,0c0.2,0,0.3,0,0.5,0c0.1,0,0.2,0,0.3,0c0.4,0,0.9,0,1.3-0.1c0.2,0,0.3,0,0.5,0c0,0,0.1,0,0.2,0
			c0.7-0.1,1.4-0.2,2.1-0.3c0,0,0.1,0,0.1,0c0.2,0,0.4-0.1,0.6-0.1c0.3-0.1,0.7-0.1,1-0.2c0.2-0.1,0.5-0.1,0.7-0.2
			c0.3-0.1,0.7-0.2,1-0.3c0.1,0,0.1,0,0.2-0.1c0.1,0,0.2-0.1,0.3-0.1c0.5-0.2,1-0.4,1.5-0.6c0.2-0.1,0.4-0.1,0.5-0.2
			c0.6-0.3,1.2-0.6,1.8-0.9c0.1,0,0.1-0.1,0.2-0.1c0.2-0.1,0.3-0.2,0.5-0.3c0.2-0.1,0.5-0.3,0.7-0.4c0.2-0.1,0.4-0.3,0.5-0.4
			c0.2-0.2,0.4-0.3,0.6-0.5c0,0,0.1-0.1,0.1-0.1c0.1-0.1,0.1-0.1,0.2-0.2c0.3-0.3,0.5-0.6,0.8-0.8c0.1-0.1,0.1-0.1,0.2-0.2
			c0-0.1,0.1-0.1,0.1-0.2c0.2-0.2,0.3-0.4,0.4-0.6c0.1-0.1,0.1-0.2,0.2-0.3c0,0,0-0.1,0.1-0.1c0.1-0.2,0.2-0.4,0.3-0.6
			c0.1-0.1,0.1-0.3,0.2-0.4c0,0,0-0.1,0-0.1c0.1-0.2,0.1-0.4,0.2-0.5c0-0.2,0.1-0.3,0.1-0.5c0,0,0,0,0,0c0-0.2,0-0.4,0.1-0.6
			c0-0.2,0-0.4,0-0.6c0,0,0,0,0,0l0-3.8C68.7,54.1,68.7,54.1,68.7,54.2z"/>
		<path class="st1" d="M31.4,54.5c0,0.2,0,0.3,0,0.5c0,0.2,0.1,0.4,0.1,0.6c0,0.2,0.1,0.3,0.1,0.5c0.1,0.2,0.2,0.4,0.2,0.6
			c0.1,0.1,0.1,0.3,0.2,0.4c0.1,0.2,0.2,0.4,0.4,0.6c0.1,0.1,0.1,0.3,0.2,0.4c0.1,0.2,0.3,0.4,0.5,0.6c0.1,0.1,0.2,0.2,0.3,0.3
			c0.2,0.2,0.4,0.4,0.7,0.6c0.1,0.1,0.2,0.2,0.3,0.3c0.3,0.2,0.5,0.4,0.8,0.7c0.1,0.1,0.2,0.1,0.3,0.2c0.4,0.3,0.8,0.6,1.3,0.8
			c0.4,0.3,0.9,0.5,1.4,0.7c0.1,0.1,0.3,0.1,0.5,0.2c0.3,0.1,0.6,0.3,1,0.4c0.6,0.3,1.3,0.5,2,0.7c0.2,0.1,0.4,0.1,0.7,0.2
			c0.4,0.1,0.8,0.2,1.2,0.3c0.3,0.1,0.5,0.1,0.8,0.2c0.3,0.1,0.7,0.1,1,0.2c0.3,0,0.6,0.1,0.8,0.1c0.3,0,0.6,0.1,0.9,0.1
			c0.3,0,0.6,0.1,0.9,0.1c0.3,0,0.6,0,1,0.1c0.3,0,0.6,0,0.8,0c0.3,0,0.7,0,1,0c0.3,0,0.5,0,0.8,0c0.4,0,0.8,0,1.3-0.1
			c0.2,0,0.4,0,0.7-0.1c0.7-0.1,1.4-0.2,2.1-0.3c0.2,0,0.4-0.1,0.7-0.1c0.4-0.1,0.7-0.1,1.1-0.2c0.3-0.1,0.5-0.1,0.7-0.2
			c0.3-0.1,0.6-0.2,0.9-0.3c0.2-0.1,0.4-0.1,0.6-0.2c0.5-0.2,1-0.4,1.5-0.6c0.2-0.1,0.4-0.2,0.5-0.2c0.6-0.3,1.2-0.6,1.8-0.9
			c0.5-0.3,0.9-0.5,1.3-0.8c0,0,0.1-0.1,0.1-0.1c0.4-0.3,0.7-0.5,1-0.8c0,0,0.1-0.1,0.1-0.1c0.3-0.3,0.6-0.5,0.8-0.8
			c0.1-0.1,0.2-0.2,0.3-0.3c0.2-0.2,0.3-0.4,0.5-0.6c0.1-0.1,0.2-0.3,0.3-0.4c0.1-0.2,0.2-0.4,0.3-0.6c0.1-0.1,0.1-0.3,0.2-0.4
			c0.1-0.2,0.2-0.4,0.2-0.6c0-0.1,0.1-0.3,0.1-0.4c0.1-0.2,0.1-0.4,0.1-0.6c0,0,0,0,0,0c0.5-3.1-1.3-6.3-5.4-8.7
			c-2.7-1.6-6.1-2.6-9.7-3c-2.2-0.2-4.4-0.3-6.6,0c-0.2,0-0.4,0-0.6,0c0,0-0.1,0-0.1,0c-3.5,0.4-6.8,1.4-9.5,3
			c-1.5,0.9-2.7,1.9-3.6,3c-1.2,1.5-1.8,3-1.8,4.6C31.3,54.1,31.4,54.3,31.4,54.5z M41.7,55.3c0-0.4,0.1-0.8,0.4-1.2
			c0.2-0.3,0.6-0.6,1.1-1l2.4,1.4c-0.5,0.3-0.7,0.6-0.7,1c0,0.3,0.3,0.6,0.7,0.9l0.1,0.1c0.5,0.3,1,0.4,1.6,0.4
			c0.6,0,1.2-0.1,1.6-0.4c0.5-0.3,0.8-0.7,0.7-1.1c0-0.3-0.2-0.6-0.6-1c-0.1-0.1-0.2-0.2-0.3-0.3c-0.2-0.2-0.3-0.3-0.3-0.4
			c-0.3-0.4-0.5-0.6-0.6-0.9c-0.2-0.5-0.2-0.9,0.1-1.4c0.2-0.5,0.7-0.9,1.3-1.2c0.6-0.4,1.4-0.6,2.3-0.7c0.9-0.1,1.8-0.1,2.6,0
			c0.4,0.1,0.8,0.2,1.2,0.3l0,0l2.2-1.3l0.9,0.5l1.1,0.6l-2.1,1.2c0.2,0.2,0.4,0.4,0.5,0.7c0.3,0.5,0.3,1,0.1,1.5
			c-0.2,0.5-0.7,1-1.3,1.4L54.4,53c0.4-0.3,0.5-0.5,0.5-0.8c0-0.3-0.2-0.5-0.6-0.7l0,0c-0.4-0.2-0.8-0.3-1.3-0.3
			c-0.5,0-0.9,0.1-1.3,0.4c-0.4,0.2-0.6,0.5-0.6,0.7c0,0.2,0.2,0.5,0.4,0.9c0.1,0.1,0.1,0.2,0.2,0.2l0.4,0.4c0.6,0.7,0.9,1.2,1,1.7
			c0.2,0.9-0.3,1.7-1.5,2.4c-0.7,0.4-1.6,0.7-2.6,0.9c-1,0.1-2,0.1-2.9,0c-0.5-0.1-1-0.2-1.4-0.3l-2.1,1.2l-1.1-0.6l-0.9-0.5
			l2.1-1.2C42,56.6,41.7,56,41.7,55.3z"/>
		<path class="st2" d="M41.4,58.9l1.1,0.6l2.1-1.2c0.4,0.1,0.9,0.3,1.4,0.3c1,0.2,2,0.2,2.9,0c1-0.2,1.8-0.4,2.6-0.9
			c1.2-0.7,1.6-1.5,1.5-2.4c-0.1-0.5-0.4-1-1-1.7l-0.4-0.4c-0.1-0.1-0.1-0.2-0.2-0.2c-0.3-0.4-0.4-0.6-0.4-0.9
			c0-0.3,0.2-0.5,0.6-0.7c0.4-0.2,0.8-0.3,1.3-0.4c0.5,0,0.9,0.1,1.3,0.3l0,0c0.4,0.2,0.6,0.5,0.6,0.7c0,0.3-0.2,0.6-0.5,0.8
			l2.4,1.4c0.7-0.4,1.1-0.9,1.3-1.4c0.2-0.5,0.2-1-0.1-1.5c-0.1-0.2-0.3-0.5-0.5-0.7l2.1-1.2L58.6,49l-0.9-0.5l-2.2,1.3l0,0
			c-0.4-0.1-0.8-0.2-1.2-0.3c-0.9-0.1-1.8-0.2-2.6,0c-0.9,0.1-1.6,0.4-2.3,0.7c-0.6,0.3-1,0.8-1.3,1.2c-0.2,0.5-0.3,1-0.1,1.4
			c0.1,0.2,0.3,0.5,0.6,0.9c0,0,0.2,0.2,0.3,0.4c0.1,0.1,0.2,0.2,0.3,0.3c0.3,0.4,0.5,0.8,0.6,1c0.1,0.4-0.2,0.8-0.7,1.1
			c-0.5,0.3-1,0.4-1.6,0.4c-0.6,0-1.2-0.1-1.6-0.4l-0.1-0.1c-0.4-0.3-0.7-0.6-0.7-0.9c0-0.3,0.2-0.7,0.7-1l-2.4-1.4
			c-0.6,0.3-0.9,0.7-1.1,1c-0.3,0.4-0.4,0.8-0.4,1.2c0,0.7,0.3,1.3,0.9,1.8l-2.1,1.2L41.4,58.9z"/>
	</g>
	<g>
		<path class="st0" d="M68.7,49.2c0,0.1,0,0.2,0,0.4c0,0,0,0,0,0c0,0.1,0,0.3,0,0.4c0,0,0,0,0,0c0,0,0,0.1,0,0.1c0,0,0,0.1,0,0.1
			c0,0.1-0.1,0.2-0.1,0.4c0,0.1-0.1,0.3-0.1,0.4c0,0,0,0.1-0.1,0.1c0,0,0,0.1,0,0.1c0,0.1-0.1,0.2-0.2,0.3c-0.1,0.1-0.1,0.3-0.2,0.4
			c0,0.1-0.1,0.1-0.1,0.2c0,0,0,0.1-0.1,0.1c-0.1,0.1-0.1,0.2-0.2,0.3c-0.1,0.1-0.2,0.3-0.3,0.4c-0.1,0.1-0.1,0.2-0.2,0.2
			c0,0.1-0.1,0.1-0.1,0.2c0,0.1-0.1,0.1-0.2,0.2c-0.1,0.1-0.2,0.2-0.3,0.3c-0.2,0.2-0.4,0.4-0.5,0.5c-0.1,0.1-0.1,0.1-0.2,0.2
			c0,0-0.1,0.1-0.1,0.1c0,0-0.1,0.1-0.1,0.1c-0.2,0.1-0.3,0.3-0.5,0.4c-0.2,0.1-0.3,0.3-0.5,0.4c0,0-0.1,0.1-0.1,0.1
			c-0.2,0.1-0.4,0.3-0.6,0.4c-0.2,0.1-0.3,0.2-0.5,0.3c-0.1,0-0.2,0.1-0.2,0.1c-0.6,0.3-1.2,0.6-1.8,0.9c-0.2,0.1-0.4,0.2-0.5,0.2
			c-0.5,0.2-1,0.4-1.5,0.6c-0.1,0-0.2,0.1-0.3,0.1c-0.1,0-0.1,0-0.2,0.1c-0.3,0.1-0.6,0.2-0.9,0.3c-0.2,0.1-0.5,0.1-0.7,0.2
			c-0.3,0.1-0.7,0.2-1.1,0.2c-0.2,0-0.4,0.1-0.6,0.1c0,0-0.1,0-0.1,0c-0.7,0.1-1.4,0.2-2.1,0.3c-0.1,0-0.1,0-0.2,0
			c-0.2,0-0.3,0-0.5,0c-0.4,0-0.8,0.1-1.3,0.1c-0.1,0-0.2,0-0.3,0c-0.2,0-0.3,0-0.5,0c-0.3,0-0.7,0-1,0c-0.1,0-0.2,0-0.4,0
			c-0.2,0-0.3,0-0.5,0c-0.3,0-0.6,0-1-0.1c-0.1,0-0.3,0-0.4,0c-0.1,0-0.3,0-0.4-0.1c-0.3,0-0.6-0.1-0.9-0.1c-0.1,0-0.3,0-0.4,0
			c-0.1,0-0.3,0-0.4-0.1c-0.3-0.1-0.7-0.1-1-0.2c-0.2,0-0.3,0-0.5-0.1c-0.1,0-0.2-0.1-0.3-0.1c-0.4-0.1-0.8-0.2-1.2-0.3
			c-0.2,0-0.3-0.1-0.5-0.1c-0.1,0-0.1,0-0.2-0.1c-0.7-0.2-1.4-0.4-2-0.7c0,0-0.1,0-0.1,0c-0.3-0.1-0.6-0.2-0.9-0.4
			c-0.2-0.1-0.3-0.1-0.5-0.2c-0.5-0.2-0.9-0.5-1.4-0.7c-0.5-0.3-0.9-0.5-1.3-0.8c-0.1-0.1-0.2-0.1-0.3-0.2c-0.3-0.2-0.6-0.4-0.8-0.7
			c-0.1-0.1-0.2-0.2-0.3-0.3c-0.2-0.2-0.5-0.4-0.7-0.6c-0.1-0.1-0.2-0.2-0.3-0.3c-0.2-0.2-0.4-0.4-0.5-0.6c-0.1-0.1-0.2-0.3-0.2-0.4
			c-0.1-0.2-0.3-0.4-0.4-0.6c-0.1-0.1-0.1-0.3-0.2-0.4c-0.1-0.2-0.2-0.4-0.2-0.6c0-0.1-0.1-0.3-0.1-0.5c-0.1-0.2-0.1-0.4-0.1-0.6
			c0-0.2,0-0.3,0-0.5c0-0.2,0-0.4,0-0.6c0,0,0,0,0,0l0,3.8c0,2.8,1.8,5.6,5.5,7.7c0.4,0.3,0.9,0.5,1.4,0.7c0.2,0.1,0.3,0.1,0.5,0.2
			c0.3,0.1,0.5,0.2,0.8,0.3c0,0,0.1,0,0.1,0c0.6,0.3,1.3,0.5,2,0.7c0.1,0,0.1,0,0.2,0c0.2,0,0.3,0.1,0.5,0.1
			c0.4,0.1,0.8,0.2,1.2,0.3c0.1,0,0.2,0,0.3,0.1c0.2,0,0.3,0.1,0.5,0.1c0.3,0.1,0.7,0.1,1,0.2c0.1,0,0.3,0,0.4,0.1
			c0.1,0,0.3,0,0.4,0.1c0.3,0,0.6,0.1,0.9,0.1c0.1,0,0.3,0,0.4,0c0.1,0,0.3,0,0.4,0c0.3,0,0.6,0,0.9,0c0.2,0,0.3,0,0.5,0
			c0.1,0,0.3,0,0.4,0c0.3,0,0.7,0,1,0c0.2,0,0.3,0,0.5,0c0.1,0,0.2,0,0.3,0c0.4,0,0.9-0.1,1.3-0.1c0.2,0,0.3,0,0.5,0
			c0,0,0.1,0,0.2,0c0.7-0.1,1.4-0.2,2.1-0.3c0,0,0.1,0,0.1,0c0.2,0,0.4-0.1,0.6-0.1c0.3-0.1,0.7-0.1,1-0.2c0.2-0.1,0.5-0.1,0.7-0.2
			c0.3-0.1,0.7-0.2,1-0.3c0.1,0,0.1,0,0.2-0.1c0.1,0,0.2-0.1,0.3-0.1c0.5-0.2,1-0.4,1.5-0.6c0.2-0.1,0.4-0.1,0.5-0.2
			c0.6-0.3,1.2-0.6,1.8-0.9c0.1,0,0.1-0.1,0.2-0.1c0.2-0.1,0.3-0.2,0.5-0.3c0.2-0.1,0.5-0.3,0.7-0.4c0.2-0.1,0.4-0.3,0.5-0.4
			c0.2-0.2,0.4-0.3,0.6-0.5c0,0,0.1-0.1,0.1-0.1c0.1-0.1,0.1-0.1,0.2-0.2c0.3-0.3,0.5-0.6,0.8-0.8c0.1-0.1,0.1-0.1,0.2-0.2
			c0-0.1,0.1-0.1,0.1-0.2c0.2-0.2,0.3-0.4,0.4-0.6c0.1-0.1,0.1-0.2,0.2-0.3c0,0,0-0.1,0.1-0.1c0.1-0.2,0.2-0.4,0.3-0.6
			c0.1-0.1,0.1-0.3,0.2-0.4c0,0,0-0.1,0-0.1c0.1-0.2,0.1-0.4,0.2-0.5c0-0.2,0.1-0.3,0.1-0.5c0,0,0,0,0,0c0-0.2,0-0.4,0.1-0.6
			c0-0.2,0-0.4,0-0.6c0,0,0,0,0,0l0-3.8C68.7,49.1,68.7,49.1,68.7,49.2z"/>
		<path class="st1" d="M31.4,49.5c0,0.2,0,0.3,0,0.5c0,0.2,0.1,0.4,0.1,0.6c0,0.2,0.1,0.3,0.1,0.5c0.1,0.2,0.2,0.4,0.2,0.6
			c0.1,0.1,0.1,0.3,0.2,0.4c0.1,0.2,0.2,0.4,0.4,0.6c0.1,0.1,0.1,0.3,0.2,0.4c0.1,0.2,0.3,0.4,0.5,0.6c0.1,0.1,0.2,0.2,0.3,0.3
			c0.2,0.2,0.4,0.4,0.7,0.6c0.1,0.1,0.2,0.2,0.3,0.3c0.3,0.2,0.5,0.4,0.8,0.7c0.1,0.1,0.2,0.1,0.3,0.2c0.4,0.3,0.8,0.6,1.3,0.8
			c0.4,0.3,0.9,0.5,1.4,0.7c0.1,0.1,0.3,0.1,0.5,0.2c0.3,0.1,0.6,0.3,1,0.4c0.6,0.3,1.3,0.5,2,0.7c0.2,0.1,0.4,0.1,0.7,0.2
			c0.4,0.1,0.8,0.2,1.2,0.3c0.3,0.1,0.5,0.1,0.8,0.2c0.3,0.1,0.7,0.1,1,0.2c0.3,0,0.6,0.1,0.8,0.1c0.3,0,0.6,0.1,0.9,0.1
			c0.3,0,0.6,0.1,0.9,0.1c0.3,0,0.6,0,1,0.1c0.3,0,0.6,0,0.8,0c0.3,0,0.7,0,1,0c0.3,0,0.5,0,0.8,0c0.4,0,0.8,0,1.3-0.1
			c0.2,0,0.4,0,0.7-0.1c0.7-0.1,1.4-0.2,2.1-0.3c0.2,0,0.4-0.1,0.7-0.1c0.4-0.1,0.7-0.1,1.1-0.2c0.3-0.1,0.5-0.1,0.7-0.2
			c0.3-0.1,0.6-0.2,0.9-0.3c0.2-0.1,0.4-0.1,0.6-0.2c0.5-0.2,1-0.4,1.5-0.6c0.2-0.1,0.4-0.1,0.5-0.2c0.6-0.3,1.2-0.6,1.8-0.9
			c0.5-0.3,0.9-0.5,1.3-0.8c0,0,0.1-0.1,0.1-0.1c0.4-0.3,0.7-0.5,1-0.8c0,0,0.1-0.1,0.1-0.1c0.3-0.3,0.6-0.5,0.8-0.8
			c0.1-0.1,0.2-0.2,0.3-0.3c0.2-0.2,0.3-0.4,0.5-0.6c0.1-0.1,0.2-0.3,0.3-0.4c0.1-0.2,0.2-0.4,0.3-0.6c0.1-0.1,0.1-0.3,0.2-0.4
			c0.1-0.2,0.2-0.4,0.2-0.6c0-0.1,0.1-0.3,0.1-0.4c0.1-0.2,0.1-0.4,0.1-0.6c0,0,0,0,0,0c0.5-3.1-1.3-6.3-5.4-8.7
			c-2.7-1.6-6.1-2.6-9.7-3c-2.2-0.2-4.4-0.3-6.6,0c-0.2,0-0.4,0-0.6,0c0,0-0.1,0-0.1,0c-3.5,0.4-6.8,1.4-9.5,3
			c-1.5,0.9-2.7,1.9-3.6,3c-1.2,1.5-1.8,3-1.8,4.6C31.3,49.1,31.4,49.3,31.4,49.5z M41.7,50.3c0-0.4,0.1-0.8,0.4-1.2
			c0.2-0.3,0.6-0.6,1.1-1l2.4,1.4c-0.5,0.3-0.7,0.6-0.7,1c0,0.3,0.3,0.6,0.7,0.9l0.1,0.1c0.5,0.3,1,0.4,1.6,0.4
			c0.6,0,1.2-0.1,1.6-0.4c0.5-0.3,0.8-0.7,0.7-1.1c0-0.3-0.2-0.6-0.6-1.1c-0.1-0.1-0.2-0.2-0.3-0.3c-0.2-0.2-0.3-0.3-0.3-0.4
			c-0.3-0.4-0.5-0.6-0.6-0.9c-0.2-0.5-0.2-0.9,0.1-1.4c0.2-0.5,0.7-0.9,1.3-1.2c0.6-0.4,1.4-0.6,2.3-0.7c0.9-0.1,1.8-0.1,2.6,0
			c0.4,0.1,0.8,0.2,1.2,0.3l0,0l2.2-1.3l0.9,0.5l1.1,0.6l-2.1,1.2c0.2,0.2,0.4,0.4,0.5,0.7c0.3,0.5,0.3,1,0.1,1.5
			c-0.2,0.5-0.7,1-1.3,1.4L54.4,48c0.4-0.3,0.5-0.5,0.5-0.8c0-0.3-0.2-0.5-0.6-0.7l0,0c-0.4-0.2-0.8-0.3-1.3-0.3
			c-0.5,0-0.9,0.1-1.3,0.3c-0.4,0.2-0.6,0.5-0.6,0.7c0,0.2,0.2,0.5,0.4,0.9c0.1,0.1,0.1,0.2,0.2,0.2l0.4,0.4c0.6,0.7,0.9,1.2,1,1.7
			c0.2,0.9-0.3,1.7-1.5,2.4c-0.7,0.4-1.6,0.7-2.6,0.9c-1,0.1-2,0.1-2.9,0c-0.5-0.1-1-0.2-1.4-0.3l-2.1,1.2l-1.1-0.6l-0.9-0.5
			l2.1-1.2C42,51.6,41.7,51,41.7,50.3z"/>
		<path class="st2" d="M41.4,53.9l1.1,0.6l2.1-1.2c0.4,0.1,0.9,0.3,1.4,0.3c1,0.2,2,0.2,2.9,0c1-0.2,1.8-0.4,2.6-0.9
			c1.2-0.7,1.6-1.5,1.5-2.4c-0.1-0.5-0.4-1-1-1.7l-0.4-0.4c-0.1-0.1-0.1-0.2-0.2-0.2c-0.3-0.4-0.4-0.6-0.4-0.9
			c0-0.3,0.2-0.5,0.6-0.7c0.4-0.2,0.8-0.3,1.3-0.3c0.5,0,0.9,0.1,1.3,0.3l0,0c0.4,0.2,0.6,0.5,0.6,0.7c0,0.3-0.2,0.5-0.5,0.8
			l2.4,1.4c0.7-0.4,1.1-0.9,1.3-1.4c0.2-0.5,0.2-1-0.1-1.5c-0.1-0.2-0.3-0.5-0.5-0.7l2.1-1.2L58.6,44l-0.9-0.5l-2.2,1.3l0,0
			c-0.4-0.1-0.8-0.2-1.2-0.3c-0.9-0.1-1.8-0.2-2.6,0c-0.9,0.1-1.6,0.4-2.3,0.7c-0.6,0.3-1,0.8-1.3,1.2c-0.2,0.5-0.3,1-0.1,1.4
			c0.1,0.2,0.3,0.5,0.6,0.9c0,0,0.2,0.2,0.3,0.4c0.1,0.1,0.2,0.2,0.3,0.3c0.3,0.4,0.5,0.8,0.6,1.1c0.1,0.4-0.2,0.8-0.7,1.1
			c-0.5,0.3-1,0.4-1.6,0.4c-0.6,0-1.2-0.1-1.6-0.4l-0.1-0.1c-0.4-0.3-0.7-0.6-0.7-0.9c0-0.3,0.2-0.7,0.7-1l-2.4-1.4
			c-0.6,0.3-0.9,0.7-1.1,1c-0.3,0.4-0.4,0.8-0.4,1.2c0,0.7,0.3,1.3,0.9,1.8l-2.1,1.2L41.4,53.9z"/>
	</g>
	<g>
		<path class="st0" d="M68.7,44c0,0.1,0,0.2,0,0.4c0,0,0,0,0,0c0,0.1,0,0.3,0,0.4c0,0,0,0,0,0c0,0,0,0.1,0,0.1c0,0,0,0.1,0,0.1
			c0,0.1-0.1,0.2-0.1,0.4c0,0.1-0.1,0.3-0.1,0.4c0,0,0,0.1-0.1,0.1c0,0,0,0.1,0,0.1c0,0.1-0.1,0.2-0.2,0.3c-0.1,0.1-0.1,0.3-0.2,0.4
			c0,0.1-0.1,0.1-0.1,0.2c0,0,0,0.1-0.1,0.1c-0.1,0.1-0.1,0.2-0.2,0.3c-0.1,0.1-0.2,0.3-0.3,0.4c-0.1,0.1-0.1,0.2-0.2,0.2
			c0,0.1-0.1,0.1-0.1,0.2c0,0.1-0.1,0.1-0.2,0.2c-0.1,0.1-0.2,0.2-0.3,0.3c-0.2,0.2-0.4,0.4-0.5,0.5c-0.1,0.1-0.1,0.1-0.2,0.2
			c0,0-0.1,0.1-0.1,0.1c0,0-0.1,0.1-0.1,0.1c-0.2,0.1-0.3,0.3-0.5,0.4c-0.2,0.1-0.3,0.3-0.5,0.4c0,0-0.1,0.1-0.1,0.1
			c-0.2,0.1-0.4,0.3-0.6,0.4c-0.2,0.1-0.3,0.2-0.5,0.3c-0.1,0-0.2,0.1-0.2,0.1c-0.6,0.3-1.2,0.6-1.8,0.9c-0.2,0.1-0.4,0.2-0.5,0.2
			c-0.5,0.2-1,0.4-1.5,0.6c-0.1,0-0.2,0.1-0.3,0.1c-0.1,0-0.1,0-0.2,0.1c-0.3,0.1-0.6,0.2-0.9,0.3c-0.2,0.1-0.5,0.1-0.7,0.2
			c-0.3,0.1-0.7,0.2-1.1,0.2c-0.2,0-0.4,0.1-0.6,0.1c0,0-0.1,0-0.1,0c-0.7,0.1-1.4,0.2-2.1,0.3c-0.1,0-0.1,0-0.2,0
			c-0.2,0-0.3,0-0.5,0c-0.4,0-0.8,0.1-1.3,0.1c-0.1,0-0.2,0-0.3,0c-0.2,0-0.3,0-0.5,0c-0.3,0-0.7,0-1,0c-0.1,0-0.2,0-0.4,0
			c-0.2,0-0.3,0-0.5,0c-0.3,0-0.6,0-1-0.1c-0.1,0-0.3,0-0.4,0c-0.1,0-0.3,0-0.4-0.1c-0.3,0-0.6-0.1-0.9-0.1c-0.1,0-0.3,0-0.4,0
			c-0.1,0-0.3,0-0.4-0.1c-0.3-0.1-0.7-0.1-1-0.2c-0.2,0-0.3,0-0.5-0.1c-0.1,0-0.2-0.1-0.3-0.1c-0.4-0.1-0.8-0.2-1.2-0.3
			c-0.2,0-0.3-0.1-0.5-0.1c-0.1,0-0.1,0-0.2-0.1c-0.7-0.2-1.4-0.4-2-0.7c0,0-0.1,0-0.1,0c-0.3-0.1-0.6-0.2-0.9-0.4
			c-0.2-0.1-0.3-0.1-0.5-0.2c-0.5-0.2-0.9-0.5-1.4-0.7c-0.5-0.3-0.9-0.5-1.3-0.8c-0.1-0.1-0.2-0.1-0.3-0.2c-0.3-0.2-0.6-0.4-0.8-0.7
			c-0.1-0.1-0.2-0.2-0.3-0.3c-0.2-0.2-0.5-0.4-0.7-0.6c-0.1-0.1-0.2-0.2-0.3-0.3c-0.2-0.2-0.4-0.4-0.5-0.6c-0.1-0.1-0.2-0.3-0.2-0.4
			c-0.1-0.2-0.3-0.4-0.4-0.6c-0.1-0.1-0.1-0.3-0.2-0.4c-0.1-0.2-0.2-0.4-0.2-0.6c0-0.1-0.1-0.3-0.1-0.5c-0.1-0.2-0.1-0.4-0.1-0.6
			c0-0.2,0-0.3,0-0.5c0-0.2,0-0.4,0-0.6c0,0,0,0,0,0l0,3.8c0,2.8,1.8,5.6,5.5,7.7c0.4,0.3,0.9,0.5,1.4,0.7c0.2,0.1,0.3,0.1,0.5,0.2
			c0.3,0.1,0.5,0.2,0.8,0.3c0,0,0.1,0,0.1,0c0.6,0.3,1.3,0.5,2,0.7c0.1,0,0.1,0,0.2,0c0.2,0,0.3,0.1,0.5,0.1
			c0.4,0.1,0.8,0.2,1.2,0.3c0.1,0,0.2,0,0.3,0.1c0.2,0,0.3,0.1,0.5,0.1c0.3,0.1,0.7,0.1,1,0.2c0.1,0,0.3,0,0.4,0.1
			c0.1,0,0.3,0,0.4,0.1c0.3,0,0.6,0.1,0.9,0.1c0.1,0,0.3,0,0.4,0c0.1,0,0.3,0,0.4,0c0.3,0,0.6,0,0.9,0.1c0.2,0,0.3,0,0.5,0
			c0.1,0,0.3,0,0.4,0c0.3,0,0.7,0,1,0c0.2,0,0.3,0,0.5,0c0.1,0,0.2,0,0.3,0c0.4,0,0.9,0,1.3-0.1c0.2,0,0.3,0,0.5,0c0,0,0.1,0,0.2,0
			c0.7-0.1,1.4-0.2,2.1-0.3c0,0,0.1,0,0.1,0c0.2,0,0.4-0.1,0.6-0.1c0.3-0.1,0.7-0.1,1-0.2c0.2-0.1,0.5-0.1,0.7-0.2
			c0.3-0.1,0.7-0.2,1-0.3c0.1,0,0.1,0,0.2-0.1c0.1,0,0.2-0.1,0.3-0.1c0.5-0.2,1-0.4,1.5-0.6c0.2-0.1,0.4-0.1,0.5-0.2
			c0.6-0.3,1.2-0.6,1.8-0.9c0.1,0,0.1-0.1,0.2-0.1c0.2-0.1,0.3-0.2,0.5-0.3c0.2-0.1,0.5-0.3,0.7-0.4c0.2-0.1,0.4-0.3,0.5-0.4
			c0.2-0.2,0.4-0.3,0.6-0.5c0,0,0.1-0.1,0.1-0.1c0.1-0.1,0.1-0.1,0.2-0.2c0.3-0.3,0.5-0.6,0.8-0.8c0.1-0.1,0.1-0.1,0.2-0.2
			c0-0.1,0.1-0.1,0.1-0.2c0.2-0.2,0.3-0.4,0.4-0.6c0.1-0.1,0.1-0.2,0.2-0.3c0,0,0-0.1,0.1-0.1c0.1-0.2,0.2-0.4,0.3-0.6
			c0.1-0.1,0.1-0.3,0.2-0.4c0,0,0-0.1,0-0.1c0.1-0.2,0.1-0.4,0.2-0.5c0-0.2,0.1-0.3,0.1-0.5c0,0,0,0,0,0c0-0.2,0-0.4,0.1-0.6
			c0-0.2,0-0.4,0-0.6c0,0,0,0,0,0l0-3.8C68.7,43.9,68.7,44,68.7,44z"/>
		<path class="st1" d="M31.4,44.4c0,0.2,0,0.3,0,0.5c0,0.2,0.1,0.4,0.1,0.6c0,0.2,0.1,0.3,0.1,0.5c0.1,0.2,0.2,0.4,0.2,0.6
			c0.1,0.1,0.1,0.3,0.2,0.4c0.1,0.2,0.2,0.4,0.4,0.6c0.1,0.1,0.1,0.3,0.2,0.4c0.1,0.2,0.3,0.4,0.5,0.6c0.1,0.1,0.2,0.2,0.3,0.3
			c0.2,0.2,0.4,0.4,0.7,0.6c0.1,0.1,0.2,0.2,0.3,0.3c0.3,0.2,0.5,0.4,0.8,0.7c0.1,0.1,0.2,0.1,0.3,0.2c0.4,0.3,0.8,0.6,1.3,0.8
			c0.4,0.3,0.9,0.5,1.4,0.7c0.1,0.1,0.3,0.1,0.5,0.2c0.3,0.1,0.6,0.3,1,0.4c0.6,0.3,1.3,0.5,2,0.7c0.2,0.1,0.4,0.1,0.7,0.2
			c0.4,0.1,0.8,0.2,1.2,0.3c0.3,0.1,0.5,0.1,0.8,0.2c0.3,0.1,0.7,0.1,1,0.2c0.3,0,0.6,0.1,0.8,0.1c0.3,0,0.6,0.1,0.9,0.1
			c0.3,0,0.6,0.1,0.9,0.1c0.3,0,0.6,0,1,0.1c0.3,0,0.6,0,0.8,0c0.3,0,0.7,0,1,0c0.3,0,0.5,0,0.8,0c0.4,0,0.8,0,1.3-0.1
			c0.2,0,0.4,0,0.7-0.1c0.7-0.1,1.4-0.2,2.1-0.3c0.2,0,0.4-0.1,0.7-0.1c0.4-0.1,0.7-0.1,1.1-0.2c0.3-0.1,0.5-0.1,0.7-0.2
			c0.3-0.1,0.6-0.2,0.9-0.3c0.2-0.1,0.4-0.1,0.6-0.2c0.5-0.2,1-0.4,1.5-0.6c0.2-0.1,0.4-0.2,0.5-0.2c0.6-0.3,1.2-0.6,1.8-0.9
			c0.5-0.3,0.9-0.5,1.3-0.8c0,0,0.1-0.1,0.1-0.1c0.4-0.3,0.7-0.5,1-0.8c0,0,0.1-0.1,0.1-0.1c0.3-0.3,0.6-0.5,0.8-0.8
			c0.1-0.1,0.2-0.2,0.3-0.3c0.2-0.2,0.3-0.4,0.5-0.6c0.1-0.1,0.2-0.3,0.3-0.4c0.1-0.2,0.2-0.4,0.3-0.6c0.1-0.1,0.1-0.3,0.2-0.4
			c0.1-0.2,0.2-0.4,0.2-0.6c0-0.1,0.1-0.3,0.1-0.4c0.1-0.2,0.1-0.4,0.1-0.6c0,0,0,0,0,0c0.5-3.1-1.3-6.3-5.4-8.7
			c-2.7-1.6-6.1-2.6-9.7-3c-2.2-0.2-4.4-0.3-6.6,0c-0.2,0-0.4,0-0.6,0c0,0-0.1,0-0.1,0c-3.5,0.4-6.8,1.4-9.5,3
			c-1.5,0.9-2.7,1.9-3.6,3c-1.2,1.5-1.8,3-1.8,4.6C31.3,44,31.4,44.2,31.4,44.4z M41.7,45.2c0-0.4,0.1-0.8,0.4-1.2
			c0.2-0.3,0.6-0.6,1.1-1l2.4,1.4c-0.5,0.3-0.7,0.6-0.7,1c0,0.3,0.3,0.6,0.7,0.9l0.1,0.1c0.5,0.3,1,0.4,1.6,0.4
			c0.6,0,1.2-0.1,1.6-0.4c0.5-0.3,0.8-0.7,0.7-1.1c0-0.3-0.2-0.6-0.6-1.1c-0.1-0.1-0.2-0.2-0.3-0.3c-0.2-0.2-0.3-0.3-0.3-0.4
			c-0.3-0.4-0.5-0.6-0.6-0.9c-0.2-0.5-0.2-0.9,0.1-1.4c0.2-0.5,0.7-0.9,1.3-1.2c0.6-0.4,1.4-0.6,2.3-0.7c0.9-0.1,1.8-0.1,2.6,0
			c0.4,0.1,0.8,0.2,1.2,0.3l0,0l2.2-1.3l0.9,0.5l1.1,0.6l-2.1,1.2c0.2,0.2,0.4,0.4,0.5,0.7c0.3,0.5,0.3,1,0.1,1.5
			c-0.2,0.5-0.7,1-1.3,1.4l-2.4-1.4c0.4-0.3,0.5-0.5,0.5-0.8c0-0.3-0.2-0.5-0.6-0.7l0,0C53.9,41.1,53.5,41,53,41
			c-0.5,0-0.9,0.1-1.3,0.4c-0.4,0.2-0.6,0.5-0.6,0.7c0,0.2,0.2,0.5,0.4,0.9c0.1,0.1,0.1,0.2,0.2,0.2l0.4,0.4c0.6,0.7,0.9,1.2,1,1.7
			c0.2,0.9-0.3,1.7-1.5,2.4c-0.7,0.4-1.6,0.7-2.6,0.9c-1,0.1-2,0.1-2.9,0c-0.5-0.1-1-0.2-1.4-0.3l-2.1,1.2l-1.1-0.6l-0.9-0.5
			l2.1-1.2C42,46.5,41.7,45.9,41.7,45.2z"/>
		<path class="st2" d="M41.4,48.8l1.1,0.6l2.1-1.2c0.4,0.1,0.9,0.3,1.4,0.3c1,0.2,2,0.2,2.9,0c1-0.2,1.8-0.4,2.6-0.9
			c1.2-0.7,1.6-1.5,1.5-2.4c-0.1-0.5-0.4-1-1-1.7l-0.4-0.4c-0.1-0.1-0.1-0.2-0.2-0.2c-0.3-0.4-0.4-0.6-0.4-0.9
			c0-0.3,0.2-0.5,0.6-0.7c0.4-0.2,0.8-0.3,1.3-0.4c0.5,0,0.9,0.1,1.3,0.3l0,0c0.4,0.2,0.6,0.5,0.6,0.7c0,0.3-0.2,0.5-0.5,0.8
			l2.4,1.4c0.7-0.4,1.1-0.9,1.3-1.4c0.2-0.5,0.2-1-0.1-1.5c-0.1-0.2-0.3-0.5-0.5-0.7l2.1-1.2l-1.1-0.6l-0.9-0.5l-2.2,1.3l0,0
			c-0.4-0.1-0.8-0.2-1.2-0.3c-0.9-0.1-1.8-0.2-2.6,0c-0.9,0.1-1.6,0.4-2.3,0.7c-0.6,0.3-1,0.8-1.3,1.2c-0.2,0.5-0.3,1-0.1,1.4
			c0.1,0.2,0.3,0.5,0.6,0.9c0,0,0.2,0.2,0.3,0.4c0.1,0.1,0.2,0.2,0.3,0.3c0.3,0.4,0.5,0.8,0.6,1.1c0.1,0.4-0.2,0.8-0.7,1.1
			c-0.5,0.3-1,0.4-1.6,0.4c-0.6,0-1.2-0.1-1.6-0.4l-0.1-0.1C45.3,46,45,45.7,45,45.4c0-0.3,0.2-0.7,0.7-1L43.2,43
			c-0.6,0.3-0.9,0.7-1.1,1c-0.3,0.4-0.4,0.8-0.4,1.2c0,0.7,0.3,1.3,0.9,1.9l-2.1,1.2L41.4,48.8z"/>
	</g>
	<g>
		<path class="st0" d="M68.7,38.9c0,0.1,0,0.2,0,0.4c0,0,0,0,0,0c0,0.1,0,0.3,0,0.4c0,0,0,0,0,0c0,0,0,0.1,0,0.1c0,0,0,0.1,0,0.1
			c0,0.1-0.1,0.2-0.1,0.4c0,0.1-0.1,0.3-0.1,0.4c0,0,0,0.1-0.1,0.1c0,0,0,0.1,0,0.1c0,0.1-0.1,0.2-0.2,0.3c-0.1,0.1-0.1,0.3-0.2,0.4
			c0,0.1-0.1,0.1-0.1,0.2c0,0,0,0.1-0.1,0.1c-0.1,0.1-0.1,0.2-0.2,0.3c-0.1,0.1-0.2,0.3-0.3,0.4c-0.1,0.1-0.1,0.2-0.2,0.2
			c0,0.1-0.1,0.1-0.1,0.2c0,0.1-0.1,0.1-0.2,0.2c-0.1,0.1-0.2,0.2-0.3,0.3c-0.2,0.2-0.4,0.4-0.5,0.5c-0.1,0.1-0.1,0.1-0.2,0.2
			c0,0-0.1,0.1-0.1,0.1c0,0-0.1,0.1-0.1,0.1c-0.2,0.1-0.3,0.3-0.5,0.4c-0.2,0.1-0.3,0.3-0.5,0.4c0,0-0.1,0.1-0.1,0.1
			c-0.2,0.1-0.4,0.3-0.6,0.4c-0.2,0.1-0.3,0.2-0.5,0.3c-0.1,0-0.2,0.1-0.2,0.1c-0.6,0.3-1.2,0.6-1.8,0.9c-0.2,0.1-0.4,0.2-0.5,0.2
			c-0.5,0.2-1,0.4-1.5,0.6c-0.1,0-0.2,0.1-0.3,0.1c-0.1,0-0.1,0-0.2,0.1c-0.3,0.1-0.6,0.2-0.9,0.3c-0.2,0.1-0.5,0.1-0.7,0.2
			c-0.3,0.1-0.7,0.2-1.1,0.2c-0.2,0-0.4,0.1-0.6,0.1c0,0-0.1,0-0.1,0c-0.7,0.1-1.4,0.2-2.1,0.3c-0.1,0-0.1,0-0.2,0
			c-0.2,0-0.3,0-0.5,0c-0.4,0-0.8,0.1-1.3,0.1c-0.1,0-0.2,0-0.3,0c-0.2,0-0.3,0-0.5,0c-0.3,0-0.7,0-1,0c-0.1,0-0.2,0-0.4,0
			c-0.2,0-0.3,0-0.5,0c-0.3,0-0.6,0-1-0.1c-0.1,0-0.3,0-0.4,0c-0.1,0-0.3,0-0.4-0.1c-0.3,0-0.6-0.1-0.9-0.1c-0.1,0-0.3,0-0.4,0
			c-0.1,0-0.3,0-0.4-0.1c-0.3-0.1-0.7-0.1-1-0.2c-0.2,0-0.3,0-0.5-0.1c-0.1,0-0.2-0.1-0.3-0.1c-0.4-0.1-0.8-0.2-1.2-0.3
			c-0.2,0-0.3-0.1-0.5-0.1c-0.1,0-0.1,0-0.2-0.1c-0.7-0.2-1.4-0.4-2-0.7c0,0-0.1,0-0.1,0c-0.3-0.1-0.6-0.2-0.9-0.4
			c-0.2-0.1-0.3-0.1-0.5-0.2c-0.5-0.2-0.9-0.5-1.4-0.7c-0.5-0.3-0.9-0.5-1.3-0.8c-0.1-0.1-0.2-0.1-0.3-0.2c-0.3-0.2-0.6-0.4-0.8-0.7
			c-0.1-0.1-0.2-0.2-0.3-0.3c-0.2-0.2-0.5-0.4-0.7-0.6c-0.1-0.1-0.2-0.2-0.3-0.3c-0.2-0.2-0.4-0.4-0.5-0.6c-0.1-0.1-0.2-0.3-0.2-0.4
			c-0.1-0.2-0.3-0.4-0.4-0.6c-0.1-0.1-0.1-0.3-0.2-0.4c-0.1-0.2-0.2-0.4-0.2-0.6c0-0.1-0.1-0.3-0.1-0.5c-0.1-0.2-0.1-0.4-0.1-0.6
			c0-0.2,0-0.3,0-0.5c0-0.2,0-0.4,0-0.6c0,0,0,0,0,0l0,3.8c0,2.8,1.8,5.6,5.5,7.7c0.4,0.3,0.9,0.5,1.4,0.7c0.2,0.1,0.3,0.1,0.5,0.2
			c0.3,0.1,0.5,0.2,0.8,0.3c0,0,0.1,0,0.1,0c0.6,0.3,1.3,0.5,2,0.7c0.1,0,0.1,0,0.2,0c0.2,0,0.3,0.1,0.5,0.1
			c0.4,0.1,0.8,0.2,1.2,0.3c0.1,0,0.2,0,0.3,0.1c0.2,0,0.3,0.1,0.5,0.1c0.3,0.1,0.7,0.1,1,0.2c0.1,0,0.3,0,0.4,0.1
			c0.1,0,0.3,0,0.4,0.1c0.3,0,0.6,0.1,0.9,0.1c0.1,0,0.3,0,0.4,0c0.1,0,0.3,0,0.4,0c0.3,0,0.6,0,0.9,0.1c0.2,0,0.3,0,0.5,0
			c0.1,0,0.3,0,0.4,0c0.3,0,0.7,0,1,0c0.2,0,0.3,0,0.5,0c0.1,0,0.2,0,0.3,0c0.4,0,0.9-0.1,1.3-0.1c0.2,0,0.3,0,0.5,0
			c0,0,0.1,0,0.2,0c0.7-0.1,1.4-0.2,2.1-0.3c0,0,0.1,0,0.1,0c0.2,0,0.4-0.1,0.6-0.1c0.3-0.1,0.7-0.1,1-0.2c0.2-0.1,0.5-0.1,0.7-0.2
			c0.3-0.1,0.7-0.2,1-0.3c0.1,0,0.1,0,0.2-0.1c0.1,0,0.2-0.1,0.3-0.1c0.5-0.2,1-0.4,1.5-0.6c0.2-0.1,0.4-0.1,0.5-0.2
			c0.6-0.3,1.2-0.6,1.8-0.9c0.1,0,0.1-0.1,0.2-0.1c0.2-0.1,0.3-0.2,0.5-0.3c0.2-0.1,0.5-0.3,0.7-0.4c0.2-0.1,0.4-0.3,0.5-0.4
			c0.2-0.2,0.4-0.3,0.6-0.5c0,0,0.1-0.1,0.1-0.1c0.1-0.1,0.1-0.1,0.2-0.2c0.3-0.3,0.5-0.6,0.8-0.8c0.1-0.1,0.1-0.1,0.2-0.2
			c0-0.1,0.1-0.1,0.1-0.2c0.2-0.2,0.3-0.4,0.4-0.6c0.1-0.1,0.1-0.2,0.2-0.3c0,0,0-0.1,0.1-0.1c0.1-0.2,0.2-0.4,0.3-0.6
			c0.1-0.1,0.1-0.3,0.2-0.4c0,0,0-0.1,0-0.1c0.1-0.2,0.1-0.4,0.2-0.5c0-0.2,0.1-0.3,0.1-0.5c0,0,0,0,0,0c0-0.2,0-0.4,0.1-0.6
			c0-0.2,0-0.4,0-0.6c0,0,0,0,0,0l0-3.8C68.7,38.7,68.7,38.8,68.7,38.9z"/>
		<path class="st1" d="M31.4,39.2c0,0.2,0,0.3,0,0.5c0,0.2,0.1,0.4,0.1,0.6c0,0.2,0.1,0.3,0.1,0.5c0.1,0.2,0.2,0.4,0.2,0.6
			c0.1,0.1,0.1,0.3,0.2,0.4c0.1,0.2,0.2,0.4,0.4,0.6c0.1,0.1,0.1,0.3,0.2,0.4c0.1,0.2,0.3,0.4,0.5,0.6c0.1,0.1,0.2,0.2,0.3,0.3
			c0.2,0.2,0.4,0.4,0.7,0.6c0.1,0.1,0.2,0.2,0.3,0.3c0.3,0.2,0.5,0.4,0.8,0.7c0.1,0.1,0.2,0.1,0.3,0.2c0.4,0.3,0.8,0.6,1.3,0.8
			c0.4,0.3,0.9,0.5,1.4,0.7c0.1,0.1,0.3,0.1,0.5,0.2c0.3,0.1,0.6,0.3,1,0.4c0.6,0.3,1.3,0.5,2,0.7c0.2,0.1,0.4,0.1,0.7,0.2
			c0.4,0.1,0.8,0.2,1.2,0.3c0.3,0.1,0.5,0.1,0.8,0.2c0.3,0.1,0.7,0.1,1,0.2c0.3,0,0.6,0.1,0.8,0.1c0.3,0,0.6,0.1,0.9,0.1
			c0.3,0,0.6,0.1,0.9,0.1c0.3,0,0.6,0,1,0.1c0.3,0,0.6,0,0.8,0c0.3,0,0.7,0,1,0c0.3,0,0.5,0,0.8,0c0.4,0,0.8,0,1.3-0.1
			c0.2,0,0.4,0,0.7-0.1c0.7-0.1,1.4-0.2,2.1-0.3c0.2,0,0.4-0.1,0.7-0.1c0.4-0.1,0.7-0.1,1.1-0.2c0.3-0.1,0.5-0.1,0.7-0.2
			c0.3-0.1,0.6-0.2,0.9-0.3c0.2-0.1,0.4-0.1,0.6-0.2c0.5-0.2,1-0.4,1.5-0.6c0.2-0.1,0.4-0.1,0.5-0.2c0.6-0.3,1.2-0.6,1.8-0.9
			c0.5-0.3,0.9-0.5,1.3-0.8c0,0,0.1-0.1,0.1-0.1c0.4-0.3,0.7-0.5,1-0.8c0,0,0.1-0.1,0.1-0.1c0.3-0.3,0.6-0.5,0.8-0.8
			c0.1-0.1,0.2-0.2,0.3-0.3c0.2-0.2,0.3-0.4,0.5-0.6c0.1-0.1,0.2-0.3,0.3-0.4c0.1-0.2,0.2-0.4,0.3-0.6c0.1-0.1,0.1-0.3,0.2-0.4
			c0.1-0.2,0.2-0.4,0.2-0.6c0-0.1,0.1-0.3,0.1-0.4c0.1-0.2,0.1-0.4,0.1-0.6c0,0,0,0,0,0c0.5-3.1-1.3-6.3-5.4-8.7
			c-2.7-1.6-6.1-2.6-9.7-3c-2.2-0.2-4.4-0.3-6.6,0c-0.2,0-0.4,0-0.6,0c0,0-0.1,0-0.1,0c-3.5,0.4-6.8,1.4-9.5,3
			c-1.5,0.9-2.7,1.9-3.6,3c-1.2,1.5-1.8,3-1.8,4.6C31.3,38.8,31.4,39,31.4,39.2z M41.7,40c0-0.4,0.1-0.8,0.4-1.2
			c0.2-0.3,0.6-0.6,1.1-1l2.4,1.4c-0.5,0.3-0.7,0.6-0.7,1c0,0.3,0.3,0.6,0.7,0.9l0.1,0.1c0.5,0.3,1,0.4,1.6,0.4
			c0.6,0,1.2-0.1,1.6-0.4c0.5-0.3,0.8-0.7,0.7-1.1c0-0.3-0.2-0.6-0.6-1c-0.1-0.1-0.2-0.2-0.3-0.3c-0.2-0.2-0.3-0.3-0.3-0.4
			c-0.3-0.4-0.5-0.6-0.6-0.9c-0.2-0.5-0.2-0.9,0.1-1.4c0.2-0.5,0.7-0.9,1.3-1.2c0.6-0.4,1.4-0.6,2.3-0.7c0.9-0.1,1.8-0.1,2.6,0
			c0.4,0.1,0.8,0.2,1.2,0.3l0,0l2.2-1.3l0.9,0.5l1.1,0.6l-2.1,1.2c0.2,0.2,0.4,0.4,0.5,0.7c0.3,0.5,0.3,1,0.1,1.5
			c-0.2,0.5-0.7,1-1.3,1.4l-2.4-1.4c0.4-0.3,0.5-0.5,0.5-0.8c0-0.3-0.2-0.5-0.6-0.7l0,0c-0.4-0.2-0.8-0.3-1.3-0.3
			c-0.5,0-0.9,0.1-1.3,0.4c-0.4,0.2-0.6,0.5-0.6,0.7c0,0.2,0.2,0.5,0.4,0.9c0.1,0.1,0.1,0.2,0.2,0.2l0.4,0.4c0.6,0.7,0.9,1.2,1,1.7
			c0.2,0.9-0.3,1.7-1.5,2.4c-0.7,0.4-1.6,0.7-2.6,0.9c-1,0.1-2,0.1-2.9,0c-0.5-0.1-1-0.2-1.4-0.3l-2.1,1.2l-1.1-0.6l-0.9-0.5
			l2.1-1.2C42,41.3,41.7,40.7,41.7,40z"/>
		<path class="st2" d="M41.4,43.6l1.1,0.6l2.1-1.2c0.4,0.1,0.9,0.3,1.4,0.3c1,0.2,2,0.2,2.9,0c1-0.2,1.8-0.4,2.6-0.9
			c1.2-0.7,1.6-1.5,1.5-2.4c-0.1-0.5-0.4-1-1-1.7L51.7,38c-0.1-0.1-0.1-0.2-0.2-0.2c-0.3-0.3-0.4-0.6-0.4-0.9c0-0.3,0.2-0.5,0.6-0.7
			c0.4-0.2,0.8-0.3,1.3-0.4c0.5,0,0.9,0.1,1.3,0.3l0,0c0.4,0.2,0.6,0.5,0.6,0.7c0,0.3-0.2,0.6-0.5,0.8l2.4,1.4
			c0.7-0.4,1.1-0.9,1.3-1.4c0.2-0.5,0.2-1-0.1-1.5c-0.1-0.2-0.3-0.5-0.5-0.7l2.1-1.2l-1.1-0.6l-0.9-0.5l-2.2,1.3l0,0
			c-0.4-0.1-0.8-0.2-1.2-0.3c-0.9-0.1-1.8-0.2-2.6,0c-0.9,0.1-1.6,0.4-2.3,0.7c-0.6,0.3-1,0.8-1.3,1.2c-0.2,0.5-0.3,1-0.1,1.4
			c0.1,0.2,0.3,0.5,0.6,0.9c0,0,0.2,0.2,0.3,0.4c0.1,0.1,0.2,0.2,0.3,0.3c0.3,0.4,0.5,0.8,0.6,1c0.1,0.4-0.2,0.8-0.7,1.1
			c-0.5,0.3-1,0.4-1.6,0.4c-0.6,0-1.2-0.1-1.6-0.4l-0.1-0.1c-0.4-0.3-0.7-0.6-0.7-0.9c0-0.3,0.2-0.7,0.7-1l-2.4-1.4
			c-0.6,0.3-0.9,0.7-1.1,1c-0.3,0.4-0.4,0.8-0.4,1.2c0,0.7,0.3,1.3,0.9,1.8l-2.1,1.2L41.4,43.6z"/>
	</g>
	<g>
		<path class="st0" d="M68.7,33.9c0,0.1,0,0.2,0,0.4c0,0,0,0,0,0c0,0.1,0,0.3,0,0.4c0,0,0,0,0,0c0,0,0,0.1,0,0.1c0,0,0,0.1,0,0.1
			c0,0.1-0.1,0.2-0.1,0.4c0,0.1-0.1,0.3-0.1,0.4c0,0,0,0.1-0.1,0.1c0,0,0,0.1,0,0.1c0,0.1-0.1,0.2-0.2,0.3c-0.1,0.1-0.1,0.3-0.2,0.4
			c0,0.1-0.1,0.1-0.1,0.2c0,0,0,0.1-0.1,0.1c-0.1,0.1-0.1,0.2-0.2,0.3c-0.1,0.1-0.2,0.3-0.3,0.4c-0.1,0.1-0.1,0.2-0.2,0.2
			c0,0.1-0.1,0.1-0.1,0.2c0,0.1-0.1,0.1-0.2,0.2c-0.1,0.1-0.2,0.2-0.3,0.3c-0.2,0.2-0.4,0.4-0.5,0.5c-0.1,0.1-0.1,0.1-0.2,0.2
			c0,0-0.1,0.1-0.1,0.1c0,0-0.1,0.1-0.1,0.1c-0.2,0.1-0.3,0.3-0.5,0.4c-0.2,0.1-0.3,0.3-0.5,0.4c0,0-0.1,0.1-0.1,0.1
			c-0.2,0.1-0.4,0.3-0.6,0.4c-0.2,0.1-0.3,0.2-0.5,0.3c-0.1,0-0.2,0.1-0.2,0.1c-0.6,0.3-1.2,0.6-1.8,0.9c-0.2,0.1-0.4,0.2-0.5,0.2
			c-0.5,0.2-1,0.4-1.5,0.6c-0.1,0-0.2,0.1-0.3,0.1c-0.1,0-0.1,0-0.2,0.1c-0.3,0.1-0.6,0.2-0.9,0.3c-0.2,0.1-0.5,0.1-0.7,0.2
			c-0.3,0.1-0.7,0.2-1.1,0.2c-0.2,0-0.4,0.1-0.6,0.1c0,0-0.1,0-0.1,0c-0.7,0.1-1.4,0.2-2.1,0.3c-0.1,0-0.1,0-0.2,0
			c-0.2,0-0.3,0-0.5,0c-0.4,0-0.8,0.1-1.3,0.1c-0.1,0-0.2,0-0.3,0c-0.2,0-0.3,0-0.5,0c-0.3,0-0.7,0-1,0c-0.1,0-0.2,0-0.4,0
			c-0.2,0-0.3,0-0.5,0c-0.3,0-0.6,0-1-0.1c-0.1,0-0.3,0-0.4,0c-0.1,0-0.3,0-0.4,0c-0.3,0-0.6-0.1-0.9-0.1c-0.1,0-0.3,0-0.4,0
			c-0.1,0-0.3,0-0.4-0.1c-0.3-0.1-0.7-0.1-1-0.2c-0.2,0-0.3,0-0.5-0.1c-0.1,0-0.2-0.1-0.3-0.1c-0.4-0.1-0.8-0.2-1.2-0.3
			c-0.2,0-0.3-0.1-0.5-0.1c-0.1,0-0.1,0-0.2-0.1c-0.7-0.2-1.4-0.4-2-0.7c0,0-0.1,0-0.1,0c-0.3-0.1-0.6-0.2-0.9-0.4
			c-0.2-0.1-0.3-0.1-0.5-0.2c-0.5-0.2-0.9-0.5-1.4-0.7c-0.5-0.3-0.9-0.5-1.3-0.8c-0.1-0.1-0.2-0.1-0.3-0.2c-0.3-0.2-0.6-0.4-0.8-0.7
			c-0.1-0.1-0.2-0.2-0.3-0.3c-0.2-0.2-0.5-0.4-0.7-0.6c-0.1-0.1-0.2-0.2-0.3-0.3c-0.2-0.2-0.4-0.4-0.5-0.6c-0.1-0.1-0.2-0.3-0.2-0.4
			c-0.1-0.2-0.3-0.4-0.4-0.6c-0.1-0.1-0.1-0.3-0.2-0.4c-0.1-0.2-0.2-0.4-0.2-0.6c0-0.1-0.1-0.3-0.1-0.5c-0.1-0.2-0.1-0.4-0.1-0.6
			c0-0.2,0-0.3,0-0.5c0-0.2,0-0.4,0-0.6c0,0,0,0,0,0l0,3.8c0,2.8,1.8,5.6,5.5,7.7c0.4,0.3,0.9,0.5,1.4,0.7c0.2,0.1,0.3,0.1,0.5,0.2
			c0.3,0.1,0.5,0.2,0.8,0.3c0,0,0.1,0,0.1,0c0.6,0.3,1.3,0.5,2,0.7c0.1,0,0.1,0,0.2,0c0.2,0,0.3,0.1,0.5,0.1
			c0.4,0.1,0.8,0.2,1.2,0.3c0.1,0,0.2,0,0.3,0.1c0.2,0,0.3,0.1,0.5,0.1c0.3,0.1,0.7,0.1,1,0.2c0.1,0,0.3,0,0.4,0.1
			c0.1,0,0.3,0,0.4,0.1c0.3,0,0.6,0.1,0.9,0.1c0.1,0,0.3,0,0.4,0c0.1,0,0.3,0,0.4,0c0.3,0,0.6,0,0.9,0c0.2,0,0.3,0,0.5,0
			c0.1,0,0.3,0,0.4,0c0.3,0,0.7,0,1,0c0.2,0,0.3,0,0.5,0c0.1,0,0.2,0,0.3,0c0.4,0,0.9,0,1.3-0.1c0.2,0,0.3,0,0.5,0c0,0,0.1,0,0.2,0
			c0.7-0.1,1.4-0.2,2.1-0.3c0,0,0.1,0,0.1,0c0.2,0,0.4-0.1,0.6-0.1c0.3-0.1,0.7-0.1,1-0.2c0.2-0.1,0.5-0.1,0.7-0.2
			c0.3-0.1,0.7-0.2,1-0.3c0.1,0,0.1,0,0.2-0.1c0.1,0,0.2-0.1,0.3-0.1c0.5-0.2,1-0.4,1.5-0.6c0.2-0.1,0.4-0.1,0.5-0.2
			c0.6-0.3,1.2-0.6,1.8-0.9c0.1,0,0.1-0.1,0.2-0.1c0.2-0.1,0.3-0.2,0.5-0.3c0.2-0.1,0.5-0.3,0.7-0.4c0.2-0.1,0.4-0.3,0.5-0.4
			c0.2-0.2,0.4-0.3,0.6-0.5c0,0,0.1-0.1,0.1-0.1c0.1-0.1,0.1-0.1,0.2-0.2c0.3-0.3,0.5-0.6,0.8-0.8c0.1-0.1,0.1-0.1,0.2-0.2
			c0-0.1,0.1-0.1,0.1-0.2c0.2-0.2,0.3-0.4,0.4-0.6c0.1-0.1,0.1-0.2,0.2-0.3c0,0,0-0.1,0.1-0.1c0.1-0.2,0.2-0.4,0.3-0.6
			c0.1-0.1,0.1-0.3,0.2-0.4c0,0,0-0.1,0-0.1c0.1-0.2,0.1-0.4,0.2-0.5c0-0.2,0.1-0.3,0.1-0.5c0,0,0,0,0,0c0-0.2,0-0.4,0.1-0.6
			c0-0.2,0-0.4,0-0.6c0,0,0,0,0,0l0-3.8C68.7,33.8,68.7,33.8,68.7,33.9z"/>
		<path class="st1" d="M31.4,34.2c0,0.2,0,0.3,0,0.5c0,0.2,0.1,0.4,0.1,0.6c0,0.2,0.1,0.3,0.1,0.5c0.1,0.2,0.2,0.4,0.2,0.6
			c0.1,0.1,0.1,0.3,0.2,0.4c0.1,0.2,0.2,0.4,0.4,0.6c0.1,0.1,0.1,0.3,0.2,0.4c0.1,0.2,0.3,0.4,0.5,0.6c0.1,0.1,0.2,0.2,0.3,0.3
			c0.2,0.2,0.4,0.4,0.7,0.6c0.1,0.1,0.2,0.2,0.3,0.3c0.3,0.2,0.5,0.4,0.8,0.7c0.1,0.1,0.2,0.1,0.3,0.2c0.4,0.3,0.8,0.6,1.3,0.8
			c0.4,0.3,0.9,0.5,1.4,0.7c0.1,0.1,0.3,0.1,0.5,0.2c0.3,0.1,0.6,0.3,1,0.4c0.6,0.3,1.3,0.5,2,0.7c0.2,0.1,0.4,0.1,0.7,0.2
			c0.4,0.1,0.8,0.2,1.2,0.3c0.3,0.1,0.5,0.1,0.8,0.2c0.3,0.1,0.7,0.1,1,0.2c0.3,0,0.6,0.1,0.8,0.1c0.3,0,0.6,0.1,0.9,0.1
			c0.3,0,0.6,0.1,0.9,0.1c0.3,0,0.6,0,1,0.1c0.3,0,0.6,0,0.8,0c0.3,0,0.7,0,1,0c0.3,0,0.5,0,0.8,0c0.4,0,0.8,0,1.3-0.1
			c0.2,0,0.4,0,0.7-0.1c0.7-0.1,1.4-0.2,2.1-0.3c0.2,0,0.4-0.1,0.7-0.1c0.4-0.1,0.7-0.1,1.1-0.2c0.3-0.1,0.5-0.1,0.7-0.2
			c0.3-0.1,0.6-0.2,0.9-0.3c0.2-0.1,0.4-0.1,0.6-0.2c0.5-0.2,1-0.4,1.5-0.6c0.2-0.1,0.4-0.2,0.5-0.2c0.6-0.3,1.2-0.6,1.8-0.9
			c0.5-0.3,0.9-0.5,1.3-0.8c0,0,0.1-0.1,0.1-0.1c0.4-0.3,0.7-0.5,1-0.8c0,0,0.1-0.1,0.1-0.1c0.3-0.3,0.6-0.5,0.8-0.8
			c0.1-0.1,0.2-0.2,0.3-0.3c0.2-0.2,0.3-0.4,0.5-0.6c0.1-0.1,0.2-0.3,0.3-0.4c0.1-0.2,0.2-0.4,0.3-0.6c0.1-0.1,0.1-0.3,0.2-0.4
			c0.1-0.2,0.2-0.4,0.2-0.6c0-0.1,0.1-0.3,0.1-0.4c0.1-0.2,0.1-0.4,0.1-0.6c0,0,0,0,0,0c0.5-3.1-1.3-6.3-5.4-8.7
			c-2.7-1.6-6.1-2.6-9.7-3c-2.2-0.2-4.4-0.3-6.6,0c-0.2,0-0.4,0-0.6,0c0,0-0.1,0-0.1,0c-3.5,0.4-6.8,1.4-9.5,3
			c-1.5,0.9-2.7,1.9-3.6,3c-1.2,1.5-1.8,3-1.8,4.6C31.3,33.8,31.4,34,31.4,34.2z M41.7,35c0-0.4,0.1-0.8,0.4-1.2
			c0.2-0.3,0.6-0.6,1.1-1l2.4,1.4c-0.5,0.3-0.7,0.6-0.7,1c0,0.3,0.3,0.6,0.7,0.9l0.1,0.1c0.5,0.3,1,0.4,1.6,0.4
			c0.6,0,1.2-0.1,1.6-0.4c0.5-0.3,0.8-0.7,0.7-1.1c0-0.3-0.2-0.6-0.6-1.1c-0.1-0.1-0.2-0.2-0.3-0.3c-0.2-0.2-0.3-0.3-0.3-0.4
			c-0.3-0.4-0.5-0.6-0.6-0.9c-0.2-0.5-0.2-0.9,0.1-1.4c0.2-0.5,0.7-0.9,1.3-1.2c0.6-0.4,1.4-0.6,2.3-0.7c0.9-0.1,1.8-0.1,2.6,0
			c0.4,0.1,0.8,0.2,1.2,0.3l0,0l2.2-1.3l0.9,0.5l1.1,0.6l-2.1,1.2c0.2,0.2,0.4,0.4,0.5,0.7c0.3,0.5,0.3,1,0.1,1.5
			c-0.2,0.5-0.7,1-1.3,1.4l-2.4-1.4c0.4-0.3,0.5-0.5,0.5-0.8c0-0.3-0.2-0.5-0.6-0.7l0,0c-0.4-0.2-0.8-0.3-1.3-0.3
			c-0.5,0-0.9,0.1-1.3,0.4c-0.4,0.2-0.6,0.5-0.6,0.7c0,0.2,0.2,0.5,0.4,0.9c0.1,0.1,0.1,0.2,0.2,0.2l0.4,0.4c0.6,0.7,0.9,1.2,1,1.7
			c0.2,0.9-0.3,1.7-1.5,2.4C50.8,38,50,38.2,49,38.4c-1,0.1-2,0.1-2.9,0c-0.5-0.1-1-0.2-1.4-0.3l-2.1,1.2l-1.1-0.6l-0.9-0.5l2.1-1.2
			C42,36.3,41.7,35.7,41.7,35z"/>
		<path class="st2" d="M41.4,38.7l1.1,0.6l2.1-1.2c0.4,0.1,0.9,0.3,1.4,0.3c1,0.2,2,0.2,2.9,0c1-0.2,1.8-0.4,2.6-0.9
			c1.2-0.7,1.6-1.5,1.5-2.4c-0.1-0.5-0.4-1-1-1.7L51.7,33c-0.1-0.1-0.1-0.2-0.2-0.2c-0.3-0.4-0.4-0.6-0.4-0.9c0-0.3,0.2-0.5,0.6-0.7
			c0.4-0.2,0.8-0.3,1.3-0.4c0.5,0,0.9,0.1,1.3,0.3l0,0c0.4,0.2,0.6,0.5,0.6,0.7c0,0.3-0.2,0.5-0.5,0.8l2.4,1.4
			c0.7-0.4,1.1-0.9,1.3-1.4c0.2-0.5,0.2-1-0.1-1.5c-0.1-0.2-0.3-0.5-0.5-0.7l2.1-1.2l-1.1-0.6l-0.9-0.5l-2.2,1.3l0,0
			c-0.4-0.1-0.8-0.2-1.2-0.3c-0.9-0.1-1.8-0.2-2.6,0c-0.9,0.1-1.6,0.4-2.3,0.7c-0.6,0.3-1,0.8-1.3,1.2c-0.2,0.5-0.3,1-0.1,1.4
			c0.1,0.2,0.3,0.5,0.6,0.9c0,0,0.2,0.2,0.3,0.4c0.1,0.1,0.2,0.2,0.3,0.3c0.3,0.4,0.5,0.8,0.6,1.1c0.1,0.4-0.2,0.8-0.7,1.1
			c-0.5,0.3-1,0.4-1.6,0.4c-0.6,0-1.2-0.1-1.6-0.4l-0.1-0.1c-0.4-0.3-0.7-0.6-0.7-0.9c0-0.3,0.2-0.7,0.7-1l-2.4-1.4
			c-0.6,0.3-0.9,0.7-1.1,1c-0.3,0.4-0.4,0.8-0.4,1.2c0,0.7,0.3,1.3,0.9,1.9l-2.1,1.2L41.4,38.7z"/>
	</g>
	<g>
		<path class="st0" d="M68.7,28.9c0,0.1,0,0.2,0,0.4c0,0,0,0,0,0c0,0.1,0,0.3,0,0.4c0,0,0,0,0,0c0,0,0,0.1,0,0.1c0,0,0,0.1,0,0.1
			c0,0.1-0.1,0.2-0.1,0.4c0,0.1-0.1,0.3-0.1,0.4c0,0,0,0.1-0.1,0.1c0,0,0,0.1,0,0.1c0,0.1-0.1,0.2-0.2,0.3c-0.1,0.1-0.1,0.3-0.2,0.4
			c0,0.1-0.1,0.1-0.1,0.2c0,0,0,0.1-0.1,0.1c-0.1,0.1-0.1,0.2-0.2,0.3c-0.1,0.1-0.2,0.3-0.3,0.4c-0.1,0.1-0.1,0.2-0.2,0.2
			c0,0.1-0.1,0.1-0.1,0.2c0,0.1-0.1,0.1-0.2,0.2c-0.1,0.1-0.2,0.2-0.3,0.3c-0.2,0.2-0.4,0.4-0.5,0.5c-0.1,0.1-0.1,0.1-0.2,0.2
			c0,0-0.1,0.1-0.1,0.1c0,0-0.1,0.1-0.1,0.1c-0.2,0.1-0.3,0.3-0.5,0.4c-0.2,0.1-0.3,0.3-0.5,0.4c0,0-0.1,0.1-0.1,0.1
			c-0.2,0.1-0.4,0.3-0.6,0.4c-0.2,0.1-0.3,0.2-0.5,0.3c-0.1,0-0.2,0.1-0.2,0.1c-0.6,0.3-1.2,0.6-1.8,0.9c-0.2,0.1-0.4,0.2-0.5,0.2
			c-0.5,0.2-1,0.4-1.5,0.6c-0.1,0-0.2,0.1-0.3,0.1c-0.1,0-0.1,0-0.2,0.1c-0.3,0.1-0.6,0.2-0.9,0.3c-0.2,0.1-0.5,0.1-0.7,0.2
			c-0.3,0.1-0.7,0.2-1.1,0.2c-0.2,0-0.4,0.1-0.6,0.1c0,0-0.1,0-0.1,0c-0.7,0.1-1.4,0.2-2.1,0.3c-0.1,0-0.1,0-0.2,0
			c-0.2,0-0.3,0-0.5,0c-0.4,0-0.8,0.1-1.3,0.1c-0.1,0-0.2,0-0.3,0c-0.2,0-0.3,0-0.5,0c-0.3,0-0.7,0-1,0c-0.1,0-0.2,0-0.4,0
			c-0.2,0-0.3,0-0.5,0c-0.3,0-0.6,0-1-0.1c-0.1,0-0.3,0-0.4,0c-0.1,0-0.3,0-0.4-0.1c-0.3,0-0.6-0.1-0.9-0.1c-0.1,0-0.3,0-0.4,0
			c-0.1,0-0.3,0-0.4-0.1c-0.3-0.1-0.7-0.1-1-0.2c-0.2,0-0.3,0-0.5-0.1c-0.1,0-0.2-0.1-0.3-0.1c-0.4-0.1-0.8-0.2-1.2-0.3
			c-0.2,0-0.3-0.1-0.5-0.1c-0.1,0-0.1,0-0.2-0.1c-0.7-0.2-1.4-0.4-2-0.7c0,0-0.1,0-0.1,0c-0.3-0.1-0.6-0.2-0.9-0.4
			c-0.2-0.1-0.3-0.1-0.5-0.2c-0.5-0.2-0.9-0.5-1.4-0.7c-0.5-0.3-0.9-0.5-1.3-0.8c-0.1-0.1-0.2-0.1-0.3-0.2c-0.3-0.2-0.6-0.4-0.8-0.7
			c-0.1-0.1-0.2-0.2-0.3-0.3c-0.2-0.2-0.5-0.4-0.7-0.6c-0.1-0.1-0.2-0.2-0.3-0.3c-0.2-0.2-0.4-0.4-0.5-0.6c-0.1-0.1-0.2-0.3-0.2-0.4
			c-0.1-0.2-0.3-0.4-0.4-0.6c-0.1-0.1-0.1-0.3-0.2-0.4c-0.1-0.2-0.2-0.4-0.2-0.6c0-0.1-0.1-0.3-0.1-0.5c-0.1-0.2-0.1-0.4-0.1-0.6
			c0-0.2,0-0.3,0-0.5c0-0.2,0-0.4,0-0.6c0,0,0,0,0,0l0,3.8c0,2.8,1.8,5.6,5.5,7.7c0.4,0.3,0.9,0.5,1.4,0.7c0.2,0.1,0.3,0.1,0.5,0.2
			c0.3,0.1,0.5,0.2,0.8,0.3c0,0,0.1,0,0.1,0c0.6,0.3,1.3,0.5,2,0.7c0.1,0,0.1,0,0.2,0c0.2,0,0.3,0.1,0.5,0.1
			c0.4,0.1,0.8,0.2,1.2,0.3c0.1,0,0.2,0,0.3,0.1c0.2,0,0.3,0.1,0.5,0.1c0.3,0.1,0.7,0.1,1,0.2c0.1,0,0.3,0,0.4,0.1
			c0.1,0,0.3,0,0.4,0.1c0.3,0,0.6,0.1,0.9,0.1c0.1,0,0.3,0,0.4,0c0.1,0,0.3,0,0.4,0c0.3,0,0.6,0,0.9,0.1c0.2,0,0.3,0,0.5,0
			c0.1,0,0.3,0,0.4,0c0.3,0,0.7,0,1,0c0.2,0,0.3,0,0.5,0c0.1,0,0.2,0,0.3,0c0.4,0,0.9,0,1.3-0.1c0.2,0,0.3,0,0.5,0c0,0,0.1,0,0.2,0
			c0.7-0.1,1.4-0.2,2.1-0.3c0,0,0.1,0,0.1,0c0.2,0,0.4-0.1,0.6-0.1c0.3-0.1,0.7-0.1,1-0.2c0.2-0.1,0.5-0.1,0.7-0.2
			c0.3-0.1,0.7-0.2,1-0.3c0.1,0,0.1,0,0.2-0.1c0.1,0,0.2-0.1,0.3-0.1c0.5-0.2,1-0.4,1.5-0.6c0.2-0.1,0.4-0.1,0.5-0.2
			c0.6-0.3,1.2-0.6,1.8-0.9c0.1,0,0.1-0.1,0.2-0.1c0.2-0.1,0.3-0.2,0.5-0.3c0.2-0.1,0.5-0.3,0.7-0.4c0.2-0.1,0.4-0.3,0.5-0.4
			c0.2-0.2,0.4-0.3,0.6-0.5c0,0,0.1-0.1,0.1-0.1c0.1-0.1,0.1-0.1,0.2-0.2c0.3-0.3,0.5-0.6,0.8-0.8C66.9,37.1,67,37,67,37
			c0-0.1,0.1-0.1,0.1-0.2c0.2-0.2,0.3-0.4,0.4-0.6c0.1-0.1,0.1-0.2,0.2-0.3c0,0,0-0.1,0.1-0.1c0.1-0.2,0.2-0.4,0.3-0.6
			c0.1-0.1,0.1-0.3,0.2-0.4c0,0,0-0.1,0-0.1c0.1-0.2,0.1-0.4,0.2-0.5c0-0.2,0.1-0.3,0.1-0.5c0,0,0,0,0,0c0-0.2,0-0.4,0.1-0.6
			c0-0.2,0-0.4,0-0.6c0,0,0,0,0,0l0-3.8C68.7,28.8,68.7,28.8,68.7,28.9z"/>
		<path class="st1" d="M31.4,29.2c0,0.2,0,0.3,0,0.5c0,0.2,0.1,0.4,0.1,0.6c0,0.2,0.1,0.3,0.1,0.5c0.1,0.2,0.2,0.4,0.2,0.6
			c0.1,0.1,0.1,0.3,0.2,0.4c0.1,0.2,0.2,0.4,0.4,0.6c0.1,0.1,0.1,0.3,0.2,0.4c0.1,0.2,0.3,0.4,0.5,0.6c0.1,0.1,0.2,0.2,0.3,0.3
			c0.2,0.2,0.4,0.4,0.7,0.6c0.1,0.1,0.2,0.2,0.3,0.3c0.3,0.2,0.5,0.4,0.8,0.7c0.1,0.1,0.2,0.1,0.3,0.2c0.4,0.3,0.8,0.6,1.3,0.8
			c0.4,0.3,0.9,0.5,1.4,0.7c0.1,0.1,0.3,0.1,0.5,0.2c0.3,0.1,0.6,0.3,1,0.4c0.6,0.3,1.3,0.5,2,0.7c0.2,0.1,0.4,0.1,0.7,0.2
			c0.4,0.1,0.8,0.2,1.2,0.3c0.3,0.1,0.5,0.1,0.8,0.2c0.3,0.1,0.7,0.1,1,0.2c0.3,0,0.6,0.1,0.8,0.1c0.3,0,0.6,0.1,0.9,0.1
			c0.3,0,0.6,0.1,0.9,0.1c0.3,0,0.6,0,1,0.1c0.3,0,0.6,0,0.8,0c0.3,0,0.7,0,1,0c0.3,0,0.5,0,0.8,0c0.4,0,0.8,0,1.3-0.1
			c0.2,0,0.4,0,0.7-0.1c0.7-0.1,1.4-0.2,2.1-0.3c0.2,0,0.4-0.1,0.7-0.1c0.4-0.1,0.7-0.1,1.1-0.2c0.3-0.1,0.5-0.1,0.7-0.2
			c0.3-0.1,0.6-0.2,0.9-0.3c0.2-0.1,0.4-0.1,0.6-0.2c0.5-0.2,1-0.4,1.5-0.6c0.2-0.1,0.4-0.2,0.5-0.2c0.6-0.3,1.2-0.6,1.8-0.9
			c0.5-0.3,0.9-0.5,1.3-0.8c0,0,0.1-0.1,0.1-0.1c0.4-0.3,0.7-0.5,1-0.8c0,0,0.1-0.1,0.1-0.1c0.3-0.3,0.6-0.5,0.8-0.8
			c0.1-0.1,0.2-0.2,0.3-0.3c0.2-0.2,0.3-0.4,0.5-0.6c0.1-0.1,0.2-0.3,0.3-0.4c0.1-0.2,0.2-0.4,0.3-0.6c0.1-0.1,0.1-0.3,0.2-0.4
			c0.1-0.2,0.2-0.4,0.2-0.6c0-0.1,0.1-0.3,0.1-0.4c0.1-0.2,0.1-0.4,0.1-0.6c0,0,0,0,0,0c0.5-3.1-1.3-6.3-5.4-8.7
			c-2.7-1.6-6.1-2.6-9.7-3c-2.2-0.2-4.4-0.3-6.6,0c-0.2,0-0.4,0-0.6,0c0,0-0.1,0-0.1,0c-3.5,0.4-6.8,1.4-9.5,3
			c-1.5,0.9-2.7,1.9-3.6,3c-1.2,1.5-1.8,3-1.8,4.6C31.3,28.8,31.4,29,31.4,29.2z M41.7,30c0-0.4,0.1-0.8,0.4-1.2
			c0.2-0.3,0.6-0.6,1.1-1l2.4,1.4c-0.5,0.3-0.7,0.6-0.7,1c0,0.3,0.3,0.6,0.7,0.9l0.1,0.1c0.5,0.3,1,0.4,1.6,0.4
			c0.6,0,1.2-0.1,1.6-0.4c0.5-0.3,0.8-0.7,0.7-1.1c0-0.3-0.2-0.6-0.6-1.1c-0.1-0.1-0.2-0.2-0.3-0.3c-0.2-0.2-0.3-0.3-0.3-0.4
			c-0.3-0.4-0.5-0.6-0.6-0.9c-0.2-0.5-0.2-0.9,0.1-1.4c0.2-0.5,0.7-0.9,1.3-1.2c0.6-0.4,1.4-0.6,2.3-0.7c0.9-0.1,1.8-0.1,2.6,0
			c0.4,0.1,0.8,0.2,1.2,0.3l0,0l2.2-1.3l0.9,0.5l1.1,0.6l-2.1,1.2c0.2,0.2,0.4,0.4,0.5,0.7c0.3,0.5,0.3,1,0.1,1.5
			c-0.2,0.5-0.7,1-1.3,1.4l-2.4-1.4c0.4-0.3,0.5-0.5,0.5-0.8c0-0.3-0.2-0.5-0.6-0.7l0,0c-0.4-0.2-0.8-0.3-1.3-0.3
			c-0.5,0-0.9,0.1-1.3,0.4c-0.4,0.2-0.6,0.5-0.6,0.7c0,0.2,0.2,0.5,0.4,0.9c0.1,0.1,0.1,0.2,0.2,0.2l0.4,0.4c0.6,0.7,0.9,1.2,1,1.7
			c0.2,0.9-0.3,1.7-1.5,2.4c-0.7,0.4-1.6,0.7-2.6,0.9c-1,0.1-2,0.1-2.9,0c-0.5-0.1-1-0.2-1.4-0.3l-2.1,1.2l-1.1-0.6l-0.9-0.5
			l2.1-1.2C42,31.3,41.7,30.7,41.7,30z"/>
		<path class="st2" d="M41.4,33.6l1.1,0.6l2.1-1.2c0.4,0.1,0.9,0.3,1.4,0.3c1,0.2,2,0.2,2.9,0c1-0.2,1.8-0.4,2.6-0.9
			c1.2-0.7,1.6-1.5,1.5-2.4c-0.1-0.5-0.4-1-1-1.7L51.7,28c-0.1-0.1-0.1-0.2-0.2-0.2c-0.3-0.4-0.4-0.6-0.4-0.9c0-0.3,0.2-0.5,0.6-0.7
			c0.4-0.2,0.8-0.3,1.3-0.4c0.5,0,0.9,0.1,1.3,0.3l0,0c0.4,0.2,0.6,0.5,0.6,0.7c0,0.3-0.2,0.6-0.5,0.8l2.4,1.4
			c0.7-0.4,1.1-0.9,1.3-1.4c0.2-0.5,0.2-1-0.1-1.5c-0.1-0.2-0.3-0.5-0.5-0.7l2.1-1.2l-1.1-0.6l-0.9-0.5l-2.2,1.3l0,0
			c-0.4-0.1-0.8-0.2-1.2-0.3c-0.9-0.1-1.8-0.2-2.6,0c-0.9,0.1-1.6,0.4-2.3,0.7c-0.6,0.3-1,0.8-1.3,1.2c-0.2,0.5-0.3,1-0.1,1.4
			c0.1,0.2,0.3,0.5,0.6,0.9c0,0,0.2,0.2,0.3,0.4c0.1,0.1,0.2,0.2,0.3,0.3c0.3,0.4,0.5,0.8,0.6,1.1c0.1,0.4-0.2,0.8-0.7,1.1
			c-0.5,0.3-1,0.4-1.6,0.4c-0.6,0-1.2-0.1-1.6-0.4l-0.1-0.1c-0.4-0.3-0.7-0.6-0.7-0.9c0-0.3,0.2-0.7,0.7-1l-2.4-1.4
			c-0.6,0.3-0.9,0.7-1.1,1c-0.3,0.4-0.4,0.8-0.4,1.2c0,0.7,0.3,1.3,0.9,1.8l-2.1,1.2L41.4,33.6z"/>
	</g>
	<g>
		<path class="st0" d="M68.7,23.8c0,0.1,0,0.2,0,0.4c0,0,0,0,0,0c0,0.1,0,0.3,0,0.4c0,0,0,0,0,0c0,0,0,0.1,0,0.1c0,0,0,0.1,0,0.1
			c0,0.1-0.1,0.2-0.1,0.4c0,0.1-0.1,0.3-0.1,0.4c0,0,0,0.1-0.1,0.1c0,0,0,0.1,0,0.1c0,0.1-0.1,0.2-0.2,0.3c-0.1,0.1-0.1,0.3-0.2,0.4
			c0,0.1-0.1,0.1-0.1,0.2c0,0,0,0.1-0.1,0.1c-0.1,0.1-0.1,0.2-0.2,0.3c-0.1,0.1-0.2,0.3-0.3,0.4c-0.1,0.1-0.1,0.2-0.2,0.2
			c0,0.1-0.1,0.1-0.1,0.2c0,0.1-0.1,0.1-0.2,0.2c-0.1,0.1-0.2,0.2-0.3,0.3c-0.2,0.2-0.4,0.4-0.5,0.5c-0.1,0.1-0.1,0.1-0.2,0.2
			c0,0-0.1,0.1-0.1,0.1c0,0-0.1,0.1-0.1,0.1c-0.2,0.1-0.3,0.3-0.5,0.4c-0.2,0.1-0.3,0.3-0.5,0.4c0,0-0.1,0.1-0.1,0.1
			c-0.2,0.1-0.4,0.3-0.6,0.4c-0.2,0.1-0.3,0.2-0.5,0.3c-0.1,0-0.2,0.1-0.2,0.1c-0.6,0.3-1.2,0.6-1.8,0.9c-0.2,0.1-0.4,0.2-0.5,0.2
			c-0.5,0.2-1,0.4-1.5,0.6c-0.1,0-0.2,0.1-0.3,0.1c-0.1,0-0.1,0-0.2,0.1c-0.3,0.1-0.6,0.2-0.9,0.3c-0.2,0.1-0.5,0.1-0.7,0.2
			c-0.3,0.1-0.7,0.2-1.1,0.2c-0.2,0-0.4,0.1-0.6,0.1c0,0-0.1,0-0.1,0c-0.7,0.1-1.4,0.2-2.1,0.3c-0.1,0-0.1,0-0.2,0
			c-0.2,0-0.3,0-0.5,0c-0.4,0-0.8,0.1-1.3,0.1c-0.1,0-0.2,0-0.3,0c-0.2,0-0.3,0-0.5,0c-0.3,0-0.7,0-1,0c-0.1,0-0.2,0-0.4,0
			c-0.2,0-0.3,0-0.5,0c-0.3,0-0.6,0-1-0.1c-0.1,0-0.3,0-0.4,0c-0.1,0-0.3,0-0.4-0.1c-0.3,0-0.6-0.1-0.9-0.1c-0.1,0-0.3,0-0.4,0
			c-0.1,0-0.3,0-0.4-0.1c-0.3-0.1-0.7-0.1-1-0.2c-0.2,0-0.3,0-0.5-0.1c-0.1,0-0.2-0.1-0.3-0.1c-0.4-0.1-0.8-0.2-1.2-0.3
			c-0.2,0-0.3-0.1-0.5-0.1c-0.1,0-0.1,0-0.2-0.1c-0.7-0.2-1.4-0.4-2-0.7c0,0-0.1,0-0.1,0c-0.3-0.1-0.6-0.2-0.9-0.4
			c-0.2-0.1-0.3-0.1-0.5-0.2c-0.5-0.2-0.9-0.5-1.4-0.7c-0.5-0.3-0.9-0.5-1.3-0.8c-0.1-0.1-0.2-0.1-0.3-0.2c-0.3-0.2-0.6-0.4-0.8-0.7
			c-0.1-0.1-0.2-0.2-0.3-0.3c-0.2-0.2-0.5-0.4-0.7-0.6c-0.1-0.1-0.2-0.2-0.3-0.3c-0.2-0.2-0.4-0.4-0.5-0.6c-0.1-0.1-0.2-0.3-0.2-0.4
			c-0.1-0.2-0.3-0.4-0.4-0.6c-0.1-0.1-0.1-0.3-0.2-0.4c-0.1-0.2-0.2-0.4-0.2-0.6c0-0.1-0.1-0.3-0.1-0.5c-0.1-0.2-0.1-0.4-0.1-0.6
			c0-0.2,0-0.3,0-0.5c0-0.2,0-0.4,0-0.6c0,0,0,0,0,0l0,3.8c0,2.8,1.8,5.6,5.5,7.7c0.4,0.3,0.9,0.5,1.4,0.7c0.2,0.1,0.3,0.1,0.5,0.2
			c0.3,0.1,0.5,0.2,0.8,0.3c0,0,0.1,0,0.1,0c0.6,0.3,1.3,0.5,2,0.7c0.1,0,0.1,0,0.2,0c0.2,0,0.3,0.1,0.5,0.1
			c0.4,0.1,0.8,0.2,1.2,0.3c0.1,0,0.2,0,0.3,0.1c0.2,0,0.3,0.1,0.5,0.1c0.3,0.1,0.7,0.1,1,0.2c0.1,0,0.3,0,0.4,0.1
			c0.1,0,0.3,0,0.4,0.1c0.3,0,0.6,0.1,0.9,0.1c0.1,0,0.3,0,0.4,0c0.1,0,0.3,0,0.4,0c0.3,0,0.6,0,0.9,0c0.2,0,0.3,0,0.5,0
			c0.1,0,0.3,0,0.4,0c0.3,0,0.7,0,1,0c0.2,0,0.3,0,0.5,0c0.1,0,0.2,0,0.3,0c0.4,0,0.9-0.1,1.3-0.1c0.2,0,0.3,0,0.5,0
			c0,0,0.1,0,0.2,0c0.7-0.1,1.4-0.2,2.1-0.3c0,0,0.1,0,0.1,0c0.2,0,0.4-0.1,0.6-0.1c0.3-0.1,0.7-0.1,1-0.2c0.2-0.1,0.5-0.1,0.7-0.2
			c0.3-0.1,0.7-0.2,1-0.3c0.1,0,0.1,0,0.2-0.1c0.1,0,0.2-0.1,0.3-0.1c0.5-0.2,1-0.4,1.5-0.6c0.2-0.1,0.4-0.1,0.5-0.2
			c0.6-0.3,1.2-0.6,1.8-0.9c0.1,0,0.1-0.1,0.2-0.1c0.2-0.1,0.3-0.2,0.5-0.3c0.2-0.1,0.5-0.3,0.7-0.4c0.2-0.1,0.4-0.3,0.5-0.4
			c0.2-0.2,0.4-0.3,0.6-0.5c0,0,0.1-0.1,0.1-0.1c0.1-0.1,0.1-0.1,0.2-0.2c0.3-0.3,0.5-0.6,0.8-0.8c0.1-0.1,0.1-0.1,0.2-0.2
			c0-0.1,0.1-0.1,0.1-0.2c0.2-0.2,0.3-0.4,0.4-0.6c0.1-0.1,0.1-0.2,0.2-0.3c0,0,0-0.1,0.1-0.1c0.1-0.2,0.2-0.4,0.3-0.6
			c0.1-0.1,0.1-0.3,0.2-0.4c0,0,0-0.1,0-0.1c0.1-0.2,0.1-0.4,0.2-0.5c0-0.2,0.1-0.3,0.1-0.5c0,0,0,0,0,0c0-0.2,0-0.4,0.1-0.6
			c0-0.2,0-0.4,0-0.6c0,0,0,0,0,0l0-3.8C68.7,23.6,68.7,23.7,68.7,23.8z"/>
		<path class="st1" d="M31.4,24.1c0,0.2,0,0.3,0,0.5c0,0.2,0.1,0.4,0.1,0.6c0,0.2,0.1,0.3,0.1,0.5c0.1,0.2,0.2,0.4,0.2,0.6
			c0.1,0.1,0.1,0.3,0.2,0.4c0.1,0.2,0.2,0.4,0.4,0.6c0.1,0.1,0.1,0.3,0.2,0.4c0.1,0.2,0.3,0.4,0.5,0.6c0.1,0.1,0.2,0.2,0.3,0.3
			c0.2,0.2,0.4,0.4,0.7,0.6c0.1,0.1,0.2,0.2,0.3,0.3c0.3,0.2,0.5,0.4,0.8,0.7c0.1,0.1,0.2,0.1,0.3,0.2c0.4,0.3,0.8,0.6,1.3,0.8
			c0.4,0.3,0.9,0.5,1.4,0.7c0.1,0.1,0.3,0.1,0.5,0.2c0.3,0.1,0.6,0.3,1,0.4c0.6,0.3,1.3,0.5,2,0.7c0.2,0.1,0.4,0.1,0.7,0.2
			c0.4,0.1,0.8,0.2,1.2,0.3c0.3,0.1,0.5,0.1,0.8,0.2c0.3,0.1,0.7,0.1,1,0.2c0.3,0,0.6,0.1,0.8,0.1c0.3,0,0.6,0.1,0.9,0.1
			c0.3,0,0.6,0.1,0.9,0.1c0.3,0,0.6,0,1,0.1c0.3,0,0.6,0,0.8,0c0.3,0,0.7,0,1,0c0.3,0,0.5,0,0.8,0c0.4,0,0.8,0,1.3-0.1
			c0.2,0,0.4,0,0.7-0.1c0.7-0.1,1.4-0.2,2.1-0.3c0.2,0,0.4-0.1,0.7-0.1c0.4-0.1,0.7-0.1,1.1-0.2c0.3-0.1,0.5-0.1,0.7-0.2
			c0.3-0.1,0.6-0.2,0.9-0.3c0.2-0.1,0.4-0.1,0.6-0.2c0.5-0.2,1-0.4,1.5-0.6c0.2-0.1,0.4-0.1,0.5-0.2c0.6-0.3,1.2-0.6,1.8-0.9
			c0.5-0.3,0.9-0.5,1.3-0.8c0,0,0.1-0.1,0.1-0.1c0.4-0.3,0.7-0.5,1-0.8c0,0,0.1-0.1,0.1-0.1c0.3-0.3,0.6-0.5,0.8-0.8
			c0.1-0.1,0.2-0.2,0.3-0.3c0.2-0.2,0.3-0.4,0.5-0.6c0.1-0.1,0.2-0.3,0.3-0.4c0.1-0.2,0.2-0.4,0.3-0.6c0.1-0.1,0.1-0.3,0.2-0.4
			c0.1-0.2,0.2-0.4,0.2-0.6c0-0.1,0.1-0.3,0.1-0.4c0.1-0.2,0.1-0.4,0.1-0.6c0,0,0,0,0,0c0.5-3.1-1.3-6.3-5.4-8.7
			c-2.7-1.6-6.1-2.6-9.7-3c-2.2-0.2-4.4-0.3-6.6,0c-0.2,0-0.4,0-0.6,0c0,0-0.1,0-0.1,0c-3.5,0.4-6.8,1.4-9.5,3
			c-1.5,0.9-2.7,1.9-3.6,3c-1.2,1.5-1.8,3-1.8,4.6C31.3,23.7,31.4,23.9,31.4,24.1z"/>
		<g>
			<path class="st3" d="M53.9,18.5c-1.1-0.1-2.1-0.1-2.1-0.1c0,0,0.9,1.5,1,1.6c0,0,0.3,0,0.7,0.1l0.6,0l0.2,0.4l0.2,0.4l1.1,0.1
				c1.6,0.2,1.8,0.2,1.8,0.2c0,0-0.2-0.4-0.8-1.3c-0.3-0.4-0.5-0.9-0.6-1c0-0.1-0.1-0.2-0.1-0.2C56,18.6,55,18.6,53.9,18.5z
				 M48.9,18.1L47.7,18L46,19.3c-0.9,0.7-1.7,1.3-1.7,1.3c0,0,0.6,0.1,1.2,0.1l1.2,0.1l1.8-1.3l0.2,0.4c0.2,0.3,0.3,0.5,0.5,0.8
				l0.3,0.5l0.3,0c0.2,0,0.4,0,0.6,0.1c0.2,0,0.6,0.1,0.9,0.1c0.3,0,0.6,0.1,0.7,0.1c0.1,0-0.2-0.4-0.9-1.6c-0.5-0.9-1-1.6-1.1-1.6
				C50.1,18.2,49.5,18.2,48.9,18.1z M56.6,21.9c-0.8-0.1-1.4-0.1-1.4-0.1c0,0,0.1,0.3,0.3,0.6c0.2,0.3,0.3,0.6,0.3,0.6
				c0,0-0.5,0-1-0.1c-0.6-0.1-2-0.2-3.1-0.3l-3.9-0.4c-1-0.1-1.9-0.2-2-0.2c-2-0.2-2.6-0.3-2.6-0.3c-0.1,0-0.3,0.1-1.1,0.7l-1,0.7
				l0.4,0.6l0.4,0.6l1.4,0.2c0.8,0.1,1.4,0.1,1.4,0.1c0,0,0-0.1-0.1-0.2c-0.1-0.1-0.2-0.3-0.3-0.5c-0.1-0.2-0.2-0.3-0.2-0.4
				c0,0,0-0.1,0-0.1c0,0,0.6,0,1.4,0.1c1.5,0.2,2.6,0.3,5,0.5c1.1,0.1,2.2,0.2,3.2,0.3c1,0.1,2.1,0.2,2.5,0.3l0.7,0.1l1-0.7l1-0.7
				l-0.4-0.6c-0.2-0.3-0.4-0.6-0.4-0.6C58.1,22,57.4,22,56.6,21.9z M55.3,25.7c-0.2,0-0.5,0-0.7-0.1s-0.6-0.1-0.9-0.1l-0.5-0.1
				l-0.9,0.7c-0.5,0.4-0.9,0.6-0.9,0.6c0,0-0.4-0.6-0.7-1.2c-0.2-0.4-0.3-0.4-0.4-0.5c-0.1,0-0.7-0.1-1.3-0.1
				c-0.6-0.1-1.1-0.1-1.1-0.1c0,0,0.4,0.7,0.9,1.6l1,1.6l1.2,0.1c0.7,0,1.3,0.1,1.3,0.1c0.1,0,3.4-2.5,3.4-2.5
				C55.6,25.7,55.4,25.7,55.3,25.7z M46.8,26.5c-0.2,0-0.4,0-0.6-0.1c-0.6-0.1-0.5,0-0.8-0.4c-0.2-0.3-0.3-0.4-0.4-0.4
				c-0.1,0-0.6-0.1-1.3-0.1c-0.6-0.1-1.2-0.1-1.2-0.1c-0.2-0.1-0.1,0.2,0.6,1.2l0.8,1.2l0.9,0.1c0.5,0,1.5,0.1,2.2,0.2
				c0.7,0.1,1.3,0.1,1.3,0.1c0,0-0.2-0.3-0.5-0.7l-0.5-0.7L46.8,26.5z"/>
		</g>
	</g>
	<g>
		<path class="st0" d="M64.8,81.5c0,0.1,0,0.2,0,0.4c0,0,0,0,0,0c0,0.1,0,0.3,0,0.4c0,0,0,0.1,0,0.1c0,0,0,0.1,0,0.1
			c0,0.1-0.1,0.2-0.1,0.4c0,0.1-0.1,0.3-0.1,0.4c0,0,0,0.1-0.1,0.1c0,0,0,0.1,0,0.1c0,0.1-0.1,0.2-0.2,0.3c-0.1,0.1-0.1,0.3-0.2,0.4
			c0,0.1-0.1,0.1-0.1,0.2c0,0,0,0.1-0.1,0.1c0,0.1-0.1,0.2-0.2,0.3c-0.1,0.1-0.2,0.3-0.3,0.4c-0.1,0.1-0.1,0.2-0.2,0.2
			c0,0.1-0.1,0.1-0.1,0.2c0,0.1-0.1,0.1-0.2,0.2c-0.1,0.1-0.2,0.2-0.3,0.3c-0.2,0.2-0.4,0.4-0.5,0.5C62.1,86.9,62,87,62,87.1
			c0,0-0.1,0.1-0.1,0.1c0,0-0.1,0.1-0.1,0.1c-0.2,0.1-0.3,0.3-0.5,0.4c-0.2,0.1-0.3,0.3-0.5,0.4c0,0-0.1,0.1-0.1,0.1
			c-0.2,0.1-0.4,0.3-0.6,0.4c-0.2,0.1-0.3,0.2-0.5,0.3c-0.1,0-0.2,0.1-0.2,0.1c-0.6,0.3-1.2,0.6-1.8,0.9c-0.2,0.1-0.4,0.2-0.5,0.2
			c-0.5,0.2-1,0.4-1.5,0.6c-0.1,0-0.2,0.1-0.3,0.1c-0.1,0-0.1,0-0.2,0.1c-0.3,0.1-0.6,0.2-1,0.3c-0.2,0.1-0.5,0.1-0.7,0.2
			c-0.4,0.1-0.7,0.2-1.1,0.2c-0.2,0-0.4,0.1-0.6,0.1c0,0-0.1,0-0.1,0c-0.7,0.1-1.4,0.2-2.1,0.3c-0.1,0-0.1,0-0.2,0
			c-0.2,0-0.3,0-0.5,0c-0.4,0-0.8,0.1-1.3,0.1c-0.1,0-0.2,0-0.3,0c-0.2,0-0.3,0-0.5,0c-0.3,0-0.7,0-1,0c-0.1,0-0.2,0-0.4,0
			c-0.2,0-0.3,0-0.5,0c-0.3,0-0.6,0-1-0.1c-0.1,0-0.3,0-0.4,0c-0.2,0-0.3,0-0.4-0.1c-0.3,0-0.6-0.1-0.9-0.1c-0.1,0-0.3,0-0.4,0
			c-0.1,0-0.3,0-0.4-0.1c-0.3-0.1-0.7-0.1-1-0.2c-0.2,0-0.3-0.1-0.5-0.1c-0.1,0-0.2-0.1-0.3-0.1c-0.4-0.1-0.8-0.2-1.2-0.3
			c-0.2,0-0.3-0.1-0.5-0.1c-0.1,0-0.1,0-0.2-0.1c-0.7-0.2-1.4-0.4-2-0.7c0,0-0.1,0-0.1,0c-0.3-0.1-0.6-0.2-0.9-0.4
			c-0.2-0.1-0.3-0.1-0.5-0.2c-0.5-0.2-0.9-0.5-1.4-0.7c-0.5-0.3-0.9-0.5-1.3-0.8c-0.1-0.1-0.2-0.2-0.3-0.3c-0.3-0.2-0.6-0.4-0.8-0.6
			c-0.1-0.1-0.2-0.2-0.3-0.3c-0.2-0.2-0.4-0.4-0.6-0.6c-0.1-0.1-0.2-0.3-0.3-0.4c-0.2-0.2-0.3-0.4-0.5-0.6c-0.1-0.1-0.2-0.3-0.3-0.4
			c-0.1-0.2-0.2-0.4-0.3-0.6c-0.1-0.1-0.1-0.3-0.2-0.4c-0.1-0.2-0.2-0.4-0.2-0.6c0-0.1-0.1-0.3-0.1-0.4c-0.1-0.2-0.1-0.4-0.1-0.6
			c0-0.1,0-0.3,0-0.4c0-0.2,0-0.4-0.1-0.6l0,3.8c0,2.8,1.8,5.6,5.5,7.7c0.4,0.3,0.9,0.5,1.4,0.7c0.2,0.1,0.3,0.1,0.5,0.2
			c0.3,0.1,0.6,0.2,0.8,0.4c0,0,0.1,0,0.1,0c0.7,0.3,1.3,0.5,2,0.7c0.1,0,0.1,0,0.2,0c0.2,0,0.3,0.1,0.5,0.1
			c0.4,0.1,0.8,0.2,1.2,0.3c0.1,0,0.2,0,0.3,0.1c0.2,0,0.3,0.1,0.5,0.1c0.3,0.1,0.7,0.1,1,0.2c0.1,0,0.3,0,0.4,0.1
			c0.1,0,0.3,0,0.4,0.1c0.3,0,0.6,0.1,0.9,0.1c0.1,0,0.3,0,0.4,0c0.1,0,0.3,0,0.4,0c0.3,0,0.6,0,0.9,0c0.2,0,0.3,0,0.5,0
			c0.1,0,0.3,0,0.4,0c0.3,0,0.7,0,1,0c0.2,0,0.3,0,0.5,0c0.1,0,0.2,0,0.3,0c0.4,0,0.8-0.1,1.3-0.1c0.2,0,0.3,0,0.5,0
			c0,0,0.1,0,0.2,0c0.7-0.1,1.4-0.2,2.1-0.3c0,0,0.1,0,0.1,0c0.2,0,0.4-0.1,0.6-0.1c0.3-0.1,0.7-0.1,1-0.2c0.3-0.1,0.5-0.1,0.7-0.2
			c0.3-0.1,0.6-0.2,1-0.3c0.1,0,0.1,0,0.2-0.1c0.1,0,0.2-0.1,0.3-0.1c0.5-0.2,1-0.4,1.5-0.6c0.2-0.1,0.4-0.2,0.5-0.2
			c0.6-0.3,1.2-0.6,1.8-0.9c0.1,0,0.1-0.1,0.2-0.1c0.2-0.1,0.3-0.2,0.5-0.3c0.2-0.1,0.4-0.3,0.6-0.4c0.2-0.1,0.4-0.3,0.5-0.4
			c0.2-0.2,0.4-0.3,0.5-0.5c0,0,0.1-0.1,0.1-0.1c0.1-0.1,0.1-0.1,0.2-0.2c0.3-0.3,0.5-0.6,0.8-0.8c0.1-0.1,0.1-0.1,0.2-0.2
			c0-0.1,0.1-0.1,0.1-0.2c0.2-0.2,0.3-0.4,0.4-0.6c0.1-0.1,0.1-0.2,0.2-0.3c0,0,0-0.1,0.1-0.1c0.1-0.2,0.2-0.4,0.3-0.6
			c0.1-0.1,0.1-0.3,0.2-0.4c0,0,0-0.1,0-0.1c0.1-0.2,0.1-0.4,0.2-0.5c0-0.2,0.1-0.3,0.1-0.5c0,0,0,0,0,0c0-0.2,0-0.4,0.1-0.6
			c0-0.2,0-0.4,0-0.6c0,0,0,0,0,0l0-3.8C64.8,81.4,64.8,81.5,64.8,81.5z"/>
		<path class="st1" d="M27.5,82.3c0,0.2,0.1,0.4,0.1,0.6c0,0.1,0.1,0.3,0.1,0.4c0.1,0.2,0.2,0.4,0.2,0.6c0.1,0.1,0.1,0.3,0.2,0.4
			c0.1,0.2,0.2,0.4,0.3,0.6c0.1,0.1,0.2,0.3,0.3,0.4c0.1,0.2,0.3,0.4,0.5,0.6c0.1,0.1,0.2,0.3,0.3,0.4c0.2,0.2,0.4,0.4,0.6,0.6
			c0.1,0.1,0.2,0.2,0.3,0.3c0.2,0.2,0.5,0.4,0.8,0.6c0.1,0.1,0.2,0.2,0.3,0.3c0.4,0.3,0.8,0.6,1.3,0.8c0.4,0.3,0.9,0.5,1.4,0.7
			c0.2,0.1,0.3,0.1,0.5,0.2c0.3,0.1,0.6,0.3,1,0.4c0.6,0.3,1.3,0.5,2,0.7c0.2,0.1,0.4,0.1,0.6,0.2c0.4,0.1,0.8,0.2,1.2,0.3
			c0.3,0.1,0.5,0.1,0.8,0.2c0.3,0.1,0.7,0.1,1,0.2c0.3,0,0.6,0.1,0.8,0.1c0.3,0,0.6,0.1,0.9,0.1c0.3,0,0.6,0.1,0.9,0.1
			c0.3,0,0.6,0,1,0.1c0.3,0,0.6,0,0.8,0c0.3,0,0.7,0,1,0c0.3,0,0.5,0,0.8,0c0.4,0,0.8,0,1.3-0.1c0.2,0,0.4,0,0.7-0.1
			c0.7-0.1,1.4-0.2,2.1-0.3c0.2,0,0.4-0.1,0.7-0.1c0.4-0.1,0.7-0.1,1.1-0.2c0.2-0.1,0.5-0.1,0.7-0.2c0.3-0.1,0.6-0.2,1-0.3
			c0.2-0.1,0.4-0.1,0.5-0.2c0.5-0.2,1-0.4,1.5-0.6c0.2-0.1,0.4-0.1,0.5-0.2c0.6-0.3,1.2-0.6,1.8-0.9c0.5-0.3,0.9-0.5,1.3-0.8
			c0,0,0.1-0.1,0.1-0.1c0.4-0.3,0.7-0.5,1-0.8c0,0,0.1-0.1,0.1-0.1c0.3-0.3,0.6-0.5,0.8-0.8c0.1-0.1,0.2-0.2,0.3-0.3
			c0.2-0.2,0.3-0.4,0.5-0.6c0.1-0.1,0.2-0.3,0.3-0.4c0.1-0.2,0.2-0.4,0.3-0.6c0.1-0.1,0.1-0.3,0.2-0.4c0.1-0.2,0.2-0.4,0.2-0.6
			c0-0.1,0.1-0.3,0.1-0.4c0.1-0.2,0.1-0.4,0.1-0.6c0-0.1,0-0.3,0-0.4c0.2-1.6-0.3-3.2-1.3-4.7c-0.9-1.3-2.3-2.5-4.1-3.6
			c-1.6-0.9-3.4-1.6-5.4-2.2c-5-1.3-10.7-1.3-15.7,0c-1.9,0.5-3.7,1.2-5.3,2.2c-1.5,0.9-2.7,1.9-3.6,3c-1.2,1.5-1.8,3-1.8,4.6
			c0,0,0,0,0,0c0,0,0,0,0,0c0,0.2,0,0.4,0.1,0.6C27.5,82,27.5,82.2,27.5,82.3z"/>
	</g>
	<g>
		<path class="st0" d="M62.9,74.6c-0.1-0.1-0.2-0.2-0.3-0.3c-0.1-0.2-0.3-0.3-0.4-0.5c-0.1-0.1-0.2-0.2-0.3-0.4
			c-0.1-0.2-0.2-0.4-0.3-0.6c-0.1-0.1-0.2-0.3-0.2-0.4c-0.1-0.2-0.2-0.5-0.3-0.7c0-0.1-0.1-0.3-0.2-0.4c-0.1-0.3-0.2-0.6-0.2-0.9
			c0-0.1-0.1-0.3-0.1-0.4c-0.1-0.3-0.1-0.7-0.2-1.1c0-0.1,0-0.2,0-0.3c0-0.5-0.1-1-0.1-1.5c0-0.5,0-1,0.1-1.5c0,0,0,0,0,0
			c0-0.2,0-0.5,0.1-0.7c0-0.2,0.1-0.5,0.1-0.7c0,0,0,0,0,0c0.2-1.1,0.4-2.2,0.7-3.3c0,0,0-0.1,0-0.1c0,0,0,0,0,0
			c0.1-0.2,0.1-0.4,0.2-0.6c0,0,0,0,0,0c0.1-0.4,0.2-0.7,0.4-1.1l0,0c0.1-0.1,0.1-0.3,0.2-0.4c0,0,0,0,0,0c0.2-0.5,0.4-1,0.6-1.5
			c0,0,0,0,0,0c0-0.1,0.1-0.1,0.1-0.2c0,0,0,0,0,0c0.1-0.2,0.2-0.4,0.3-0.7c0.5-1,1-1.9,1.5-2.8c0.2-0.3,0.4-0.6,0.6-1c0,0,0,0,0,0
			c0.4-0.6,0.8-1.2,1.3-1.8c0,0,0,0,0,0c0.1-0.1,0.2-0.2,0.3-0.3c0.3-0.5,0.7-0.9,1.1-1.3c0.1-0.1,0.2-0.2,0.3-0.3c0,0,0,0,0,0
			c0.3-0.3,0.6-0.6,0.9-0.9c0,0,0,0,0,0c0.2-0.2,0.4-0.4,0.6-0.6h0c0.1-0.1,0.3-0.3,0.4-0.4c0,0,0,0,0,0c0.2-0.2,0.4-0.3,0.5-0.5
			c0.3-0.3,0.7-0.6,1.1-0.9c0.2-0.1,0.3-0.2,0.5-0.3c0,0,0,0,0,0c0.5-0.4,1.1-0.8,1.6-1.1c0.4-0.2,0.7-0.4,1-0.5
			c0.2-0.1,0.4-0.2,0.6-0.3c0,0,0,0,0,0c0,0,0.1,0,0.1,0c0.5-0.2,0.9-0.4,1.4-0.5c0,0,0,0,0,0c0,0,0,0,0,0c0.8-0.2,1.5-0.4,2.2-0.4
			c0,0,0,0,0,0c0.1,0,0.3,0,0.4,0c0.2,0,0.4,0,0.6,0c0,0,0,0,0,0c0.2,0,0.3,0,0.5,0.1c0.2,0,0.5,0.1,0.7,0.1c0,0,0,0,0,0
			c0.1,0,0.2,0.1,0.3,0.1c0.2,0.1,0.4,0.1,0.6,0.2c0,0,0,0,0,0c0.1,0,0.2,0.1,0.3,0.2c0.2,0.1,0.3,0.1,0.5,0.2c0,0,0,0,0,0l-3.3-1.9
			c0,0,0,0-0.1,0c-0.2-0.1-0.4-0.2-0.7-0.3c0,0-0.1,0-0.1,0c-0.1,0-0.1-0.1-0.2-0.1c-0.1,0-0.2-0.1-0.3-0.1c-0.1,0-0.3-0.1-0.4-0.1
			c-0.1,0-0.2,0-0.2-0.1c0,0-0.1,0-0.1,0c-0.3,0-0.5-0.1-0.8-0.1c0,0,0,0-0.1,0c-0.1,0-0.1,0-0.2,0c-0.2,0-0.4,0-0.6,0
			c-0.1,0-0.1,0-0.2,0c-0.1,0-0.3,0-0.4,0c-0.1,0-0.2,0-0.4,0l0,0l0,0c-0.4,0.1-0.8,0.1-1.2,0.2l0,0l0,0c-0.1,0-0.2,0.1-0.3,0.1
			c-0.3,0.1-0.6,0.2-0.9,0.3c-0.1,0-0.2,0.1-0.3,0.1c-0.1,0-0.1,0.1-0.2,0.1c-0.5,0.2-1.1,0.5-1.7,0.8c-0.4,0.2-0.8,0.5-1.3,0.8
			c-0.1,0.1-0.3,0.2-0.4,0.3c-0.3,0.2-0.6,0.4-0.8,0.6c-0.1,0.1-0.3,0.2-0.4,0.4c-0.3,0.2-0.5,0.4-0.8,0.7c-0.1,0.1-0.3,0.3-0.4,0.4
			c-0.1,0.1-0.2,0.2-0.3,0.3c-0.1,0.1-0.2,0.2-0.3,0.3c-0.3,0.3-0.6,0.6-0.9,0.9c-0.1,0.1-0.2,0.2-0.3,0.3c-0.1,0.1-0.1,0.2-0.2,0.3
			c-0.2,0.2-0.3,0.4-0.5,0.6c-0.1,0.1-0.2,0.3-0.3,0.4c-0.1,0.1-0.2,0.2-0.3,0.4c-0.1,0.2-0.3,0.3-0.4,0.5c-0.1,0.1-0.2,0.2-0.2,0.3
			c-0.1,0.2-0.3,0.4-0.4,0.6c-0.1,0.1-0.2,0.3-0.3,0.4c0,0.1-0.1,0.1-0.1,0.2c-0.2,0.4-0.5,0.7-0.7,1.1c0,0,0,0,0,0.1
			c0,0.1-0.1,0.2-0.1,0.2c-0.2,0.3-0.3,0.5-0.4,0.8c-0.1,0.1-0.1,0.3-0.2,0.4c-0.1,0.1-0.1,0.3-0.2,0.4c-0.1,0.1-0.1,0.2-0.2,0.3
			c-0.1,0.3-0.3,0.6-0.4,0.9c0,0.1-0.1,0.1-0.1,0.2c0,0,0,0,0,0c-0.2,0.4-0.3,0.8-0.5,1.2c0,0.1,0,0.1-0.1,0.2
			c-0.1,0.2-0.1,0.3-0.2,0.5c-0.1,0.2-0.1,0.4-0.2,0.6c-0.1,0.2-0.1,0.3-0.1,0.5c-0.1,0.2-0.1,0.4-0.2,0.6c0,0.1-0.1,0.2-0.1,0.3
			c-0.1,0.2-0.1,0.4-0.1,0.6c-0.1,0.2-0.1,0.5-0.2,0.7c0,0.1,0,0.2-0.1,0.2c0,0.2-0.1,0.3-0.1,0.5c-0.1,0.4-0.1,0.7-0.2,1.1
			c0,0.1,0,0.2-0.1,0.3c0,0.2,0,0.4-0.1,0.6c0,0.2,0,0.3,0,0.5c0,0.5-0.1,1-0.1,1.5c0,4.2,1.5,7.1,3.9,8.5l3.3,1.9
			c-0.2-0.1-0.3-0.2-0.5-0.3c-0.1-0.1-0.2-0.2-0.4-0.2C63.2,74.9,63.1,74.7,62.9,74.6z"/>
		<path class="st1" d="M73.6,44.2c-7.3,4.2-13.2,14.5-13.2,22.9c0,8.4,6,11.8,13.3,7.6c7.3-4.2,13.2-14.5,13.2-22.9
			C86.8,43.3,80.9,39.9,73.6,44.2z"/>
	</g>
</g>
<g>
	<path class="st3" d="M50.1,76.3C49,76.2,48,76.1,48,76.1c0,0,0.9,1.5,1,1.6c0,0,0.3,0,0.7,0.1l0.6,0l0.2,0.4l0.2,0.4l1.1,0.1
		c1.6,0.2,1.8,0.2,1.8,0.2c0,0-0.2-0.4-0.8-1.3c-0.3-0.4-0.5-0.9-0.6-1c0-0.1-0.1-0.2-0.1-0.2C52.2,76.4,51.2,76.3,50.1,76.3z
		 M45.1,75.9l-1.2-0.1l-1.7,1.3c-0.9,0.7-1.7,1.3-1.7,1.3c0,0,0.6,0.1,1.2,0.1l1.2,0.1l1.8-1.3l0.2,0.4c0.2,0.3,0.3,0.5,0.5,0.8
		l0.3,0.5l0.3,0c0.2,0,0.4,0,0.6,0.1c0.2,0,0.6,0.1,0.9,0.1c0.3,0,0.6,0.1,0.7,0.1c0.1,0-0.2-0.4-0.9-1.6c-0.5-0.9-1-1.6-1.1-1.6
		S45.7,76,45.1,75.9z M52.8,79.7c-0.8-0.1-1.4-0.1-1.4-0.1c0,0,0.1,0.3,0.3,0.6c0.2,0.3,0.3,0.6,0.3,0.6c0,0-0.5,0-1-0.1
		c-0.6-0.1-2-0.2-3.1-0.3l-3.9-0.4c-1-0.1-1.9-0.2-2-0.2c-2-0.2-2.6-0.3-2.6-0.3c-0.1,0-0.3,0.1-1.1,0.7l-1,0.7l0.4,0.6l0.4,0.6
		l1.4,0.2c0.8,0.1,1.4,0.1,1.4,0.1s0-0.1-0.1-0.2s-0.2-0.3-0.3-0.5c-0.1-0.2-0.2-0.3-0.2-0.4c0,0,0-0.1,0-0.1c0,0,0.6,0,1.4,0.1
		c1.5,0.2,2.6,0.3,5,0.5c1.1,0.1,2.2,0.2,3.2,0.3c1,0.1,2.1,0.2,2.5,0.3l0.7,0.1l1-0.7l1-0.7l-0.4-0.6c-0.2-0.3-0.4-0.6-0.4-0.6
		C54.3,79.8,53.6,79.7,52.8,79.7z M51.5,83.5c-0.2,0-0.5,0-0.7-0.1s-0.6-0.1-0.9-0.1l-0.5-0.1l-0.9,0.7c-0.5,0.4-0.9,0.6-0.9,0.6
		c0,0-0.4-0.6-0.7-1.2c-0.2-0.4-0.3-0.4-0.4-0.5c-0.1,0-0.7-0.1-1.3-0.1c-0.6-0.1-1.1-0.1-1.1-0.1c0,0,0.4,0.7,0.9,1.6l1,1.6
		l1.2,0.1c0.7,0,1.3,0.1,1.3,0.1c0.1,0,3.4-2.5,3.4-2.5C51.8,83.5,51.6,83.5,51.5,83.5z M43,84.3c-0.2,0-0.4,0-0.6-0.1
		c-0.6-0.1-0.5,0-0.8-0.4c-0.2-0.3-0.3-0.4-0.4-0.4c-0.1,0-0.6-0.1-1.3-0.1c-0.6-0.1-1.2-0.1-1.2-0.1c-0.2-0.1-0.1,0.2,0.6,1.2
		l0.8,1.2l0.9,0.1c0.5,0,1.5,0.1,2.2,0.2c0.7,0.1,1.3,0.1,1.3,0.1c0,0-0.2-0.3-0.5-0.7l-0.5-0.7L43,84.3z"/>
</g>
<g>
	<path class="st3" d="M74.1,52.8c-0.9,0.7-1.6,1.3-1.6,1.3c0,0,1.7,0.5,1.8,0.5c0,0,0.3-0.2,0.6-0.4l0.5-0.4l0.4,0.1l0.4,0.1
		l0.9-0.6c1.3-1,1.5-1.1,1.4-1.1c0,0-0.4-0.1-1.4-0.5c-0.5-0.1-1-0.3-1.1-0.3c-0.1,0-0.2-0.1-0.2,0C75.7,51.5,75,52.1,74.1,52.8z
		 M70.1,55.9l-0.9,0.7l-0.4,2.1c-0.2,1.1-0.4,2.1-0.4,2.1c0,0,0.5-0.3,1-0.7l1-0.7l0.4-2.2l0.4,0.1c0.3,0.1,0.6,0.2,0.9,0.3l0.5,0.2
		l0.3-0.2c0.2-0.1,0.4-0.3,0.5-0.4c0.1-0.1,0.5-0.3,0.7-0.5s0.5-0.4,0.6-0.4c0,0-0.4-0.2-1.7-0.6c-1-0.3-1.8-0.5-1.9-0.5
		C71.1,55.1,70.7,55.5,70.1,55.9z M78.4,53.4c-0.6,0.5-1.1,0.8-1.1,0.9s0.3,0.1,0.6,0.2c0.3,0.1,0.6,0.2,0.6,0.2
		c0,0-0.4,0.3-0.8,0.6c-0.5,0.3-1.6,1.2-2.5,1.9l-3.2,2.3c-0.8,0.6-1.5,1.1-1.6,1.2c-1.6,1.2-2.1,1.5-2.1,1.6
		c-0.1,0.1-0.1,0.3-0.3,1.3l-0.2,1.2l0.7,0.2l0.7,0.2l1.1-0.8c0.6-0.5,1.1-0.9,1.1-0.9s-0.1-0.1-0.2-0.1c-0.1,0-0.3-0.1-0.5-0.2
		c-0.2-0.1-0.3-0.1-0.4-0.1c0,0-0.1,0-0.1,0c0,0,0.5-0.4,1.1-0.8c1.2-0.9,2.1-1.5,4.1-3c0.9-0.6,1.8-1.3,2.6-1.9
		c0.8-0.6,1.7-1.2,2-1.5l0.6-0.4l0.3-1.2L81,53l-0.7-0.2c-0.4-0.1-0.7-0.2-0.7-0.2C79.5,52.6,79,53,78.4,53.4z M79.9,57.2
		c-0.1,0.1-0.4,0.3-0.5,0.4c-0.2,0.1-0.5,0.4-0.7,0.5l-0.4,0.3L78,59.5c-0.1,0.6-0.2,1.1-0.3,1.1c0,0-0.7-0.2-1.3-0.4
		c-0.5-0.1-0.5-0.1-0.6,0c-0.1,0.1-0.5,0.4-1,0.7c-0.5,0.4-0.9,0.7-0.9,0.7c0,0,0.8,0.3,1.8,0.6l1.8,0.5l1-0.8c0.5-0.4,1-0.8,1-0.8
		c0.1-0.1,0.8-4.2,0.8-4.1C80.2,57,80.1,57.1,79.9,57.2z M74.2,63.4c-0.2,0.1-0.3,0.2-0.5,0.4c-0.5,0.4-0.4,0.3-0.9,0.2
		c-0.3-0.1-0.5-0.1-0.5,0c-0.1,0-0.5,0.4-1.1,0.8c-0.5,0.4-1,0.7-1,0.7c-0.2,0.1,0.1,0.2,1.2,0.5l1.3,0.4l0.7-0.5
		c0.4-0.3,1.2-0.9,1.7-1.3c0.6-0.4,1-0.8,1-0.8c0,0-0.4-0.1-0.9-0.2l-0.8-0.2L74.2,63.4z"/>
</g>
</svg>
