<?xml version="1.0" encoding="utf-8"?>
<!-- Generator: Adobe Illustrator 24.3.0, SVG Export Plug-In . SVG Version: 6.00 Build 0)  -->
<svg version="1.1" id="Capa_1" xmlns="http://www.w3.org/2000/svg" xmlns:xlink="http://www.w3.org/1999/xlink" x="0px" y="0px"
	 viewBox="0 0 107.5 111.2" style="enable-background:new 0 0 107.5 111.2;" xml:space="preserve">
<style type="text/css">
	.st0{fill:#F5A907;}
	.st1{fill:#FDC439;}
	.st2{fill:#C09428;}
	.st3{fill-rule:evenodd;clip-rule:evenodd;fill:#CC9E36;}
	.st4{fill:#6AC6DD;}
	.st5{fill:#39B9CE;}
	.st6{fill:#36ADC1;}
	.st7{fill:#4EBFD9;}
</style>
<g>
	<polygon class="st4" points="37.2,25.1 37.2,25.1 31.2,38.1 47.8,47.7 70.3,44.2 76.2,31.1 59.7,21.6 	"/>
	<polygon class="st5" points="80.1,66.5 44.2,72.1 47.8,47.7 70.3,44.2 	"/>
	<polygon class="st6" points="89.6,45.7 80.1,66.5 70.3,44.2 76.2,31.1 	"/>
	<polygon class="st7" points="44.2,72.1 17.9,56.9 31.2,38.1 47.8,47.7 	"/>
	<polygon class="st6" points="31.2,38.1 17.9,56.9 27.4,36.1 37.2,25.1 	"/>
	<polygon class="st7" points="53.6,89.6 44.2,72.1 80.1,66.5 	"/>
	<polygon class="st6" points="53.6,89.6 17.9,56.9 44.2,72.1 	"/>
</g>
</svg>
