<?xml version="1.0" encoding="utf-8"?>
<!-- Generator: Adobe Illustrator 24.3.0, SVG Export Plug-In . SVG Version: 6.00 Build 0)  -->
<svg version="1.1" id="Capa_1" xmlns="http://www.w3.org/2000/svg" xmlns:xlink="http://www.w3.org/1999/xlink" x="0px" y="0px"
	 viewBox="0 0 107.5 111.2" style="enable-background:new 0 0 107.5 111.2;" xml:space="preserve">
<style type="text/css">
	.st0{fill:#F5A907;}
	.st1{fill:#FDC439;}
	.st2{fill:#C09428;}
	.st3{fill-rule:evenodd;clip-rule:evenodd;fill:#CC9E36;}
	.st4{fill:#6AC6DD;}
	.st5{fill:#39B9CE;}
	.st6{fill:#36ADC1;}
	.st7{fill:#4EBFD9;}
</style>
<g>
	<g>
		<path class="st0" d="M-58.8,59.1c0,0.1,0,0.2,0,0.4c0,0,0,0,0,0c0,0.1,0,0.3,0,0.4c0,0,0,0,0,0c0,0,0,0.1,0,0.1c0,0,0,0.1,0,0.1
			c0,0.1-0.1,0.2-0.1,0.4c0,0.1-0.1,0.3-0.1,0.4c0,0,0,0.1-0.1,0.1c0,0,0,0.1,0,0.1c0,0.1-0.1,0.2-0.2,0.3c-0.1,0.1-0.1,0.3-0.2,0.4
			c0,0.1-0.1,0.1-0.1,0.2c0,0,0,0.1-0.1,0.1c-0.1,0.1-0.1,0.2-0.2,0.3c-0.1,0.1-0.2,0.3-0.3,0.4c-0.1,0.1-0.1,0.2-0.2,0.2
			c0,0.1-0.1,0.1-0.1,0.2c0,0.1-0.1,0.1-0.2,0.2c-0.1,0.1-0.2,0.2-0.3,0.3c-0.2,0.2-0.4,0.4-0.5,0.5c-0.1,0.1-0.1,0.1-0.2,0.2
			c0,0-0.1,0.1-0.1,0.1c0,0-0.1,0.1-0.1,0.1c-0.2,0.1-0.3,0.3-0.5,0.4c-0.2,0.1-0.3,0.3-0.5,0.4c0,0-0.1,0.1-0.1,0.1
			c-0.2,0.1-0.4,0.3-0.6,0.4c-0.2,0.1-0.3,0.2-0.5,0.3c-0.1,0-0.2,0.1-0.2,0.1c-0.6,0.3-1.2,0.6-1.8,0.9c-0.2,0.1-0.4,0.2-0.5,0.2
			c-0.5,0.2-1,0.4-1.5,0.6c-0.1,0-0.2,0.1-0.3,0.1c-0.1,0-0.1,0-0.2,0.1c-0.3,0.1-0.6,0.2-0.9,0.3c-0.2,0.1-0.5,0.1-0.7,0.2
			c-0.3,0.1-0.7,0.2-1.1,0.2c-0.2,0-0.4,0.1-0.6,0.1c0,0-0.1,0-0.1,0c-0.7,0.1-1.4,0.2-2.1,0.3c-0.1,0-0.1,0-0.2,0
			c-0.2,0-0.3,0-0.5,0c-0.4,0-0.8,0.1-1.3,0.1c-0.1,0-0.2,0-0.3,0c-0.2,0-0.3,0-0.5,0c-0.3,0-0.7,0-1,0c-0.1,0-0.2,0-0.4,0
			c-0.2,0-0.3,0-0.5,0c-0.3,0-0.6,0-1-0.1c-0.1,0-0.3,0-0.4,0c-0.1,0-0.3,0-0.4-0.1c-0.3,0-0.6-0.1-0.9-0.1c-0.1,0-0.3,0-0.4,0
			c-0.1,0-0.3,0-0.4-0.1c-0.3-0.1-0.7-0.1-1-0.2c-0.2,0-0.3,0-0.5-0.1c-0.1,0-0.2-0.1-0.3-0.1c-0.4-0.1-0.8-0.2-1.2-0.3
			c-0.2,0-0.3-0.1-0.5-0.1c-0.1,0-0.1,0-0.2-0.1c-0.7-0.2-1.4-0.4-2-0.7c0,0-0.1,0-0.1,0c-0.3-0.1-0.6-0.2-0.9-0.4
			c-0.2-0.1-0.3-0.1-0.5-0.2c-0.5-0.2-0.9-0.5-1.4-0.7c-0.5-0.3-0.9-0.5-1.3-0.8c-0.1-0.1-0.2-0.1-0.3-0.2c-0.3-0.2-0.6-0.4-0.8-0.7
			c-0.1-0.1-0.2-0.2-0.3-0.3c-0.2-0.2-0.5-0.4-0.7-0.6c-0.1-0.1-0.2-0.2-0.3-0.3c-0.2-0.2-0.4-0.4-0.5-0.6c-0.1-0.1-0.2-0.3-0.2-0.4
			c-0.1-0.2-0.3-0.4-0.4-0.6c-0.1-0.1-0.1-0.3-0.2-0.4c-0.1-0.2-0.2-0.4-0.2-0.6c0-0.1-0.1-0.3-0.1-0.5c-0.1-0.2-0.1-0.4-0.1-0.6
			c0-0.2,0-0.3,0-0.5c0-0.2,0-0.4,0-0.6c0,0,0,0,0,0l0,3.8c0,2.8,1.8,5.6,5.5,7.7c0.4,0.3,0.9,0.5,1.4,0.7c0.2,0.1,0.3,0.1,0.5,0.2
			c0.3,0.1,0.5,0.2,0.8,0.3c0,0,0.1,0,0.1,0c0.6,0.3,1.3,0.5,2,0.7c0.1,0,0.1,0,0.2,0c0.2,0,0.3,0.1,0.5,0.1
			c0.4,0.1,0.8,0.2,1.2,0.3c0.1,0,0.2,0,0.3,0.1c0.2,0,0.3,0.1,0.5,0.1c0.3,0.1,0.7,0.1,1,0.2c0.1,0,0.3,0,0.4,0.1
			c0.1,0,0.3,0,0.4,0.1c0.3,0,0.6,0.1,0.9,0.1c0.1,0,0.3,0,0.4,0c0.1,0,0.3,0,0.4,0c0.3,0,0.6,0,0.9,0c0.2,0,0.3,0,0.5,0
			c0.1,0,0.3,0,0.4,0c0.3,0,0.7,0,1,0c0.2,0,0.3,0,0.5,0c0.1,0,0.2,0,0.3,0c0.4,0,0.9,0,1.3-0.1c0.2,0,0.3,0,0.5,0c0,0,0.1,0,0.2,0
			c0.7-0.1,1.4-0.2,2.1-0.3c0,0,0.1,0,0.1,0c0.2,0,0.4-0.1,0.6-0.1c0.3-0.1,0.7-0.1,1-0.2c0.2-0.1,0.5-0.1,0.7-0.2
			c0.3-0.1,0.7-0.2,1-0.3c0.1,0,0.1,0,0.2-0.1c0.1,0,0.2-0.1,0.3-0.1c0.5-0.2,1-0.4,1.5-0.6c0.2-0.1,0.4-0.1,0.5-0.2
			c0.6-0.3,1.2-0.6,1.8-0.9c0.1,0,0.1-0.1,0.2-0.1c0.2-0.1,0.3-0.2,0.5-0.3c0.2-0.1,0.5-0.3,0.7-0.4c0.2-0.1,0.4-0.3,0.5-0.4
			c0.2-0.2,0.4-0.3,0.6-0.5c0,0,0.1-0.1,0.1-0.1c0.1-0.1,0.1-0.1,0.2-0.2c0.3-0.3,0.5-0.6,0.8-0.8c0.1-0.1,0.1-0.1,0.2-0.2
			c0-0.1,0.1-0.1,0.1-0.2c0.2-0.2,0.3-0.4,0.4-0.6c0.1-0.1,0.1-0.2,0.2-0.3c0,0,0-0.1,0.1-0.1c0.1-0.2,0.2-0.4,0.3-0.6
			c0.1-0.1,0.1-0.3,0.2-0.4c0,0,0-0.1,0-0.1c0.1-0.2,0.1-0.4,0.2-0.5c0-0.2,0.1-0.3,0.1-0.5c0,0,0,0,0,0c0-0.2,0-0.4,0.1-0.6
			c0-0.2,0-0.4,0-0.6c0,0,0,0,0,0l0-3.8C-58.8,59-58.8,59.1-58.8,59.1z"/>
		<path class="st1" d="M-96.1,59.5c0,0.2,0,0.3,0,0.5c0,0.2,0.1,0.4,0.1,0.6c0,0.2,0.1,0.3,0.1,0.5c0.1,0.2,0.2,0.4,0.2,0.6
			c0.1,0.1,0.1,0.3,0.2,0.4c0.1,0.2,0.2,0.4,0.4,0.6c0.1,0.1,0.1,0.3,0.2,0.4c0.1,0.2,0.3,0.4,0.5,0.6c0.1,0.1,0.2,0.2,0.3,0.3
			c0.2,0.2,0.4,0.4,0.7,0.6c0.1,0.1,0.2,0.2,0.3,0.3c0.3,0.2,0.5,0.4,0.8,0.7c0.1,0.1,0.2,0.1,0.3,0.2c0.4,0.3,0.8,0.6,1.3,0.8
			c0.4,0.3,0.9,0.5,1.4,0.7c0.1,0.1,0.3,0.1,0.5,0.2c0.3,0.1,0.6,0.3,1,0.4c0.6,0.3,1.3,0.5,2,0.7c0.2,0.1,0.4,0.1,0.7,0.2
			c0.4,0.1,0.8,0.2,1.2,0.3c0.3,0.1,0.5,0.1,0.8,0.2c0.3,0.1,0.7,0.1,1,0.2c0.3,0,0.6,0.1,0.8,0.1c0.3,0,0.6,0.1,0.9,0.1
			c0.3,0,0.6,0.1,0.9,0.1c0.3,0,0.6,0,1,0.1c0.3,0,0.6,0,0.8,0c0.3,0,0.7,0,1,0c0.3,0,0.5,0,0.8,0c0.4,0,0.8,0,1.3-0.1
			c0.2,0,0.4,0,0.7-0.1c0.7-0.1,1.4-0.2,2.1-0.3c0.2,0,0.4-0.1,0.7-0.1c0.4-0.1,0.7-0.1,1.1-0.2c0.3-0.1,0.5-0.1,0.7-0.2
			c0.3-0.1,0.6-0.2,0.9-0.3c0.2-0.1,0.4-0.1,0.6-0.2c0.5-0.2,1-0.4,1.5-0.6c0.2-0.1,0.4-0.1,0.5-0.2c0.6-0.3,1.2-0.6,1.8-0.9
			c0.5-0.3,0.9-0.5,1.3-0.8c0,0,0.1-0.1,0.1-0.1c0.4-0.3,0.7-0.5,1-0.8c0,0,0.1-0.1,0.1-0.1c0.3-0.3,0.6-0.5,0.8-0.8
			c0.1-0.1,0.2-0.2,0.3-0.3c0.2-0.2,0.3-0.4,0.5-0.6c0.1-0.1,0.2-0.3,0.3-0.4c0.1-0.2,0.2-0.4,0.3-0.6c0.1-0.1,0.1-0.3,0.2-0.4
			c0.1-0.2,0.2-0.4,0.2-0.6c0-0.1,0.1-0.3,0.1-0.4c0.1-0.2,0.1-0.4,0.1-0.6c0,0,0,0,0,0c0.5-3.1-1.3-6.3-5.4-8.7
			c-2.7-1.6-6.1-2.6-9.7-3c-2.2-0.2-4.4-0.3-6.6,0c-0.2,0-0.4,0-0.6,0c0,0-0.1,0-0.1,0c-3.5,0.4-6.8,1.4-9.5,3
			c-1.5,0.9-2.7,1.9-3.6,3c-1.2,1.5-1.8,3-1.8,4.6C-96.1,59.1-96.1,59.3-96.1,59.5z M-85.8,60.3c0-0.4,0.1-0.8,0.4-1.2
			c0.2-0.3,0.6-0.6,1.1-1l2.4,1.4c-0.5,0.3-0.7,0.6-0.7,1c0,0.3,0.3,0.6,0.7,0.9l0.1,0.1c0.5,0.3,1,0.4,1.6,0.4
			c0.6,0,1.2-0.1,1.6-0.4c0.5-0.3,0.8-0.7,0.7-1.1c0-0.3-0.2-0.6-0.6-1.1c-0.1-0.1-0.2-0.2-0.3-0.3c-0.2-0.2-0.3-0.3-0.3-0.4
			c-0.3-0.4-0.5-0.6-0.6-0.9c-0.2-0.5-0.2-0.9,0.1-1.4c0.2-0.5,0.7-0.9,1.3-1.2c0.6-0.4,1.4-0.6,2.3-0.7c0.9-0.1,1.8-0.1,2.6,0
			c0.4,0.1,0.8,0.2,1.2,0.3l0,0l2.2-1.3l0.9,0.5l1.1,0.6l-2.1,1.2c0.2,0.2,0.4,0.4,0.5,0.7c0.3,0.5,0.3,1,0.1,1.5
			c-0.2,0.5-0.7,1-1.3,1.4l-2.4-1.4c0.4-0.3,0.5-0.5,0.5-0.8c0-0.3-0.2-0.5-0.6-0.7l0,0c-0.4-0.2-0.8-0.3-1.3-0.3
			c-0.5,0-0.9,0.1-1.3,0.3c-0.4,0.2-0.6,0.5-0.6,0.7c0,0.2,0.2,0.5,0.4,0.9c0.1,0.1,0.1,0.2,0.2,0.2l0.4,0.4c0.6,0.7,0.9,1.2,1,1.7
			c0.2,0.9-0.3,1.7-1.5,2.4c-0.7,0.4-1.6,0.7-2.6,0.9c-1,0.1-2,0.1-2.9,0c-0.5-0.1-1-0.2-1.4-0.3l-2.1,1.2l-1.1-0.6l-0.9-0.5
			l2.1-1.2C-85.5,61.6-85.8,61-85.8,60.3z"/>
		<path class="st2" d="M-86,63.9l1.1,0.6l2.1-1.2c0.4,0.1,0.9,0.3,1.4,0.3c1,0.2,2,0.2,2.9,0c1-0.2,1.8-0.4,2.6-0.9
			c1.2-0.7,1.6-1.5,1.5-2.4c-0.1-0.5-0.4-1-1-1.7l-0.4-0.4c-0.1-0.1-0.1-0.2-0.2-0.2c-0.3-0.4-0.4-0.6-0.4-0.9
			c0-0.3,0.2-0.5,0.6-0.7c0.4-0.2,0.8-0.3,1.3-0.3c0.5,0,0.9,0.1,1.3,0.3l0,0c0.4,0.2,0.6,0.5,0.6,0.7c0,0.3-0.2,0.5-0.5,0.8
			l2.4,1.4c0.7-0.4,1.1-0.9,1.3-1.4c0.2-0.5,0.2-1-0.1-1.5c-0.1-0.2-0.3-0.5-0.5-0.7l2.1-1.2l-1.1-0.6l-0.9-0.5l-2.2,1.3l0,0
			c-0.4-0.1-0.8-0.2-1.2-0.3c-0.9-0.1-1.8-0.2-2.6,0c-0.9,0.1-1.6,0.4-2.3,0.7c-0.6,0.3-1,0.8-1.3,1.2c-0.2,0.5-0.3,1-0.1,1.4
			c0.1,0.2,0.3,0.5,0.6,0.9c0,0,0.2,0.2,0.3,0.4c0.1,0.1,0.2,0.2,0.3,0.3c0.3,0.4,0.5,0.8,0.6,1.1c0.1,0.4-0.2,0.8-0.7,1.1
			c-0.5,0.3-1,0.4-1.6,0.4c-0.6,0-1.2-0.1-1.6-0.4l-0.1-0.1c-0.4-0.3-0.7-0.6-0.7-0.9c0-0.3,0.2-0.7,0.7-1l-2.4-1.4
			c-0.6,0.3-0.9,0.7-1.1,1c-0.3,0.4-0.4,0.8-0.4,1.2c0,0.7,0.3,1.3,0.9,1.8l-2.1,1.2L-86,63.9z"/>
	</g>
	<g>
		<path class="st0" d="M-58.8,54.2c0,0.1,0,0.2,0,0.4c0,0,0,0,0,0.1c0,0.1,0,0.3,0,0.4c0,0,0,0,0,0c0,0,0,0.1,0,0.1c0,0,0,0.1,0,0.1
			c0,0.1-0.1,0.2-0.1,0.4c0,0.1-0.1,0.3-0.1,0.4c0,0,0,0.1-0.1,0.1c0,0,0,0.1,0,0.1c0,0.1-0.1,0.2-0.2,0.3c-0.1,0.1-0.1,0.3-0.2,0.4
			c0,0.1-0.1,0.1-0.1,0.2c0,0,0,0.1-0.1,0.1c-0.1,0.1-0.1,0.2-0.2,0.3c-0.1,0.1-0.2,0.3-0.3,0.4c-0.1,0.1-0.1,0.2-0.2,0.2
			c0,0.1-0.1,0.1-0.1,0.2c0,0.1-0.1,0.1-0.2,0.2c-0.1,0.1-0.2,0.2-0.3,0.3c-0.2,0.2-0.4,0.4-0.5,0.5c-0.1,0.1-0.1,0.1-0.2,0.2
			c0,0-0.1,0.1-0.1,0.1c0,0-0.1,0.1-0.1,0.1c-0.2,0.1-0.3,0.3-0.5,0.4c-0.2,0.1-0.3,0.3-0.5,0.4c0,0-0.1,0.1-0.1,0.1
			c-0.2,0.1-0.4,0.3-0.6,0.4c-0.2,0.1-0.3,0.2-0.5,0.3c-0.1,0-0.2,0.1-0.2,0.1c-0.6,0.3-1.2,0.6-1.8,0.9c-0.2,0.1-0.4,0.2-0.5,0.2
			c-0.5,0.2-1,0.4-1.5,0.6c-0.1,0-0.2,0.1-0.3,0.1c-0.1,0-0.1,0-0.2,0.1c-0.3,0.1-0.6,0.2-0.9,0.3c-0.2,0.1-0.5,0.1-0.7,0.2
			c-0.3,0.1-0.7,0.2-1.1,0.2c-0.2,0-0.4,0.1-0.6,0.1c0,0-0.1,0-0.1,0c-0.7,0.1-1.4,0.2-2.1,0.3c-0.1,0-0.1,0-0.2,0
			c-0.2,0-0.3,0-0.5,0c-0.4,0-0.8,0.1-1.3,0.1c-0.1,0-0.2,0-0.3,0c-0.2,0-0.3,0-0.5,0c-0.3,0-0.7,0-1,0c-0.1,0-0.2,0-0.4,0
			c-0.2,0-0.3,0-0.5,0c-0.3,0-0.6,0-1-0.1c-0.1,0-0.3,0-0.4,0c-0.1,0-0.3,0-0.4-0.1c-0.3,0-0.6-0.1-0.9-0.1c-0.1,0-0.3,0-0.4,0
			c-0.1,0-0.3,0-0.4-0.1c-0.3-0.1-0.7-0.1-1-0.2c-0.2,0-0.3-0.1-0.5-0.1c-0.1,0-0.2-0.1-0.3-0.1c-0.4-0.1-0.8-0.2-1.2-0.3
			c-0.2,0-0.3-0.1-0.5-0.1c-0.1,0-0.1,0-0.2-0.1c-0.7-0.2-1.4-0.4-2-0.7c0,0-0.1,0-0.1,0c-0.3-0.1-0.6-0.2-0.9-0.4
			c-0.2-0.1-0.3-0.1-0.5-0.2c-0.5-0.2-0.9-0.5-1.4-0.7c-0.5-0.3-0.9-0.5-1.3-0.8c-0.1-0.1-0.2-0.1-0.3-0.2c-0.3-0.2-0.6-0.4-0.8-0.7
			c-0.1-0.1-0.2-0.2-0.3-0.3c-0.2-0.2-0.5-0.4-0.7-0.6c-0.1-0.1-0.2-0.2-0.3-0.3c-0.2-0.2-0.4-0.4-0.5-0.6c-0.1-0.1-0.2-0.3-0.2-0.4
			c-0.1-0.2-0.3-0.4-0.4-0.6c-0.1-0.1-0.1-0.3-0.2-0.4c-0.1-0.2-0.2-0.4-0.2-0.6c0-0.1-0.1-0.3-0.1-0.5c-0.1-0.2-0.1-0.4-0.1-0.6
			c0-0.2,0-0.3,0-0.5c0-0.2,0-0.4,0-0.6c0,0,0,0,0,0l0,3.8c0,2.8,1.8,5.6,5.5,7.7c0.4,0.3,0.9,0.5,1.4,0.7c0.2,0.1,0.3,0.1,0.5,0.2
			c0.3,0.1,0.5,0.2,0.8,0.3c0,0,0.1,0,0.1,0c0.6,0.3,1.3,0.5,2,0.7c0.1,0,0.1,0,0.2,0c0.2,0,0.3,0.1,0.5,0.1
			c0.4,0.1,0.8,0.2,1.2,0.3c0.1,0,0.2,0,0.3,0.1c0.2,0,0.3,0.1,0.5,0.1c0.3,0.1,0.7,0.1,1,0.2c0.1,0,0.3,0,0.4,0.1
			c0.1,0,0.3,0,0.4,0.1c0.3,0,0.6,0.1,0.9,0.1c0.1,0,0.3,0,0.4,0c0.1,0,0.3,0,0.4,0c0.3,0,0.6,0,0.9,0.1c0.2,0,0.3,0,0.5,0
			c0.1,0,0.3,0,0.4,0c0.3,0,0.7,0,1,0c0.2,0,0.3,0,0.5,0c0.1,0,0.2,0,0.3,0c0.4,0,0.9,0,1.3-0.1c0.2,0,0.3,0,0.5,0c0,0,0.1,0,0.2,0
			c0.7-0.1,1.4-0.2,2.1-0.3c0,0,0.1,0,0.1,0c0.2,0,0.4-0.1,0.6-0.1c0.3-0.1,0.7-0.1,1-0.2c0.2-0.1,0.5-0.1,0.7-0.2
			c0.3-0.1,0.7-0.2,1-0.3c0.1,0,0.1,0,0.2-0.1c0.1,0,0.2-0.1,0.3-0.1c0.5-0.2,1-0.4,1.5-0.6c0.2-0.1,0.4-0.1,0.5-0.2
			c0.6-0.3,1.2-0.6,1.8-0.9c0.1,0,0.1-0.1,0.2-0.1c0.2-0.1,0.3-0.2,0.5-0.3c0.2-0.1,0.5-0.3,0.7-0.4c0.2-0.1,0.4-0.3,0.5-0.4
			c0.2-0.2,0.4-0.3,0.6-0.5c0,0,0.1-0.1,0.1-0.1c0.1-0.1,0.1-0.1,0.2-0.2c0.3-0.3,0.5-0.6,0.8-0.8c0.1-0.1,0.1-0.1,0.2-0.2
			c0-0.1,0.1-0.1,0.1-0.2c0.2-0.2,0.3-0.4,0.4-0.6c0.1-0.1,0.1-0.2,0.2-0.3c0,0,0-0.1,0.1-0.1c0.1-0.2,0.2-0.4,0.3-0.6
			c0.1-0.1,0.1-0.3,0.2-0.4c0,0,0-0.1,0-0.1c0.1-0.2,0.1-0.4,0.2-0.5c0-0.2,0.1-0.3,0.1-0.5c0,0,0,0,0,0c0-0.2,0-0.4,0.1-0.6
			c0-0.2,0-0.4,0-0.6c0,0,0,0,0,0l0-3.8C-58.8,54.1-58.8,54.1-58.8,54.2z"/>
		<path class="st1" d="M-96.1,54.5c0,0.2,0,0.3,0,0.5c0,0.2,0.1,0.4,0.1,0.6c0,0.2,0.1,0.3,0.1,0.5c0.1,0.2,0.2,0.4,0.2,0.6
			c0.1,0.1,0.1,0.3,0.2,0.4c0.1,0.2,0.2,0.4,0.4,0.6c0.1,0.1,0.1,0.3,0.2,0.4c0.1,0.2,0.3,0.4,0.5,0.6c0.1,0.1,0.2,0.2,0.3,0.3
			c0.2,0.2,0.4,0.4,0.7,0.6c0.1,0.1,0.2,0.2,0.3,0.3c0.3,0.2,0.5,0.4,0.8,0.7c0.1,0.1,0.2,0.1,0.3,0.2c0.4,0.3,0.8,0.6,1.3,0.8
			c0.4,0.3,0.9,0.5,1.4,0.7c0.1,0.1,0.3,0.1,0.5,0.2c0.3,0.1,0.6,0.3,1,0.4c0.6,0.3,1.3,0.5,2,0.7c0.2,0.1,0.4,0.1,0.7,0.2
			c0.4,0.1,0.8,0.2,1.2,0.3c0.3,0.1,0.5,0.1,0.8,0.2c0.3,0.1,0.7,0.1,1,0.2c0.3,0,0.6,0.1,0.8,0.1c0.3,0,0.6,0.1,0.9,0.1
			c0.3,0,0.6,0.1,0.9,0.1c0.3,0,0.6,0,1,0.1c0.3,0,0.6,0,0.8,0c0.3,0,0.7,0,1,0c0.3,0,0.5,0,0.8,0c0.4,0,0.8,0,1.3-0.1
			c0.2,0,0.4,0,0.7-0.1c0.7-0.1,1.4-0.2,2.1-0.3c0.2,0,0.4-0.1,0.7-0.1c0.4-0.1,0.7-0.1,1.1-0.2c0.3-0.1,0.5-0.1,0.7-0.2
			c0.3-0.1,0.6-0.2,0.9-0.3c0.2-0.1,0.4-0.1,0.6-0.2c0.5-0.2,1-0.4,1.5-0.6c0.2-0.1,0.4-0.2,0.5-0.2c0.6-0.3,1.2-0.6,1.8-0.9
			c0.5-0.3,0.9-0.5,1.3-0.8c0,0,0.1-0.1,0.1-0.1c0.4-0.3,0.7-0.5,1-0.8c0,0,0.1-0.1,0.1-0.1c0.3-0.3,0.6-0.5,0.8-0.8
			c0.1-0.1,0.2-0.2,0.3-0.3c0.2-0.2,0.3-0.4,0.5-0.6c0.1-0.1,0.2-0.3,0.3-0.4c0.1-0.2,0.2-0.4,0.3-0.6c0.1-0.1,0.1-0.3,0.2-0.4
			c0.1-0.2,0.2-0.4,0.2-0.6c0-0.1,0.1-0.3,0.1-0.4c0.1-0.2,0.1-0.4,0.1-0.6c0,0,0,0,0,0c0.5-3.1-1.3-6.3-5.4-8.7
			c-2.7-1.6-6.1-2.6-9.7-3c-2.2-0.2-4.4-0.3-6.6,0c-0.2,0-0.4,0-0.6,0c0,0-0.1,0-0.1,0c-3.5,0.4-6.8,1.4-9.5,3
			c-1.5,0.9-2.7,1.9-3.6,3c-1.2,1.5-1.8,3-1.8,4.6C-96.1,54.1-96.1,54.3-96.1,54.5z M-85.8,55.3c0-0.4,0.1-0.8,0.4-1.2
			c0.2-0.3,0.6-0.6,1.1-1l2.4,1.4c-0.5,0.3-0.7,0.6-0.7,1c0,0.3,0.3,0.6,0.7,0.9l0.1,0.1c0.5,0.3,1,0.4,1.6,0.4
			c0.6,0,1.2-0.1,1.6-0.4c0.5-0.3,0.8-0.7,0.7-1.1c0-0.3-0.2-0.6-0.6-1c-0.1-0.1-0.2-0.2-0.3-0.3c-0.2-0.2-0.3-0.3-0.3-0.4
			c-0.3-0.4-0.5-0.6-0.6-0.9c-0.2-0.5-0.2-0.9,0.1-1.4c0.2-0.5,0.7-0.9,1.3-1.2c0.6-0.4,1.4-0.6,2.3-0.7c0.9-0.1,1.8-0.1,2.6,0
			c0.4,0.1,0.8,0.2,1.2,0.3l0,0l2.2-1.3l0.9,0.5l1.1,0.6l-2.1,1.2c0.2,0.2,0.4,0.4,0.5,0.7c0.3,0.5,0.3,1,0.1,1.5
			c-0.2,0.5-0.7,1-1.3,1.4l-2.4-1.4c0.4-0.3,0.5-0.5,0.5-0.8c0-0.3-0.2-0.5-0.6-0.7l0,0c-0.4-0.2-0.8-0.3-1.3-0.3
			c-0.5,0-0.9,0.1-1.3,0.4c-0.4,0.2-0.6,0.5-0.6,0.7c0,0.2,0.2,0.5,0.4,0.9c0.1,0.1,0.1,0.2,0.2,0.2l0.4,0.4c0.6,0.7,0.9,1.2,1,1.7
			c0.2,0.9-0.3,1.7-1.5,2.4c-0.7,0.4-1.6,0.7-2.6,0.9c-1,0.1-2,0.1-2.9,0c-0.5-0.1-1-0.2-1.4-0.3l-2.1,1.2l-1.1-0.6l-0.9-0.5
			l2.1-1.2C-85.5,56.6-85.8,56-85.8,55.3z"/>
		<path class="st2" d="M-86,58.9l1.1,0.6l2.1-1.2c0.4,0.1,0.9,0.3,1.4,0.3c1,0.2,2,0.2,2.9,0c1-0.2,1.8-0.4,2.6-0.9
			c1.2-0.7,1.6-1.5,1.5-2.4c-0.1-0.5-0.4-1-1-1.7l-0.4-0.4c-0.1-0.1-0.1-0.2-0.2-0.2c-0.3-0.4-0.4-0.6-0.4-0.9
			c0-0.3,0.2-0.5,0.6-0.7c0.4-0.2,0.8-0.3,1.3-0.4c0.5,0,0.9,0.1,1.3,0.3l0,0c0.4,0.2,0.6,0.5,0.6,0.7c0,0.3-0.2,0.6-0.5,0.8
			l2.4,1.4c0.7-0.4,1.1-0.9,1.3-1.4c0.2-0.5,0.2-1-0.1-1.5c-0.1-0.2-0.3-0.5-0.5-0.7l2.1-1.2l-1.1-0.6l-0.9-0.5l-2.2,1.3l0,0
			c-0.4-0.1-0.8-0.2-1.2-0.3c-0.9-0.1-1.8-0.2-2.6,0c-0.9,0.1-1.6,0.4-2.3,0.7c-0.6,0.3-1,0.8-1.3,1.2c-0.2,0.5-0.3,1-0.1,1.4
			c0.1,0.2,0.3,0.5,0.6,0.9c0,0,0.2,0.2,0.3,0.4c0.1,0.1,0.2,0.2,0.3,0.3c0.3,0.4,0.5,0.8,0.6,1c0.1,0.4-0.2,0.8-0.7,1.1
			c-0.5,0.3-1,0.4-1.6,0.4c-0.6,0-1.2-0.1-1.6-0.4l-0.1-0.1c-0.4-0.3-0.7-0.6-0.7-0.9c0-0.3,0.2-0.7,0.7-1l-2.4-1.4
			c-0.6,0.3-0.9,0.7-1.1,1c-0.3,0.4-0.4,0.8-0.4,1.2c0,0.7,0.3,1.3,0.9,1.8l-2.1,1.2L-86,58.9z"/>
	</g>
	<g>
		<path class="st0" d="M-58.8,49.2c0,0.1,0,0.2,0,0.4c0,0,0,0,0,0c0,0.1,0,0.3,0,0.4c0,0,0,0,0,0c0,0,0,0.1,0,0.1c0,0,0,0.1,0,0.1
			c0,0.1-0.1,0.2-0.1,0.4c0,0.1-0.1,0.3-0.1,0.4c0,0,0,0.1-0.1,0.1c0,0,0,0.1,0,0.1c0,0.1-0.1,0.2-0.2,0.3c-0.1,0.1-0.1,0.3-0.2,0.4
			c0,0.1-0.1,0.1-0.1,0.2c0,0,0,0.1-0.1,0.1c-0.1,0.1-0.1,0.2-0.2,0.3c-0.1,0.1-0.2,0.3-0.3,0.4c-0.1,0.1-0.1,0.2-0.2,0.2
			c0,0.1-0.1,0.1-0.1,0.2c0,0.1-0.1,0.1-0.2,0.2c-0.1,0.1-0.2,0.2-0.3,0.3c-0.2,0.2-0.4,0.4-0.5,0.5c-0.1,0.1-0.1,0.1-0.2,0.2
			c0,0-0.1,0.1-0.1,0.1c0,0-0.1,0.1-0.1,0.1c-0.2,0.1-0.3,0.3-0.5,0.4c-0.2,0.1-0.3,0.3-0.5,0.4c0,0-0.1,0.1-0.1,0.1
			c-0.2,0.1-0.4,0.3-0.6,0.4c-0.2,0.1-0.3,0.2-0.5,0.3c-0.1,0-0.2,0.1-0.2,0.1c-0.6,0.3-1.2,0.6-1.8,0.9c-0.2,0.1-0.4,0.2-0.5,0.2
			c-0.5,0.2-1,0.4-1.5,0.6c-0.1,0-0.2,0.1-0.3,0.1c-0.1,0-0.1,0-0.2,0.1c-0.3,0.1-0.6,0.2-0.9,0.3c-0.2,0.1-0.5,0.1-0.7,0.2
			c-0.3,0.1-0.7,0.2-1.1,0.2c-0.2,0-0.4,0.1-0.6,0.1c0,0-0.1,0-0.1,0c-0.7,0.1-1.4,0.2-2.1,0.3c-0.1,0-0.1,0-0.2,0
			c-0.2,0-0.3,0-0.5,0c-0.4,0-0.8,0.1-1.3,0.1c-0.1,0-0.2,0-0.3,0c-0.2,0-0.3,0-0.5,0c-0.3,0-0.7,0-1,0c-0.1,0-0.2,0-0.4,0
			c-0.2,0-0.3,0-0.5,0c-0.3,0-0.6,0-1-0.1c-0.1,0-0.3,0-0.4,0c-0.1,0-0.3,0-0.4-0.1c-0.3,0-0.6-0.1-0.9-0.1c-0.1,0-0.3,0-0.4,0
			c-0.1,0-0.3,0-0.4-0.1c-0.3-0.1-0.7-0.1-1-0.2c-0.2,0-0.3,0-0.5-0.1c-0.1,0-0.2-0.1-0.3-0.1c-0.4-0.1-0.8-0.2-1.2-0.3
			c-0.2,0-0.3-0.1-0.5-0.1c-0.1,0-0.1,0-0.2-0.1c-0.7-0.2-1.4-0.4-2-0.7c0,0-0.1,0-0.1,0c-0.3-0.1-0.6-0.2-0.9-0.4
			c-0.2-0.1-0.3-0.1-0.5-0.2c-0.5-0.2-0.9-0.5-1.4-0.7c-0.5-0.3-0.9-0.5-1.3-0.8c-0.1-0.1-0.2-0.1-0.3-0.2c-0.3-0.2-0.6-0.4-0.8-0.7
			c-0.1-0.1-0.2-0.2-0.3-0.3c-0.2-0.2-0.5-0.4-0.7-0.6c-0.1-0.1-0.2-0.2-0.3-0.3c-0.2-0.2-0.4-0.4-0.5-0.6c-0.1-0.1-0.2-0.3-0.2-0.4
			c-0.1-0.2-0.3-0.4-0.4-0.6c-0.1-0.1-0.1-0.3-0.2-0.4c-0.1-0.2-0.2-0.4-0.2-0.6c0-0.1-0.1-0.3-0.1-0.5c-0.1-0.2-0.1-0.4-0.1-0.6
			c0-0.2,0-0.3,0-0.5c0-0.2,0-0.4,0-0.6c0,0,0,0,0,0l0,3.8c0,2.8,1.8,5.6,5.5,7.7c0.4,0.3,0.9,0.5,1.4,0.7c0.2,0.1,0.3,0.1,0.5,0.2
			c0.3,0.1,0.5,0.2,0.8,0.3c0,0,0.1,0,0.1,0c0.6,0.3,1.3,0.5,2,0.7c0.1,0,0.1,0,0.2,0c0.2,0,0.3,0.1,0.5,0.1
			c0.4,0.1,0.8,0.2,1.2,0.3c0.1,0,0.2,0,0.3,0.1c0.2,0,0.3,0.1,0.5,0.1c0.3,0.1,0.7,0.1,1,0.2c0.1,0,0.3,0,0.4,0.1
			c0.1,0,0.3,0,0.4,0.1c0.3,0,0.6,0.1,0.9,0.1c0.1,0,0.3,0,0.4,0c0.1,0,0.3,0,0.4,0c0.3,0,0.6,0,0.9,0c0.2,0,0.3,0,0.5,0
			c0.1,0,0.3,0,0.4,0c0.3,0,0.7,0,1,0c0.2,0,0.3,0,0.5,0c0.1,0,0.2,0,0.3,0c0.4,0,0.9-0.1,1.3-0.1c0.2,0,0.3,0,0.5,0
			c0,0,0.1,0,0.2,0c0.7-0.1,1.4-0.2,2.1-0.3c0,0,0.1,0,0.1,0c0.2,0,0.4-0.1,0.6-0.1c0.3-0.1,0.7-0.1,1-0.2c0.2-0.1,0.5-0.1,0.7-0.2
			c0.3-0.1,0.7-0.2,1-0.3c0.1,0,0.1,0,0.2-0.1c0.1,0,0.2-0.1,0.3-0.1c0.5-0.2,1-0.4,1.5-0.6c0.2-0.1,0.4-0.1,0.5-0.2
			c0.6-0.3,1.2-0.6,1.8-0.9c0.1,0,0.1-0.1,0.2-0.1c0.2-0.1,0.3-0.2,0.5-0.3c0.2-0.1,0.5-0.3,0.7-0.4c0.2-0.1,0.4-0.3,0.5-0.4
			c0.2-0.2,0.4-0.3,0.6-0.5c0,0,0.1-0.1,0.1-0.1c0.1-0.1,0.1-0.1,0.2-0.2c0.3-0.3,0.5-0.6,0.8-0.8c0.1-0.1,0.1-0.1,0.2-0.2
			c0-0.1,0.1-0.1,0.1-0.2c0.2-0.2,0.3-0.4,0.4-0.6c0.1-0.1,0.1-0.2,0.2-0.3c0,0,0-0.1,0.1-0.1c0.1-0.2,0.2-0.4,0.3-0.6
			c0.1-0.1,0.1-0.3,0.2-0.4c0,0,0-0.1,0-0.1c0.1-0.2,0.1-0.4,0.2-0.5c0-0.2,0.1-0.3,0.1-0.5c0,0,0,0,0,0c0-0.2,0-0.4,0.1-0.6
			c0-0.2,0-0.4,0-0.6c0,0,0,0,0,0l0-3.8C-58.8,49.1-58.8,49.1-58.8,49.2z"/>
		<path class="st1" d="M-96.1,49.5c0,0.2,0,0.3,0,0.5c0,0.2,0.1,0.4,0.1,0.6c0,0.2,0.1,0.3,0.1,0.5c0.1,0.2,0.2,0.4,0.2,0.6
			c0.1,0.1,0.1,0.3,0.2,0.4c0.1,0.2,0.2,0.4,0.4,0.6c0.1,0.1,0.1,0.3,0.2,0.4c0.1,0.2,0.3,0.4,0.5,0.6c0.1,0.1,0.2,0.2,0.3,0.3
			c0.2,0.2,0.4,0.4,0.7,0.6c0.1,0.1,0.2,0.2,0.3,0.3c0.3,0.2,0.5,0.4,0.8,0.7c0.1,0.1,0.2,0.1,0.3,0.2c0.4,0.3,0.8,0.6,1.3,0.8
			c0.4,0.3,0.9,0.5,1.4,0.7c0.1,0.1,0.3,0.1,0.5,0.2c0.3,0.1,0.6,0.3,1,0.4c0.6,0.3,1.3,0.5,2,0.7c0.2,0.1,0.4,0.1,0.7,0.2
			c0.4,0.1,0.8,0.2,1.2,0.3c0.3,0.1,0.5,0.1,0.8,0.2c0.3,0.1,0.7,0.1,1,0.2c0.3,0,0.6,0.1,0.8,0.1c0.3,0,0.6,0.1,0.9,0.1
			c0.3,0,0.6,0.1,0.9,0.1c0.3,0,0.6,0,1,0.1c0.3,0,0.6,0,0.8,0c0.3,0,0.7,0,1,0c0.3,0,0.5,0,0.8,0c0.4,0,0.8,0,1.3-0.1
			c0.2,0,0.4,0,0.7-0.1c0.7-0.1,1.4-0.2,2.1-0.3c0.2,0,0.4-0.1,0.7-0.1c0.4-0.1,0.7-0.1,1.1-0.2c0.3-0.1,0.5-0.1,0.7-0.2
			c0.3-0.1,0.6-0.2,0.9-0.3c0.2-0.1,0.4-0.1,0.6-0.2c0.5-0.2,1-0.4,1.5-0.6c0.2-0.1,0.4-0.1,0.5-0.2c0.6-0.3,1.2-0.6,1.8-0.9
			c0.5-0.3,0.9-0.5,1.3-0.8c0,0,0.1-0.1,0.1-0.1c0.4-0.3,0.7-0.5,1-0.8c0,0,0.1-0.1,0.1-0.1c0.3-0.3,0.6-0.5,0.8-0.8
			c0.1-0.1,0.2-0.2,0.3-0.3c0.2-0.2,0.3-0.4,0.5-0.6c0.1-0.1,0.2-0.3,0.3-0.4c0.1-0.2,0.2-0.4,0.3-0.6c0.1-0.1,0.1-0.3,0.2-0.4
			c0.1-0.2,0.2-0.4,0.2-0.6c0-0.1,0.1-0.3,0.1-0.4c0.1-0.2,0.1-0.4,0.1-0.6c0,0,0,0,0,0c0.5-3.1-1.3-6.3-5.4-8.7
			c-2.7-1.6-6.1-2.6-9.7-3c-2.2-0.2-4.4-0.3-6.6,0c-0.2,0-0.4,0-0.6,0c0,0-0.1,0-0.1,0c-3.5,0.4-6.8,1.4-9.5,3
			c-1.5,0.9-2.7,1.9-3.6,3c-1.2,1.5-1.8,3-1.8,4.6C-96.1,49.1-96.1,49.3-96.1,49.5z M-85.8,50.3c0-0.4,0.1-0.8,0.4-1.2
			c0.2-0.3,0.6-0.6,1.1-1l2.4,1.4c-0.5,0.3-0.7,0.6-0.7,1c0,0.3,0.3,0.6,0.7,0.9l0.1,0.1c0.5,0.3,1,0.4,1.6,0.4
			c0.6,0,1.2-0.1,1.6-0.4c0.5-0.3,0.8-0.7,0.7-1.1c0-0.3-0.2-0.6-0.6-1.1c-0.1-0.1-0.2-0.2-0.3-0.3c-0.2-0.2-0.3-0.3-0.3-0.4
			c-0.3-0.4-0.5-0.6-0.6-0.9c-0.2-0.5-0.2-0.9,0.1-1.4c0.2-0.5,0.7-0.9,1.3-1.2c0.6-0.4,1.4-0.6,2.3-0.7c0.9-0.1,1.8-0.1,2.6,0
			c0.4,0.1,0.8,0.2,1.2,0.3l0,0l2.2-1.3l0.9,0.5l1.1,0.6l-2.1,1.2c0.2,0.2,0.4,0.4,0.5,0.7c0.3,0.5,0.3,1,0.1,1.5
			c-0.2,0.5-0.7,1-1.3,1.4l-2.4-1.4c0.4-0.3,0.5-0.5,0.5-0.8c0-0.3-0.2-0.5-0.6-0.7l0,0c-0.4-0.2-0.8-0.3-1.3-0.3
			c-0.5,0-0.9,0.1-1.3,0.3c-0.4,0.2-0.6,0.5-0.6,0.7c0,0.2,0.2,0.5,0.4,0.9c0.1,0.1,0.1,0.2,0.2,0.2l0.4,0.4c0.6,0.7,0.9,1.2,1,1.7
			c0.2,0.9-0.3,1.7-1.5,2.4c-0.7,0.4-1.6,0.7-2.6,0.9c-1,0.1-2,0.1-2.9,0c-0.5-0.1-1-0.2-1.4-0.3l-2.1,1.2l-1.1-0.6l-0.9-0.5
			l2.1-1.2C-85.5,51.6-85.8,51-85.8,50.3z"/>
		<path class="st2" d="M-86,53.9l1.1,0.6l2.1-1.2c0.4,0.1,0.9,0.3,1.4,0.3c1,0.2,2,0.2,2.9,0c1-0.2,1.8-0.4,2.6-0.9
			c1.2-0.7,1.6-1.5,1.5-2.4c-0.1-0.5-0.4-1-1-1.7l-0.4-0.4c-0.1-0.1-0.1-0.2-0.2-0.2c-0.3-0.4-0.4-0.6-0.4-0.9
			c0-0.3,0.2-0.5,0.6-0.7c0.4-0.2,0.8-0.3,1.3-0.3c0.5,0,0.9,0.1,1.3,0.3l0,0c0.4,0.2,0.6,0.5,0.6,0.7c0,0.3-0.2,0.5-0.5,0.8
			l2.4,1.4c0.7-0.4,1.1-0.9,1.3-1.4c0.2-0.5,0.2-1-0.1-1.5c-0.1-0.2-0.3-0.5-0.5-0.7l2.1-1.2l-1.1-0.6l-0.9-0.5l-2.2,1.3l0,0
			c-0.4-0.1-0.8-0.2-1.2-0.3c-0.9-0.1-1.8-0.2-2.6,0c-0.9,0.1-1.6,0.4-2.3,0.7c-0.6,0.3-1,0.8-1.3,1.2c-0.2,0.5-0.3,1-0.1,1.4
			c0.1,0.2,0.3,0.5,0.6,0.9c0,0,0.2,0.2,0.3,0.4c0.1,0.1,0.2,0.2,0.3,0.3c0.3,0.4,0.5,0.8,0.6,1.1c0.1,0.4-0.2,0.8-0.7,1.1
			c-0.5,0.3-1,0.4-1.6,0.4c-0.6,0-1.2-0.1-1.6-0.4l-0.1-0.1c-0.4-0.3-0.7-0.6-0.7-0.9c0-0.3,0.2-0.7,0.7-1l-2.4-1.4
			c-0.6,0.3-0.9,0.7-1.1,1c-0.3,0.4-0.4,0.8-0.4,1.2c0,0.7,0.3,1.3,0.9,1.8l-2.1,1.2L-86,53.9z"/>
	</g>
	<g>
		<path class="st0" d="M-58.8,44c0,0.1,0,0.2,0,0.4c0,0,0,0,0,0c0,0.1,0,0.3,0,0.4c0,0,0,0,0,0c0,0,0,0.1,0,0.1c0,0,0,0.1,0,0.1
			c0,0.1-0.1,0.2-0.1,0.4c0,0.1-0.1,0.3-0.1,0.4c0,0,0,0.1-0.1,0.1c0,0,0,0.1,0,0.1c0,0.1-0.1,0.2-0.2,0.3c-0.1,0.1-0.1,0.3-0.2,0.4
			c0,0.1-0.1,0.1-0.1,0.2c0,0,0,0.1-0.1,0.1c-0.1,0.1-0.1,0.2-0.2,0.3c-0.1,0.1-0.2,0.3-0.3,0.4c-0.1,0.1-0.1,0.2-0.2,0.2
			c0,0.1-0.1,0.1-0.1,0.2c0,0.1-0.1,0.1-0.2,0.2c-0.1,0.1-0.2,0.2-0.3,0.3c-0.2,0.2-0.4,0.4-0.5,0.5c-0.1,0.1-0.1,0.1-0.2,0.2
			c0,0-0.1,0.1-0.1,0.1c0,0-0.1,0.1-0.1,0.1c-0.2,0.1-0.3,0.3-0.5,0.4c-0.2,0.1-0.3,0.3-0.5,0.4c0,0-0.1,0.1-0.1,0.1
			c-0.2,0.1-0.4,0.3-0.6,0.4c-0.2,0.1-0.3,0.2-0.5,0.3c-0.1,0-0.2,0.1-0.2,0.1c-0.6,0.3-1.2,0.6-1.8,0.9c-0.2,0.1-0.4,0.2-0.5,0.2
			c-0.5,0.2-1,0.4-1.5,0.6c-0.1,0-0.2,0.1-0.3,0.1c-0.1,0-0.1,0-0.2,0.1c-0.3,0.1-0.6,0.2-0.9,0.3c-0.2,0.1-0.5,0.1-0.7,0.2
			c-0.3,0.1-0.7,0.2-1.1,0.2c-0.2,0-0.4,0.1-0.6,0.1c0,0-0.1,0-0.1,0c-0.7,0.1-1.4,0.2-2.1,0.3c-0.1,0-0.1,0-0.2,0
			c-0.2,0-0.3,0-0.5,0c-0.4,0-0.8,0.1-1.3,0.1c-0.1,0-0.2,0-0.3,0c-0.2,0-0.3,0-0.5,0c-0.3,0-0.7,0-1,0c-0.1,0-0.2,0-0.4,0
			c-0.2,0-0.3,0-0.5,0c-0.3,0-0.6,0-1-0.1c-0.1,0-0.3,0-0.4,0c-0.1,0-0.3,0-0.4-0.1c-0.3,0-0.6-0.1-0.9-0.1c-0.1,0-0.3,0-0.4,0
			c-0.1,0-0.3,0-0.4-0.1c-0.3-0.1-0.7-0.1-1-0.2c-0.2,0-0.3,0-0.5-0.1c-0.1,0-0.2-0.1-0.3-0.1c-0.4-0.1-0.8-0.2-1.2-0.3
			c-0.2,0-0.3-0.1-0.5-0.1c-0.1,0-0.1,0-0.2-0.1c-0.7-0.2-1.4-0.4-2-0.7c0,0-0.1,0-0.1,0c-0.3-0.1-0.6-0.2-0.9-0.4
			c-0.2-0.1-0.3-0.1-0.5-0.2c-0.5-0.2-0.9-0.5-1.4-0.7c-0.5-0.3-0.9-0.5-1.3-0.8c-0.1-0.1-0.2-0.1-0.3-0.2c-0.3-0.2-0.6-0.4-0.8-0.7
			c-0.1-0.1-0.2-0.2-0.3-0.3c-0.2-0.2-0.5-0.4-0.7-0.6c-0.1-0.1-0.2-0.2-0.3-0.3c-0.2-0.2-0.4-0.4-0.5-0.6c-0.1-0.1-0.2-0.3-0.2-0.4
			c-0.1-0.2-0.3-0.4-0.4-0.6c-0.1-0.1-0.1-0.3-0.2-0.4c-0.1-0.2-0.2-0.4-0.2-0.6c0-0.1-0.1-0.3-0.1-0.5c-0.1-0.2-0.1-0.4-0.1-0.6
			c0-0.2,0-0.3,0-0.5c0-0.2,0-0.4,0-0.6c0,0,0,0,0,0l0,3.8c0,2.8,1.8,5.6,5.5,7.7c0.4,0.3,0.9,0.5,1.4,0.7c0.2,0.1,0.3,0.1,0.5,0.2
			c0.3,0.1,0.5,0.2,0.8,0.3c0,0,0.1,0,0.1,0c0.6,0.3,1.3,0.5,2,0.7c0.1,0,0.1,0,0.2,0c0.2,0,0.3,0.1,0.5,0.1
			c0.4,0.1,0.8,0.2,1.2,0.3c0.1,0,0.2,0,0.3,0.1c0.2,0,0.3,0.1,0.5,0.1c0.3,0.1,0.7,0.1,1,0.2c0.1,0,0.3,0,0.4,0.1
			c0.1,0,0.3,0,0.4,0.1c0.3,0,0.6,0.1,0.9,0.1c0.1,0,0.3,0,0.4,0c0.1,0,0.3,0,0.4,0c0.3,0,0.6,0,0.9,0.1c0.2,0,0.3,0,0.5,0
			c0.1,0,0.3,0,0.4,0c0.3,0,0.7,0,1,0c0.2,0,0.3,0,0.5,0c0.1,0,0.2,0,0.3,0c0.4,0,0.9,0,1.3-0.1c0.2,0,0.3,0,0.5,0c0,0,0.1,0,0.2,0
			c0.7-0.1,1.4-0.2,2.1-0.3c0,0,0.1,0,0.1,0c0.2,0,0.4-0.1,0.6-0.1c0.3-0.1,0.7-0.1,1-0.2c0.2-0.1,0.5-0.1,0.7-0.2
			c0.3-0.1,0.7-0.2,1-0.3c0.1,0,0.1,0,0.2-0.1c0.1,0,0.2-0.1,0.3-0.1c0.5-0.2,1-0.4,1.5-0.6c0.2-0.1,0.4-0.1,0.5-0.2
			c0.6-0.3,1.2-0.6,1.8-0.9c0.1,0,0.1-0.1,0.2-0.1c0.2-0.1,0.3-0.2,0.5-0.3c0.2-0.1,0.5-0.3,0.7-0.4c0.2-0.1,0.4-0.3,0.5-0.4
			c0.2-0.2,0.4-0.3,0.6-0.5c0,0,0.1-0.1,0.1-0.1c0.1-0.1,0.1-0.1,0.2-0.2c0.3-0.3,0.5-0.6,0.8-0.8c0.1-0.1,0.1-0.1,0.2-0.2
			c0-0.1,0.1-0.1,0.1-0.2c0.2-0.2,0.3-0.4,0.4-0.6c0.1-0.1,0.1-0.2,0.2-0.3c0,0,0-0.1,0.1-0.1c0.1-0.2,0.2-0.4,0.3-0.6
			c0.1-0.1,0.1-0.3,0.2-0.4c0,0,0-0.1,0-0.1c0.1-0.2,0.1-0.4,0.2-0.5c0-0.2,0.1-0.3,0.1-0.5c0,0,0,0,0,0c0-0.2,0-0.4,0.1-0.6
			c0-0.2,0-0.4,0-0.6c0,0,0,0,0,0l0-3.8C-58.8,43.9-58.8,44-58.8,44z"/>
		<path class="st1" d="M-96.1,44.4c0,0.2,0,0.3,0,0.5c0,0.2,0.1,0.4,0.1,0.6c0,0.2,0.1,0.3,0.1,0.5c0.1,0.2,0.2,0.4,0.2,0.6
			c0.1,0.1,0.1,0.3,0.2,0.4c0.1,0.2,0.2,0.4,0.4,0.6c0.1,0.1,0.1,0.3,0.2,0.4c0.1,0.2,0.3,0.4,0.5,0.6c0.1,0.1,0.2,0.2,0.3,0.3
			c0.2,0.2,0.4,0.4,0.7,0.6c0.1,0.1,0.2,0.2,0.3,0.3c0.3,0.2,0.5,0.4,0.8,0.7c0.1,0.1,0.2,0.1,0.3,0.2c0.4,0.3,0.8,0.6,1.3,0.8
			c0.4,0.3,0.9,0.5,1.4,0.7c0.1,0.1,0.3,0.1,0.5,0.2c0.3,0.1,0.6,0.3,1,0.4c0.6,0.3,1.3,0.5,2,0.7c0.2,0.1,0.4,0.1,0.7,0.2
			c0.4,0.1,0.8,0.2,1.2,0.3c0.3,0.1,0.5,0.1,0.8,0.2c0.3,0.1,0.7,0.1,1,0.2c0.3,0,0.6,0.1,0.8,0.1c0.3,0,0.6,0.1,0.9,0.1
			c0.3,0,0.6,0.1,0.9,0.1c0.3,0,0.6,0,1,0.1c0.3,0,0.6,0,0.8,0c0.3,0,0.7,0,1,0c0.3,0,0.5,0,0.8,0c0.4,0,0.8,0,1.3-0.1
			c0.2,0,0.4,0,0.7-0.1c0.7-0.1,1.4-0.2,2.1-0.3c0.2,0,0.4-0.1,0.7-0.1c0.4-0.1,0.7-0.1,1.1-0.2c0.3-0.1,0.5-0.1,0.7-0.2
			c0.3-0.1,0.6-0.2,0.9-0.3c0.2-0.1,0.4-0.1,0.6-0.2c0.5-0.2,1-0.4,1.5-0.6c0.2-0.1,0.4-0.2,0.5-0.2c0.6-0.3,1.2-0.6,1.8-0.9
			c0.5-0.3,0.9-0.5,1.3-0.8c0,0,0.1-0.1,0.1-0.1c0.4-0.3,0.7-0.5,1-0.8c0,0,0.1-0.1,0.1-0.1c0.3-0.3,0.6-0.5,0.8-0.8
			c0.1-0.1,0.2-0.2,0.3-0.3c0.2-0.2,0.3-0.4,0.5-0.6c0.1-0.1,0.2-0.3,0.3-0.4c0.1-0.2,0.2-0.4,0.3-0.6c0.1-0.1,0.1-0.3,0.2-0.4
			c0.1-0.2,0.2-0.4,0.2-0.6c0-0.1,0.1-0.3,0.1-0.4c0.1-0.2,0.1-0.4,0.1-0.6c0,0,0,0,0,0c0.5-3.1-1.3-6.3-5.4-8.7
			c-2.7-1.6-6.1-2.6-9.7-3c-2.2-0.2-4.4-0.3-6.6,0c-0.2,0-0.4,0-0.6,0c0,0-0.1,0-0.1,0c-3.5,0.4-6.8,1.4-9.5,3
			c-1.5,0.9-2.7,1.9-3.6,3c-1.2,1.5-1.8,3-1.8,4.6C-96.1,44-96.1,44.2-96.1,44.4z M-85.8,45.2c0-0.4,0.1-0.8,0.4-1.2
			c0.2-0.3,0.6-0.6,1.1-1l2.4,1.4c-0.5,0.3-0.7,0.6-0.7,1c0,0.3,0.3,0.6,0.7,0.9l0.1,0.1c0.5,0.3,1,0.4,1.6,0.4
			c0.6,0,1.2-0.1,1.6-0.4c0.5-0.3,0.8-0.7,0.7-1.1c0-0.3-0.2-0.6-0.6-1.1c-0.1-0.1-0.2-0.2-0.3-0.3c-0.2-0.2-0.3-0.3-0.3-0.4
			c-0.3-0.4-0.5-0.6-0.6-0.9c-0.2-0.5-0.2-0.9,0.1-1.4c0.2-0.5,0.7-0.9,1.3-1.2c0.6-0.4,1.4-0.6,2.3-0.7c0.9-0.1,1.8-0.1,2.6,0
			c0.4,0.1,0.8,0.2,1.2,0.3l0,0l2.2-1.3l0.9,0.5l1.1,0.6l-2.1,1.2c0.2,0.2,0.4,0.4,0.5,0.7c0.3,0.5,0.3,1,0.1,1.5
			c-0.2,0.5-0.7,1-1.3,1.4l-2.4-1.4c0.4-0.3,0.5-0.5,0.5-0.8c0-0.3-0.2-0.5-0.6-0.7l0,0c-0.4-0.2-0.8-0.3-1.3-0.3
			c-0.5,0-0.9,0.1-1.3,0.4c-0.4,0.2-0.6,0.5-0.6,0.7c0,0.2,0.2,0.5,0.4,0.9c0.1,0.1,0.1,0.2,0.2,0.2l0.4,0.4c0.6,0.7,0.9,1.2,1,1.7
			c0.2,0.9-0.3,1.7-1.5,2.4c-0.7,0.4-1.6,0.7-2.6,0.9c-1,0.1-2,0.1-2.9,0c-0.5-0.1-1-0.2-1.4-0.3l-2.1,1.2l-1.1-0.6l-0.9-0.5
			l2.1-1.2C-85.5,46.5-85.8,45.9-85.8,45.2z"/>
		<path class="st2" d="M-86,48.8l1.1,0.6l2.1-1.2c0.4,0.1,0.9,0.3,1.4,0.3c1,0.2,2,0.2,2.9,0c1-0.2,1.8-0.4,2.6-0.9
			c1.2-0.7,1.6-1.5,1.5-2.4c-0.1-0.5-0.4-1-1-1.7l-0.4-0.4c-0.1-0.1-0.1-0.2-0.2-0.2c-0.3-0.4-0.4-0.6-0.4-0.9
			c0-0.3,0.2-0.5,0.6-0.7c0.4-0.2,0.8-0.3,1.3-0.4c0.5,0,0.9,0.1,1.3,0.3l0,0c0.4,0.2,0.6,0.5,0.6,0.7c0,0.3-0.2,0.5-0.5,0.8
			l2.4,1.4c0.7-0.4,1.1-0.9,1.3-1.4c0.2-0.5,0.2-1-0.1-1.5c-0.1-0.2-0.3-0.5-0.5-0.7l2.1-1.2l-1.1-0.6l-0.9-0.5l-2.2,1.3l0,0
			c-0.4-0.1-0.8-0.2-1.2-0.3c-0.9-0.1-1.8-0.2-2.6,0c-0.9,0.1-1.6,0.4-2.3,0.7c-0.6,0.3-1,0.8-1.3,1.2c-0.2,0.5-0.3,1-0.1,1.4
			c0.1,0.2,0.3,0.5,0.6,0.9c0,0,0.2,0.2,0.3,0.4c0.1,0.1,0.2,0.2,0.3,0.3c0.3,0.4,0.5,0.8,0.6,1.1c0.1,0.4-0.2,0.8-0.7,1.1
			c-0.5,0.3-1,0.4-1.6,0.4c-0.6,0-1.2-0.1-1.6-0.4l-0.1-0.1c-0.4-0.3-0.7-0.6-0.7-0.9c0-0.3,0.2-0.7,0.7-1l-2.4-1.4
			c-0.6,0.3-0.9,0.7-1.1,1c-0.3,0.4-0.4,0.8-0.4,1.2c0,0.7,0.3,1.3,0.9,1.9l-2.1,1.2L-86,48.8z"/>
	</g>
	<g>
		<path class="st0" d="M-58.8,38.9c0,0.1,0,0.2,0,0.4c0,0,0,0,0,0c0,0.1,0,0.3,0,0.4c0,0,0,0,0,0c0,0,0,0.1,0,0.1c0,0,0,0.1,0,0.1
			c0,0.1-0.1,0.2-0.1,0.4c0,0.1-0.1,0.3-0.1,0.4c0,0,0,0.1-0.1,0.1c0,0,0,0.1,0,0.1c0,0.1-0.1,0.2-0.2,0.3c-0.1,0.1-0.1,0.3-0.2,0.4
			c0,0.1-0.1,0.1-0.1,0.2c0,0,0,0.1-0.1,0.1c-0.1,0.1-0.1,0.2-0.2,0.3c-0.1,0.1-0.2,0.3-0.3,0.4c-0.1,0.1-0.1,0.2-0.2,0.2
			c0,0.1-0.1,0.1-0.1,0.2c0,0.1-0.1,0.1-0.2,0.2c-0.1,0.1-0.2,0.2-0.3,0.3c-0.2,0.2-0.4,0.4-0.5,0.5c-0.1,0.1-0.1,0.1-0.2,0.2
			c0,0-0.1,0.1-0.1,0.1c0,0-0.1,0.1-0.1,0.1c-0.2,0.1-0.3,0.3-0.5,0.4c-0.2,0.1-0.3,0.3-0.5,0.4c0,0-0.1,0.1-0.1,0.1
			c-0.2,0.1-0.4,0.3-0.6,0.4c-0.2,0.1-0.3,0.2-0.5,0.3c-0.1,0-0.2,0.1-0.2,0.1c-0.6,0.3-1.2,0.6-1.8,0.9c-0.2,0.1-0.4,0.2-0.5,0.2
			c-0.5,0.2-1,0.4-1.5,0.6c-0.1,0-0.2,0.1-0.3,0.1c-0.1,0-0.1,0-0.2,0.1c-0.3,0.1-0.6,0.2-0.9,0.3c-0.2,0.1-0.5,0.1-0.7,0.2
			c-0.3,0.1-0.7,0.2-1.1,0.2c-0.2,0-0.4,0.1-0.6,0.1c0,0-0.1,0-0.1,0c-0.7,0.1-1.4,0.2-2.1,0.3c-0.1,0-0.1,0-0.2,0
			c-0.2,0-0.3,0-0.5,0c-0.4,0-0.8,0.1-1.3,0.1c-0.1,0-0.2,0-0.3,0c-0.2,0-0.3,0-0.5,0c-0.3,0-0.7,0-1,0c-0.1,0-0.2,0-0.4,0
			c-0.2,0-0.3,0-0.5,0c-0.3,0-0.6,0-1-0.1c-0.1,0-0.3,0-0.4,0c-0.1,0-0.3,0-0.4-0.1c-0.3,0-0.6-0.1-0.9-0.1c-0.1,0-0.3,0-0.4,0
			c-0.1,0-0.3,0-0.4-0.1c-0.3-0.1-0.7-0.1-1-0.2c-0.2,0-0.3,0-0.5-0.1c-0.1,0-0.2-0.1-0.3-0.1c-0.4-0.1-0.8-0.2-1.2-0.3
			c-0.2,0-0.3-0.1-0.5-0.1c-0.1,0-0.1,0-0.2-0.1c-0.7-0.2-1.4-0.4-2-0.7c0,0-0.1,0-0.1,0c-0.3-0.1-0.6-0.2-0.9-0.4
			c-0.2-0.1-0.3-0.1-0.5-0.2c-0.5-0.2-0.9-0.5-1.4-0.7c-0.5-0.3-0.9-0.5-1.3-0.8c-0.1-0.1-0.2-0.1-0.3-0.2c-0.3-0.2-0.6-0.4-0.8-0.7
			c-0.1-0.1-0.2-0.2-0.3-0.3c-0.2-0.2-0.5-0.4-0.7-0.6c-0.1-0.1-0.2-0.2-0.3-0.3c-0.2-0.2-0.4-0.4-0.5-0.6c-0.1-0.1-0.2-0.3-0.2-0.4
			c-0.1-0.2-0.3-0.4-0.4-0.6c-0.1-0.1-0.1-0.3-0.2-0.4c-0.1-0.2-0.2-0.4-0.2-0.6c0-0.1-0.1-0.3-0.1-0.5c-0.1-0.2-0.1-0.4-0.1-0.6
			c0-0.2,0-0.3,0-0.5c0-0.2,0-0.4,0-0.6c0,0,0,0,0,0l0,3.8c0,2.8,1.8,5.6,5.5,7.7c0.4,0.3,0.9,0.5,1.4,0.7c0.2,0.1,0.3,0.1,0.5,0.2
			c0.3,0.1,0.5,0.2,0.8,0.3c0,0,0.1,0,0.1,0c0.6,0.3,1.3,0.5,2,0.7c0.1,0,0.1,0,0.2,0c0.2,0,0.3,0.1,0.5,0.1
			c0.4,0.1,0.8,0.2,1.2,0.3c0.1,0,0.2,0,0.3,0.1c0.2,0,0.3,0.1,0.5,0.1c0.3,0.1,0.7,0.1,1,0.2c0.1,0,0.3,0,0.4,0.1
			c0.1,0,0.3,0,0.4,0.1c0.3,0,0.6,0.1,0.9,0.1c0.1,0,0.3,0,0.4,0c0.1,0,0.3,0,0.4,0c0.3,0,0.6,0,0.9,0.1c0.2,0,0.3,0,0.5,0
			c0.1,0,0.3,0,0.4,0c0.3,0,0.7,0,1,0c0.2,0,0.3,0,0.5,0c0.1,0,0.2,0,0.3,0c0.4,0,0.9-0.1,1.3-0.1c0.2,0,0.3,0,0.5,0
			c0,0,0.1,0,0.2,0c0.7-0.1,1.4-0.2,2.1-0.3c0,0,0.1,0,0.1,0c0.2,0,0.4-0.1,0.6-0.1c0.3-0.1,0.7-0.1,1-0.2c0.2-0.1,0.5-0.1,0.7-0.2
			c0.3-0.1,0.7-0.2,1-0.3c0.1,0,0.1,0,0.2-0.1c0.1,0,0.2-0.1,0.3-0.1c0.5-0.2,1-0.4,1.5-0.6c0.2-0.1,0.4-0.1,0.5-0.2
			c0.6-0.3,1.2-0.6,1.8-0.9c0.1,0,0.1-0.1,0.2-0.1c0.2-0.1,0.3-0.2,0.5-0.3c0.2-0.1,0.5-0.3,0.7-0.4c0.2-0.1,0.4-0.3,0.5-0.4
			c0.2-0.2,0.4-0.3,0.6-0.5c0,0,0.1-0.1,0.1-0.1c0.1-0.1,0.1-0.1,0.2-0.2c0.3-0.3,0.5-0.6,0.8-0.8c0.1-0.1,0.1-0.1,0.2-0.2
			c0-0.1,0.1-0.1,0.1-0.2c0.2-0.2,0.3-0.4,0.4-0.6c0.1-0.1,0.1-0.2,0.2-0.3c0,0,0-0.1,0.1-0.1c0.1-0.2,0.2-0.4,0.3-0.6
			c0.1-0.1,0.1-0.3,0.2-0.4c0,0,0-0.1,0-0.1c0.1-0.2,0.1-0.4,0.2-0.5c0-0.2,0.1-0.3,0.1-0.5c0,0,0,0,0,0c0-0.2,0-0.4,0.1-0.6
			c0-0.2,0-0.4,0-0.6c0,0,0,0,0,0l0-3.8C-58.8,38.7-58.8,38.8-58.8,38.9z"/>
		<path class="st1" d="M-96.1,39.2c0,0.2,0,0.3,0,0.5c0,0.2,0.1,0.4,0.1,0.6c0,0.2,0.1,0.3,0.1,0.5c0.1,0.2,0.2,0.4,0.2,0.6
			c0.1,0.1,0.1,0.3,0.2,0.4c0.1,0.2,0.2,0.4,0.4,0.6c0.1,0.1,0.1,0.3,0.2,0.4c0.1,0.2,0.3,0.4,0.5,0.6c0.1,0.1,0.2,0.2,0.3,0.3
			c0.2,0.2,0.4,0.4,0.7,0.6c0.1,0.1,0.2,0.2,0.3,0.3c0.3,0.2,0.5,0.4,0.8,0.7c0.1,0.1,0.2,0.1,0.3,0.2c0.4,0.3,0.8,0.6,1.3,0.8
			c0.4,0.3,0.9,0.5,1.4,0.7c0.1,0.1,0.3,0.1,0.5,0.2c0.3,0.1,0.6,0.3,1,0.4c0.6,0.3,1.3,0.5,2,0.7c0.2,0.1,0.4,0.1,0.7,0.2
			c0.4,0.1,0.8,0.2,1.2,0.3c0.3,0.1,0.5,0.1,0.8,0.2c0.3,0.1,0.7,0.1,1,0.2c0.3,0,0.6,0.1,0.8,0.1c0.3,0,0.6,0.1,0.9,0.1
			c0.3,0,0.6,0.1,0.9,0.1c0.3,0,0.6,0,1,0.1c0.3,0,0.6,0,0.8,0c0.3,0,0.7,0,1,0c0.3,0,0.5,0,0.8,0c0.4,0,0.8,0,1.3-0.1
			c0.2,0,0.4,0,0.7-0.1c0.7-0.1,1.4-0.2,2.1-0.3c0.2,0,0.4-0.1,0.7-0.1c0.4-0.1,0.7-0.1,1.1-0.2c0.3-0.1,0.5-0.1,0.7-0.2
			c0.3-0.1,0.6-0.2,0.9-0.3c0.2-0.1,0.4-0.1,0.6-0.2c0.5-0.2,1-0.4,1.5-0.6c0.2-0.1,0.4-0.1,0.5-0.2c0.6-0.3,1.2-0.6,1.8-0.9
			c0.5-0.3,0.9-0.5,1.3-0.8c0,0,0.1-0.1,0.1-0.1c0.4-0.3,0.7-0.5,1-0.8c0,0,0.1-0.1,0.1-0.1c0.3-0.3,0.6-0.5,0.8-0.8
			c0.1-0.1,0.2-0.2,0.3-0.3c0.2-0.2,0.3-0.4,0.5-0.6c0.1-0.1,0.2-0.3,0.3-0.4c0.1-0.2,0.2-0.4,0.3-0.6c0.1-0.1,0.1-0.3,0.2-0.4
			c0.1-0.2,0.2-0.4,0.2-0.6c0-0.1,0.1-0.3,0.1-0.4c0.1-0.2,0.1-0.4,0.1-0.6c0,0,0,0,0,0c0.5-3.1-1.3-6.3-5.4-8.7
			c-2.7-1.6-6.1-2.6-9.7-3c-2.2-0.2-4.4-0.3-6.6,0c-0.2,0-0.4,0-0.6,0c0,0-0.1,0-0.1,0c-3.5,0.4-6.8,1.4-9.5,3
			c-1.5,0.9-2.7,1.9-3.6,3c-1.2,1.5-1.8,3-1.8,4.6C-96.1,38.8-96.1,39-96.1,39.2z M-85.8,40c0-0.4,0.1-0.8,0.4-1.2
			c0.2-0.3,0.6-0.6,1.1-1l2.4,1.4c-0.5,0.3-0.7,0.6-0.7,1c0,0.3,0.3,0.6,0.7,0.9l0.1,0.1c0.5,0.3,1,0.4,1.6,0.4
			c0.6,0,1.2-0.1,1.6-0.4c0.5-0.3,0.8-0.7,0.7-1.1c0-0.3-0.2-0.6-0.6-1c-0.1-0.1-0.2-0.2-0.3-0.3c-0.2-0.2-0.3-0.3-0.3-0.4
			c-0.3-0.4-0.5-0.6-0.6-0.9c-0.2-0.5-0.2-0.9,0.1-1.4c0.2-0.5,0.7-0.9,1.3-1.2c0.6-0.4,1.4-0.6,2.3-0.7c0.9-0.1,1.8-0.1,2.6,0
			c0.4,0.1,0.8,0.2,1.2,0.3l0,0l2.2-1.3l0.9,0.5l1.1,0.6l-2.1,1.2c0.2,0.2,0.4,0.4,0.5,0.7c0.3,0.5,0.3,1,0.1,1.5
			c-0.2,0.5-0.7,1-1.3,1.4l-2.4-1.4c0.4-0.3,0.5-0.5,0.5-0.8c0-0.3-0.2-0.5-0.6-0.7l0,0c-0.4-0.2-0.8-0.3-1.3-0.3
			c-0.5,0-0.9,0.1-1.3,0.4c-0.4,0.2-0.6,0.5-0.6,0.7c0,0.2,0.2,0.5,0.4,0.9c0.1,0.1,0.1,0.2,0.2,0.2l0.4,0.4c0.6,0.7,0.9,1.2,1,1.7
			c0.2,0.9-0.3,1.7-1.5,2.4c-0.7,0.4-1.6,0.7-2.6,0.9c-1,0.1-2,0.1-2.9,0c-0.5-0.1-1-0.2-1.4-0.3l-2.1,1.2l-1.1-0.6l-0.9-0.5
			l2.1-1.2C-85.5,41.3-85.8,40.7-85.8,40z"/>
		<path class="st2" d="M-86,43.6l1.1,0.6l2.1-1.2c0.4,0.1,0.9,0.3,1.4,0.3c1,0.2,2,0.2,2.9,0c1-0.2,1.8-0.4,2.6-0.9
			c1.2-0.7,1.6-1.5,1.5-2.4c-0.1-0.5-0.4-1-1-1.7l-0.4-0.4c-0.1-0.1-0.1-0.2-0.2-0.2c-0.3-0.3-0.4-0.6-0.4-0.9
			c0-0.3,0.2-0.5,0.6-0.7c0.4-0.2,0.8-0.3,1.3-0.4c0.5,0,0.9,0.1,1.3,0.3l0,0c0.4,0.2,0.6,0.5,0.6,0.7c0,0.3-0.2,0.6-0.5,0.8
			l2.4,1.4c0.7-0.4,1.1-0.9,1.3-1.4c0.2-0.5,0.2-1-0.1-1.5c-0.1-0.2-0.3-0.5-0.5-0.7l2.1-1.2l-1.1-0.6l-0.9-0.5l-2.2,1.3l0,0
			c-0.4-0.1-0.8-0.2-1.2-0.3c-0.9-0.1-1.8-0.2-2.6,0c-0.9,0.1-1.6,0.4-2.3,0.7c-0.6,0.3-1,0.8-1.3,1.2c-0.2,0.5-0.3,1-0.1,1.4
			c0.1,0.2,0.3,0.5,0.6,0.9c0,0,0.2,0.2,0.3,0.4c0.1,0.1,0.2,0.2,0.3,0.3c0.3,0.4,0.5,0.8,0.6,1c0.1,0.4-0.2,0.8-0.7,1.1
			c-0.5,0.3-1,0.4-1.6,0.4c-0.6,0-1.2-0.1-1.6-0.4l-0.1-0.1c-0.4-0.3-0.7-0.6-0.7-0.9c0-0.3,0.2-0.7,0.7-1l-2.4-1.4
			c-0.6,0.3-0.9,0.7-1.1,1c-0.3,0.4-0.4,0.8-0.4,1.2c0,0.7,0.3,1.3,0.9,1.8l-2.1,1.2L-86,43.6z"/>
	</g>
	<g>
		<path class="st0" d="M-58.8,33.9c0,0.1,0,0.2,0,0.4c0,0,0,0,0,0c0,0.1,0,0.3,0,0.4c0,0,0,0,0,0c0,0,0,0.1,0,0.1c0,0,0,0.1,0,0.1
			c0,0.1-0.1,0.2-0.1,0.4c0,0.1-0.1,0.3-0.1,0.4c0,0,0,0.1-0.1,0.1c0,0,0,0.1,0,0.1c0,0.1-0.1,0.2-0.2,0.3c-0.1,0.1-0.1,0.3-0.2,0.4
			c0,0.1-0.1,0.1-0.1,0.2c0,0,0,0.1-0.1,0.1c-0.1,0.1-0.1,0.2-0.2,0.3c-0.1,0.1-0.2,0.3-0.3,0.4c-0.1,0.1-0.1,0.2-0.2,0.2
			c0,0.1-0.1,0.1-0.1,0.2c0,0.1-0.1,0.1-0.2,0.2c-0.1,0.1-0.2,0.2-0.3,0.3c-0.2,0.2-0.4,0.4-0.5,0.5c-0.1,0.1-0.1,0.1-0.2,0.2
			c0,0-0.1,0.1-0.1,0.1c0,0-0.1,0.1-0.1,0.1c-0.2,0.1-0.3,0.3-0.5,0.4c-0.2,0.1-0.3,0.3-0.5,0.4c0,0-0.1,0.1-0.1,0.1
			c-0.2,0.1-0.4,0.3-0.6,0.4c-0.2,0.1-0.3,0.2-0.5,0.3c-0.1,0-0.2,0.1-0.2,0.1c-0.6,0.3-1.2,0.6-1.8,0.9c-0.2,0.1-0.4,0.2-0.5,0.2
			c-0.5,0.2-1,0.4-1.5,0.6c-0.1,0-0.2,0.1-0.3,0.1c-0.1,0-0.1,0-0.2,0.1c-0.3,0.1-0.6,0.2-0.9,0.3c-0.2,0.1-0.5,0.1-0.7,0.2
			c-0.3,0.1-0.7,0.2-1.1,0.2c-0.2,0-0.4,0.1-0.6,0.1c0,0-0.1,0-0.1,0c-0.7,0.1-1.4,0.2-2.1,0.3c-0.1,0-0.1,0-0.2,0
			c-0.2,0-0.3,0-0.5,0c-0.4,0-0.8,0.1-1.3,0.1c-0.1,0-0.2,0-0.3,0c-0.2,0-0.3,0-0.5,0c-0.3,0-0.7,0-1,0c-0.1,0-0.2,0-0.4,0
			c-0.2,0-0.3,0-0.5,0c-0.3,0-0.6,0-1-0.1c-0.1,0-0.3,0-0.4,0c-0.1,0-0.3,0-0.4,0c-0.3,0-0.6-0.1-0.9-0.1c-0.1,0-0.3,0-0.4,0
			c-0.1,0-0.3,0-0.4-0.1c-0.3-0.1-0.7-0.1-1-0.2c-0.2,0-0.3,0-0.5-0.1c-0.1,0-0.2-0.1-0.3-0.1c-0.4-0.1-0.8-0.2-1.2-0.3
			c-0.2,0-0.3-0.1-0.5-0.1c-0.1,0-0.1,0-0.2-0.1c-0.7-0.2-1.4-0.4-2-0.7c0,0-0.1,0-0.1,0c-0.3-0.1-0.6-0.2-0.9-0.4
			c-0.2-0.1-0.3-0.1-0.5-0.2c-0.5-0.2-0.9-0.5-1.4-0.7c-0.5-0.3-0.9-0.5-1.3-0.8c-0.1-0.1-0.2-0.1-0.3-0.2c-0.3-0.2-0.6-0.4-0.8-0.7
			c-0.1-0.1-0.2-0.2-0.3-0.3c-0.2-0.2-0.5-0.4-0.7-0.6c-0.1-0.1-0.2-0.2-0.3-0.3c-0.2-0.2-0.4-0.4-0.5-0.6c-0.1-0.1-0.2-0.3-0.2-0.4
			c-0.1-0.2-0.3-0.4-0.4-0.6c-0.1-0.1-0.1-0.3-0.2-0.4c-0.1-0.2-0.2-0.4-0.2-0.6c0-0.1-0.1-0.3-0.1-0.5c-0.1-0.2-0.1-0.4-0.1-0.6
			c0-0.2,0-0.3,0-0.5c0-0.2,0-0.4,0-0.6c0,0,0,0,0,0l0,3.8c0,2.8,1.8,5.6,5.5,7.7c0.4,0.3,0.9,0.5,1.4,0.7c0.2,0.1,0.3,0.1,0.5,0.2
			c0.3,0.1,0.5,0.2,0.8,0.3c0,0,0.1,0,0.1,0c0.6,0.3,1.3,0.5,2,0.7c0.1,0,0.1,0,0.2,0c0.2,0,0.3,0.1,0.5,0.1
			c0.4,0.1,0.8,0.2,1.2,0.3c0.1,0,0.2,0,0.3,0.1c0.2,0,0.3,0.1,0.5,0.1c0.3,0.1,0.7,0.1,1,0.2c0.1,0,0.3,0,0.4,0.1
			c0.1,0,0.3,0,0.4,0.1c0.3,0,0.6,0.1,0.9,0.1c0.1,0,0.3,0,0.4,0c0.1,0,0.3,0,0.4,0c0.3,0,0.6,0,0.9,0c0.2,0,0.3,0,0.5,0
			c0.1,0,0.3,0,0.4,0c0.3,0,0.7,0,1,0c0.2,0,0.3,0,0.5,0c0.1,0,0.2,0,0.3,0c0.4,0,0.9,0,1.3-0.1c0.2,0,0.3,0,0.5,0c0,0,0.1,0,0.2,0
			c0.7-0.1,1.4-0.2,2.1-0.3c0,0,0.1,0,0.1,0c0.2,0,0.4-0.1,0.6-0.1c0.3-0.1,0.7-0.1,1-0.2c0.2-0.1,0.5-0.1,0.7-0.2
			c0.3-0.1,0.7-0.2,1-0.3c0.1,0,0.1,0,0.2-0.1c0.1,0,0.2-0.1,0.3-0.1c0.5-0.2,1-0.4,1.5-0.6c0.2-0.1,0.4-0.1,0.5-0.2
			c0.6-0.3,1.2-0.6,1.8-0.9c0.1,0,0.1-0.1,0.2-0.1c0.2-0.1,0.3-0.2,0.5-0.3c0.2-0.1,0.5-0.3,0.7-0.4c0.2-0.1,0.4-0.3,0.5-0.4
			c0.2-0.2,0.4-0.3,0.6-0.5c0,0,0.1-0.1,0.1-0.1c0.1-0.1,0.1-0.1,0.2-0.2c0.3-0.3,0.5-0.6,0.8-0.8c0.1-0.1,0.1-0.1,0.2-0.2
			c0-0.1,0.1-0.1,0.1-0.2c0.2-0.2,0.3-0.4,0.4-0.6c0.1-0.1,0.1-0.2,0.2-0.3c0,0,0-0.1,0.1-0.1c0.1-0.2,0.2-0.4,0.3-0.6
			c0.1-0.1,0.1-0.3,0.2-0.4c0,0,0-0.1,0-0.1c0.1-0.2,0.1-0.4,0.2-0.5c0-0.2,0.1-0.3,0.1-0.5c0,0,0,0,0,0c0-0.2,0-0.4,0.1-0.6
			c0-0.2,0-0.4,0-0.6c0,0,0,0,0,0l0-3.8C-58.8,33.8-58.8,33.8-58.8,33.9z"/>
		<path class="st1" d="M-96.1,34.2c0,0.2,0,0.3,0,0.5c0,0.2,0.1,0.4,0.1,0.6c0,0.2,0.1,0.3,0.1,0.5c0.1,0.2,0.2,0.4,0.2,0.6
			c0.1,0.1,0.1,0.3,0.2,0.4c0.1,0.2,0.2,0.4,0.4,0.6c0.1,0.1,0.1,0.3,0.2,0.4c0.1,0.2,0.3,0.4,0.5,0.6c0.1,0.1,0.2,0.2,0.3,0.3
			c0.2,0.2,0.4,0.4,0.7,0.6c0.1,0.1,0.2,0.2,0.3,0.3c0.3,0.2,0.5,0.4,0.8,0.7c0.1,0.1,0.2,0.1,0.3,0.2c0.4,0.3,0.8,0.6,1.3,0.8
			c0.4,0.3,0.9,0.5,1.4,0.7c0.1,0.1,0.3,0.1,0.5,0.2c0.3,0.1,0.6,0.3,1,0.4c0.6,0.3,1.3,0.5,2,0.7c0.2,0.1,0.4,0.1,0.7,0.2
			c0.4,0.1,0.8,0.2,1.2,0.3c0.3,0.1,0.5,0.1,0.8,0.2c0.3,0.1,0.7,0.1,1,0.2c0.3,0,0.6,0.1,0.8,0.1c0.3,0,0.6,0.1,0.9,0.1
			c0.3,0,0.6,0.1,0.9,0.1c0.3,0,0.6,0,1,0.1c0.3,0,0.6,0,0.8,0c0.3,0,0.7,0,1,0c0.3,0,0.5,0,0.8,0c0.4,0,0.8,0,1.3-0.1
			c0.2,0,0.4,0,0.7-0.1c0.7-0.1,1.4-0.2,2.1-0.3c0.2,0,0.4-0.1,0.7-0.1c0.4-0.1,0.7-0.1,1.1-0.2c0.3-0.1,0.5-0.1,0.7-0.2
			c0.3-0.1,0.6-0.2,0.9-0.3c0.2-0.1,0.4-0.1,0.6-0.2c0.5-0.2,1-0.4,1.5-0.6c0.2-0.1,0.4-0.2,0.5-0.2c0.6-0.3,1.2-0.6,1.8-0.9
			c0.5-0.3,0.9-0.5,1.3-0.8c0,0,0.1-0.1,0.1-0.1c0.4-0.3,0.7-0.5,1-0.8c0,0,0.1-0.1,0.1-0.1c0.3-0.3,0.6-0.5,0.8-0.8
			c0.1-0.1,0.2-0.2,0.3-0.3c0.2-0.2,0.3-0.4,0.5-0.6c0.1-0.1,0.2-0.3,0.3-0.4c0.1-0.2,0.2-0.4,0.3-0.6c0.1-0.1,0.1-0.3,0.2-0.4
			c0.1-0.2,0.2-0.4,0.2-0.6c0-0.1,0.1-0.3,0.1-0.4c0.1-0.2,0.1-0.4,0.1-0.6c0,0,0,0,0,0c0.5-3.1-1.3-6.3-5.4-8.7
			c-2.7-1.6-6.1-2.6-9.7-3c-2.2-0.2-4.4-0.3-6.6,0c-0.2,0-0.4,0-0.6,0c0,0-0.1,0-0.1,0c-3.5,0.4-6.8,1.4-9.5,3
			c-1.5,0.9-2.7,1.9-3.6,3c-1.2,1.5-1.8,3-1.8,4.6C-96.1,33.8-96.1,34-96.1,34.2z M-85.8,35c0-0.4,0.1-0.8,0.4-1.2
			c0.2-0.3,0.6-0.6,1.1-1l2.4,1.4c-0.5,0.3-0.7,0.6-0.7,1c0,0.3,0.3,0.6,0.7,0.9l0.1,0.1c0.5,0.3,1,0.4,1.6,0.4
			c0.6,0,1.2-0.1,1.6-0.4c0.5-0.3,0.8-0.7,0.7-1.1c0-0.3-0.2-0.6-0.6-1.1c-0.1-0.1-0.2-0.2-0.3-0.3c-0.2-0.2-0.3-0.3-0.3-0.4
			c-0.3-0.4-0.5-0.6-0.6-0.9c-0.2-0.5-0.2-0.9,0.1-1.4c0.2-0.5,0.7-0.9,1.3-1.2c0.6-0.4,1.4-0.6,2.3-0.7c0.9-0.1,1.8-0.1,2.6,0
			c0.4,0.1,0.8,0.2,1.2,0.3l0,0l2.2-1.3l0.9,0.5l1.1,0.6l-2.1,1.2c0.2,0.2,0.4,0.4,0.5,0.7c0.3,0.5,0.3,1,0.1,1.5
			c-0.2,0.5-0.7,1-1.3,1.4l-2.4-1.4c0.4-0.3,0.5-0.5,0.5-0.8c0-0.3-0.2-0.5-0.6-0.7l0,0c-0.4-0.2-0.8-0.3-1.3-0.3
			c-0.5,0-0.9,0.1-1.3,0.4c-0.4,0.2-0.6,0.5-0.6,0.7c0,0.2,0.2,0.5,0.4,0.9c0.1,0.1,0.1,0.2,0.2,0.2l0.4,0.4c0.6,0.7,0.9,1.2,1,1.7
			c0.2,0.9-0.3,1.7-1.5,2.4c-0.7,0.4-1.6,0.7-2.6,0.9c-1,0.1-2,0.1-2.9,0c-0.5-0.1-1-0.2-1.4-0.3l-2.1,1.2l-1.1-0.6l-0.9-0.5
			l2.1-1.2C-85.5,36.3-85.8,35.7-85.8,35z"/>
		<path class="st2" d="M-86,38.7l1.1,0.6l2.1-1.2c0.4,0.1,0.9,0.3,1.4,0.3c1,0.2,2,0.2,2.9,0c1-0.2,1.8-0.4,2.6-0.9
			c1.2-0.7,1.6-1.5,1.5-2.4c-0.1-0.5-0.4-1-1-1.7l-0.4-0.4c-0.1-0.1-0.1-0.2-0.2-0.2c-0.3-0.4-0.4-0.6-0.4-0.9
			c0-0.3,0.2-0.5,0.6-0.7c0.4-0.2,0.8-0.3,1.3-0.4c0.5,0,0.9,0.1,1.3,0.3l0,0c0.4,0.2,0.6,0.5,0.6,0.7c0,0.3-0.2,0.5-0.5,0.8
			l2.4,1.4c0.7-0.4,1.1-0.9,1.3-1.4c0.2-0.5,0.2-1-0.1-1.5c-0.1-0.2-0.3-0.5-0.5-0.7l2.1-1.2l-1.1-0.6l-0.9-0.5l-2.2,1.3l0,0
			c-0.4-0.1-0.8-0.2-1.2-0.3c-0.9-0.1-1.8-0.2-2.6,0c-0.9,0.1-1.6,0.4-2.3,0.7c-0.6,0.3-1,0.8-1.3,1.2c-0.2,0.5-0.3,1-0.1,1.4
			c0.1,0.2,0.3,0.5,0.6,0.9c0,0,0.2,0.2,0.3,0.4c0.1,0.1,0.2,0.2,0.3,0.3c0.3,0.4,0.5,0.8,0.6,1.1c0.1,0.4-0.2,0.8-0.7,1.1
			c-0.5,0.3-1,0.4-1.6,0.4c-0.6,0-1.2-0.1-1.6-0.4l-0.1-0.1c-0.4-0.3-0.7-0.6-0.7-0.9c0-0.3,0.2-0.7,0.7-1l-2.4-1.4
			c-0.6,0.3-0.9,0.7-1.1,1c-0.3,0.4-0.4,0.8-0.4,1.2c0,0.7,0.3,1.3,0.9,1.9l-2.1,1.2L-86,38.7z"/>
	</g>
	<g>
		<path class="st0" d="M-58.8,28.9c0,0.1,0,0.2,0,0.4c0,0,0,0,0,0c0,0.1,0,0.3,0,0.4c0,0,0,0,0,0c0,0,0,0.1,0,0.1c0,0,0,0.1,0,0.1
			c0,0.1-0.1,0.2-0.1,0.4c0,0.1-0.1,0.3-0.1,0.4c0,0,0,0.1-0.1,0.1c0,0,0,0.1,0,0.1c0,0.1-0.1,0.2-0.2,0.3c-0.1,0.1-0.1,0.3-0.2,0.4
			c0,0.1-0.1,0.1-0.1,0.2c0,0,0,0.1-0.1,0.1c-0.1,0.1-0.1,0.2-0.2,0.3c-0.1,0.1-0.2,0.3-0.3,0.4c-0.1,0.1-0.1,0.2-0.2,0.2
			c0,0.1-0.1,0.1-0.1,0.2c0,0.1-0.1,0.1-0.2,0.2c-0.1,0.1-0.2,0.2-0.3,0.3c-0.2,0.2-0.4,0.4-0.5,0.5c-0.1,0.1-0.1,0.1-0.2,0.2
			c0,0-0.1,0.1-0.1,0.1c0,0-0.1,0.1-0.1,0.1c-0.2,0.1-0.3,0.3-0.5,0.4c-0.2,0.1-0.3,0.3-0.5,0.4c0,0-0.1,0.1-0.1,0.1
			c-0.2,0.1-0.4,0.3-0.6,0.4c-0.2,0.1-0.3,0.2-0.5,0.3c-0.1,0-0.2,0.1-0.2,0.1c-0.6,0.3-1.2,0.6-1.8,0.9c-0.2,0.1-0.4,0.2-0.5,0.2
			c-0.5,0.2-1,0.4-1.5,0.6c-0.1,0-0.2,0.1-0.3,0.1c-0.1,0-0.1,0-0.2,0.1c-0.3,0.1-0.6,0.2-0.9,0.3c-0.2,0.1-0.5,0.1-0.7,0.2
			c-0.3,0.1-0.7,0.2-1.1,0.2c-0.2,0-0.4,0.1-0.6,0.1c0,0-0.1,0-0.1,0c-0.7,0.1-1.4,0.2-2.1,0.3c-0.1,0-0.1,0-0.2,0
			c-0.2,0-0.3,0-0.5,0c-0.4,0-0.8,0.1-1.3,0.1c-0.1,0-0.2,0-0.3,0c-0.2,0-0.3,0-0.5,0c-0.3,0-0.7,0-1,0c-0.1,0-0.2,0-0.4,0
			c-0.2,0-0.3,0-0.5,0c-0.3,0-0.6,0-1-0.1c-0.1,0-0.3,0-0.4,0c-0.1,0-0.3,0-0.4-0.1c-0.3,0-0.6-0.1-0.9-0.1c-0.1,0-0.3,0-0.4,0
			c-0.1,0-0.3,0-0.4-0.1c-0.3-0.1-0.7-0.1-1-0.2c-0.2,0-0.3,0-0.5-0.1c-0.1,0-0.2-0.1-0.3-0.1c-0.4-0.1-0.8-0.2-1.2-0.3
			c-0.2,0-0.3-0.1-0.5-0.1c-0.1,0-0.1,0-0.2-0.1c-0.7-0.2-1.4-0.4-2-0.7c0,0-0.1,0-0.1,0c-0.3-0.1-0.6-0.2-0.9-0.4
			c-0.2-0.1-0.3-0.1-0.5-0.2c-0.5-0.2-0.9-0.5-1.4-0.7c-0.5-0.3-0.9-0.5-1.3-0.8c-0.1-0.1-0.2-0.1-0.3-0.2c-0.3-0.2-0.6-0.4-0.8-0.7
			c-0.1-0.1-0.2-0.2-0.3-0.3c-0.2-0.2-0.5-0.4-0.7-0.6c-0.1-0.1-0.2-0.2-0.3-0.3c-0.2-0.2-0.4-0.4-0.5-0.6c-0.1-0.1-0.2-0.3-0.2-0.4
			c-0.1-0.2-0.3-0.4-0.4-0.6c-0.1-0.1-0.1-0.3-0.2-0.4c-0.1-0.2-0.2-0.4-0.2-0.6c0-0.1-0.1-0.3-0.1-0.5c-0.1-0.2-0.1-0.4-0.1-0.6
			c0-0.2,0-0.3,0-0.5c0-0.2,0-0.4,0-0.6c0,0,0,0,0,0l0,3.8c0,2.8,1.8,5.6,5.5,7.7c0.4,0.3,0.9,0.5,1.4,0.7c0.2,0.1,0.3,0.1,0.5,0.2
			c0.3,0.1,0.5,0.2,0.8,0.3c0,0,0.1,0,0.1,0c0.6,0.3,1.3,0.5,2,0.7c0.1,0,0.1,0,0.2,0c0.2,0,0.3,0.1,0.5,0.1
			c0.4,0.1,0.8,0.2,1.2,0.3c0.1,0,0.2,0,0.3,0.1c0.2,0,0.3,0.1,0.5,0.1c0.3,0.1,0.7,0.1,1,0.2c0.1,0,0.3,0,0.4,0.1
			c0.1,0,0.3,0,0.4,0.1c0.3,0,0.6,0.1,0.9,0.1c0.1,0,0.3,0,0.4,0c0.1,0,0.3,0,0.4,0c0.3,0,0.6,0,0.9,0.1c0.2,0,0.3,0,0.5,0
			c0.1,0,0.3,0,0.4,0c0.3,0,0.7,0,1,0c0.2,0,0.3,0,0.5,0c0.1,0,0.2,0,0.3,0c0.4,0,0.9,0,1.3-0.1c0.2,0,0.3,0,0.5,0c0,0,0.1,0,0.2,0
			c0.7-0.1,1.4-0.2,2.1-0.3c0,0,0.1,0,0.1,0c0.2,0,0.4-0.1,0.6-0.1c0.3-0.1,0.7-0.1,1-0.2c0.2-0.1,0.5-0.1,0.7-0.2
			c0.3-0.1,0.7-0.2,1-0.3c0.1,0,0.1,0,0.2-0.1c0.1,0,0.2-0.1,0.3-0.1c0.5-0.2,1-0.4,1.5-0.6c0.2-0.1,0.4-0.1,0.5-0.2
			c0.6-0.3,1.2-0.6,1.8-0.9c0.1,0,0.1-0.1,0.2-0.1c0.2-0.1,0.3-0.2,0.5-0.3c0.2-0.1,0.5-0.3,0.7-0.4c0.2-0.1,0.4-0.3,0.5-0.4
			c0.2-0.2,0.4-0.3,0.6-0.5c0,0,0.1-0.1,0.1-0.1c0.1-0.1,0.1-0.1,0.2-0.2c0.3-0.3,0.5-0.6,0.8-0.8c0.1-0.1,0.1-0.1,0.2-0.2
			c0-0.1,0.1-0.1,0.1-0.2c0.2-0.2,0.3-0.4,0.4-0.6c0.1-0.1,0.1-0.2,0.2-0.3c0,0,0-0.1,0.1-0.1c0.1-0.2,0.2-0.4,0.3-0.6
			c0.1-0.1,0.1-0.3,0.2-0.4c0,0,0-0.1,0-0.1c0.1-0.2,0.1-0.4,0.2-0.5c0-0.2,0.1-0.3,0.1-0.5c0,0,0,0,0,0c0-0.2,0-0.4,0.1-0.6
			c0-0.2,0-0.4,0-0.6c0,0,0,0,0,0l0-3.8C-58.8,28.8-58.8,28.8-58.8,28.9z"/>
		<path class="st1" d="M-96.1,29.2c0,0.2,0,0.3,0,0.5c0,0.2,0.1,0.4,0.1,0.6c0,0.2,0.1,0.3,0.1,0.5c0.1,0.2,0.2,0.4,0.2,0.6
			c0.1,0.1,0.1,0.3,0.2,0.4c0.1,0.2,0.2,0.4,0.4,0.6c0.1,0.1,0.1,0.3,0.2,0.4c0.1,0.2,0.3,0.4,0.5,0.6c0.1,0.1,0.2,0.2,0.3,0.3
			c0.2,0.2,0.4,0.4,0.7,0.6c0.1,0.1,0.2,0.2,0.3,0.3c0.3,0.2,0.5,0.4,0.8,0.7c0.1,0.1,0.2,0.1,0.3,0.2c0.4,0.3,0.8,0.6,1.3,0.8
			c0.4,0.3,0.9,0.5,1.4,0.7c0.1,0.1,0.3,0.1,0.5,0.2c0.3,0.1,0.6,0.3,1,0.4c0.6,0.3,1.3,0.5,2,0.7c0.2,0.1,0.4,0.1,0.7,0.2
			c0.4,0.1,0.8,0.2,1.2,0.3c0.3,0.1,0.5,0.1,0.8,0.2c0.3,0.1,0.7,0.1,1,0.2c0.3,0,0.6,0.1,0.8,0.1c0.3,0,0.6,0.1,0.9,0.1
			c0.3,0,0.6,0.1,0.9,0.1c0.3,0,0.6,0,1,0.1c0.3,0,0.6,0,0.8,0c0.3,0,0.7,0,1,0c0.3,0,0.5,0,0.8,0c0.4,0,0.8,0,1.3-0.1
			c0.2,0,0.4,0,0.7-0.1c0.7-0.1,1.4-0.2,2.1-0.3c0.2,0,0.4-0.1,0.7-0.1c0.4-0.1,0.7-0.1,1.1-0.2c0.3-0.1,0.5-0.1,0.7-0.2
			c0.3-0.1,0.6-0.2,0.9-0.3c0.2-0.1,0.4-0.1,0.6-0.2c0.5-0.2,1-0.4,1.5-0.6c0.2-0.1,0.4-0.2,0.5-0.2c0.6-0.3,1.2-0.6,1.8-0.9
			c0.5-0.3,0.9-0.5,1.3-0.8c0,0,0.1-0.1,0.1-0.1c0.4-0.3,0.7-0.5,1-0.8c0,0,0.1-0.1,0.1-0.1c0.3-0.3,0.6-0.5,0.8-0.8
			c0.1-0.1,0.2-0.2,0.3-0.3c0.2-0.2,0.3-0.4,0.5-0.6c0.1-0.1,0.2-0.3,0.3-0.4c0.1-0.2,0.2-0.4,0.3-0.6c0.1-0.1,0.1-0.3,0.2-0.4
			c0.1-0.2,0.2-0.4,0.2-0.6c0-0.1,0.1-0.3,0.1-0.4c0.1-0.2,0.1-0.4,0.1-0.6c0,0,0,0,0,0c0.5-3.1-1.3-6.3-5.4-8.7
			c-2.7-1.6-6.1-2.6-9.7-3c-2.2-0.2-4.4-0.3-6.6,0c-0.2,0-0.4,0-0.6,0c0,0-0.1,0-0.1,0c-3.5,0.4-6.8,1.4-9.5,3
			c-1.5,0.9-2.7,1.9-3.6,3c-1.2,1.5-1.8,3-1.8,4.6C-96.1,28.8-96.1,29-96.1,29.2z M-85.8,30c0-0.4,0.1-0.8,0.4-1.2
			c0.2-0.3,0.6-0.6,1.1-1l2.4,1.4c-0.5,0.3-0.7,0.6-0.7,1c0,0.3,0.3,0.6,0.7,0.9l0.1,0.1c0.5,0.3,1,0.4,1.6,0.4
			c0.6,0,1.2-0.1,1.6-0.4c0.5-0.3,0.8-0.7,0.7-1.1c0-0.3-0.2-0.6-0.6-1.1c-0.1-0.1-0.2-0.2-0.3-0.3c-0.2-0.2-0.3-0.3-0.3-0.4
			c-0.3-0.4-0.5-0.6-0.6-0.9c-0.2-0.5-0.2-0.9,0.1-1.4c0.2-0.5,0.7-0.9,1.3-1.2c0.6-0.4,1.4-0.6,2.3-0.7c0.9-0.1,1.8-0.1,2.6,0
			c0.4,0.1,0.8,0.2,1.2,0.3l0,0l2.2-1.3l0.9,0.5l1.1,0.6l-2.1,1.2c0.2,0.2,0.4,0.4,0.5,0.7c0.3,0.5,0.3,1,0.1,1.5
			c-0.2,0.5-0.7,1-1.3,1.4l-2.4-1.4c0.4-0.3,0.5-0.5,0.5-0.8c0-0.3-0.2-0.5-0.6-0.7l0,0c-0.4-0.2-0.8-0.3-1.3-0.3
			c-0.5,0-0.9,0.1-1.3,0.4c-0.4,0.2-0.6,0.5-0.6,0.7c0,0.2,0.2,0.5,0.4,0.9c0.1,0.1,0.1,0.2,0.2,0.2l0.4,0.4c0.6,0.7,0.9,1.2,1,1.7
			c0.2,0.9-0.3,1.7-1.5,2.4c-0.7,0.4-1.6,0.7-2.6,0.9c-1,0.1-2,0.1-2.9,0c-0.5-0.1-1-0.2-1.4-0.3l-2.1,1.2l-1.1-0.6l-0.9-0.5
			l2.1-1.2C-85.5,31.3-85.8,30.7-85.8,30z"/>
		<path class="st2" d="M-86,33.6l1.1,0.6l2.1-1.2c0.4,0.1,0.9,0.3,1.4,0.3c1,0.2,2,0.2,2.9,0c1-0.2,1.8-0.4,2.6-0.9
			c1.2-0.7,1.6-1.5,1.5-2.4c-0.1-0.5-0.4-1-1-1.7l-0.4-0.4c-0.1-0.1-0.1-0.2-0.2-0.2c-0.3-0.4-0.4-0.6-0.4-0.9
			c0-0.3,0.2-0.5,0.6-0.7c0.4-0.2,0.8-0.3,1.3-0.4c0.5,0,0.9,0.1,1.3,0.3l0,0c0.4,0.2,0.6,0.5,0.6,0.7c0,0.3-0.2,0.6-0.5,0.8
			l2.4,1.4c0.7-0.4,1.1-0.9,1.3-1.4c0.2-0.5,0.2-1-0.1-1.5c-0.1-0.2-0.3-0.5-0.5-0.7l2.1-1.2l-1.1-0.6l-0.9-0.5l-2.2,1.3l0,0
			c-0.4-0.1-0.8-0.2-1.2-0.3c-0.9-0.1-1.8-0.2-2.6,0c-0.9,0.1-1.6,0.4-2.3,0.7c-0.6,0.3-1,0.8-1.3,1.2c-0.2,0.5-0.3,1-0.1,1.4
			c0.1,0.2,0.3,0.5,0.6,0.9c0,0,0.2,0.2,0.3,0.4c0.1,0.1,0.2,0.2,0.3,0.3c0.3,0.4,0.5,0.8,0.6,1.1c0.1,0.4-0.2,0.8-0.7,1.1
			c-0.5,0.3-1,0.4-1.6,0.4c-0.6,0-1.2-0.1-1.6-0.4l-0.1-0.1c-0.4-0.3-0.7-0.6-0.7-0.9c0-0.3,0.2-0.7,0.7-1l-2.4-1.4
			c-0.6,0.3-0.9,0.7-1.1,1c-0.3,0.4-0.4,0.8-0.4,1.2c0,0.7,0.3,1.3,0.9,1.8l-2.1,1.2L-86,33.6z"/>
	</g>
	<g>
		<path class="st0" d="M-58.8,23.8c0,0.1,0,0.2,0,0.4c0,0,0,0,0,0c0,0.1,0,0.3,0,0.4c0,0,0,0,0,0c0,0,0,0.1,0,0.1c0,0,0,0.1,0,0.1
			c0,0.1-0.1,0.2-0.1,0.4c0,0.1-0.1,0.3-0.1,0.4c0,0,0,0.1-0.1,0.1c0,0,0,0.1,0,0.1c0,0.1-0.1,0.2-0.2,0.3c-0.1,0.1-0.1,0.3-0.2,0.4
			c0,0.1-0.1,0.1-0.1,0.2c0,0,0,0.1-0.1,0.1c-0.1,0.1-0.1,0.2-0.2,0.3c-0.1,0.1-0.2,0.3-0.3,0.4c-0.1,0.1-0.1,0.2-0.2,0.2
			c0,0.1-0.1,0.1-0.1,0.2c0,0.1-0.1,0.1-0.2,0.2c-0.1,0.1-0.2,0.2-0.3,0.3c-0.2,0.2-0.4,0.4-0.5,0.5c-0.1,0.1-0.1,0.1-0.2,0.2
			c0,0-0.1,0.1-0.1,0.1c0,0-0.1,0.1-0.1,0.1c-0.2,0.1-0.3,0.3-0.5,0.4c-0.2,0.1-0.3,0.3-0.5,0.4c0,0-0.1,0.1-0.1,0.1
			c-0.2,0.1-0.4,0.3-0.6,0.4c-0.2,0.1-0.3,0.2-0.5,0.3c-0.1,0-0.2,0.1-0.2,0.1c-0.6,0.3-1.2,0.6-1.8,0.9c-0.2,0.1-0.4,0.2-0.5,0.2
			c-0.5,0.2-1,0.4-1.5,0.6c-0.1,0-0.2,0.1-0.3,0.1c-0.1,0-0.1,0-0.2,0.1c-0.3,0.1-0.6,0.2-0.9,0.3c-0.2,0.1-0.5,0.1-0.7,0.2
			c-0.3,0.1-0.7,0.2-1.1,0.2c-0.2,0-0.4,0.1-0.6,0.1c0,0-0.1,0-0.1,0c-0.7,0.1-1.4,0.2-2.1,0.3c-0.1,0-0.1,0-0.2,0
			c-0.2,0-0.3,0-0.5,0c-0.4,0-0.8,0.1-1.3,0.1c-0.1,0-0.2,0-0.3,0c-0.2,0-0.3,0-0.5,0c-0.3,0-0.7,0-1,0c-0.1,0-0.2,0-0.4,0
			c-0.2,0-0.3,0-0.5,0c-0.3,0-0.6,0-1-0.1c-0.1,0-0.3,0-0.4,0c-0.1,0-0.3,0-0.4-0.1c-0.3,0-0.6-0.1-0.9-0.1c-0.1,0-0.3,0-0.4,0
			c-0.1,0-0.3,0-0.4-0.1c-0.3-0.1-0.7-0.1-1-0.2c-0.2,0-0.3,0-0.5-0.1c-0.1,0-0.2-0.1-0.3-0.1c-0.4-0.1-0.8-0.2-1.2-0.3
			c-0.2,0-0.3-0.1-0.5-0.1c-0.1,0-0.1,0-0.2-0.1c-0.7-0.2-1.4-0.4-2-0.7c0,0-0.1,0-0.1,0c-0.3-0.1-0.6-0.2-0.9-0.4
			c-0.2-0.1-0.3-0.1-0.5-0.2c-0.5-0.2-0.9-0.5-1.4-0.7c-0.5-0.3-0.9-0.5-1.3-0.8c-0.1-0.1-0.2-0.1-0.3-0.2c-0.3-0.2-0.6-0.4-0.8-0.7
			c-0.1-0.1-0.2-0.2-0.3-0.3c-0.2-0.2-0.5-0.4-0.7-0.6c-0.1-0.1-0.2-0.2-0.3-0.3c-0.2-0.2-0.4-0.4-0.5-0.6c-0.1-0.1-0.2-0.3-0.2-0.4
			c-0.1-0.2-0.3-0.4-0.4-0.6c-0.1-0.1-0.1-0.3-0.2-0.4c-0.1-0.2-0.2-0.4-0.2-0.6c0-0.1-0.1-0.3-0.1-0.5c-0.1-0.2-0.1-0.4-0.1-0.6
			c0-0.2,0-0.3,0-0.5c0-0.2,0-0.4,0-0.6c0,0,0,0,0,0l0,3.8c0,2.8,1.8,5.6,5.5,7.7c0.4,0.3,0.9,0.5,1.4,0.7c0.2,0.1,0.3,0.1,0.5,0.2
			c0.3,0.1,0.5,0.2,0.8,0.3c0,0,0.1,0,0.1,0c0.6,0.3,1.3,0.5,2,0.7c0.1,0,0.1,0,0.2,0c0.2,0,0.3,0.1,0.5,0.1
			c0.4,0.1,0.8,0.2,1.2,0.3c0.1,0,0.2,0,0.3,0.1c0.2,0,0.3,0.1,0.5,0.1c0.3,0.1,0.7,0.1,1,0.2c0.1,0,0.3,0,0.4,0.1
			c0.1,0,0.3,0,0.4,0.1c0.3,0,0.6,0.1,0.9,0.1c0.1,0,0.3,0,0.4,0c0.1,0,0.3,0,0.4,0c0.3,0,0.6,0,0.9,0c0.2,0,0.3,0,0.5,0
			c0.1,0,0.3,0,0.4,0c0.3,0,0.7,0,1,0c0.2,0,0.3,0,0.5,0c0.1,0,0.2,0,0.3,0c0.4,0,0.9-0.1,1.3-0.1c0.2,0,0.3,0,0.5,0
			c0,0,0.1,0,0.2,0c0.7-0.1,1.4-0.2,2.1-0.3c0,0,0.1,0,0.1,0c0.2,0,0.4-0.1,0.6-0.1c0.3-0.1,0.7-0.1,1-0.2c0.2-0.1,0.5-0.1,0.7-0.2
			c0.3-0.1,0.7-0.2,1-0.3c0.1,0,0.1,0,0.2-0.1c0.1,0,0.2-0.1,0.3-0.1c0.5-0.2,1-0.4,1.5-0.6c0.2-0.1,0.4-0.1,0.5-0.2
			c0.6-0.3,1.2-0.6,1.8-0.9c0.1,0,0.1-0.1,0.2-0.1c0.2-0.1,0.3-0.2,0.5-0.3c0.2-0.1,0.5-0.3,0.7-0.4c0.2-0.1,0.4-0.3,0.5-0.4
			c0.2-0.2,0.4-0.3,0.6-0.5c0,0,0.1-0.1,0.1-0.1c0.1-0.1,0.1-0.1,0.2-0.2c0.3-0.3,0.5-0.6,0.8-0.8c0.1-0.1,0.1-0.1,0.2-0.2
			c0-0.1,0.1-0.1,0.1-0.2c0.2-0.2,0.3-0.4,0.4-0.6c0.1-0.1,0.1-0.2,0.2-0.3c0,0,0-0.1,0.1-0.1c0.1-0.2,0.2-0.4,0.3-0.6
			c0.1-0.1,0.1-0.3,0.2-0.4c0,0,0-0.1,0-0.1c0.1-0.2,0.1-0.4,0.2-0.5c0-0.2,0.1-0.3,0.1-0.5c0,0,0,0,0,0c0-0.2,0-0.4,0.1-0.6
			c0-0.2,0-0.4,0-0.6c0,0,0,0,0,0l0-3.8C-58.8,23.6-58.8,23.7-58.8,23.8z"/>
		<path class="st1" d="M-96.1,24.1c0,0.2,0,0.3,0,0.5c0,0.2,0.1,0.4,0.1,0.6c0,0.2,0.1,0.3,0.1,0.5c0.1,0.2,0.2,0.4,0.2,0.6
			c0.1,0.1,0.1,0.3,0.2,0.4c0.1,0.2,0.2,0.4,0.4,0.6c0.1,0.1,0.1,0.3,0.2,0.4c0.1,0.2,0.3,0.4,0.5,0.6c0.1,0.1,0.2,0.2,0.3,0.3
			c0.2,0.2,0.4,0.4,0.7,0.6c0.1,0.1,0.2,0.2,0.3,0.3c0.3,0.2,0.5,0.4,0.8,0.7c0.1,0.1,0.2,0.1,0.3,0.2c0.4,0.3,0.8,0.6,1.3,0.8
			c0.4,0.3,0.9,0.5,1.4,0.7c0.1,0.1,0.3,0.1,0.5,0.2c0.3,0.1,0.6,0.3,1,0.4c0.6,0.3,1.3,0.5,2,0.7c0.2,0.1,0.4,0.1,0.7,0.2
			c0.4,0.1,0.8,0.2,1.2,0.3c0.3,0.1,0.5,0.1,0.8,0.2c0.3,0.1,0.7,0.1,1,0.2c0.3,0,0.6,0.1,0.8,0.1c0.3,0,0.6,0.1,0.9,0.1
			c0.3,0,0.6,0.1,0.9,0.1c0.3,0,0.6,0,1,0.1c0.3,0,0.6,0,0.8,0c0.3,0,0.7,0,1,0c0.3,0,0.5,0,0.8,0c0.4,0,0.8,0,1.3-0.1
			c0.2,0,0.4,0,0.7-0.1c0.7-0.1,1.4-0.2,2.1-0.3c0.2,0,0.4-0.1,0.7-0.1c0.4-0.1,0.7-0.1,1.1-0.2c0.3-0.1,0.5-0.1,0.7-0.2
			c0.3-0.1,0.6-0.2,0.9-0.3c0.2-0.1,0.4-0.1,0.6-0.2c0.5-0.2,1-0.4,1.5-0.6c0.2-0.1,0.4-0.1,0.5-0.2c0.6-0.3,1.2-0.6,1.8-0.9
			c0.5-0.3,0.9-0.5,1.3-0.8c0,0,0.1-0.1,0.1-0.1c0.4-0.3,0.7-0.5,1-0.8c0,0,0.1-0.1,0.1-0.1c0.3-0.3,0.6-0.5,0.8-0.8
			c0.1-0.1,0.2-0.2,0.3-0.3c0.2-0.2,0.3-0.4,0.5-0.6c0.1-0.1,0.2-0.3,0.3-0.4c0.1-0.2,0.2-0.4,0.3-0.6c0.1-0.1,0.1-0.3,0.2-0.4
			c0.1-0.2,0.2-0.4,0.2-0.6c0-0.1,0.1-0.3,0.1-0.4c0.1-0.2,0.1-0.4,0.1-0.6c0,0,0,0,0,0c0.5-3.1-1.3-6.3-5.4-8.7
			c-2.7-1.6-6.1-2.6-9.7-3c-2.2-0.2-4.4-0.3-6.6,0c-0.2,0-0.4,0-0.6,0c0,0-0.1,0-0.1,0c-3.5,0.4-6.8,1.4-9.5,3
			c-1.5,0.9-2.7,1.9-3.6,3c-1.2,1.5-1.8,3-1.8,4.6C-96.1,23.7-96.1,23.9-96.1,24.1z"/>
		<g>
			<path class="st3" d="M-73.6,18.5c-1.1-0.1-2.1-0.1-2.1-0.1c0,0,0.9,1.5,1,1.6c0,0,0.3,0,0.7,0.1l0.6,0l0.2,0.4l0.2,0.4l1.1,0.1
				c1.6,0.2,1.8,0.2,1.8,0.2c0,0-0.2-0.4-0.8-1.3c-0.3-0.4-0.5-0.9-0.6-1c0-0.1-0.1-0.2-0.1-0.2C-71.5,18.6-72.4,18.6-73.6,18.5z
				 M-78.6,18.1l-1.2-0.1l-1.7,1.3c-0.9,0.7-1.7,1.3-1.7,1.3c0,0,0.6,0.1,1.2,0.1l1.2,0.1l1.8-1.3l0.2,0.4c0.2,0.3,0.3,0.5,0.5,0.8
				l0.3,0.5l0.3,0c0.2,0,0.4,0,0.6,0.1c0.2,0,0.6,0.1,0.9,0.1c0.3,0,0.6,0.1,0.7,0.1c0.1,0-0.2-0.4-0.9-1.6c-0.5-0.9-1-1.6-1.1-1.6
				C-77.4,18.2-77.9,18.2-78.6,18.1z M-70.8,21.9c-0.8-0.1-1.4-0.1-1.4-0.1c0,0,0.1,0.3,0.3,0.6c0.2,0.3,0.3,0.6,0.3,0.6
				s-0.5,0-1-0.1c-0.6-0.1-2-0.2-3.1-0.3l-3.9-0.4c-1-0.1-1.9-0.2-2-0.2c-2-0.2-2.6-0.3-2.6-0.3c-0.1,0-0.3,0.1-1.1,0.7l-1,0.7
				l0.4,0.6l0.4,0.6l1.4,0.2c0.8,0.1,1.4,0.1,1.4,0.1c0,0,0-0.1-0.1-0.2c-0.1-0.1-0.2-0.3-0.3-0.5c-0.1-0.2-0.2-0.3-0.2-0.4
				c0,0,0-0.1,0-0.1c0,0,0.6,0,1.4,0.1c1.5,0.2,2.6,0.3,5,0.5c1.1,0.1,2.2,0.2,3.2,0.3c1,0.1,2.1,0.2,2.5,0.3l0.7,0.1l1-0.7l1-0.7
				l-0.4-0.6c-0.2-0.3-0.4-0.6-0.4-0.6C-69.4,22-70.1,22-70.8,21.9z M-72.2,25.7c-0.2,0-0.5,0-0.7-0.1s-0.6-0.1-0.9-0.1l-0.5-0.1
				l-0.9,0.7c-0.5,0.4-0.9,0.6-0.9,0.6c0,0-0.4-0.6-0.7-1.2c-0.2-0.4-0.3-0.4-0.4-0.5c-0.1,0-0.7-0.1-1.3-0.1
				c-0.6-0.1-1.1-0.1-1.1-0.1c0,0,0.4,0.7,0.9,1.6l1,1.6l1.2,0.1c0.7,0,1.3,0.1,1.3,0.1c0.1,0,3.4-2.5,3.4-2.5
				C-71.9,25.7-72.1,25.7-72.2,25.7z M-80.6,26.5c-0.2,0-0.4,0-0.6-0.1c-0.6-0.1-0.5,0-0.8-0.4c-0.2-0.3-0.3-0.4-0.4-0.4
				c-0.1,0-0.6-0.1-1.3-0.1c-0.6-0.1-1.2-0.1-1.2-0.1c-0.2-0.1-0.1,0.2,0.6,1.2l0.8,1.2l0.9,0.1c0.5,0,1.5,0.1,2.2,0.2
				c0.7,0.1,1.3,0.1,1.3,0.1c0,0-0.2-0.3-0.5-0.7l-0.5-0.7L-80.6,26.5z"/>
		</g>
	</g>
	<g>
		<path class="st0" d="M-62.7,81.5c0,0.1,0,0.2,0,0.4c0,0,0,0,0,0c0,0.1,0,0.3,0,0.4c0,0,0,0.1,0,0.1c0,0,0,0.1,0,0.1
			c0,0.1-0.1,0.2-0.1,0.4c0,0.1-0.1,0.3-0.1,0.4c0,0,0,0.1-0.1,0.1c0,0,0,0.1,0,0.1c0,0.1-0.1,0.2-0.2,0.3c-0.1,0.1-0.1,0.3-0.2,0.4
			c0,0.1-0.1,0.1-0.1,0.2c0,0,0,0.1-0.1,0.1c0,0.1-0.1,0.2-0.2,0.3c-0.1,0.1-0.2,0.3-0.3,0.4c-0.1,0.1-0.1,0.2-0.2,0.2
			c0,0.1-0.1,0.1-0.1,0.2c0,0.1-0.1,0.1-0.2,0.2c-0.1,0.1-0.2,0.2-0.3,0.3c-0.2,0.2-0.4,0.4-0.5,0.5c-0.1,0.1-0.1,0.1-0.2,0.2
			c0,0-0.1,0.1-0.1,0.1c0,0-0.1,0.1-0.1,0.1c-0.2,0.1-0.3,0.3-0.5,0.4c-0.2,0.1-0.3,0.3-0.5,0.4c0,0-0.1,0.1-0.1,0.1
			c-0.2,0.1-0.4,0.3-0.6,0.4c-0.2,0.1-0.3,0.2-0.5,0.3c-0.1,0-0.2,0.1-0.2,0.1c-0.6,0.3-1.2,0.6-1.8,0.9c-0.2,0.1-0.4,0.2-0.5,0.2
			c-0.5,0.2-1,0.4-1.5,0.6c-0.1,0-0.2,0.1-0.3,0.1c-0.1,0-0.1,0-0.2,0.1c-0.3,0.1-0.6,0.2-1,0.3c-0.2,0.1-0.5,0.1-0.7,0.2
			c-0.4,0.1-0.7,0.2-1.1,0.2c-0.2,0-0.4,0.1-0.6,0.1c0,0-0.1,0-0.1,0c-0.7,0.1-1.4,0.2-2.1,0.3c-0.1,0-0.1,0-0.2,0
			c-0.2,0-0.3,0-0.5,0c-0.4,0-0.8,0.1-1.3,0.1c-0.1,0-0.2,0-0.3,0c-0.2,0-0.3,0-0.5,0c-0.3,0-0.7,0-1,0c-0.1,0-0.2,0-0.4,0
			c-0.2,0-0.3,0-0.5,0c-0.3,0-0.6,0-1-0.1c-0.1,0-0.3,0-0.4,0c-0.2,0-0.3,0-0.4-0.1c-0.3,0-0.6-0.1-0.9-0.1c-0.1,0-0.3,0-0.4,0
			c-0.1,0-0.3,0-0.4-0.1c-0.3-0.1-0.7-0.1-1-0.2c-0.2,0-0.3-0.1-0.5-0.1c-0.1,0-0.2-0.1-0.3-0.1c-0.4-0.1-0.8-0.2-1.2-0.3
			c-0.2,0-0.3-0.1-0.5-0.1c-0.1,0-0.1,0-0.2-0.1c-0.7-0.2-1.4-0.4-2-0.7c0,0-0.1,0-0.1,0c-0.3-0.1-0.6-0.2-0.9-0.4
			c-0.2-0.1-0.3-0.1-0.5-0.2c-0.5-0.2-0.9-0.5-1.4-0.7c-0.5-0.3-0.9-0.5-1.3-0.8c-0.1-0.1-0.2-0.2-0.3-0.3c-0.3-0.2-0.6-0.4-0.8-0.6
			c-0.1-0.1-0.2-0.2-0.3-0.3c-0.2-0.2-0.4-0.4-0.6-0.6c-0.1-0.1-0.2-0.3-0.3-0.4c-0.2-0.2-0.3-0.4-0.5-0.6c-0.1-0.1-0.2-0.3-0.3-0.4
			c-0.1-0.2-0.2-0.4-0.3-0.6c-0.1-0.1-0.1-0.3-0.2-0.4c-0.1-0.2-0.2-0.4-0.2-0.6c0-0.1-0.1-0.3-0.1-0.4c-0.1-0.2-0.1-0.4-0.1-0.6
			c0-0.1,0-0.3,0-0.4c0-0.2,0-0.4-0.1-0.6l0,3.8c0,2.8,1.8,5.6,5.5,7.7c0.4,0.3,0.9,0.5,1.4,0.7c0.2,0.1,0.3,0.1,0.5,0.2
			c0.3,0.1,0.6,0.2,0.8,0.4c0,0,0.1,0,0.1,0c0.7,0.3,1.3,0.5,2,0.7c0.1,0,0.1,0,0.2,0c0.2,0,0.3,0.1,0.5,0.1
			c0.4,0.1,0.8,0.2,1.2,0.3c0.1,0,0.2,0,0.3,0.1c0.2,0,0.3,0.1,0.5,0.1c0.3,0.1,0.7,0.1,1,0.2c0.1,0,0.3,0,0.4,0.1
			c0.1,0,0.3,0,0.4,0.1c0.3,0,0.6,0.1,0.9,0.1c0.1,0,0.3,0,0.4,0c0.1,0,0.3,0,0.4,0c0.3,0,0.6,0,0.9,0c0.2,0,0.3,0,0.5,0
			c0.1,0,0.3,0,0.4,0c0.3,0,0.7,0,1,0c0.2,0,0.3,0,0.5,0c0.1,0,0.2,0,0.3,0c0.4,0,0.8-0.1,1.3-0.1c0.2,0,0.3,0,0.5,0
			c0,0,0.1,0,0.2,0c0.7-0.1,1.4-0.2,2.1-0.3c0,0,0.1,0,0.1,0c0.2,0,0.4-0.1,0.6-0.1c0.3-0.1,0.7-0.1,1-0.2c0.3-0.1,0.5-0.1,0.7-0.2
			c0.3-0.1,0.6-0.2,1-0.3c0.1,0,0.1,0,0.2-0.1c0.1,0,0.2-0.1,0.3-0.1c0.5-0.2,1-0.4,1.5-0.6c0.2-0.1,0.4-0.2,0.5-0.2
			c0.6-0.3,1.2-0.6,1.8-0.9c0.1,0,0.1-0.1,0.2-0.1c0.2-0.1,0.3-0.2,0.5-0.3c0.2-0.1,0.4-0.3,0.6-0.4c0.2-0.1,0.4-0.3,0.5-0.4
			c0.2-0.2,0.4-0.3,0.5-0.5c0,0,0.1-0.1,0.1-0.1c0.1-0.1,0.1-0.1,0.2-0.2c0.3-0.3,0.5-0.6,0.8-0.8c0.1-0.1,0.1-0.1,0.2-0.2
			c0-0.1,0.1-0.1,0.1-0.2c0.2-0.2,0.3-0.4,0.4-0.6c0.1-0.1,0.1-0.2,0.2-0.3c0,0,0-0.1,0.1-0.1c0.1-0.2,0.2-0.4,0.3-0.6
			c0.1-0.1,0.1-0.3,0.2-0.4c0,0,0-0.1,0-0.1c0.1-0.2,0.1-0.4,0.2-0.5c0-0.2,0.1-0.3,0.1-0.5c0,0,0,0,0,0c0-0.2,0-0.4,0.1-0.6
			c0-0.2,0-0.4,0-0.6c0,0,0,0,0,0l0-3.8C-62.7,81.4-62.7,81.5-62.7,81.5z"/>
		<path class="st1" d="M-100,82.3c0,0.2,0.1,0.4,0.1,0.6c0,0.1,0.1,0.3,0.1,0.4c0.1,0.2,0.2,0.4,0.2,0.6c0.1,0.1,0.1,0.3,0.2,0.4
			c0.1,0.2,0.2,0.4,0.3,0.6c0.1,0.1,0.2,0.3,0.3,0.4c0.1,0.2,0.3,0.4,0.5,0.6c0.1,0.1,0.2,0.3,0.3,0.4c0.2,0.2,0.4,0.4,0.6,0.6
			c0.1,0.1,0.2,0.2,0.3,0.3c0.2,0.2,0.5,0.4,0.8,0.6c0.1,0.1,0.2,0.2,0.3,0.3c0.4,0.3,0.8,0.6,1.3,0.8c0.4,0.3,0.9,0.5,1.4,0.7
			c0.2,0.1,0.3,0.1,0.5,0.2c0.3,0.1,0.6,0.3,1,0.4c0.6,0.3,1.3,0.5,2,0.7c0.2,0.1,0.4,0.1,0.6,0.2c0.4,0.1,0.8,0.2,1.2,0.3
			c0.3,0.1,0.5,0.1,0.8,0.2c0.3,0.1,0.7,0.1,1,0.2c0.3,0,0.6,0.1,0.8,0.1c0.3,0,0.6,0.1,0.9,0.1c0.3,0,0.6,0.1,0.9,0.1
			c0.3,0,0.6,0,1,0.1c0.3,0,0.6,0,0.8,0c0.3,0,0.7,0,1,0c0.3,0,0.5,0,0.8,0c0.4,0,0.8,0,1.3-0.1c0.2,0,0.4,0,0.7-0.1
			c0.7-0.1,1.4-0.2,2.1-0.3c0.2,0,0.4-0.1,0.7-0.1c0.4-0.1,0.7-0.1,1.1-0.2c0.2-0.1,0.5-0.1,0.7-0.2c0.3-0.1,0.6-0.2,1-0.3
			c0.2-0.1,0.4-0.1,0.5-0.2c0.5-0.2,1-0.4,1.5-0.6c0.2-0.1,0.4-0.1,0.5-0.2c0.6-0.3,1.2-0.6,1.8-0.9c0.5-0.3,0.9-0.5,1.3-0.8
			c0,0,0.1-0.1,0.1-0.1c0.4-0.3,0.7-0.5,1-0.8c0,0,0.1-0.1,0.1-0.1c0.3-0.3,0.6-0.5,0.8-0.8c0.1-0.1,0.2-0.2,0.3-0.3
			c0.2-0.2,0.3-0.4,0.5-0.6c0.1-0.1,0.2-0.3,0.3-0.4c0.1-0.2,0.2-0.4,0.3-0.6c0.1-0.1,0.1-0.3,0.2-0.4c0.1-0.2,0.2-0.4,0.2-0.6
			c0-0.1,0.1-0.3,0.1-0.4c0.1-0.2,0.1-0.4,0.1-0.6c0-0.1,0-0.3,0-0.4c0.2-1.6-0.3-3.2-1.3-4.7c-0.9-1.3-2.3-2.5-4.1-3.6
			c-1.6-0.9-3.4-1.6-5.4-2.2c-5-1.3-10.7-1.3-15.7,0c-1.9,0.5-3.7,1.2-5.3,2.2c-1.5,0.9-2.7,1.9-3.6,3c-1.2,1.5-1.8,3-1.8,4.6
			c0,0,0,0,0,0c0,0,0,0,0,0c0,0.2,0,0.4,0.1,0.6C-100,82-100,82.2-100,82.3z"/>
	</g>
	<g>
		<path class="st0" d="M-64.6,74.6c-0.1-0.1-0.2-0.2-0.3-0.3c-0.1-0.2-0.3-0.3-0.4-0.5c-0.1-0.1-0.2-0.2-0.3-0.4
			c-0.1-0.2-0.2-0.4-0.3-0.6c-0.1-0.1-0.2-0.3-0.2-0.4c-0.1-0.2-0.2-0.5-0.3-0.7c0-0.1-0.1-0.3-0.2-0.4c-0.1-0.3-0.2-0.6-0.2-0.9
			c0-0.1-0.1-0.3-0.1-0.4c-0.1-0.3-0.1-0.7-0.2-1.1c0-0.1,0-0.2,0-0.3c0-0.5-0.1-1-0.1-1.5c0-0.5,0-1,0.1-1.5c0,0,0,0,0,0
			c0-0.2,0-0.5,0.1-0.7c0-0.2,0.1-0.5,0.1-0.7c0,0,0,0,0,0c0.2-1.1,0.4-2.2,0.7-3.3c0,0,0-0.1,0-0.1c0,0,0,0,0,0
			c0.1-0.2,0.1-0.4,0.2-0.6c0,0,0,0,0,0c0.1-0.4,0.2-0.7,0.4-1.1l0,0c0.1-0.1,0.1-0.3,0.2-0.4c0,0,0,0,0,0c0.2-0.5,0.4-1,0.6-1.5
			c0,0,0,0,0,0c0-0.1,0.1-0.1,0.1-0.2c0,0,0,0,0,0c0.1-0.2,0.2-0.4,0.3-0.7c0.5-1,1-1.9,1.5-2.8c0.2-0.3,0.4-0.6,0.6-1c0,0,0,0,0,0
			c0.4-0.6,0.8-1.2,1.3-1.8c0,0,0,0,0,0c0.1-0.1,0.2-0.2,0.3-0.3c0.3-0.5,0.7-0.9,1.1-1.3c0.1-0.1,0.2-0.2,0.3-0.3c0,0,0,0,0,0
			c0.3-0.3,0.6-0.6,0.9-0.9c0,0,0,0,0,0c0.2-0.2,0.4-0.4,0.6-0.6h0c0.1-0.1,0.3-0.3,0.4-0.4c0,0,0,0,0,0c0.2-0.2,0.4-0.3,0.5-0.5
			c0.3-0.3,0.7-0.6,1.1-0.9c0.2-0.1,0.3-0.2,0.5-0.3c0,0,0,0,0,0c0.5-0.4,1.1-0.8,1.6-1.1c0.4-0.2,0.7-0.4,1-0.5
			c0.2-0.1,0.4-0.2,0.6-0.3c0,0,0,0,0,0c0,0,0.1,0,0.1,0c0.5-0.2,0.9-0.4,1.4-0.5c0,0,0,0,0,0c0,0,0,0,0,0c0.8-0.2,1.5-0.4,2.2-0.4
			c0,0,0,0,0,0c0.1,0,0.3,0,0.4,0c0.2,0,0.4,0,0.6,0c0,0,0,0,0,0c0.2,0,0.3,0,0.5,0.1c0.2,0,0.5,0.1,0.7,0.1c0,0,0,0,0,0
			c0.1,0,0.2,0.1,0.3,0.1c0.2,0.1,0.4,0.1,0.6,0.2c0,0,0,0,0,0c0.1,0,0.2,0.1,0.3,0.2c0.2,0.1,0.3,0.1,0.5,0.2c0,0,0,0,0,0l-3.3-1.9
			c0,0,0,0-0.1,0c-0.2-0.1-0.4-0.2-0.7-0.3c0,0-0.1,0-0.1,0c-0.1,0-0.1-0.1-0.2-0.1c-0.1,0-0.2-0.1-0.3-0.1c-0.1,0-0.3-0.1-0.4-0.1
			c-0.1,0-0.2,0-0.2-0.1c0,0-0.1,0-0.1,0c-0.3,0-0.5-0.1-0.8-0.1c0,0,0,0-0.1,0c-0.1,0-0.1,0-0.2,0c-0.2,0-0.4,0-0.6,0
			c-0.1,0-0.1,0-0.2,0c-0.1,0-0.3,0-0.4,0c-0.1,0-0.2,0-0.4,0l0,0l0,0c-0.4,0.1-0.8,0.1-1.2,0.2l0,0l0,0c-0.1,0-0.2,0.1-0.3,0.1
			c-0.3,0.1-0.6,0.2-0.9,0.3c-0.1,0-0.2,0.1-0.3,0.1c-0.1,0-0.1,0.1-0.2,0.1c-0.5,0.2-1.1,0.5-1.7,0.8c-0.4,0.2-0.8,0.5-1.3,0.8
			c-0.1,0.1-0.3,0.2-0.4,0.3c-0.3,0.2-0.6,0.4-0.8,0.6c-0.1,0.1-0.3,0.2-0.4,0.4c-0.3,0.2-0.5,0.4-0.8,0.7c-0.1,0.1-0.3,0.3-0.4,0.4
			c-0.1,0.1-0.2,0.2-0.3,0.3c-0.1,0.1-0.2,0.2-0.3,0.3c-0.3,0.3-0.6,0.6-0.9,0.9c-0.1,0.1-0.2,0.2-0.3,0.3c-0.1,0.1-0.1,0.2-0.2,0.3
			c-0.2,0.2-0.3,0.4-0.5,0.6c-0.1,0.1-0.2,0.3-0.3,0.4c-0.1,0.1-0.2,0.2-0.3,0.4c-0.1,0.2-0.3,0.3-0.4,0.5c-0.1,0.1-0.2,0.2-0.2,0.3
			c-0.1,0.2-0.3,0.4-0.4,0.6c-0.1,0.1-0.2,0.3-0.3,0.4c0,0.1-0.1,0.1-0.1,0.2c-0.2,0.4-0.5,0.7-0.7,1.1c0,0,0,0,0,0.1
			c0,0.1-0.1,0.2-0.1,0.2c-0.2,0.3-0.3,0.5-0.4,0.8c-0.1,0.1-0.1,0.3-0.2,0.4c-0.1,0.1-0.1,0.3-0.2,0.4c-0.1,0.1-0.1,0.2-0.2,0.3
			c-0.1,0.3-0.3,0.6-0.4,0.9c0,0.1-0.1,0.1-0.1,0.2c0,0,0,0,0,0c-0.2,0.4-0.3,0.8-0.5,1.2c0,0.1,0,0.1-0.1,0.2
			c-0.1,0.2-0.1,0.3-0.2,0.5c-0.1,0.2-0.1,0.4-0.2,0.6c-0.1,0.2-0.1,0.3-0.1,0.5c-0.1,0.2-0.1,0.4-0.2,0.6c0,0.1-0.1,0.2-0.1,0.3
			c-0.1,0.2-0.1,0.4-0.1,0.6c-0.1,0.2-0.1,0.5-0.2,0.7c0,0.1,0,0.2-0.1,0.2c0,0.2-0.1,0.3-0.1,0.5c-0.1,0.4-0.1,0.7-0.2,1.1
			c0,0.1,0,0.2-0.1,0.3c0,0.2,0,0.4-0.1,0.6c0,0.2,0,0.3,0,0.5c0,0.5-0.1,1-0.1,1.5c0,4.2,1.5,7.1,3.9,8.5l3.3,1.9
			c-0.2-0.1-0.3-0.2-0.5-0.3c-0.1-0.1-0.2-0.2-0.4-0.2C-64.3,74.9-64.4,74.7-64.6,74.6z"/>
		<path class="st1" d="M-53.9,44.2c-7.3,4.2-13.2,14.5-13.2,22.9c0,8.4,6,11.8,13.3,7.6c7.3-4.2,13.2-14.5,13.2-22.9
			C-40.6,43.3-46.6,39.9-53.9,44.2z"/>
	</g>
</g>
<g>
	<path class="st3" d="M-77.4,76.3c-1.1-0.1-2.1-0.1-2.1-0.1c0,0,0.9,1.5,1,1.6c0,0,0.3,0,0.7,0.1l0.6,0l0.2,0.4l0.2,0.4l1.1,0.1
		c1.6,0.2,1.8,0.2,1.8,0.2c0,0-0.2-0.4-0.8-1.3c-0.3-0.4-0.5-0.9-0.6-1c0-0.1-0.1-0.2-0.1-0.2C-75.3,76.4-76.2,76.3-77.4,76.3z
		 M-82.4,75.9l-1.2-0.1l-1.7,1.3c-0.9,0.7-1.7,1.3-1.7,1.3c0,0,0.6,0.1,1.2,0.1l1.2,0.1l1.8-1.3l0.2,0.4c0.2,0.3,0.3,0.5,0.5,0.8
		l0.3,0.5l0.3,0c0.2,0,0.4,0,0.6,0.1c0.2,0,0.6,0.1,0.9,0.1c0.3,0,0.6,0.1,0.7,0.1c0.1,0-0.2-0.4-0.9-1.6c-0.5-0.9-1-1.6-1.1-1.6
		C-81.2,76-81.7,76-82.4,75.9z M-74.6,79.7c-0.8-0.1-1.4-0.1-1.4-0.1c0,0,0.1,0.3,0.3,0.6c0.2,0.3,0.3,0.6,0.3,0.6s-0.5,0-1-0.1
		c-0.6-0.1-2-0.2-3.1-0.3l-3.9-0.4c-1-0.1-1.9-0.2-2-0.2c-2-0.2-2.6-0.3-2.6-0.3c-0.1,0-0.3,0.1-1.1,0.7l-1,0.7l0.4,0.6l0.4,0.6
		l1.4,0.2c0.8,0.1,1.4,0.1,1.4,0.1s0-0.1-0.1-0.2s-0.2-0.3-0.3-0.5c-0.1-0.2-0.2-0.3-0.2-0.4c0,0,0-0.1,0-0.1c0,0,0.6,0,1.4,0.1
		c1.5,0.2,2.6,0.3,5,0.5c1.1,0.1,2.2,0.2,3.2,0.3c1,0.1,2.1,0.2,2.5,0.3l0.7,0.1l1-0.7l1-0.7l-0.4-0.6c-0.2-0.3-0.4-0.6-0.4-0.6
		C-73.2,79.8-73.9,79.7-74.6,79.7z M-76,83.5c-0.2,0-0.5,0-0.7-0.1s-0.6-0.1-0.9-0.1l-0.5-0.1l-0.9,0.7c-0.5,0.4-0.9,0.6-0.9,0.6
		c0,0-0.4-0.6-0.7-1.2c-0.2-0.4-0.3-0.4-0.4-0.5c-0.1,0-0.7-0.1-1.3-0.1c-0.6-0.1-1.1-0.1-1.1-0.1c0,0,0.4,0.7,0.9,1.6l1,1.6
		l1.2,0.1c0.7,0,1.3,0.1,1.3,0.1c0.1,0,3.4-2.5,3.4-2.5C-75.7,83.5-75.9,83.5-76,83.5z M-84.4,84.3c-0.2,0-0.4,0-0.6-0.1
		c-0.6-0.1-0.5,0-0.8-0.4c-0.2-0.3-0.3-0.4-0.4-0.4c-0.1,0-0.6-0.1-1.3-0.1c-0.6-0.1-1.2-0.1-1.2-0.1c-0.2-0.1-0.1,0.2,0.6,1.2
		l0.8,1.2l0.9,0.1c0.5,0,1.5,0.1,2.2,0.2c0.7,0.1,1.3,0.1,1.3,0.1c0,0-0.2-0.3-0.5-0.7l-0.5-0.7L-84.4,84.3z"/>
</g>
<g>
	<path class="st3" d="M-53.4,52.8c-0.9,0.7-1.6,1.3-1.6,1.3c0,0,1.7,0.5,1.8,0.5c0,0,0.3-0.2,0.6-0.4l0.5-0.4l0.4,0.1l0.4,0.1
		l0.9-0.6c1.3-1,1.5-1.1,1.4-1.1c0,0-0.4-0.1-1.4-0.5c-0.5-0.1-1-0.3-1.1-0.3c-0.1,0-0.2-0.1-0.2,0C-51.8,51.5-52.5,52.1-53.4,52.8z
		 M-57.3,55.9l-0.9,0.7l-0.4,2.1c-0.2,1.1-0.4,2.1-0.4,2.1c0,0,0.5-0.3,1-0.7l1-0.7l0.4-2.2l0.4,0.1c0.3,0.1,0.6,0.2,0.9,0.3
		l0.5,0.2l0.3-0.2c0.2-0.1,0.4-0.3,0.5-0.4c0.1-0.1,0.5-0.3,0.7-0.5c0.3-0.2,0.5-0.4,0.6-0.4c0,0-0.4-0.2-1.7-0.6
		c-1-0.3-1.8-0.5-1.9-0.5C-56.4,55.1-56.8,55.5-57.3,55.9z M-49.1,53.4c-0.6,0.5-1.1,0.8-1.1,0.9c0,0,0.3,0.1,0.6,0.2
		c0.3,0.1,0.6,0.2,0.6,0.2s-0.4,0.3-0.8,0.6c-0.5,0.3-1.6,1.2-2.5,1.9l-3.2,2.3c-0.8,0.6-1.5,1.1-1.6,1.2c-1.6,1.2-2.1,1.5-2.1,1.6
		c-0.1,0.1-0.1,0.3-0.3,1.3l-0.2,1.2l0.7,0.2l0.7,0.2l1.1-0.8c0.6-0.5,1.1-0.9,1.1-0.9s-0.1-0.1-0.2-0.1c-0.1,0-0.3-0.1-0.5-0.2
		c-0.2-0.1-0.3-0.1-0.4-0.1c0,0-0.1,0-0.1,0c0,0,0.5-0.4,1.1-0.8c1.2-0.9,2.1-1.5,4.1-3c0.9-0.6,1.8-1.3,2.6-1.9
		c0.8-0.6,1.7-1.2,2-1.5l0.6-0.4l0.3-1.2l0.3-1.2l-0.7-0.2c-0.4-0.1-0.7-0.2-0.7-0.2C-47.9,52.6-48.5,53-49.1,53.4z M-47.5,57.2
		c-0.1,0.1-0.4,0.3-0.5,0.4c-0.2,0.1-0.5,0.4-0.7,0.5l-0.4,0.3l-0.2,1.1c-0.1,0.6-0.2,1.1-0.3,1.1c0,0-0.7-0.2-1.3-0.4
		c-0.5-0.1-0.5-0.1-0.6,0c-0.1,0.1-0.5,0.4-1,0.7c-0.5,0.4-0.9,0.7-0.9,0.7c0,0,0.8,0.3,1.8,0.6l1.8,0.5l1-0.8c0.5-0.4,1-0.8,1-0.8
		C-48,61-47.2,57-47.3,57C-47.3,57-47.4,57.1-47.5,57.2z M-53.2,63.4c-0.2,0.1-0.3,0.2-0.5,0.4c-0.5,0.4-0.4,0.3-0.9,0.2
		c-0.3-0.1-0.5-0.1-0.5,0c-0.1,0-0.5,0.4-1.1,0.8c-0.5,0.4-1,0.7-1,0.7c-0.2,0.1,0.1,0.2,1.2,0.5l1.3,0.4l0.7-0.5
		c0.4-0.3,1.2-0.9,1.7-1.3c0.6-0.4,1-0.8,1-0.8c0,0-0.4-0.1-0.9-0.2l-0.8-0.2L-53.2,63.4z"/>
</g>
<g>
	<polygon class="st4" points="37.2,25.1 37.2,25.1 31.2,38.1 47.8,47.7 70.3,44.2 76.2,31.1 59.7,21.6 	"/>
	<polygon class="st5" points="80.1,66.5 44.2,72.1 47.8,47.7 70.3,44.2 	"/>
	<polygon class="st6" points="89.6,45.7 80.1,66.5 70.3,44.2 76.2,31.1 	"/>
	<polygon class="st7" points="44.2,72.1 17.9,56.9 31.2,38.1 47.8,47.7 	"/>
	<polygon class="st6" points="31.2,38.1 17.9,56.9 27.4,36.1 37.2,25.1 	"/>
	<polygon class="st7" points="53.6,89.6 44.2,72.1 80.1,66.5 	"/>
	<polygon class="st6" points="53.6,89.6 17.9,56.9 44.2,72.1 	"/>
</g>
</svg>
