<?xml version="1.0" encoding="utf-8"?>
<!-- Generator: Adobe Illustrator 24.3.0, SVG Export Plug-In . SVG Version: 6.00 Build 0)  -->
<svg version="1.1" id="Capa_1" xmlns="http://www.w3.org/2000/svg" xmlns:xlink="http://www.w3.org/1999/xlink" x="0px" y="0px"
	 viewBox="0 0 107.5 111.2" style="enable-background:new 0 0 107.5 111.2;" xml:space="preserve">
<style type="text/css">
	.st0{fill:#F5A907;}
	.st1{fill:#FDC439;}
	.st2{fill:#C09428;}
	.st3{fill-rule:evenodd;clip-rule:evenodd;fill:#CC9E36;}
	.st4{enable-background:new    ;}
	.st5{fill:#5097D2;}
	.st6{opacity:0.5;fill:url(#SVGID_1_);}
	.st7{fill:#BD3A3E;}
	.st8{fill:#AD3438;}
	.st9{fill:#992F32;}
	.st10{fill:#942D30;}
	.st11{fill:#8F2B2F;}
	.st12{fill:#FFFFFF;}
	.st13{opacity:0.7;fill:url(#SVGID_2_);}
	.st14{fill:#81262A;}
	.st15{fill:#FAFAFA;}
	.st16{fill:#EAEAEA;}
	.st17{opacity:0.5;fill:url(#SVGID_3_);}
</style>
<g>
	<g>
		<path class="st0" d="M-58.8,59.1c0,0.1,0,0.2,0,0.4c0,0,0,0,0,0c0,0.1,0,0.3,0,0.4c0,0,0,0,0,0c0,0,0,0.1,0,0.1c0,0,0,0.1,0,0.1
			c0,0.1-0.1,0.2-0.1,0.4c0,0.1-0.1,0.3-0.1,0.4c0,0,0,0.1-0.1,0.1c0,0,0,0.1,0,0.1c0,0.1-0.1,0.2-0.2,0.3c-0.1,0.1-0.1,0.3-0.2,0.4
			c0,0.1-0.1,0.1-0.1,0.2c0,0,0,0.1-0.1,0.1c-0.1,0.1-0.1,0.2-0.2,0.3c-0.1,0.1-0.2,0.3-0.3,0.4c-0.1,0.1-0.1,0.2-0.2,0.2
			c0,0.1-0.1,0.1-0.1,0.2c0,0.1-0.1,0.1-0.2,0.2c-0.1,0.1-0.2,0.2-0.3,0.3c-0.2,0.2-0.4,0.4-0.5,0.5c-0.1,0.1-0.1,0.1-0.2,0.2
			c0,0-0.1,0.1-0.1,0.1c0,0-0.1,0.1-0.1,0.1c-0.2,0.1-0.3,0.3-0.5,0.4c-0.2,0.1-0.3,0.3-0.5,0.4c0,0-0.1,0.1-0.1,0.1
			c-0.2,0.1-0.4,0.3-0.6,0.4c-0.2,0.1-0.3,0.2-0.5,0.3c-0.1,0-0.2,0.1-0.2,0.1c-0.6,0.3-1.2,0.6-1.8,0.9c-0.2,0.1-0.4,0.2-0.5,0.2
			c-0.5,0.2-1,0.4-1.5,0.6c-0.1,0-0.2,0.1-0.3,0.1c-0.1,0-0.1,0-0.2,0.1c-0.3,0.1-0.6,0.2-0.9,0.3c-0.2,0.1-0.5,0.1-0.7,0.2
			c-0.3,0.1-0.7,0.2-1.1,0.2c-0.2,0-0.4,0.1-0.6,0.1c0,0-0.1,0-0.1,0c-0.7,0.1-1.4,0.2-2.1,0.3c-0.1,0-0.1,0-0.2,0
			c-0.2,0-0.3,0-0.5,0c-0.4,0-0.8,0.1-1.3,0.1c-0.1,0-0.2,0-0.3,0c-0.2,0-0.3,0-0.5,0c-0.3,0-0.7,0-1,0c-0.1,0-0.2,0-0.4,0
			c-0.2,0-0.3,0-0.5,0c-0.3,0-0.6,0-1-0.1c-0.1,0-0.3,0-0.4,0c-0.1,0-0.3,0-0.4-0.1c-0.3,0-0.6-0.1-0.9-0.1c-0.1,0-0.3,0-0.4,0
			c-0.1,0-0.3,0-0.4-0.1c-0.3-0.1-0.7-0.1-1-0.2c-0.2,0-0.3,0-0.5-0.1c-0.1,0-0.2-0.1-0.3-0.1c-0.4-0.1-0.8-0.2-1.2-0.3
			c-0.2,0-0.3-0.1-0.5-0.1c-0.1,0-0.1,0-0.2-0.1c-0.7-0.2-1.4-0.4-2-0.7c0,0-0.1,0-0.1,0c-0.3-0.1-0.6-0.2-0.9-0.4
			c-0.2-0.1-0.3-0.1-0.5-0.2c-0.5-0.2-0.9-0.5-1.4-0.7c-0.5-0.3-0.9-0.5-1.3-0.8c-0.1-0.1-0.2-0.1-0.3-0.2c-0.3-0.2-0.6-0.4-0.8-0.7
			c-0.1-0.1-0.2-0.2-0.3-0.3c-0.2-0.2-0.5-0.4-0.7-0.6c-0.1-0.1-0.2-0.2-0.3-0.3c-0.2-0.2-0.4-0.4-0.5-0.6c-0.1-0.1-0.2-0.3-0.2-0.4
			c-0.1-0.2-0.3-0.4-0.4-0.6c-0.1-0.1-0.1-0.3-0.2-0.4c-0.1-0.2-0.2-0.4-0.2-0.6c0-0.1-0.1-0.3-0.1-0.5c-0.1-0.2-0.1-0.4-0.1-0.6
			c0-0.2,0-0.3,0-0.5c0-0.2,0-0.4,0-0.6c0,0,0,0,0,0l0,3.8c0,2.8,1.8,5.6,5.5,7.7c0.4,0.3,0.9,0.5,1.4,0.7c0.2,0.1,0.3,0.1,0.5,0.2
			c0.3,0.1,0.5,0.2,0.8,0.3c0,0,0.1,0,0.1,0c0.6,0.3,1.3,0.5,2,0.7c0.1,0,0.1,0,0.2,0c0.2,0,0.3,0.1,0.5,0.1
			c0.4,0.1,0.8,0.2,1.2,0.3c0.1,0,0.2,0,0.3,0.1c0.2,0,0.3,0.1,0.5,0.1c0.3,0.1,0.7,0.1,1,0.2c0.1,0,0.3,0,0.4,0.1
			c0.1,0,0.3,0,0.4,0.1c0.3,0,0.6,0.1,0.9,0.1c0.1,0,0.3,0,0.4,0c0.1,0,0.3,0,0.4,0c0.3,0,0.6,0,0.9,0c0.2,0,0.3,0,0.5,0
			c0.1,0,0.3,0,0.4,0c0.3,0,0.7,0,1,0c0.2,0,0.3,0,0.5,0c0.1,0,0.2,0,0.3,0c0.4,0,0.9,0,1.3-0.1c0.2,0,0.3,0,0.5,0c0,0,0.1,0,0.2,0
			c0.7-0.1,1.4-0.2,2.1-0.3c0,0,0.1,0,0.1,0c0.2,0,0.4-0.1,0.6-0.1c0.3-0.1,0.7-0.1,1-0.2c0.2-0.1,0.5-0.1,0.7-0.2
			c0.3-0.1,0.7-0.2,1-0.3c0.1,0,0.1,0,0.2-0.1c0.1,0,0.2-0.1,0.3-0.1c0.5-0.2,1-0.4,1.5-0.6c0.2-0.1,0.4-0.1,0.5-0.2
			c0.6-0.3,1.2-0.6,1.8-0.9c0.1,0,0.1-0.1,0.2-0.1c0.2-0.1,0.3-0.2,0.5-0.3c0.2-0.1,0.5-0.3,0.7-0.4c0.2-0.1,0.4-0.3,0.5-0.4
			c0.2-0.2,0.4-0.3,0.6-0.5c0,0,0.1-0.1,0.1-0.1c0.1-0.1,0.1-0.1,0.2-0.2c0.3-0.3,0.5-0.6,0.8-0.8c0.1-0.1,0.1-0.1,0.2-0.2
			c0-0.1,0.1-0.1,0.1-0.2c0.2-0.2,0.3-0.4,0.4-0.6c0.1-0.1,0.1-0.2,0.2-0.3c0,0,0-0.1,0.1-0.1c0.1-0.2,0.2-0.4,0.3-0.6
			c0.1-0.1,0.1-0.3,0.2-0.4c0,0,0-0.1,0-0.1c0.1-0.2,0.1-0.4,0.2-0.5c0-0.2,0.1-0.3,0.1-0.5c0,0,0,0,0,0c0-0.2,0-0.4,0.1-0.6
			c0-0.2,0-0.4,0-0.6c0,0,0,0,0,0l0-3.8C-58.8,59-58.8,59.1-58.8,59.1z"/>
		<path class="st1" d="M-96.1,59.5c0,0.2,0,0.3,0,0.5c0,0.2,0.1,0.4,0.1,0.6c0,0.2,0.1,0.3,0.1,0.5c0.1,0.2,0.2,0.4,0.2,0.6
			c0.1,0.1,0.1,0.3,0.2,0.4c0.1,0.2,0.2,0.4,0.4,0.6c0.1,0.1,0.1,0.3,0.2,0.4c0.1,0.2,0.3,0.4,0.5,0.6c0.1,0.1,0.2,0.2,0.3,0.3
			c0.2,0.2,0.4,0.4,0.7,0.6c0.1,0.1,0.2,0.2,0.3,0.3c0.3,0.2,0.5,0.4,0.8,0.7c0.1,0.1,0.2,0.1,0.3,0.2c0.4,0.3,0.8,0.6,1.3,0.8
			c0.4,0.3,0.9,0.5,1.4,0.7c0.1,0.1,0.3,0.1,0.5,0.2c0.3,0.1,0.6,0.3,1,0.4c0.6,0.3,1.3,0.5,2,0.7c0.2,0.1,0.4,0.1,0.7,0.2
			c0.4,0.1,0.8,0.2,1.2,0.3c0.3,0.1,0.5,0.1,0.8,0.2c0.3,0.1,0.7,0.1,1,0.2c0.3,0,0.6,0.1,0.8,0.1c0.3,0,0.6,0.1,0.9,0.1
			c0.3,0,0.6,0.1,0.9,0.1c0.3,0,0.6,0,1,0.1c0.3,0,0.6,0,0.8,0c0.3,0,0.7,0,1,0c0.3,0,0.5,0,0.8,0c0.4,0,0.8,0,1.3-0.1
			c0.2,0,0.4,0,0.7-0.1c0.7-0.1,1.4-0.2,2.1-0.3c0.2,0,0.4-0.1,0.7-0.1c0.4-0.1,0.7-0.1,1.1-0.2c0.3-0.1,0.5-0.1,0.7-0.2
			c0.3-0.1,0.6-0.2,0.9-0.3c0.2-0.1,0.4-0.1,0.6-0.2c0.5-0.2,1-0.4,1.5-0.6c0.2-0.1,0.4-0.1,0.5-0.2c0.6-0.3,1.2-0.6,1.8-0.9
			c0.5-0.3,0.9-0.5,1.3-0.8c0,0,0.1-0.1,0.1-0.1c0.4-0.3,0.7-0.5,1-0.8c0,0,0.1-0.1,0.1-0.1c0.3-0.3,0.6-0.5,0.8-0.8
			c0.1-0.1,0.2-0.2,0.3-0.3c0.2-0.2,0.3-0.4,0.5-0.6c0.1-0.1,0.2-0.3,0.3-0.4c0.1-0.2,0.2-0.4,0.3-0.6c0.1-0.1,0.1-0.3,0.2-0.4
			c0.1-0.2,0.2-0.4,0.2-0.6c0-0.1,0.1-0.3,0.1-0.4c0.1-0.2,0.1-0.4,0.1-0.6c0,0,0,0,0,0c0.5-3.1-1.3-6.3-5.4-8.7
			c-2.7-1.6-6.1-2.6-9.7-3c-2.2-0.2-4.4-0.3-6.6,0c-0.2,0-0.4,0-0.6,0c0,0-0.1,0-0.1,0c-3.5,0.4-6.8,1.4-9.5,3
			c-1.5,0.9-2.7,1.9-3.6,3c-1.2,1.5-1.8,3-1.8,4.6C-96.1,59.1-96.1,59.3-96.1,59.5z M-85.8,60.3c0-0.4,0.1-0.8,0.4-1.2
			c0.2-0.3,0.6-0.6,1.1-1l2.4,1.4c-0.5,0.3-0.7,0.6-0.7,1c0,0.3,0.3,0.6,0.7,0.9l0.1,0.1c0.5,0.3,1,0.4,1.6,0.4
			c0.6,0,1.2-0.1,1.6-0.4c0.5-0.3,0.8-0.7,0.7-1.1c0-0.3-0.2-0.6-0.6-1.1c-0.1-0.1-0.2-0.2-0.3-0.3c-0.2-0.2-0.3-0.3-0.3-0.4
			c-0.3-0.4-0.5-0.6-0.6-0.9c-0.2-0.5-0.2-0.9,0.1-1.4c0.2-0.5,0.7-0.9,1.3-1.2c0.6-0.4,1.4-0.6,2.3-0.7c0.9-0.1,1.8-0.1,2.6,0
			c0.4,0.1,0.8,0.2,1.2,0.3l0,0l2.2-1.3l0.9,0.5l1.1,0.6l-2.1,1.2c0.2,0.2,0.4,0.4,0.5,0.7c0.3,0.5,0.3,1,0.1,1.5
			c-0.2,0.5-0.7,1-1.3,1.4l-2.4-1.4c0.4-0.3,0.5-0.5,0.5-0.8c0-0.3-0.2-0.5-0.6-0.7l0,0c-0.4-0.2-0.8-0.3-1.3-0.3
			c-0.5,0-0.9,0.1-1.3,0.3c-0.4,0.2-0.6,0.5-0.6,0.7c0,0.2,0.2,0.5,0.4,0.9c0.1,0.1,0.1,0.2,0.2,0.2l0.4,0.4c0.6,0.7,0.9,1.2,1,1.7
			c0.2,0.9-0.3,1.7-1.5,2.4c-0.7,0.4-1.6,0.7-2.6,0.9c-1,0.1-2,0.1-2.9,0c-0.5-0.1-1-0.2-1.4-0.3l-2.1,1.2l-1.1-0.6l-0.9-0.5
			l2.1-1.2C-85.5,61.6-85.8,61-85.8,60.3z"/>
		<path class="st2" d="M-86,63.9l1.1,0.6l2.1-1.2c0.4,0.1,0.9,0.3,1.4,0.3c1,0.2,2,0.2,2.9,0c1-0.2,1.8-0.4,2.6-0.9
			c1.2-0.7,1.6-1.5,1.5-2.4c-0.1-0.5-0.4-1-1-1.7l-0.4-0.4c-0.1-0.1-0.1-0.2-0.2-0.2c-0.3-0.4-0.4-0.6-0.4-0.9
			c0-0.3,0.2-0.5,0.6-0.7c0.4-0.2,0.8-0.3,1.3-0.3c0.5,0,0.9,0.1,1.3,0.3l0,0c0.4,0.2,0.6,0.5,0.6,0.7c0,0.3-0.2,0.5-0.5,0.8
			l2.4,1.4c0.7-0.4,1.1-0.9,1.3-1.4c0.2-0.5,0.2-1-0.1-1.5c-0.1-0.2-0.3-0.5-0.5-0.7l2.1-1.2l-1.1-0.6l-0.9-0.5l-2.2,1.3l0,0
			c-0.4-0.1-0.8-0.2-1.2-0.3c-0.9-0.1-1.8-0.2-2.6,0c-0.9,0.1-1.6,0.4-2.3,0.7c-0.6,0.3-1,0.8-1.3,1.2c-0.2,0.5-0.3,1-0.1,1.4
			c0.1,0.2,0.3,0.5,0.6,0.9c0,0,0.2,0.2,0.3,0.4c0.1,0.1,0.2,0.2,0.3,0.3c0.3,0.4,0.5,0.8,0.6,1.1c0.1,0.4-0.2,0.8-0.7,1.1
			c-0.5,0.3-1,0.4-1.6,0.4c-0.6,0-1.2-0.1-1.6-0.4l-0.1-0.1c-0.4-0.3-0.7-0.6-0.7-0.9c0-0.3,0.2-0.7,0.7-1l-2.4-1.4
			c-0.6,0.3-0.9,0.7-1.1,1c-0.3,0.4-0.4,0.8-0.4,1.2c0,0.7,0.3,1.3,0.9,1.8l-2.1,1.2L-86,63.9z"/>
	</g>
	<g>
		<path class="st0" d="M-58.8,54.2c0,0.1,0,0.2,0,0.4c0,0,0,0,0,0.1c0,0.1,0,0.3,0,0.4c0,0,0,0,0,0c0,0,0,0.1,0,0.1c0,0,0,0.1,0,0.1
			c0,0.1-0.1,0.2-0.1,0.4c0,0.1-0.1,0.3-0.1,0.4c0,0,0,0.1-0.1,0.1c0,0,0,0.1,0,0.1c0,0.1-0.1,0.2-0.2,0.3c-0.1,0.1-0.1,0.3-0.2,0.4
			c0,0.1-0.1,0.1-0.1,0.2c0,0,0,0.1-0.1,0.1c-0.1,0.1-0.1,0.2-0.2,0.3c-0.1,0.1-0.2,0.3-0.3,0.4c-0.1,0.1-0.1,0.2-0.2,0.2
			c0,0.1-0.1,0.1-0.1,0.2c0,0.1-0.1,0.1-0.2,0.2c-0.1,0.1-0.2,0.2-0.3,0.3c-0.2,0.2-0.4,0.4-0.5,0.5c-0.1,0.1-0.1,0.1-0.2,0.2
			c0,0-0.1,0.1-0.1,0.1c0,0-0.1,0.1-0.1,0.1c-0.2,0.1-0.3,0.3-0.5,0.4c-0.2,0.1-0.3,0.3-0.5,0.4c0,0-0.1,0.1-0.1,0.1
			c-0.2,0.1-0.4,0.3-0.6,0.4c-0.2,0.1-0.3,0.2-0.5,0.3c-0.1,0-0.2,0.1-0.2,0.1c-0.6,0.3-1.2,0.6-1.8,0.9c-0.2,0.1-0.4,0.2-0.5,0.2
			c-0.5,0.2-1,0.4-1.5,0.6c-0.1,0-0.2,0.1-0.3,0.1c-0.1,0-0.1,0-0.2,0.1c-0.3,0.1-0.6,0.2-0.9,0.3c-0.2,0.1-0.5,0.1-0.7,0.2
			c-0.3,0.1-0.7,0.2-1.1,0.2c-0.2,0-0.4,0.1-0.6,0.1c0,0-0.1,0-0.1,0c-0.7,0.1-1.4,0.2-2.1,0.3c-0.1,0-0.1,0-0.2,0
			c-0.2,0-0.3,0-0.5,0c-0.4,0-0.8,0.1-1.3,0.1c-0.1,0-0.2,0-0.3,0c-0.2,0-0.3,0-0.5,0c-0.3,0-0.7,0-1,0c-0.1,0-0.2,0-0.4,0
			c-0.2,0-0.3,0-0.5,0c-0.3,0-0.6,0-1-0.1c-0.1,0-0.3,0-0.4,0c-0.1,0-0.3,0-0.4-0.1c-0.3,0-0.6-0.1-0.9-0.1c-0.1,0-0.3,0-0.4,0
			c-0.1,0-0.3,0-0.4-0.1c-0.3-0.1-0.7-0.1-1-0.2c-0.2,0-0.3-0.1-0.5-0.1c-0.1,0-0.2-0.1-0.3-0.1c-0.4-0.1-0.8-0.2-1.2-0.3
			c-0.2,0-0.3-0.1-0.5-0.1c-0.1,0-0.1,0-0.2-0.1c-0.7-0.2-1.4-0.4-2-0.7c0,0-0.1,0-0.1,0c-0.3-0.1-0.6-0.2-0.9-0.4
			c-0.2-0.1-0.3-0.1-0.5-0.2c-0.5-0.2-0.9-0.5-1.4-0.7c-0.5-0.3-0.9-0.5-1.3-0.8c-0.1-0.1-0.2-0.1-0.3-0.2c-0.3-0.2-0.6-0.4-0.8-0.7
			c-0.1-0.1-0.2-0.2-0.3-0.3c-0.2-0.2-0.5-0.4-0.7-0.6c-0.1-0.1-0.2-0.2-0.3-0.3c-0.2-0.2-0.4-0.4-0.5-0.6c-0.1-0.1-0.2-0.3-0.2-0.4
			c-0.1-0.2-0.3-0.4-0.4-0.6c-0.1-0.1-0.1-0.3-0.2-0.4c-0.1-0.2-0.2-0.4-0.2-0.6c0-0.1-0.1-0.3-0.1-0.5c-0.1-0.2-0.1-0.4-0.1-0.6
			c0-0.2,0-0.3,0-0.5c0-0.2,0-0.4,0-0.6c0,0,0,0,0,0l0,3.8c0,2.8,1.8,5.6,5.5,7.7c0.4,0.3,0.9,0.5,1.4,0.7c0.2,0.1,0.3,0.1,0.5,0.2
			c0.3,0.1,0.5,0.2,0.8,0.3c0,0,0.1,0,0.1,0c0.6,0.3,1.3,0.5,2,0.7c0.1,0,0.1,0,0.2,0c0.2,0,0.3,0.1,0.5,0.1
			c0.4,0.1,0.8,0.2,1.2,0.3c0.1,0,0.2,0,0.3,0.1c0.2,0,0.3,0.1,0.5,0.1c0.3,0.1,0.7,0.1,1,0.2c0.1,0,0.3,0,0.4,0.1
			c0.1,0,0.3,0,0.4,0.1c0.3,0,0.6,0.1,0.9,0.1c0.1,0,0.3,0,0.4,0c0.1,0,0.3,0,0.4,0c0.3,0,0.6,0,0.9,0.1c0.2,0,0.3,0,0.5,0
			c0.1,0,0.3,0,0.4,0c0.3,0,0.7,0,1,0c0.2,0,0.3,0,0.5,0c0.1,0,0.2,0,0.3,0c0.4,0,0.9,0,1.3-0.1c0.2,0,0.3,0,0.5,0c0,0,0.1,0,0.2,0
			c0.7-0.1,1.4-0.2,2.1-0.3c0,0,0.1,0,0.1,0c0.2,0,0.4-0.1,0.6-0.1c0.3-0.1,0.7-0.1,1-0.2c0.2-0.1,0.5-0.1,0.7-0.2
			c0.3-0.1,0.7-0.2,1-0.3c0.1,0,0.1,0,0.2-0.1c0.1,0,0.2-0.1,0.3-0.1c0.5-0.2,1-0.4,1.5-0.6c0.2-0.1,0.4-0.1,0.5-0.2
			c0.6-0.3,1.2-0.6,1.8-0.9c0.1,0,0.1-0.1,0.2-0.1c0.2-0.1,0.3-0.2,0.5-0.3c0.2-0.1,0.5-0.3,0.7-0.4c0.2-0.1,0.4-0.3,0.5-0.4
			c0.2-0.2,0.4-0.3,0.6-0.5c0,0,0.1-0.1,0.1-0.1c0.1-0.1,0.1-0.1,0.2-0.2c0.3-0.3,0.5-0.6,0.8-0.8c0.1-0.1,0.1-0.1,0.2-0.2
			c0-0.1,0.1-0.1,0.1-0.2c0.2-0.2,0.3-0.4,0.4-0.6c0.1-0.1,0.1-0.2,0.2-0.3c0,0,0-0.1,0.1-0.1c0.1-0.2,0.2-0.4,0.3-0.6
			c0.1-0.1,0.1-0.3,0.2-0.4c0,0,0-0.1,0-0.1c0.1-0.2,0.1-0.4,0.2-0.5c0-0.2,0.1-0.3,0.1-0.5c0,0,0,0,0,0c0-0.2,0-0.4,0.1-0.6
			c0-0.2,0-0.4,0-0.6c0,0,0,0,0,0l0-3.8C-58.8,54.1-58.8,54.1-58.8,54.2z"/>
		<path class="st1" d="M-96.1,54.5c0,0.2,0,0.3,0,0.5c0,0.2,0.1,0.4,0.1,0.6c0,0.2,0.1,0.3,0.1,0.5c0.1,0.2,0.2,0.4,0.2,0.6
			c0.1,0.1,0.1,0.3,0.2,0.4c0.1,0.2,0.2,0.4,0.4,0.6c0.1,0.1,0.1,0.3,0.2,0.4c0.1,0.2,0.3,0.4,0.5,0.6c0.1,0.1,0.2,0.2,0.3,0.3
			c0.2,0.2,0.4,0.4,0.7,0.6c0.1,0.1,0.2,0.2,0.3,0.3c0.3,0.2,0.5,0.4,0.8,0.7c0.1,0.1,0.2,0.1,0.3,0.2c0.4,0.3,0.8,0.6,1.3,0.8
			c0.4,0.3,0.9,0.5,1.4,0.7c0.1,0.1,0.3,0.1,0.5,0.2c0.3,0.1,0.6,0.3,1,0.4c0.6,0.3,1.3,0.5,2,0.7c0.2,0.1,0.4,0.1,0.7,0.2
			c0.4,0.1,0.8,0.2,1.2,0.3c0.3,0.1,0.5,0.1,0.8,0.2c0.3,0.1,0.7,0.1,1,0.2c0.3,0,0.6,0.1,0.8,0.1c0.3,0,0.6,0.1,0.9,0.1
			c0.3,0,0.6,0.1,0.9,0.1c0.3,0,0.6,0,1,0.1c0.3,0,0.6,0,0.8,0c0.3,0,0.7,0,1,0c0.3,0,0.5,0,0.8,0c0.4,0,0.8,0,1.3-0.1
			c0.2,0,0.4,0,0.7-0.1c0.7-0.1,1.4-0.2,2.1-0.3c0.2,0,0.4-0.1,0.7-0.1c0.4-0.1,0.7-0.1,1.1-0.2c0.3-0.1,0.5-0.1,0.7-0.2
			c0.3-0.1,0.6-0.2,0.9-0.3c0.2-0.1,0.4-0.1,0.6-0.2c0.5-0.2,1-0.4,1.5-0.6c0.2-0.1,0.4-0.2,0.5-0.2c0.6-0.3,1.2-0.6,1.8-0.9
			c0.5-0.3,0.9-0.5,1.3-0.8c0,0,0.1-0.1,0.1-0.1c0.4-0.3,0.7-0.5,1-0.8c0,0,0.1-0.1,0.1-0.1c0.3-0.3,0.6-0.5,0.8-0.8
			c0.1-0.1,0.2-0.2,0.3-0.3c0.2-0.2,0.3-0.4,0.5-0.6c0.1-0.1,0.2-0.3,0.3-0.4c0.1-0.2,0.2-0.4,0.3-0.6c0.1-0.1,0.1-0.3,0.2-0.4
			c0.1-0.2,0.2-0.4,0.2-0.6c0-0.1,0.1-0.3,0.1-0.4c0.1-0.2,0.1-0.4,0.1-0.6c0,0,0,0,0,0c0.5-3.1-1.3-6.3-5.4-8.7
			c-2.7-1.6-6.1-2.6-9.7-3c-2.2-0.2-4.4-0.3-6.6,0c-0.2,0-0.4,0-0.6,0c0,0-0.1,0-0.1,0c-3.5,0.4-6.8,1.4-9.5,3
			c-1.5,0.9-2.7,1.9-3.6,3c-1.2,1.5-1.8,3-1.8,4.6C-96.1,54.1-96.1,54.3-96.1,54.5z M-85.8,55.3c0-0.4,0.1-0.8,0.4-1.2
			c0.2-0.3,0.6-0.6,1.1-1l2.4,1.4c-0.5,0.3-0.7,0.6-0.7,1c0,0.3,0.3,0.6,0.7,0.9l0.1,0.1c0.5,0.3,1,0.4,1.6,0.4
			c0.6,0,1.2-0.1,1.6-0.4c0.5-0.3,0.8-0.7,0.7-1.1c0-0.3-0.2-0.6-0.6-1c-0.1-0.1-0.2-0.2-0.3-0.3c-0.2-0.2-0.3-0.3-0.3-0.4
			c-0.3-0.4-0.5-0.6-0.6-0.9c-0.2-0.5-0.2-0.9,0.1-1.4c0.2-0.5,0.7-0.9,1.3-1.2c0.6-0.4,1.4-0.6,2.3-0.7c0.9-0.1,1.8-0.1,2.6,0
			c0.4,0.1,0.8,0.2,1.2,0.3l0,0l2.2-1.3l0.9,0.5l1.1,0.6l-2.1,1.2c0.2,0.2,0.4,0.4,0.5,0.7c0.3,0.5,0.3,1,0.1,1.5
			c-0.2,0.5-0.7,1-1.3,1.4l-2.4-1.4c0.4-0.3,0.5-0.5,0.5-0.8c0-0.3-0.2-0.5-0.6-0.7l0,0c-0.4-0.2-0.8-0.3-1.3-0.3
			c-0.5,0-0.9,0.1-1.3,0.4c-0.4,0.2-0.6,0.5-0.6,0.7c0,0.2,0.2,0.5,0.4,0.9c0.1,0.1,0.1,0.2,0.2,0.2l0.4,0.4c0.6,0.7,0.9,1.2,1,1.7
			c0.2,0.9-0.3,1.7-1.5,2.4c-0.7,0.4-1.6,0.7-2.6,0.9c-1,0.1-2,0.1-2.9,0c-0.5-0.1-1-0.2-1.4-0.3l-2.1,1.2l-1.1-0.6l-0.9-0.5
			l2.1-1.2C-85.5,56.6-85.8,56-85.8,55.3z"/>
		<path class="st2" d="M-86,58.9l1.1,0.6l2.1-1.2c0.4,0.1,0.9,0.3,1.4,0.3c1,0.2,2,0.2,2.9,0c1-0.2,1.8-0.4,2.6-0.9
			c1.2-0.7,1.6-1.5,1.5-2.4c-0.1-0.5-0.4-1-1-1.7l-0.4-0.4c-0.1-0.1-0.1-0.2-0.2-0.2c-0.3-0.4-0.4-0.6-0.4-0.9
			c0-0.3,0.2-0.5,0.6-0.7c0.4-0.2,0.8-0.3,1.3-0.4c0.5,0,0.9,0.1,1.3,0.3l0,0c0.4,0.2,0.6,0.5,0.6,0.7c0,0.3-0.2,0.6-0.5,0.8
			l2.4,1.4c0.7-0.4,1.1-0.9,1.3-1.4c0.2-0.5,0.2-1-0.1-1.5c-0.1-0.2-0.3-0.5-0.5-0.7l2.1-1.2l-1.1-0.6l-0.9-0.5l-2.2,1.3l0,0
			c-0.4-0.1-0.8-0.2-1.2-0.3c-0.9-0.1-1.8-0.2-2.6,0c-0.9,0.1-1.6,0.4-2.3,0.7c-0.6,0.3-1,0.8-1.3,1.2c-0.2,0.5-0.3,1-0.1,1.4
			c0.1,0.2,0.3,0.5,0.6,0.9c0,0,0.2,0.2,0.3,0.4c0.1,0.1,0.2,0.2,0.3,0.3c0.3,0.4,0.5,0.8,0.6,1c0.1,0.4-0.2,0.8-0.7,1.1
			c-0.5,0.3-1,0.4-1.6,0.4c-0.6,0-1.2-0.1-1.6-0.4l-0.1-0.1c-0.4-0.3-0.7-0.6-0.7-0.9c0-0.3,0.2-0.7,0.7-1l-2.4-1.4
			c-0.6,0.3-0.9,0.7-1.1,1c-0.3,0.4-0.4,0.8-0.4,1.2c0,0.7,0.3,1.3,0.9,1.8l-2.1,1.2L-86,58.9z"/>
	</g>
	<g>
		<path class="st0" d="M-58.8,49.2c0,0.1,0,0.2,0,0.4c0,0,0,0,0,0c0,0.1,0,0.3,0,0.4c0,0,0,0,0,0c0,0,0,0.1,0,0.1c0,0,0,0.1,0,0.1
			c0,0.1-0.1,0.2-0.1,0.4c0,0.1-0.1,0.3-0.1,0.4c0,0,0,0.1-0.1,0.1c0,0,0,0.1,0,0.1c0,0.1-0.1,0.2-0.2,0.3c-0.1,0.1-0.1,0.3-0.2,0.4
			c0,0.1-0.1,0.1-0.1,0.2c0,0,0,0.1-0.1,0.1c-0.1,0.1-0.1,0.2-0.2,0.3c-0.1,0.1-0.2,0.3-0.3,0.4c-0.1,0.1-0.1,0.2-0.2,0.2
			c0,0.1-0.1,0.1-0.1,0.2c0,0.1-0.1,0.1-0.2,0.2c-0.1,0.1-0.2,0.2-0.3,0.3c-0.2,0.2-0.4,0.4-0.5,0.5c-0.1,0.1-0.1,0.1-0.2,0.2
			c0,0-0.1,0.1-0.1,0.1c0,0-0.1,0.1-0.1,0.1c-0.2,0.1-0.3,0.3-0.5,0.4c-0.2,0.1-0.3,0.3-0.5,0.4c0,0-0.1,0.1-0.1,0.1
			c-0.2,0.1-0.4,0.3-0.6,0.4c-0.2,0.1-0.3,0.2-0.5,0.3c-0.1,0-0.2,0.1-0.2,0.1c-0.6,0.3-1.2,0.6-1.8,0.9c-0.2,0.1-0.4,0.2-0.5,0.2
			c-0.5,0.2-1,0.4-1.5,0.6c-0.1,0-0.2,0.1-0.3,0.1c-0.1,0-0.1,0-0.2,0.1c-0.3,0.1-0.6,0.2-0.9,0.3c-0.2,0.1-0.5,0.1-0.7,0.2
			c-0.3,0.1-0.7,0.2-1.1,0.2c-0.2,0-0.4,0.1-0.6,0.1c0,0-0.1,0-0.1,0c-0.7,0.1-1.4,0.2-2.1,0.3c-0.1,0-0.1,0-0.2,0
			c-0.2,0-0.3,0-0.5,0c-0.4,0-0.8,0.1-1.3,0.1c-0.1,0-0.2,0-0.3,0c-0.2,0-0.3,0-0.5,0c-0.3,0-0.7,0-1,0c-0.1,0-0.2,0-0.4,0
			c-0.2,0-0.3,0-0.5,0c-0.3,0-0.6,0-1-0.1c-0.1,0-0.3,0-0.4,0c-0.1,0-0.3,0-0.4-0.1c-0.3,0-0.6-0.1-0.9-0.1c-0.1,0-0.3,0-0.4,0
			c-0.1,0-0.3,0-0.4-0.1c-0.3-0.1-0.7-0.1-1-0.2c-0.2,0-0.3,0-0.5-0.1c-0.1,0-0.2-0.1-0.3-0.1c-0.4-0.1-0.8-0.2-1.2-0.3
			c-0.2,0-0.3-0.1-0.5-0.1c-0.1,0-0.1,0-0.2-0.1c-0.7-0.2-1.4-0.4-2-0.7c0,0-0.1,0-0.1,0c-0.3-0.1-0.6-0.2-0.9-0.4
			c-0.2-0.1-0.3-0.1-0.5-0.2c-0.5-0.2-0.9-0.5-1.4-0.7c-0.5-0.3-0.9-0.5-1.3-0.8c-0.1-0.1-0.2-0.1-0.3-0.2c-0.3-0.2-0.6-0.4-0.8-0.7
			c-0.1-0.1-0.2-0.2-0.3-0.3c-0.2-0.2-0.5-0.4-0.7-0.6c-0.1-0.1-0.2-0.2-0.3-0.3c-0.2-0.2-0.4-0.4-0.5-0.6c-0.1-0.1-0.2-0.3-0.2-0.4
			c-0.1-0.2-0.3-0.4-0.4-0.6c-0.1-0.1-0.1-0.3-0.2-0.4c-0.1-0.2-0.2-0.4-0.2-0.6c0-0.1-0.1-0.3-0.1-0.5c-0.1-0.2-0.1-0.4-0.1-0.6
			c0-0.2,0-0.3,0-0.5c0-0.2,0-0.4,0-0.6c0,0,0,0,0,0l0,3.8c0,2.8,1.8,5.6,5.5,7.7c0.4,0.3,0.9,0.5,1.4,0.7c0.2,0.1,0.3,0.1,0.5,0.2
			c0.3,0.1,0.5,0.2,0.8,0.3c0,0,0.1,0,0.1,0c0.6,0.3,1.3,0.5,2,0.7c0.1,0,0.1,0,0.2,0c0.2,0,0.3,0.1,0.5,0.1
			c0.4,0.1,0.8,0.2,1.2,0.3c0.1,0,0.2,0,0.3,0.1c0.2,0,0.3,0.1,0.5,0.1c0.3,0.1,0.7,0.1,1,0.2c0.1,0,0.3,0,0.4,0.1
			c0.1,0,0.3,0,0.4,0.1c0.3,0,0.6,0.1,0.9,0.1c0.1,0,0.3,0,0.4,0c0.1,0,0.3,0,0.4,0c0.3,0,0.6,0,0.9,0c0.2,0,0.3,0,0.5,0
			c0.1,0,0.3,0,0.4,0c0.3,0,0.7,0,1,0c0.2,0,0.3,0,0.5,0c0.1,0,0.2,0,0.3,0c0.4,0,0.9-0.1,1.3-0.1c0.2,0,0.3,0,0.5,0
			c0,0,0.1,0,0.2,0c0.7-0.1,1.4-0.2,2.1-0.3c0,0,0.1,0,0.1,0c0.2,0,0.4-0.1,0.6-0.1c0.3-0.1,0.7-0.1,1-0.2c0.2-0.1,0.5-0.1,0.7-0.2
			c0.3-0.1,0.7-0.2,1-0.3c0.1,0,0.1,0,0.2-0.1c0.1,0,0.2-0.1,0.3-0.1c0.5-0.2,1-0.4,1.5-0.6c0.2-0.1,0.4-0.1,0.5-0.2
			c0.6-0.3,1.2-0.6,1.8-0.9c0.1,0,0.1-0.1,0.2-0.1c0.2-0.1,0.3-0.2,0.5-0.3c0.2-0.1,0.5-0.3,0.7-0.4c0.2-0.1,0.4-0.3,0.5-0.4
			c0.2-0.2,0.4-0.3,0.6-0.5c0,0,0.1-0.1,0.1-0.1c0.1-0.1,0.1-0.1,0.2-0.2c0.3-0.3,0.5-0.6,0.8-0.8c0.1-0.1,0.1-0.1,0.2-0.2
			c0-0.1,0.1-0.1,0.1-0.2c0.2-0.2,0.3-0.4,0.4-0.6c0.1-0.1,0.1-0.2,0.2-0.3c0,0,0-0.1,0.1-0.1c0.1-0.2,0.2-0.4,0.3-0.6
			c0.1-0.1,0.1-0.3,0.2-0.4c0,0,0-0.1,0-0.1c0.1-0.2,0.1-0.4,0.2-0.5c0-0.2,0.1-0.3,0.1-0.5c0,0,0,0,0,0c0-0.2,0-0.4,0.1-0.6
			c0-0.2,0-0.4,0-0.6c0,0,0,0,0,0l0-3.8C-58.8,49.1-58.8,49.1-58.8,49.2z"/>
		<path class="st1" d="M-96.1,49.5c0,0.2,0,0.3,0,0.5c0,0.2,0.1,0.4,0.1,0.6c0,0.2,0.1,0.3,0.1,0.5c0.1,0.2,0.2,0.4,0.2,0.6
			c0.1,0.1,0.1,0.3,0.2,0.4c0.1,0.2,0.2,0.4,0.4,0.6c0.1,0.1,0.1,0.3,0.2,0.4c0.1,0.2,0.3,0.4,0.5,0.6c0.1,0.1,0.2,0.2,0.3,0.3
			c0.2,0.2,0.4,0.4,0.7,0.6c0.1,0.1,0.2,0.2,0.3,0.3c0.3,0.2,0.5,0.4,0.8,0.7c0.1,0.1,0.2,0.1,0.3,0.2c0.4,0.3,0.8,0.6,1.3,0.8
			c0.4,0.3,0.9,0.5,1.4,0.7c0.1,0.1,0.3,0.1,0.5,0.2c0.3,0.1,0.6,0.3,1,0.4c0.6,0.3,1.3,0.5,2,0.7c0.2,0.1,0.4,0.1,0.7,0.2
			c0.4,0.1,0.8,0.2,1.2,0.3c0.3,0.1,0.5,0.1,0.8,0.2c0.3,0.1,0.7,0.1,1,0.2c0.3,0,0.6,0.1,0.8,0.1c0.3,0,0.6,0.1,0.9,0.1
			c0.3,0,0.6,0.1,0.9,0.1c0.3,0,0.6,0,1,0.1c0.3,0,0.6,0,0.8,0c0.3,0,0.7,0,1,0c0.3,0,0.5,0,0.8,0c0.4,0,0.8,0,1.3-0.1
			c0.2,0,0.4,0,0.7-0.1c0.7-0.1,1.4-0.2,2.1-0.3c0.2,0,0.4-0.1,0.7-0.1c0.4-0.1,0.7-0.1,1.1-0.2c0.3-0.1,0.5-0.1,0.7-0.2
			c0.3-0.1,0.6-0.2,0.9-0.3c0.2-0.1,0.4-0.1,0.6-0.2c0.5-0.2,1-0.4,1.5-0.6c0.2-0.1,0.4-0.1,0.5-0.2c0.6-0.3,1.2-0.6,1.8-0.9
			c0.5-0.3,0.9-0.5,1.3-0.8c0,0,0.1-0.1,0.1-0.1c0.4-0.3,0.7-0.5,1-0.8c0,0,0.1-0.1,0.1-0.1c0.3-0.3,0.6-0.5,0.8-0.8
			c0.1-0.1,0.2-0.2,0.3-0.3c0.2-0.2,0.3-0.4,0.5-0.6c0.1-0.1,0.2-0.3,0.3-0.4c0.1-0.2,0.2-0.4,0.3-0.6c0.1-0.1,0.1-0.3,0.2-0.4
			c0.1-0.2,0.2-0.4,0.2-0.6c0-0.1,0.1-0.3,0.1-0.4c0.1-0.2,0.1-0.4,0.1-0.6c0,0,0,0,0,0c0.5-3.1-1.3-6.3-5.4-8.7
			c-2.7-1.6-6.1-2.6-9.7-3c-2.2-0.2-4.4-0.3-6.6,0c-0.2,0-0.4,0-0.6,0c0,0-0.1,0-0.1,0c-3.5,0.4-6.8,1.4-9.5,3
			c-1.5,0.9-2.7,1.9-3.6,3c-1.2,1.5-1.8,3-1.8,4.6C-96.1,49.1-96.1,49.3-96.1,49.5z M-85.8,50.3c0-0.4,0.1-0.8,0.4-1.2
			c0.2-0.3,0.6-0.6,1.1-1l2.4,1.4c-0.5,0.3-0.7,0.6-0.7,1c0,0.3,0.3,0.6,0.7,0.9l0.1,0.1c0.5,0.3,1,0.4,1.6,0.4
			c0.6,0,1.2-0.1,1.6-0.4c0.5-0.3,0.8-0.7,0.7-1.1c0-0.3-0.2-0.6-0.6-1.1c-0.1-0.1-0.2-0.2-0.3-0.3c-0.2-0.2-0.3-0.3-0.3-0.4
			c-0.3-0.4-0.5-0.6-0.6-0.9c-0.2-0.5-0.2-0.9,0.1-1.4c0.2-0.5,0.7-0.9,1.3-1.2c0.6-0.4,1.4-0.6,2.3-0.7c0.9-0.1,1.8-0.1,2.6,0
			c0.4,0.1,0.8,0.2,1.2,0.3l0,0l2.2-1.3l0.9,0.5l1.1,0.6l-2.1,1.2c0.2,0.2,0.4,0.4,0.5,0.7c0.3,0.5,0.3,1,0.1,1.5
			c-0.2,0.5-0.7,1-1.3,1.4l-2.4-1.4c0.4-0.3,0.5-0.5,0.5-0.8c0-0.3-0.2-0.5-0.6-0.7l0,0c-0.4-0.2-0.8-0.3-1.3-0.3
			c-0.5,0-0.9,0.1-1.3,0.3c-0.4,0.2-0.6,0.5-0.6,0.7c0,0.2,0.2,0.5,0.4,0.9c0.1,0.1,0.1,0.2,0.2,0.2l0.4,0.4c0.6,0.7,0.9,1.2,1,1.7
			c0.2,0.9-0.3,1.7-1.5,2.4c-0.7,0.4-1.6,0.7-2.6,0.9c-1,0.1-2,0.1-2.9,0c-0.5-0.1-1-0.2-1.4-0.3l-2.1,1.2l-1.1-0.6l-0.9-0.5
			l2.1-1.2C-85.5,51.6-85.8,51-85.8,50.3z"/>
		<path class="st2" d="M-86,53.9l1.1,0.6l2.1-1.2c0.4,0.1,0.9,0.3,1.4,0.3c1,0.2,2,0.2,2.9,0c1-0.2,1.8-0.4,2.6-0.9
			c1.2-0.7,1.6-1.5,1.5-2.4c-0.1-0.5-0.4-1-1-1.7l-0.4-0.4c-0.1-0.1-0.1-0.2-0.2-0.2c-0.3-0.4-0.4-0.6-0.4-0.9
			c0-0.3,0.2-0.5,0.6-0.7c0.4-0.2,0.8-0.3,1.3-0.3c0.5,0,0.9,0.1,1.3,0.3l0,0c0.4,0.2,0.6,0.5,0.6,0.7c0,0.3-0.2,0.5-0.5,0.8
			l2.4,1.4c0.7-0.4,1.1-0.9,1.3-1.4c0.2-0.5,0.2-1-0.1-1.5c-0.1-0.2-0.3-0.5-0.5-0.7l2.1-1.2l-1.1-0.6l-0.9-0.5l-2.2,1.3l0,0
			c-0.4-0.1-0.8-0.2-1.2-0.3c-0.9-0.1-1.8-0.2-2.6,0c-0.9,0.1-1.6,0.4-2.3,0.7c-0.6,0.3-1,0.8-1.3,1.2c-0.2,0.5-0.3,1-0.1,1.4
			c0.1,0.2,0.3,0.5,0.6,0.9c0,0,0.2,0.2,0.3,0.4c0.1,0.1,0.2,0.2,0.3,0.3c0.3,0.4,0.5,0.8,0.6,1.1c0.1,0.4-0.2,0.8-0.7,1.1
			c-0.5,0.3-1,0.4-1.6,0.4c-0.6,0-1.2-0.1-1.6-0.4l-0.1-0.1c-0.4-0.3-0.7-0.6-0.7-0.9c0-0.3,0.2-0.7,0.7-1l-2.4-1.4
			c-0.6,0.3-0.9,0.7-1.1,1c-0.3,0.4-0.4,0.8-0.4,1.2c0,0.7,0.3,1.3,0.9,1.8l-2.1,1.2L-86,53.9z"/>
	</g>
	<g>
		<path class="st0" d="M-58.8,44c0,0.1,0,0.2,0,0.4c0,0,0,0,0,0c0,0.1,0,0.3,0,0.4c0,0,0,0,0,0c0,0,0,0.1,0,0.1c0,0,0,0.1,0,0.1
			c0,0.1-0.1,0.2-0.1,0.4c0,0.1-0.1,0.3-0.1,0.4c0,0,0,0.1-0.1,0.1c0,0,0,0.1,0,0.1c0,0.1-0.1,0.2-0.2,0.3c-0.1,0.1-0.1,0.3-0.2,0.4
			c0,0.1-0.1,0.1-0.1,0.2c0,0,0,0.1-0.1,0.1c-0.1,0.1-0.1,0.2-0.2,0.3c-0.1,0.1-0.2,0.3-0.3,0.4c-0.1,0.1-0.1,0.2-0.2,0.2
			c0,0.1-0.1,0.1-0.1,0.2c0,0.1-0.1,0.1-0.2,0.2c-0.1,0.1-0.2,0.2-0.3,0.3c-0.2,0.2-0.4,0.4-0.5,0.5c-0.1,0.1-0.1,0.1-0.2,0.2
			c0,0-0.1,0.1-0.1,0.1c0,0-0.1,0.1-0.1,0.1c-0.2,0.1-0.3,0.3-0.5,0.4c-0.2,0.1-0.3,0.3-0.5,0.4c0,0-0.1,0.1-0.1,0.1
			c-0.2,0.1-0.4,0.3-0.6,0.4c-0.2,0.1-0.3,0.2-0.5,0.3c-0.1,0-0.2,0.1-0.2,0.1c-0.6,0.3-1.2,0.6-1.8,0.9c-0.2,0.1-0.4,0.2-0.5,0.2
			c-0.5,0.2-1,0.4-1.5,0.6c-0.1,0-0.2,0.1-0.3,0.1c-0.1,0-0.1,0-0.2,0.1c-0.3,0.1-0.6,0.2-0.9,0.3c-0.2,0.1-0.5,0.1-0.7,0.2
			c-0.3,0.1-0.7,0.2-1.1,0.2c-0.2,0-0.4,0.1-0.6,0.1c0,0-0.1,0-0.1,0c-0.7,0.1-1.4,0.2-2.1,0.3c-0.1,0-0.1,0-0.2,0
			c-0.2,0-0.3,0-0.5,0c-0.4,0-0.8,0.1-1.3,0.1c-0.1,0-0.2,0-0.3,0c-0.2,0-0.3,0-0.5,0c-0.3,0-0.7,0-1,0c-0.1,0-0.2,0-0.4,0
			c-0.2,0-0.3,0-0.5,0c-0.3,0-0.6,0-1-0.1c-0.1,0-0.3,0-0.4,0c-0.1,0-0.3,0-0.4-0.1c-0.3,0-0.6-0.1-0.9-0.1c-0.1,0-0.3,0-0.4,0
			c-0.1,0-0.3,0-0.4-0.1c-0.3-0.1-0.7-0.1-1-0.2c-0.2,0-0.3,0-0.5-0.1c-0.1,0-0.2-0.1-0.3-0.1c-0.4-0.1-0.8-0.2-1.2-0.3
			c-0.2,0-0.3-0.1-0.5-0.1c-0.1,0-0.1,0-0.2-0.1c-0.7-0.2-1.4-0.4-2-0.7c0,0-0.1,0-0.1,0c-0.3-0.1-0.6-0.2-0.9-0.4
			c-0.2-0.1-0.3-0.1-0.5-0.2c-0.5-0.2-0.9-0.5-1.4-0.7c-0.5-0.3-0.9-0.5-1.3-0.8c-0.1-0.1-0.2-0.1-0.3-0.2c-0.3-0.2-0.6-0.4-0.8-0.7
			c-0.1-0.1-0.2-0.2-0.3-0.3c-0.2-0.2-0.5-0.4-0.7-0.6c-0.1-0.1-0.2-0.2-0.3-0.3c-0.2-0.2-0.4-0.4-0.5-0.6c-0.1-0.1-0.2-0.3-0.2-0.4
			c-0.1-0.2-0.3-0.4-0.4-0.6c-0.1-0.1-0.1-0.3-0.2-0.4c-0.1-0.2-0.2-0.4-0.2-0.6c0-0.1-0.1-0.3-0.1-0.5c-0.1-0.2-0.1-0.4-0.1-0.6
			c0-0.2,0-0.3,0-0.5c0-0.2,0-0.4,0-0.6c0,0,0,0,0,0l0,3.8c0,2.8,1.8,5.6,5.5,7.7c0.4,0.3,0.9,0.5,1.4,0.7c0.2,0.1,0.3,0.1,0.5,0.2
			c0.3,0.1,0.5,0.2,0.8,0.3c0,0,0.1,0,0.1,0c0.6,0.3,1.3,0.5,2,0.7c0.1,0,0.1,0,0.2,0c0.2,0,0.3,0.1,0.5,0.1
			c0.4,0.1,0.8,0.2,1.2,0.3c0.1,0,0.2,0,0.3,0.1c0.2,0,0.3,0.1,0.5,0.1c0.3,0.1,0.7,0.1,1,0.2c0.1,0,0.3,0,0.4,0.1
			c0.1,0,0.3,0,0.4,0.1c0.3,0,0.6,0.1,0.9,0.1c0.1,0,0.3,0,0.4,0c0.1,0,0.3,0,0.4,0c0.3,0,0.6,0,0.9,0.1c0.2,0,0.3,0,0.5,0
			c0.1,0,0.3,0,0.4,0c0.3,0,0.7,0,1,0c0.2,0,0.3,0,0.5,0c0.1,0,0.2,0,0.3,0c0.4,0,0.9,0,1.3-0.1c0.2,0,0.3,0,0.5,0c0,0,0.1,0,0.2,0
			c0.7-0.1,1.4-0.2,2.1-0.3c0,0,0.1,0,0.1,0c0.2,0,0.4-0.1,0.6-0.1c0.3-0.1,0.7-0.1,1-0.2c0.2-0.1,0.5-0.1,0.7-0.2
			c0.3-0.1,0.7-0.2,1-0.3c0.1,0,0.1,0,0.2-0.1c0.1,0,0.2-0.1,0.3-0.1c0.5-0.2,1-0.4,1.5-0.6c0.2-0.1,0.4-0.1,0.5-0.2
			c0.6-0.3,1.2-0.6,1.8-0.9c0.1,0,0.1-0.1,0.2-0.1c0.2-0.1,0.3-0.2,0.5-0.3c0.2-0.1,0.5-0.3,0.7-0.4c0.2-0.1,0.4-0.3,0.5-0.4
			c0.2-0.2,0.4-0.3,0.6-0.5c0,0,0.1-0.1,0.1-0.1c0.1-0.1,0.1-0.1,0.2-0.2c0.3-0.3,0.5-0.6,0.8-0.8c0.1-0.1,0.1-0.1,0.2-0.2
			c0-0.1,0.1-0.1,0.1-0.2c0.2-0.2,0.3-0.4,0.4-0.6c0.1-0.1,0.1-0.2,0.2-0.3c0,0,0-0.1,0.1-0.1c0.1-0.2,0.2-0.4,0.3-0.6
			c0.1-0.1,0.1-0.3,0.2-0.4c0,0,0-0.1,0-0.1c0.1-0.2,0.1-0.4,0.2-0.5c0-0.2,0.1-0.3,0.1-0.5c0,0,0,0,0,0c0-0.2,0-0.4,0.1-0.6
			c0-0.2,0-0.4,0-0.6c0,0,0,0,0,0l0-3.8C-58.8,43.9-58.8,44-58.8,44z"/>
		<path class="st1" d="M-96.1,44.4c0,0.2,0,0.3,0,0.5c0,0.2,0.1,0.4,0.1,0.6c0,0.2,0.1,0.3,0.1,0.5c0.1,0.2,0.2,0.4,0.2,0.6
			c0.1,0.1,0.1,0.3,0.2,0.4c0.1,0.2,0.2,0.4,0.4,0.6c0.1,0.1,0.1,0.3,0.2,0.4c0.1,0.2,0.3,0.4,0.5,0.6c0.1,0.1,0.2,0.2,0.3,0.3
			c0.2,0.2,0.4,0.4,0.7,0.6c0.1,0.1,0.2,0.2,0.3,0.3c0.3,0.2,0.5,0.4,0.8,0.7c0.1,0.1,0.2,0.1,0.3,0.2c0.4,0.3,0.8,0.6,1.3,0.8
			c0.4,0.3,0.9,0.5,1.4,0.7c0.1,0.1,0.3,0.1,0.5,0.2c0.3,0.1,0.6,0.3,1,0.4c0.6,0.3,1.3,0.5,2,0.7c0.2,0.1,0.4,0.1,0.7,0.2
			c0.4,0.1,0.8,0.2,1.2,0.3c0.3,0.1,0.5,0.1,0.8,0.2c0.3,0.1,0.7,0.1,1,0.2c0.3,0,0.6,0.1,0.8,0.1c0.3,0,0.6,0.1,0.9,0.1
			c0.3,0,0.6,0.1,0.9,0.1c0.3,0,0.6,0,1,0.1c0.3,0,0.6,0,0.8,0c0.3,0,0.7,0,1,0c0.3,0,0.5,0,0.8,0c0.4,0,0.8,0,1.3-0.1
			c0.2,0,0.4,0,0.7-0.1c0.7-0.1,1.4-0.2,2.1-0.3c0.2,0,0.4-0.1,0.7-0.1c0.4-0.1,0.7-0.1,1.1-0.2c0.3-0.1,0.5-0.1,0.7-0.2
			c0.3-0.1,0.6-0.2,0.9-0.3c0.2-0.1,0.4-0.1,0.6-0.2c0.5-0.2,1-0.4,1.5-0.6c0.2-0.1,0.4-0.2,0.5-0.2c0.6-0.3,1.2-0.6,1.8-0.9
			c0.5-0.3,0.9-0.5,1.3-0.8c0,0,0.1-0.1,0.1-0.1c0.4-0.3,0.7-0.5,1-0.8c0,0,0.1-0.1,0.1-0.1c0.3-0.3,0.6-0.5,0.8-0.8
			c0.1-0.1,0.2-0.2,0.3-0.3c0.2-0.2,0.3-0.4,0.5-0.6c0.1-0.1,0.2-0.3,0.3-0.4c0.1-0.2,0.2-0.4,0.3-0.6c0.1-0.1,0.1-0.3,0.2-0.4
			c0.1-0.2,0.2-0.4,0.2-0.6c0-0.1,0.1-0.3,0.1-0.4c0.1-0.2,0.1-0.4,0.1-0.6c0,0,0,0,0,0c0.5-3.1-1.3-6.3-5.4-8.7
			c-2.7-1.6-6.1-2.6-9.7-3c-2.2-0.2-4.4-0.3-6.6,0c-0.2,0-0.4,0-0.6,0c0,0-0.1,0-0.1,0c-3.5,0.4-6.8,1.4-9.5,3
			c-1.5,0.9-2.7,1.9-3.6,3c-1.2,1.5-1.8,3-1.8,4.6C-96.1,44-96.1,44.2-96.1,44.4z M-85.8,45.2c0-0.4,0.1-0.8,0.4-1.2
			c0.2-0.3,0.6-0.6,1.1-1l2.4,1.4c-0.5,0.3-0.7,0.6-0.7,1c0,0.3,0.3,0.6,0.7,0.9l0.1,0.1c0.5,0.3,1,0.4,1.6,0.4
			c0.6,0,1.2-0.1,1.6-0.4c0.5-0.3,0.8-0.7,0.7-1.1c0-0.3-0.2-0.6-0.6-1.1c-0.1-0.1-0.2-0.2-0.3-0.3c-0.2-0.2-0.3-0.3-0.3-0.4
			c-0.3-0.4-0.5-0.6-0.6-0.9c-0.2-0.5-0.2-0.9,0.1-1.4c0.2-0.5,0.7-0.9,1.3-1.2c0.6-0.4,1.4-0.6,2.3-0.7c0.9-0.1,1.8-0.1,2.6,0
			c0.4,0.1,0.8,0.2,1.2,0.3l0,0l2.2-1.3l0.9,0.5l1.1,0.6l-2.1,1.2c0.2,0.2,0.4,0.4,0.5,0.7c0.3,0.5,0.3,1,0.1,1.5
			c-0.2,0.5-0.7,1-1.3,1.4l-2.4-1.4c0.4-0.3,0.5-0.5,0.5-0.8c0-0.3-0.2-0.5-0.6-0.7l0,0c-0.4-0.2-0.8-0.3-1.3-0.3
			c-0.5,0-0.9,0.1-1.3,0.4c-0.4,0.2-0.6,0.5-0.6,0.7c0,0.2,0.2,0.5,0.4,0.9c0.1,0.1,0.1,0.2,0.2,0.2l0.4,0.4c0.6,0.7,0.9,1.2,1,1.7
			c0.2,0.9-0.3,1.7-1.5,2.4c-0.7,0.4-1.6,0.7-2.6,0.9c-1,0.1-2,0.1-2.9,0c-0.5-0.1-1-0.2-1.4-0.3l-2.1,1.2l-1.1-0.6l-0.9-0.5
			l2.1-1.2C-85.5,46.5-85.8,45.9-85.8,45.2z"/>
		<path class="st2" d="M-86,48.8l1.1,0.6l2.1-1.2c0.4,0.1,0.9,0.3,1.4,0.3c1,0.2,2,0.2,2.9,0c1-0.2,1.8-0.4,2.6-0.9
			c1.2-0.7,1.6-1.5,1.5-2.4c-0.1-0.5-0.4-1-1-1.7l-0.4-0.4c-0.1-0.1-0.1-0.2-0.2-0.2c-0.3-0.4-0.4-0.6-0.4-0.9
			c0-0.3,0.2-0.5,0.6-0.7c0.4-0.2,0.8-0.3,1.3-0.4c0.5,0,0.9,0.1,1.3,0.3l0,0c0.4,0.2,0.6,0.5,0.6,0.7c0,0.3-0.2,0.5-0.5,0.8
			l2.4,1.4c0.7-0.4,1.1-0.9,1.3-1.4c0.2-0.5,0.2-1-0.1-1.5c-0.1-0.2-0.3-0.5-0.5-0.7l2.1-1.2l-1.1-0.6l-0.9-0.5l-2.2,1.3l0,0
			c-0.4-0.1-0.8-0.2-1.2-0.3c-0.9-0.1-1.8-0.2-2.6,0c-0.9,0.1-1.6,0.4-2.3,0.7c-0.6,0.3-1,0.8-1.3,1.2c-0.2,0.5-0.3,1-0.1,1.4
			c0.1,0.2,0.3,0.5,0.6,0.9c0,0,0.2,0.2,0.3,0.4c0.1,0.1,0.2,0.2,0.3,0.3c0.3,0.4,0.5,0.8,0.6,1.1c0.1,0.4-0.2,0.8-0.7,1.1
			c-0.5,0.3-1,0.4-1.6,0.4c-0.6,0-1.2-0.1-1.6-0.4l-0.1-0.1c-0.4-0.3-0.7-0.6-0.7-0.9c0-0.3,0.2-0.7,0.7-1l-2.4-1.4
			c-0.6,0.3-0.9,0.7-1.1,1c-0.3,0.4-0.4,0.8-0.4,1.2c0,0.7,0.3,1.3,0.9,1.9l-2.1,1.2L-86,48.8z"/>
	</g>
	<g>
		<path class="st0" d="M-58.8,38.9c0,0.1,0,0.2,0,0.4c0,0,0,0,0,0c0,0.1,0,0.3,0,0.4c0,0,0,0,0,0c0,0,0,0.1,0,0.1c0,0,0,0.1,0,0.1
			c0,0.1-0.1,0.2-0.1,0.4c0,0.1-0.1,0.3-0.1,0.4c0,0,0,0.1-0.1,0.1c0,0,0,0.1,0,0.1c0,0.1-0.1,0.2-0.2,0.3c-0.1,0.1-0.1,0.3-0.2,0.4
			c0,0.1-0.1,0.1-0.1,0.2c0,0,0,0.1-0.1,0.1c-0.1,0.1-0.1,0.2-0.2,0.3c-0.1,0.1-0.2,0.3-0.3,0.4c-0.1,0.1-0.1,0.2-0.2,0.2
			c0,0.1-0.1,0.1-0.1,0.2c0,0.1-0.1,0.1-0.2,0.2c-0.1,0.1-0.2,0.2-0.3,0.3c-0.2,0.2-0.4,0.4-0.5,0.5c-0.1,0.1-0.1,0.1-0.2,0.2
			c0,0-0.1,0.1-0.1,0.1c0,0-0.1,0.1-0.1,0.1c-0.2,0.1-0.3,0.3-0.5,0.4c-0.2,0.1-0.3,0.3-0.5,0.4c0,0-0.1,0.1-0.1,0.1
			c-0.2,0.1-0.4,0.3-0.6,0.4c-0.2,0.1-0.3,0.2-0.5,0.3c-0.1,0-0.2,0.1-0.2,0.1c-0.6,0.3-1.2,0.6-1.8,0.9c-0.2,0.1-0.4,0.2-0.5,0.2
			c-0.5,0.2-1,0.4-1.5,0.6c-0.1,0-0.2,0.1-0.3,0.1c-0.1,0-0.1,0-0.2,0.1c-0.3,0.1-0.6,0.2-0.9,0.3c-0.2,0.1-0.5,0.1-0.7,0.2
			c-0.3,0.1-0.7,0.2-1.1,0.2c-0.2,0-0.4,0.1-0.6,0.1c0,0-0.1,0-0.1,0c-0.7,0.1-1.4,0.2-2.1,0.3c-0.1,0-0.1,0-0.2,0
			c-0.2,0-0.3,0-0.5,0c-0.4,0-0.8,0.1-1.3,0.1c-0.1,0-0.2,0-0.3,0c-0.2,0-0.3,0-0.5,0c-0.3,0-0.7,0-1,0c-0.1,0-0.2,0-0.4,0
			c-0.2,0-0.3,0-0.5,0c-0.3,0-0.6,0-1-0.1c-0.1,0-0.3,0-0.4,0c-0.1,0-0.3,0-0.4-0.1c-0.3,0-0.6-0.1-0.9-0.1c-0.1,0-0.3,0-0.4,0
			c-0.1,0-0.3,0-0.4-0.1c-0.3-0.1-0.7-0.1-1-0.2c-0.2,0-0.3,0-0.5-0.1c-0.1,0-0.2-0.1-0.3-0.1c-0.4-0.1-0.8-0.2-1.2-0.3
			c-0.2,0-0.3-0.1-0.5-0.1c-0.1,0-0.1,0-0.2-0.1c-0.7-0.2-1.4-0.4-2-0.7c0,0-0.1,0-0.1,0c-0.3-0.1-0.6-0.2-0.9-0.4
			c-0.2-0.1-0.3-0.1-0.5-0.2c-0.5-0.2-0.9-0.5-1.4-0.7c-0.5-0.3-0.9-0.5-1.3-0.8c-0.1-0.1-0.2-0.1-0.3-0.2c-0.3-0.2-0.6-0.4-0.8-0.7
			c-0.1-0.1-0.2-0.2-0.3-0.3c-0.2-0.2-0.5-0.4-0.7-0.6c-0.1-0.1-0.2-0.2-0.3-0.3c-0.2-0.2-0.4-0.4-0.5-0.6c-0.1-0.1-0.2-0.3-0.2-0.4
			c-0.1-0.2-0.3-0.4-0.4-0.6c-0.1-0.1-0.1-0.3-0.2-0.4c-0.1-0.2-0.2-0.4-0.2-0.6c0-0.1-0.1-0.3-0.1-0.5c-0.1-0.2-0.1-0.4-0.1-0.6
			c0-0.2,0-0.3,0-0.5c0-0.2,0-0.4,0-0.6c0,0,0,0,0,0l0,3.8c0,2.8,1.8,5.6,5.5,7.7c0.4,0.3,0.9,0.5,1.4,0.7c0.2,0.1,0.3,0.1,0.5,0.2
			c0.3,0.1,0.5,0.2,0.8,0.3c0,0,0.1,0,0.1,0c0.6,0.3,1.3,0.5,2,0.7c0.1,0,0.1,0,0.2,0c0.2,0,0.3,0.1,0.5,0.1
			c0.4,0.1,0.8,0.2,1.2,0.3c0.1,0,0.2,0,0.3,0.1c0.2,0,0.3,0.1,0.5,0.1c0.3,0.1,0.7,0.1,1,0.2c0.1,0,0.3,0,0.4,0.1
			c0.1,0,0.3,0,0.4,0.1c0.3,0,0.6,0.1,0.9,0.1c0.1,0,0.3,0,0.4,0c0.1,0,0.3,0,0.4,0c0.3,0,0.6,0,0.9,0.1c0.2,0,0.3,0,0.5,0
			c0.1,0,0.3,0,0.4,0c0.3,0,0.7,0,1,0c0.2,0,0.3,0,0.5,0c0.1,0,0.2,0,0.3,0c0.4,0,0.9-0.1,1.3-0.1c0.2,0,0.3,0,0.5,0
			c0,0,0.1,0,0.2,0c0.7-0.1,1.4-0.2,2.1-0.3c0,0,0.1,0,0.1,0c0.2,0,0.4-0.1,0.6-0.1c0.3-0.1,0.7-0.1,1-0.2c0.2-0.1,0.5-0.1,0.7-0.2
			c0.3-0.1,0.7-0.2,1-0.3c0.1,0,0.1,0,0.2-0.1c0.1,0,0.2-0.1,0.3-0.1c0.5-0.2,1-0.4,1.5-0.6c0.2-0.1,0.4-0.1,0.5-0.2
			c0.6-0.3,1.2-0.6,1.8-0.9c0.1,0,0.1-0.1,0.2-0.1c0.2-0.1,0.3-0.2,0.5-0.3c0.2-0.1,0.5-0.3,0.7-0.4c0.2-0.1,0.4-0.3,0.5-0.4
			c0.2-0.2,0.4-0.3,0.6-0.5c0,0,0.1-0.1,0.1-0.1c0.1-0.1,0.1-0.1,0.2-0.2c0.3-0.3,0.5-0.6,0.8-0.8c0.1-0.1,0.1-0.1,0.2-0.2
			c0-0.1,0.1-0.1,0.1-0.2c0.2-0.2,0.3-0.4,0.4-0.6c0.1-0.1,0.1-0.2,0.2-0.3c0,0,0-0.1,0.1-0.1c0.1-0.2,0.2-0.4,0.3-0.6
			c0.1-0.1,0.1-0.3,0.2-0.4c0,0,0-0.1,0-0.1c0.1-0.2,0.1-0.4,0.2-0.5c0-0.2,0.1-0.3,0.1-0.5c0,0,0,0,0,0c0-0.2,0-0.4,0.1-0.6
			c0-0.2,0-0.4,0-0.6c0,0,0,0,0,0l0-3.8C-58.8,38.7-58.8,38.8-58.8,38.9z"/>
		<path class="st1" d="M-96.1,39.2c0,0.2,0,0.3,0,0.5c0,0.2,0.1,0.4,0.1,0.6c0,0.2,0.1,0.3,0.1,0.5c0.1,0.2,0.2,0.4,0.2,0.6
			c0.1,0.1,0.1,0.3,0.2,0.4c0.1,0.2,0.2,0.4,0.4,0.6c0.1,0.1,0.1,0.3,0.2,0.4c0.1,0.2,0.3,0.4,0.5,0.6c0.1,0.1,0.2,0.2,0.3,0.3
			c0.2,0.2,0.4,0.4,0.7,0.6c0.1,0.1,0.2,0.2,0.3,0.3c0.3,0.2,0.5,0.4,0.8,0.7c0.1,0.1,0.2,0.1,0.3,0.2c0.4,0.3,0.8,0.6,1.3,0.8
			c0.4,0.3,0.9,0.5,1.4,0.7c0.1,0.1,0.3,0.1,0.5,0.2c0.3,0.1,0.6,0.3,1,0.4c0.6,0.3,1.3,0.5,2,0.7c0.2,0.1,0.4,0.1,0.7,0.2
			c0.4,0.1,0.8,0.2,1.2,0.3c0.3,0.1,0.5,0.1,0.8,0.2c0.3,0.1,0.7,0.1,1,0.2c0.3,0,0.6,0.1,0.8,0.1c0.3,0,0.6,0.1,0.9,0.1
			c0.3,0,0.6,0.1,0.9,0.1c0.3,0,0.6,0,1,0.1c0.3,0,0.6,0,0.8,0c0.3,0,0.7,0,1,0c0.3,0,0.5,0,0.8,0c0.4,0,0.8,0,1.3-0.1
			c0.2,0,0.4,0,0.7-0.1c0.7-0.1,1.4-0.2,2.1-0.3c0.2,0,0.4-0.1,0.7-0.1c0.4-0.1,0.7-0.1,1.1-0.2c0.3-0.1,0.5-0.1,0.7-0.2
			c0.3-0.1,0.6-0.2,0.9-0.3c0.2-0.1,0.4-0.1,0.6-0.2c0.5-0.2,1-0.4,1.5-0.6c0.2-0.1,0.4-0.1,0.5-0.2c0.6-0.3,1.2-0.6,1.8-0.9
			c0.5-0.3,0.9-0.5,1.3-0.8c0,0,0.1-0.1,0.1-0.1c0.4-0.3,0.7-0.5,1-0.8c0,0,0.1-0.1,0.1-0.1c0.3-0.3,0.6-0.5,0.8-0.8
			c0.1-0.1,0.2-0.2,0.3-0.3c0.2-0.2,0.3-0.4,0.5-0.6c0.1-0.1,0.2-0.3,0.3-0.4c0.1-0.2,0.2-0.4,0.3-0.6c0.1-0.1,0.1-0.3,0.2-0.4
			c0.1-0.2,0.2-0.4,0.2-0.6c0-0.1,0.1-0.3,0.1-0.4c0.1-0.2,0.1-0.4,0.1-0.6c0,0,0,0,0,0c0.5-3.1-1.3-6.3-5.4-8.7
			c-2.7-1.6-6.1-2.6-9.7-3c-2.2-0.2-4.4-0.3-6.6,0c-0.2,0-0.4,0-0.6,0c0,0-0.1,0-0.1,0c-3.5,0.4-6.8,1.4-9.5,3
			c-1.5,0.9-2.7,1.9-3.6,3c-1.2,1.5-1.8,3-1.8,4.6C-96.1,38.8-96.1,39-96.1,39.2z M-85.8,40c0-0.4,0.1-0.8,0.4-1.2
			c0.2-0.3,0.6-0.6,1.1-1l2.4,1.4c-0.5,0.3-0.7,0.6-0.7,1c0,0.3,0.3,0.6,0.7,0.9l0.1,0.1c0.5,0.3,1,0.4,1.6,0.4
			c0.6,0,1.2-0.1,1.6-0.4c0.5-0.3,0.8-0.7,0.7-1.1c0-0.3-0.2-0.6-0.6-1c-0.1-0.1-0.2-0.2-0.3-0.3c-0.2-0.2-0.3-0.3-0.3-0.4
			c-0.3-0.4-0.5-0.6-0.6-0.9c-0.2-0.5-0.2-0.9,0.1-1.4c0.2-0.5,0.7-0.9,1.3-1.2c0.6-0.4,1.4-0.6,2.3-0.7c0.9-0.1,1.8-0.1,2.6,0
			c0.4,0.1,0.8,0.2,1.2,0.3l0,0l2.2-1.3l0.9,0.5l1.1,0.6l-2.1,1.2c0.2,0.2,0.4,0.4,0.5,0.7c0.3,0.5,0.3,1,0.1,1.5
			c-0.2,0.5-0.7,1-1.3,1.4l-2.4-1.4c0.4-0.3,0.5-0.5,0.5-0.8c0-0.3-0.2-0.5-0.6-0.7l0,0c-0.4-0.2-0.8-0.3-1.3-0.3
			c-0.5,0-0.9,0.1-1.3,0.4c-0.4,0.2-0.6,0.5-0.6,0.7c0,0.2,0.2,0.5,0.4,0.9c0.1,0.1,0.1,0.2,0.2,0.2l0.4,0.4c0.6,0.7,0.9,1.2,1,1.7
			c0.2,0.9-0.3,1.7-1.5,2.4c-0.7,0.4-1.6,0.7-2.6,0.9c-1,0.1-2,0.1-2.9,0c-0.5-0.1-1-0.2-1.4-0.3l-2.1,1.2l-1.1-0.6l-0.9-0.5
			l2.1-1.2C-85.5,41.3-85.8,40.7-85.8,40z"/>
		<path class="st2" d="M-86,43.6l1.1,0.6l2.1-1.2c0.4,0.1,0.9,0.3,1.4,0.3c1,0.2,2,0.2,2.9,0c1-0.2,1.8-0.4,2.6-0.9
			c1.2-0.7,1.6-1.5,1.5-2.4c-0.1-0.5-0.4-1-1-1.7l-0.4-0.4c-0.1-0.1-0.1-0.2-0.2-0.2c-0.3-0.3-0.4-0.6-0.4-0.9
			c0-0.3,0.2-0.5,0.6-0.7c0.4-0.2,0.8-0.3,1.3-0.4c0.5,0,0.9,0.1,1.3,0.3l0,0c0.4,0.2,0.6,0.5,0.6,0.7c0,0.3-0.2,0.6-0.5,0.8
			l2.4,1.4c0.7-0.4,1.1-0.9,1.3-1.4c0.2-0.5,0.2-1-0.1-1.5c-0.1-0.2-0.3-0.5-0.5-0.7l2.1-1.2l-1.1-0.6l-0.9-0.5l-2.2,1.3l0,0
			c-0.4-0.1-0.8-0.2-1.2-0.3c-0.9-0.1-1.8-0.2-2.6,0c-0.9,0.1-1.6,0.4-2.3,0.7c-0.6,0.3-1,0.8-1.3,1.2c-0.2,0.5-0.3,1-0.1,1.4
			c0.1,0.2,0.3,0.5,0.6,0.9c0,0,0.2,0.2,0.3,0.4c0.1,0.1,0.2,0.2,0.3,0.3c0.3,0.4,0.5,0.8,0.6,1c0.1,0.4-0.2,0.8-0.7,1.1
			c-0.5,0.3-1,0.4-1.6,0.4c-0.6,0-1.2-0.1-1.6-0.4l-0.1-0.1c-0.4-0.3-0.7-0.6-0.7-0.9c0-0.3,0.2-0.7,0.7-1l-2.4-1.4
			c-0.6,0.3-0.9,0.7-1.1,1c-0.3,0.4-0.4,0.8-0.4,1.2c0,0.7,0.3,1.3,0.9,1.8l-2.1,1.2L-86,43.6z"/>
	</g>
	<g>
		<path class="st0" d="M-58.8,33.9c0,0.1,0,0.2,0,0.4c0,0,0,0,0,0c0,0.1,0,0.3,0,0.4c0,0,0,0,0,0c0,0,0,0.1,0,0.1c0,0,0,0.1,0,0.1
			c0,0.1-0.1,0.2-0.1,0.4c0,0.1-0.1,0.3-0.1,0.4c0,0,0,0.1-0.1,0.1c0,0,0,0.1,0,0.1c0,0.1-0.1,0.2-0.2,0.3c-0.1,0.1-0.1,0.3-0.2,0.4
			c0,0.1-0.1,0.1-0.1,0.2c0,0,0,0.1-0.1,0.1c-0.1,0.1-0.1,0.2-0.2,0.3c-0.1,0.1-0.2,0.3-0.3,0.4c-0.1,0.1-0.1,0.2-0.2,0.2
			c0,0.1-0.1,0.1-0.1,0.2c0,0.1-0.1,0.1-0.2,0.2c-0.1,0.1-0.2,0.2-0.3,0.3c-0.2,0.2-0.4,0.4-0.5,0.5c-0.1,0.1-0.1,0.1-0.2,0.2
			c0,0-0.1,0.1-0.1,0.1c0,0-0.1,0.1-0.1,0.1c-0.2,0.1-0.3,0.3-0.5,0.4c-0.2,0.1-0.3,0.3-0.5,0.4c0,0-0.1,0.1-0.1,0.1
			c-0.2,0.1-0.4,0.3-0.6,0.4c-0.2,0.1-0.3,0.2-0.5,0.3c-0.1,0-0.2,0.1-0.2,0.1c-0.6,0.3-1.2,0.6-1.8,0.9c-0.2,0.1-0.4,0.2-0.5,0.2
			c-0.5,0.2-1,0.4-1.5,0.6c-0.1,0-0.2,0.1-0.3,0.1c-0.1,0-0.1,0-0.2,0.1c-0.3,0.1-0.6,0.2-0.9,0.3c-0.2,0.1-0.5,0.1-0.7,0.2
			c-0.3,0.1-0.7,0.2-1.1,0.2c-0.2,0-0.4,0.1-0.6,0.1c0,0-0.1,0-0.1,0c-0.7,0.1-1.4,0.2-2.1,0.3c-0.1,0-0.1,0-0.2,0
			c-0.2,0-0.3,0-0.5,0c-0.4,0-0.8,0.1-1.3,0.1c-0.1,0-0.2,0-0.3,0c-0.2,0-0.3,0-0.5,0c-0.3,0-0.7,0-1,0c-0.1,0-0.2,0-0.4,0
			c-0.2,0-0.3,0-0.5,0c-0.3,0-0.6,0-1-0.1c-0.1,0-0.3,0-0.4,0c-0.1,0-0.3,0-0.4,0c-0.3,0-0.6-0.1-0.9-0.1c-0.1,0-0.3,0-0.4,0
			c-0.1,0-0.3,0-0.4-0.1c-0.3-0.1-0.7-0.1-1-0.2c-0.2,0-0.3,0-0.5-0.1c-0.1,0-0.2-0.1-0.3-0.1c-0.4-0.1-0.8-0.2-1.2-0.3
			c-0.2,0-0.3-0.1-0.5-0.1c-0.1,0-0.1,0-0.2-0.1c-0.7-0.2-1.4-0.4-2-0.7c0,0-0.1,0-0.1,0c-0.3-0.1-0.6-0.2-0.9-0.4
			c-0.2-0.1-0.3-0.1-0.5-0.2c-0.5-0.2-0.9-0.5-1.4-0.7c-0.5-0.3-0.9-0.5-1.3-0.8c-0.1-0.1-0.2-0.1-0.3-0.2c-0.3-0.2-0.6-0.4-0.8-0.7
			c-0.1-0.1-0.2-0.2-0.3-0.3c-0.2-0.2-0.5-0.4-0.7-0.6c-0.1-0.1-0.2-0.2-0.3-0.3c-0.2-0.2-0.4-0.4-0.5-0.6c-0.1-0.1-0.2-0.3-0.2-0.4
			c-0.1-0.2-0.3-0.4-0.4-0.6c-0.1-0.1-0.1-0.3-0.2-0.4c-0.1-0.2-0.2-0.4-0.2-0.6c0-0.1-0.1-0.3-0.1-0.5c-0.1-0.2-0.1-0.4-0.1-0.6
			c0-0.2,0-0.3,0-0.5c0-0.2,0-0.4,0-0.6c0,0,0,0,0,0l0,3.8c0,2.8,1.8,5.6,5.5,7.7c0.4,0.3,0.9,0.5,1.4,0.7c0.2,0.1,0.3,0.1,0.5,0.2
			c0.3,0.1,0.5,0.2,0.8,0.3c0,0,0.1,0,0.1,0c0.6,0.3,1.3,0.5,2,0.7c0.1,0,0.1,0,0.2,0c0.2,0,0.3,0.1,0.5,0.1
			c0.4,0.1,0.8,0.2,1.2,0.3c0.1,0,0.2,0,0.3,0.1c0.2,0,0.3,0.1,0.5,0.1c0.3,0.1,0.7,0.1,1,0.2c0.1,0,0.3,0,0.4,0.1
			c0.1,0,0.3,0,0.4,0.1c0.3,0,0.6,0.1,0.9,0.1c0.1,0,0.3,0,0.4,0c0.1,0,0.3,0,0.4,0c0.3,0,0.6,0,0.9,0c0.2,0,0.3,0,0.5,0
			c0.1,0,0.3,0,0.4,0c0.3,0,0.7,0,1,0c0.2,0,0.3,0,0.5,0c0.1,0,0.2,0,0.3,0c0.4,0,0.9,0,1.3-0.1c0.2,0,0.3,0,0.5,0c0,0,0.1,0,0.2,0
			c0.7-0.1,1.4-0.2,2.1-0.3c0,0,0.1,0,0.1,0c0.2,0,0.4-0.1,0.6-0.1c0.3-0.1,0.7-0.1,1-0.2c0.2-0.1,0.5-0.1,0.7-0.2
			c0.3-0.1,0.7-0.2,1-0.3c0.1,0,0.1,0,0.2-0.1c0.1,0,0.2-0.1,0.3-0.1c0.5-0.2,1-0.4,1.5-0.6c0.2-0.1,0.4-0.1,0.5-0.2
			c0.6-0.3,1.2-0.6,1.8-0.9c0.1,0,0.1-0.1,0.2-0.1c0.2-0.1,0.3-0.2,0.5-0.3c0.2-0.1,0.5-0.3,0.7-0.4c0.2-0.1,0.4-0.3,0.5-0.4
			c0.2-0.2,0.4-0.3,0.6-0.5c0,0,0.1-0.1,0.1-0.1c0.1-0.1,0.1-0.1,0.2-0.2c0.3-0.3,0.5-0.6,0.8-0.8c0.1-0.1,0.1-0.1,0.2-0.2
			c0-0.1,0.1-0.1,0.1-0.2c0.2-0.2,0.3-0.4,0.4-0.6c0.1-0.1,0.1-0.2,0.2-0.3c0,0,0-0.1,0.1-0.1c0.1-0.2,0.2-0.4,0.3-0.6
			c0.1-0.1,0.1-0.3,0.2-0.4c0,0,0-0.1,0-0.1c0.1-0.2,0.1-0.4,0.2-0.5c0-0.2,0.1-0.3,0.1-0.5c0,0,0,0,0,0c0-0.2,0-0.4,0.1-0.6
			c0-0.2,0-0.4,0-0.6c0,0,0,0,0,0l0-3.8C-58.8,33.8-58.8,33.8-58.8,33.9z"/>
		<path class="st1" d="M-96.1,34.2c0,0.2,0,0.3,0,0.5c0,0.2,0.1,0.4,0.1,0.6c0,0.2,0.1,0.3,0.1,0.5c0.1,0.2,0.2,0.4,0.2,0.6
			c0.1,0.1,0.1,0.3,0.2,0.4c0.1,0.2,0.2,0.4,0.4,0.6c0.1,0.1,0.1,0.3,0.2,0.4c0.1,0.2,0.3,0.4,0.5,0.6c0.1,0.1,0.2,0.2,0.3,0.3
			c0.2,0.2,0.4,0.4,0.7,0.6c0.1,0.1,0.2,0.2,0.3,0.3c0.3,0.2,0.5,0.4,0.8,0.7c0.1,0.1,0.2,0.1,0.3,0.2c0.4,0.3,0.8,0.6,1.3,0.8
			c0.4,0.3,0.9,0.5,1.4,0.7c0.1,0.1,0.3,0.1,0.5,0.2c0.3,0.1,0.6,0.3,1,0.4c0.6,0.3,1.3,0.5,2,0.7c0.2,0.1,0.4,0.1,0.7,0.2
			c0.4,0.1,0.8,0.2,1.2,0.3c0.3,0.1,0.5,0.1,0.8,0.2c0.3,0.1,0.7,0.1,1,0.2c0.3,0,0.6,0.1,0.8,0.1c0.3,0,0.6,0.1,0.9,0.1
			c0.3,0,0.6,0.1,0.9,0.1c0.3,0,0.6,0,1,0.1c0.3,0,0.6,0,0.8,0c0.3,0,0.7,0,1,0c0.3,0,0.5,0,0.8,0c0.4,0,0.8,0,1.3-0.1
			c0.2,0,0.4,0,0.7-0.1c0.7-0.1,1.4-0.2,2.1-0.3c0.2,0,0.4-0.1,0.7-0.1c0.4-0.1,0.7-0.1,1.1-0.2c0.3-0.1,0.5-0.1,0.7-0.2
			c0.3-0.1,0.6-0.2,0.9-0.3c0.2-0.1,0.4-0.1,0.6-0.2c0.5-0.2,1-0.4,1.5-0.6c0.2-0.1,0.4-0.2,0.5-0.2c0.6-0.3,1.2-0.6,1.8-0.9
			c0.5-0.3,0.9-0.5,1.3-0.8c0,0,0.1-0.1,0.1-0.1c0.4-0.3,0.7-0.5,1-0.8c0,0,0.1-0.1,0.1-0.1c0.3-0.3,0.6-0.5,0.8-0.8
			c0.1-0.1,0.2-0.2,0.3-0.3c0.2-0.2,0.3-0.4,0.5-0.6c0.1-0.1,0.2-0.3,0.3-0.4c0.1-0.2,0.2-0.4,0.3-0.6c0.1-0.1,0.1-0.3,0.2-0.4
			c0.1-0.2,0.2-0.4,0.2-0.6c0-0.1,0.1-0.3,0.1-0.4c0.1-0.2,0.1-0.4,0.1-0.6c0,0,0,0,0,0c0.5-3.1-1.3-6.3-5.4-8.7
			c-2.7-1.6-6.1-2.6-9.7-3c-2.2-0.2-4.4-0.3-6.6,0c-0.2,0-0.4,0-0.6,0c0,0-0.1,0-0.1,0c-3.5,0.4-6.8,1.4-9.5,3
			c-1.5,0.9-2.7,1.9-3.6,3c-1.2,1.5-1.8,3-1.8,4.6C-96.1,33.8-96.1,34-96.1,34.2z M-85.8,35c0-0.4,0.1-0.8,0.4-1.2
			c0.2-0.3,0.6-0.6,1.1-1l2.4,1.4c-0.5,0.3-0.7,0.6-0.7,1c0,0.3,0.3,0.6,0.7,0.9l0.1,0.1c0.5,0.3,1,0.4,1.6,0.4
			c0.6,0,1.2-0.1,1.6-0.4c0.5-0.3,0.8-0.7,0.7-1.1c0-0.3-0.2-0.6-0.6-1.1c-0.1-0.1-0.2-0.2-0.3-0.3c-0.2-0.2-0.3-0.3-0.3-0.4
			c-0.3-0.4-0.5-0.6-0.6-0.9c-0.2-0.5-0.2-0.9,0.1-1.4c0.2-0.5,0.7-0.9,1.3-1.2c0.6-0.4,1.4-0.6,2.3-0.7c0.9-0.1,1.8-0.1,2.6,0
			c0.4,0.1,0.8,0.2,1.2,0.3l0,0l2.2-1.3l0.9,0.5l1.1,0.6l-2.1,1.2c0.2,0.2,0.4,0.4,0.5,0.7c0.3,0.5,0.3,1,0.1,1.5
			c-0.2,0.5-0.7,1-1.3,1.4l-2.4-1.4c0.4-0.3,0.5-0.5,0.5-0.8c0-0.3-0.2-0.5-0.6-0.7l0,0c-0.4-0.2-0.8-0.3-1.3-0.3
			c-0.5,0-0.9,0.1-1.3,0.4c-0.4,0.2-0.6,0.5-0.6,0.7c0,0.2,0.2,0.5,0.4,0.9c0.1,0.1,0.1,0.2,0.2,0.2l0.4,0.4c0.6,0.7,0.9,1.2,1,1.7
			c0.2,0.9-0.3,1.7-1.5,2.4c-0.7,0.4-1.6,0.7-2.6,0.9c-1,0.1-2,0.1-2.9,0c-0.5-0.1-1-0.2-1.4-0.3l-2.1,1.2l-1.1-0.6l-0.9-0.5
			l2.1-1.2C-85.5,36.3-85.8,35.7-85.8,35z"/>
		<path class="st2" d="M-86,38.7l1.1,0.6l2.1-1.2c0.4,0.1,0.9,0.3,1.4,0.3c1,0.2,2,0.2,2.9,0c1-0.2,1.8-0.4,2.6-0.9
			c1.2-0.7,1.6-1.5,1.5-2.4c-0.1-0.5-0.4-1-1-1.7l-0.4-0.4c-0.1-0.1-0.1-0.2-0.2-0.2c-0.3-0.4-0.4-0.6-0.4-0.9
			c0-0.3,0.2-0.5,0.6-0.7c0.4-0.2,0.8-0.3,1.3-0.4c0.5,0,0.9,0.1,1.3,0.3l0,0c0.4,0.2,0.6,0.5,0.6,0.7c0,0.3-0.2,0.5-0.5,0.8
			l2.4,1.4c0.7-0.4,1.1-0.9,1.3-1.4c0.2-0.5,0.2-1-0.1-1.5c-0.1-0.2-0.3-0.5-0.5-0.7l2.1-1.2l-1.1-0.6l-0.9-0.5l-2.2,1.3l0,0
			c-0.4-0.1-0.8-0.2-1.2-0.3c-0.9-0.1-1.8-0.2-2.6,0c-0.9,0.1-1.6,0.4-2.3,0.7c-0.6,0.3-1,0.8-1.3,1.2c-0.2,0.5-0.3,1-0.1,1.4
			c0.1,0.2,0.3,0.5,0.6,0.9c0,0,0.2,0.2,0.3,0.4c0.1,0.1,0.2,0.2,0.3,0.3c0.3,0.4,0.5,0.8,0.6,1.1c0.1,0.4-0.2,0.8-0.7,1.1
			c-0.5,0.3-1,0.4-1.6,0.4c-0.6,0-1.2-0.1-1.6-0.4l-0.1-0.1c-0.4-0.3-0.7-0.6-0.7-0.9c0-0.3,0.2-0.7,0.7-1l-2.4-1.4
			c-0.6,0.3-0.9,0.7-1.1,1c-0.3,0.4-0.4,0.8-0.4,1.2c0,0.7,0.3,1.3,0.9,1.9l-2.1,1.2L-86,38.7z"/>
	</g>
	<g>
		<path class="st0" d="M-58.8,28.9c0,0.1,0,0.2,0,0.4c0,0,0,0,0,0c0,0.1,0,0.3,0,0.4c0,0,0,0,0,0c0,0,0,0.1,0,0.1c0,0,0,0.1,0,0.1
			c0,0.1-0.1,0.2-0.1,0.4c0,0.1-0.1,0.3-0.1,0.4c0,0,0,0.1-0.1,0.1c0,0,0,0.1,0,0.1c0,0.1-0.1,0.2-0.2,0.3c-0.1,0.1-0.1,0.3-0.2,0.4
			c0,0.1-0.1,0.1-0.1,0.2c0,0,0,0.1-0.1,0.1c-0.1,0.1-0.1,0.2-0.2,0.3c-0.1,0.1-0.2,0.3-0.3,0.4c-0.1,0.1-0.1,0.2-0.2,0.2
			c0,0.1-0.1,0.1-0.1,0.2c0,0.1-0.1,0.1-0.2,0.2c-0.1,0.1-0.2,0.2-0.3,0.3c-0.2,0.2-0.4,0.4-0.5,0.5c-0.1,0.1-0.1,0.1-0.2,0.2
			c0,0-0.1,0.1-0.1,0.1c0,0-0.1,0.1-0.1,0.1c-0.2,0.1-0.3,0.3-0.5,0.4c-0.2,0.1-0.3,0.3-0.5,0.4c0,0-0.1,0.1-0.1,0.1
			c-0.2,0.1-0.4,0.3-0.6,0.4c-0.2,0.1-0.3,0.2-0.5,0.3c-0.1,0-0.2,0.1-0.2,0.1c-0.6,0.3-1.2,0.6-1.8,0.9c-0.2,0.1-0.4,0.2-0.5,0.2
			c-0.5,0.2-1,0.4-1.5,0.6c-0.1,0-0.2,0.1-0.3,0.1c-0.1,0-0.1,0-0.2,0.1c-0.3,0.1-0.6,0.2-0.9,0.3c-0.2,0.1-0.5,0.1-0.7,0.2
			c-0.3,0.1-0.7,0.2-1.1,0.2c-0.2,0-0.4,0.1-0.6,0.1c0,0-0.1,0-0.1,0c-0.7,0.1-1.4,0.2-2.1,0.3c-0.1,0-0.1,0-0.2,0
			c-0.2,0-0.3,0-0.5,0c-0.4,0-0.8,0.1-1.3,0.1c-0.1,0-0.2,0-0.3,0c-0.2,0-0.3,0-0.5,0c-0.3,0-0.7,0-1,0c-0.1,0-0.2,0-0.4,0
			c-0.2,0-0.3,0-0.5,0c-0.3,0-0.6,0-1-0.1c-0.1,0-0.3,0-0.4,0c-0.1,0-0.3,0-0.4-0.1c-0.3,0-0.6-0.1-0.9-0.1c-0.1,0-0.3,0-0.4,0
			c-0.1,0-0.3,0-0.4-0.1c-0.3-0.1-0.7-0.1-1-0.2c-0.2,0-0.3,0-0.5-0.1c-0.1,0-0.2-0.1-0.3-0.1c-0.4-0.1-0.8-0.2-1.2-0.3
			c-0.2,0-0.3-0.1-0.5-0.1c-0.1,0-0.1,0-0.2-0.1c-0.7-0.2-1.4-0.4-2-0.7c0,0-0.1,0-0.1,0c-0.3-0.1-0.6-0.2-0.9-0.4
			c-0.2-0.1-0.3-0.1-0.5-0.2c-0.5-0.2-0.9-0.5-1.4-0.7c-0.5-0.3-0.9-0.5-1.3-0.8c-0.1-0.1-0.2-0.1-0.3-0.2c-0.3-0.2-0.6-0.4-0.8-0.7
			c-0.1-0.1-0.2-0.2-0.3-0.3c-0.2-0.2-0.5-0.4-0.7-0.6c-0.1-0.1-0.2-0.2-0.3-0.3c-0.2-0.2-0.4-0.4-0.5-0.6c-0.1-0.1-0.2-0.3-0.2-0.4
			c-0.1-0.2-0.3-0.4-0.4-0.6c-0.1-0.1-0.1-0.3-0.2-0.4c-0.1-0.2-0.2-0.4-0.2-0.6c0-0.1-0.1-0.3-0.1-0.5c-0.1-0.2-0.1-0.4-0.1-0.6
			c0-0.2,0-0.3,0-0.5c0-0.2,0-0.4,0-0.6c0,0,0,0,0,0l0,3.8c0,2.8,1.8,5.6,5.5,7.7c0.4,0.3,0.9,0.5,1.4,0.7c0.2,0.1,0.3,0.1,0.5,0.2
			c0.3,0.1,0.5,0.2,0.8,0.3c0,0,0.1,0,0.1,0c0.6,0.3,1.3,0.5,2,0.7c0.1,0,0.1,0,0.2,0c0.2,0,0.3,0.1,0.5,0.1
			c0.4,0.1,0.8,0.2,1.2,0.3c0.1,0,0.2,0,0.3,0.1c0.2,0,0.3,0.1,0.5,0.1c0.3,0.1,0.7,0.1,1,0.2c0.1,0,0.3,0,0.4,0.1
			c0.1,0,0.3,0,0.4,0.1c0.3,0,0.6,0.1,0.9,0.1c0.1,0,0.3,0,0.4,0c0.1,0,0.3,0,0.4,0c0.3,0,0.6,0,0.9,0.1c0.2,0,0.3,0,0.5,0
			c0.1,0,0.3,0,0.4,0c0.3,0,0.7,0,1,0c0.2,0,0.3,0,0.5,0c0.1,0,0.2,0,0.3,0c0.4,0,0.9,0,1.3-0.1c0.2,0,0.3,0,0.5,0c0,0,0.1,0,0.2,0
			c0.7-0.1,1.4-0.2,2.1-0.3c0,0,0.1,0,0.1,0c0.2,0,0.4-0.1,0.6-0.1c0.3-0.1,0.7-0.1,1-0.2c0.2-0.1,0.5-0.1,0.7-0.2
			c0.3-0.1,0.7-0.2,1-0.3c0.1,0,0.1,0,0.2-0.1c0.1,0,0.2-0.1,0.3-0.1c0.5-0.2,1-0.4,1.5-0.6c0.2-0.1,0.4-0.1,0.5-0.2
			c0.6-0.3,1.2-0.6,1.8-0.9c0.1,0,0.1-0.1,0.2-0.1c0.2-0.1,0.3-0.2,0.5-0.3c0.2-0.1,0.5-0.3,0.7-0.4c0.2-0.1,0.4-0.3,0.5-0.4
			c0.2-0.2,0.4-0.3,0.6-0.5c0,0,0.1-0.1,0.1-0.1c0.1-0.1,0.1-0.1,0.2-0.2c0.3-0.3,0.5-0.6,0.8-0.8c0.1-0.1,0.1-0.1,0.2-0.2
			c0-0.1,0.1-0.1,0.1-0.2c0.2-0.2,0.3-0.4,0.4-0.6c0.1-0.1,0.1-0.2,0.2-0.3c0,0,0-0.1,0.1-0.1c0.1-0.2,0.2-0.4,0.3-0.6
			c0.1-0.1,0.1-0.3,0.2-0.4c0,0,0-0.1,0-0.1c0.1-0.2,0.1-0.4,0.2-0.5c0-0.2,0.1-0.3,0.1-0.5c0,0,0,0,0,0c0-0.2,0-0.4,0.1-0.6
			c0-0.2,0-0.4,0-0.6c0,0,0,0,0,0l0-3.8C-58.8,28.8-58.8,28.8-58.8,28.9z"/>
		<path class="st1" d="M-96.1,29.2c0,0.2,0,0.3,0,0.5c0,0.2,0.1,0.4,0.1,0.6c0,0.2,0.1,0.3,0.1,0.5c0.1,0.2,0.2,0.4,0.2,0.6
			c0.1,0.1,0.1,0.3,0.2,0.4c0.1,0.2,0.2,0.4,0.4,0.6c0.1,0.1,0.1,0.3,0.2,0.4c0.1,0.2,0.3,0.4,0.5,0.6c0.1,0.1,0.2,0.2,0.3,0.3
			c0.2,0.2,0.4,0.4,0.7,0.6c0.1,0.1,0.2,0.2,0.3,0.3c0.3,0.2,0.5,0.4,0.8,0.7c0.1,0.1,0.2,0.1,0.3,0.2c0.4,0.3,0.8,0.6,1.3,0.8
			c0.4,0.3,0.9,0.5,1.4,0.7c0.1,0.1,0.3,0.1,0.5,0.2c0.3,0.1,0.6,0.3,1,0.4c0.6,0.3,1.3,0.5,2,0.7c0.2,0.1,0.4,0.1,0.7,0.2
			c0.4,0.1,0.8,0.2,1.2,0.3c0.3,0.1,0.5,0.1,0.8,0.2c0.3,0.1,0.7,0.1,1,0.2c0.3,0,0.6,0.1,0.8,0.1c0.3,0,0.6,0.1,0.9,0.1
			c0.3,0,0.6,0.1,0.9,0.1c0.3,0,0.6,0,1,0.1c0.3,0,0.6,0,0.8,0c0.3,0,0.7,0,1,0c0.3,0,0.5,0,0.8,0c0.4,0,0.8,0,1.3-0.1
			c0.2,0,0.4,0,0.7-0.1c0.7-0.1,1.4-0.2,2.1-0.3c0.2,0,0.4-0.1,0.7-0.1c0.4-0.1,0.7-0.1,1.1-0.2c0.3-0.1,0.5-0.1,0.7-0.2
			c0.3-0.1,0.6-0.2,0.9-0.3c0.2-0.1,0.4-0.1,0.6-0.2c0.5-0.2,1-0.4,1.5-0.6c0.2-0.1,0.4-0.2,0.5-0.2c0.6-0.3,1.2-0.6,1.8-0.9
			c0.5-0.3,0.9-0.5,1.3-0.8c0,0,0.1-0.1,0.1-0.1c0.4-0.3,0.7-0.5,1-0.8c0,0,0.1-0.1,0.1-0.1c0.3-0.3,0.6-0.5,0.8-0.8
			c0.1-0.1,0.2-0.2,0.3-0.3c0.2-0.2,0.3-0.4,0.5-0.6c0.1-0.1,0.2-0.3,0.3-0.4c0.1-0.2,0.2-0.4,0.3-0.6c0.1-0.1,0.1-0.3,0.2-0.4
			c0.1-0.2,0.2-0.4,0.2-0.6c0-0.1,0.1-0.3,0.1-0.4c0.1-0.2,0.1-0.4,0.1-0.6c0,0,0,0,0,0c0.5-3.1-1.3-6.3-5.4-8.7
			c-2.7-1.6-6.1-2.6-9.7-3c-2.2-0.2-4.4-0.3-6.6,0c-0.2,0-0.4,0-0.6,0c0,0-0.1,0-0.1,0c-3.5,0.4-6.8,1.4-9.5,3
			c-1.5,0.9-2.7,1.9-3.6,3c-1.2,1.5-1.8,3-1.8,4.6C-96.1,28.8-96.1,29-96.1,29.2z M-85.8,30c0-0.4,0.1-0.8,0.4-1.2
			c0.2-0.3,0.6-0.6,1.1-1l2.4,1.4c-0.5,0.3-0.7,0.6-0.7,1c0,0.3,0.3,0.6,0.7,0.9l0.1,0.1c0.5,0.3,1,0.4,1.6,0.4
			c0.6,0,1.2-0.1,1.6-0.4c0.5-0.3,0.8-0.7,0.7-1.1c0-0.3-0.2-0.6-0.6-1.1c-0.1-0.1-0.2-0.2-0.3-0.3c-0.2-0.2-0.3-0.3-0.3-0.4
			c-0.3-0.4-0.5-0.6-0.6-0.9c-0.2-0.5-0.2-0.9,0.1-1.4c0.2-0.5,0.7-0.9,1.3-1.2c0.6-0.4,1.4-0.6,2.3-0.7c0.9-0.1,1.8-0.1,2.6,0
			c0.4,0.1,0.8,0.2,1.2,0.3l0,0l2.2-1.3l0.9,0.5l1.1,0.6l-2.1,1.2c0.2,0.2,0.4,0.4,0.5,0.7c0.3,0.5,0.3,1,0.1,1.5
			c-0.2,0.5-0.7,1-1.3,1.4l-2.4-1.4c0.4-0.3,0.5-0.5,0.5-0.8c0-0.3-0.2-0.5-0.6-0.7l0,0c-0.4-0.2-0.8-0.3-1.3-0.3
			c-0.5,0-0.9,0.1-1.3,0.4c-0.4,0.2-0.6,0.5-0.6,0.7c0,0.2,0.2,0.5,0.4,0.9c0.1,0.1,0.1,0.2,0.2,0.2l0.4,0.4c0.6,0.7,0.9,1.2,1,1.7
			c0.2,0.9-0.3,1.7-1.5,2.4c-0.7,0.4-1.6,0.7-2.6,0.9c-1,0.1-2,0.1-2.9,0c-0.5-0.1-1-0.2-1.4-0.3l-2.1,1.2l-1.1-0.6l-0.9-0.5
			l2.1-1.2C-85.5,31.3-85.8,30.7-85.8,30z"/>
		<path class="st2" d="M-86,33.6l1.1,0.6l2.1-1.2c0.4,0.1,0.9,0.3,1.4,0.3c1,0.2,2,0.2,2.9,0c1-0.2,1.8-0.4,2.6-0.9
			c1.2-0.7,1.6-1.5,1.5-2.4c-0.1-0.5-0.4-1-1-1.7l-0.4-0.4c-0.1-0.1-0.1-0.2-0.2-0.2c-0.3-0.4-0.4-0.6-0.4-0.9
			c0-0.3,0.2-0.5,0.6-0.7c0.4-0.2,0.8-0.3,1.3-0.4c0.5,0,0.9,0.1,1.3,0.3l0,0c0.4,0.2,0.6,0.5,0.6,0.7c0,0.3-0.2,0.6-0.5,0.8
			l2.4,1.4c0.7-0.4,1.1-0.9,1.3-1.4c0.2-0.5,0.2-1-0.1-1.5c-0.1-0.2-0.3-0.5-0.5-0.7l2.1-1.2l-1.1-0.6l-0.9-0.5l-2.2,1.3l0,0
			c-0.4-0.1-0.8-0.2-1.2-0.3c-0.9-0.1-1.8-0.2-2.6,0c-0.9,0.1-1.6,0.4-2.3,0.7c-0.6,0.3-1,0.8-1.3,1.2c-0.2,0.5-0.3,1-0.1,1.4
			c0.1,0.2,0.3,0.5,0.6,0.9c0,0,0.2,0.2,0.3,0.4c0.1,0.1,0.2,0.2,0.3,0.3c0.3,0.4,0.5,0.8,0.6,1.1c0.1,0.4-0.2,0.8-0.7,1.1
			c-0.5,0.3-1,0.4-1.6,0.4c-0.6,0-1.2-0.1-1.6-0.4l-0.1-0.1c-0.4-0.3-0.7-0.6-0.7-0.9c0-0.3,0.2-0.7,0.7-1l-2.4-1.4
			c-0.6,0.3-0.9,0.7-1.1,1c-0.3,0.4-0.4,0.8-0.4,1.2c0,0.7,0.3,1.3,0.9,1.8l-2.1,1.2L-86,33.6z"/>
	</g>
	<g>
		<path class="st0" d="M-58.8,23.8c0,0.1,0,0.2,0,0.4c0,0,0,0,0,0c0,0.1,0,0.3,0,0.4c0,0,0,0,0,0c0,0,0,0.1,0,0.1c0,0,0,0.1,0,0.1
			c0,0.1-0.1,0.2-0.1,0.4c0,0.1-0.1,0.3-0.1,0.4c0,0,0,0.1-0.1,0.1c0,0,0,0.1,0,0.1c0,0.1-0.1,0.2-0.2,0.3c-0.1,0.1-0.1,0.3-0.2,0.4
			c0,0.1-0.1,0.1-0.1,0.2c0,0,0,0.1-0.1,0.1c-0.1,0.1-0.1,0.2-0.2,0.3c-0.1,0.1-0.2,0.3-0.3,0.4c-0.1,0.1-0.1,0.2-0.2,0.2
			c0,0.1-0.1,0.1-0.1,0.2c0,0.1-0.1,0.1-0.2,0.2c-0.1,0.1-0.2,0.2-0.3,0.3c-0.2,0.2-0.4,0.4-0.5,0.5c-0.1,0.1-0.1,0.1-0.2,0.2
			c0,0-0.1,0.1-0.1,0.1c0,0-0.1,0.1-0.1,0.1c-0.2,0.1-0.3,0.3-0.5,0.4c-0.2,0.1-0.3,0.3-0.5,0.4c0,0-0.1,0.1-0.1,0.1
			c-0.2,0.1-0.4,0.3-0.6,0.4c-0.2,0.1-0.3,0.2-0.5,0.3c-0.1,0-0.2,0.1-0.2,0.1c-0.6,0.3-1.2,0.6-1.8,0.9c-0.2,0.1-0.4,0.2-0.5,0.2
			c-0.5,0.2-1,0.4-1.5,0.6c-0.1,0-0.2,0.1-0.3,0.1c-0.1,0-0.1,0-0.2,0.1c-0.3,0.1-0.6,0.2-0.9,0.3c-0.2,0.1-0.5,0.1-0.7,0.2
			c-0.3,0.1-0.7,0.2-1.1,0.2c-0.2,0-0.4,0.1-0.6,0.1c0,0-0.1,0-0.1,0c-0.7,0.1-1.4,0.2-2.1,0.3c-0.1,0-0.1,0-0.2,0
			c-0.2,0-0.3,0-0.5,0c-0.4,0-0.8,0.1-1.3,0.1c-0.1,0-0.2,0-0.3,0c-0.2,0-0.3,0-0.5,0c-0.3,0-0.7,0-1,0c-0.1,0-0.2,0-0.4,0
			c-0.2,0-0.3,0-0.5,0c-0.3,0-0.6,0-1-0.1c-0.1,0-0.3,0-0.4,0c-0.1,0-0.3,0-0.4-0.1c-0.3,0-0.6-0.1-0.9-0.1c-0.1,0-0.3,0-0.4,0
			c-0.1,0-0.3,0-0.4-0.1c-0.3-0.1-0.7-0.1-1-0.2c-0.2,0-0.3,0-0.5-0.1c-0.1,0-0.2-0.1-0.3-0.1c-0.4-0.1-0.8-0.2-1.2-0.3
			c-0.2,0-0.3-0.1-0.5-0.1c-0.1,0-0.1,0-0.2-0.1c-0.7-0.2-1.4-0.4-2-0.7c0,0-0.1,0-0.1,0c-0.3-0.1-0.6-0.2-0.9-0.4
			c-0.2-0.1-0.3-0.1-0.5-0.2c-0.5-0.2-0.9-0.5-1.4-0.7c-0.5-0.3-0.9-0.5-1.3-0.8c-0.1-0.1-0.2-0.1-0.3-0.2c-0.3-0.2-0.6-0.4-0.8-0.7
			c-0.1-0.1-0.2-0.2-0.3-0.3c-0.2-0.2-0.5-0.4-0.7-0.6c-0.1-0.1-0.2-0.2-0.3-0.3c-0.2-0.2-0.4-0.4-0.5-0.6c-0.1-0.1-0.2-0.3-0.2-0.4
			c-0.1-0.2-0.3-0.4-0.4-0.6c-0.1-0.1-0.1-0.3-0.2-0.4c-0.1-0.2-0.2-0.4-0.2-0.6c0-0.1-0.1-0.3-0.1-0.5c-0.1-0.2-0.1-0.4-0.1-0.6
			c0-0.2,0-0.3,0-0.5c0-0.2,0-0.4,0-0.6c0,0,0,0,0,0l0,3.8c0,2.8,1.8,5.6,5.5,7.7c0.4,0.3,0.9,0.5,1.4,0.7c0.2,0.1,0.3,0.1,0.5,0.2
			c0.3,0.1,0.5,0.2,0.8,0.3c0,0,0.1,0,0.1,0c0.6,0.3,1.3,0.5,2,0.7c0.1,0,0.1,0,0.2,0c0.2,0,0.3,0.1,0.5,0.1
			c0.4,0.1,0.8,0.2,1.2,0.3c0.1,0,0.2,0,0.3,0.1c0.2,0,0.3,0.1,0.5,0.1c0.3,0.1,0.7,0.1,1,0.2c0.1,0,0.3,0,0.4,0.1
			c0.1,0,0.3,0,0.4,0.1c0.3,0,0.6,0.1,0.9,0.1c0.1,0,0.3,0,0.4,0c0.1,0,0.3,0,0.4,0c0.3,0,0.6,0,0.9,0c0.2,0,0.3,0,0.5,0
			c0.1,0,0.3,0,0.4,0c0.3,0,0.7,0,1,0c0.2,0,0.3,0,0.5,0c0.1,0,0.2,0,0.3,0c0.4,0,0.9-0.1,1.3-0.1c0.2,0,0.3,0,0.5,0
			c0,0,0.1,0,0.2,0c0.7-0.1,1.4-0.2,2.1-0.3c0,0,0.1,0,0.1,0c0.2,0,0.4-0.1,0.6-0.1c0.3-0.1,0.7-0.1,1-0.2c0.2-0.1,0.5-0.1,0.7-0.2
			c0.3-0.1,0.7-0.2,1-0.3c0.1,0,0.1,0,0.2-0.1c0.1,0,0.2-0.1,0.3-0.1c0.5-0.2,1-0.4,1.5-0.6c0.2-0.1,0.4-0.1,0.5-0.2
			c0.6-0.3,1.2-0.6,1.8-0.9c0.1,0,0.1-0.1,0.2-0.1c0.2-0.1,0.3-0.2,0.5-0.3c0.2-0.1,0.5-0.3,0.7-0.4c0.2-0.1,0.4-0.3,0.5-0.4
			c0.2-0.2,0.4-0.3,0.6-0.5c0,0,0.1-0.1,0.1-0.1c0.1-0.1,0.1-0.1,0.2-0.2c0.3-0.3,0.5-0.6,0.8-0.8c0.1-0.1,0.1-0.1,0.2-0.2
			c0-0.1,0.1-0.1,0.1-0.2c0.2-0.2,0.3-0.4,0.4-0.6c0.1-0.1,0.1-0.2,0.2-0.3c0,0,0-0.1,0.1-0.1c0.1-0.2,0.2-0.4,0.3-0.6
			c0.1-0.1,0.1-0.3,0.2-0.4c0,0,0-0.1,0-0.1c0.1-0.2,0.1-0.4,0.2-0.5c0-0.2,0.1-0.3,0.1-0.5c0,0,0,0,0,0c0-0.2,0-0.4,0.1-0.6
			c0-0.2,0-0.4,0-0.6c0,0,0,0,0,0l0-3.8C-58.8,23.6-58.8,23.7-58.8,23.8z"/>
		<path class="st1" d="M-96.1,24.1c0,0.2,0,0.3,0,0.5c0,0.2,0.1,0.4,0.1,0.6c0,0.2,0.1,0.3,0.1,0.5c0.1,0.2,0.2,0.4,0.2,0.6
			c0.1,0.1,0.1,0.3,0.2,0.4c0.1,0.2,0.2,0.4,0.4,0.6c0.1,0.1,0.1,0.3,0.2,0.4c0.1,0.2,0.3,0.4,0.5,0.6c0.1,0.1,0.2,0.2,0.3,0.3
			c0.2,0.2,0.4,0.4,0.7,0.6c0.1,0.1,0.2,0.2,0.3,0.3c0.3,0.2,0.5,0.4,0.8,0.7c0.1,0.1,0.2,0.1,0.3,0.2c0.4,0.3,0.8,0.6,1.3,0.8
			c0.4,0.3,0.9,0.5,1.4,0.7c0.1,0.1,0.3,0.1,0.5,0.2c0.3,0.1,0.6,0.3,1,0.4c0.6,0.3,1.3,0.5,2,0.7c0.2,0.1,0.4,0.1,0.7,0.2
			c0.4,0.1,0.8,0.2,1.2,0.3c0.3,0.1,0.5,0.1,0.8,0.2c0.3,0.1,0.7,0.1,1,0.2c0.3,0,0.6,0.1,0.8,0.1c0.3,0,0.6,0.1,0.9,0.1
			c0.3,0,0.6,0.1,0.9,0.1c0.3,0,0.6,0,1,0.1c0.3,0,0.6,0,0.8,0c0.3,0,0.7,0,1,0c0.3,0,0.5,0,0.8,0c0.4,0,0.8,0,1.3-0.1
			c0.2,0,0.4,0,0.7-0.1c0.7-0.1,1.4-0.2,2.1-0.3c0.2,0,0.4-0.1,0.7-0.1c0.4-0.1,0.7-0.1,1.1-0.2c0.3-0.1,0.5-0.1,0.7-0.2
			c0.3-0.1,0.6-0.2,0.9-0.3c0.2-0.1,0.4-0.1,0.6-0.2c0.5-0.2,1-0.4,1.5-0.6c0.2-0.1,0.4-0.1,0.5-0.2c0.6-0.3,1.2-0.6,1.8-0.9
			c0.5-0.3,0.9-0.5,1.3-0.8c0,0,0.1-0.1,0.1-0.1c0.4-0.3,0.7-0.5,1-0.8c0,0,0.1-0.1,0.1-0.1c0.3-0.3,0.6-0.5,0.8-0.8
			c0.1-0.1,0.2-0.2,0.3-0.3c0.2-0.2,0.3-0.4,0.5-0.6c0.1-0.1,0.2-0.3,0.3-0.4c0.1-0.2,0.2-0.4,0.3-0.6c0.1-0.1,0.1-0.3,0.2-0.4
			c0.1-0.2,0.2-0.4,0.2-0.6c0-0.1,0.1-0.3,0.1-0.4c0.1-0.2,0.1-0.4,0.1-0.6c0,0,0,0,0,0c0.5-3.1-1.3-6.3-5.4-8.7
			c-2.7-1.6-6.1-2.6-9.7-3c-2.2-0.2-4.4-0.3-6.6,0c-0.2,0-0.4,0-0.6,0c0,0-0.1,0-0.1,0c-3.5,0.4-6.8,1.4-9.5,3
			c-1.5,0.9-2.7,1.9-3.6,3c-1.2,1.5-1.8,3-1.8,4.6C-96.1,23.7-96.1,23.9-96.1,24.1z"/>
		<g>
			<path class="st3" d="M-73.6,18.5c-1.1-0.1-2.1-0.1-2.1-0.1c0,0,0.9,1.5,1,1.6c0,0,0.3,0,0.7,0.1l0.6,0l0.2,0.4l0.2,0.4l1.1,0.1
				c1.6,0.2,1.8,0.2,1.8,0.2c0,0-0.2-0.4-0.8-1.3c-0.3-0.4-0.5-0.9-0.6-1c0-0.1-0.1-0.2-0.1-0.2C-71.5,18.6-72.4,18.6-73.6,18.5z
				 M-78.6,18.1l-1.2-0.1l-1.7,1.3c-0.9,0.7-1.7,1.3-1.7,1.3c0,0,0.6,0.1,1.2,0.1l1.2,0.1l1.8-1.3l0.2,0.4c0.2,0.3,0.3,0.5,0.5,0.8
				l0.3,0.5l0.3,0c0.2,0,0.4,0,0.6,0.1c0.2,0,0.6,0.1,0.9,0.1c0.3,0,0.6,0.1,0.7,0.1c0.1,0-0.2-0.4-0.9-1.6c-0.5-0.9-1-1.6-1.1-1.6
				C-77.4,18.2-77.9,18.2-78.6,18.1z M-70.8,21.9c-0.8-0.1-1.4-0.1-1.4-0.1c0,0,0.1,0.3,0.3,0.6c0.2,0.3,0.3,0.6,0.3,0.6
				s-0.5,0-1-0.1c-0.6-0.1-2-0.2-3.1-0.3l-3.9-0.4c-1-0.1-1.9-0.2-2-0.2c-2-0.2-2.6-0.3-2.6-0.3c-0.1,0-0.3,0.1-1.1,0.7l-1,0.7
				l0.4,0.6l0.4,0.6l1.4,0.2c0.8,0.1,1.4,0.1,1.4,0.1c0,0,0-0.1-0.1-0.2c-0.1-0.1-0.2-0.3-0.3-0.5c-0.1-0.2-0.2-0.3-0.2-0.4
				c0,0,0-0.1,0-0.1c0,0,0.6,0,1.4,0.1c1.5,0.2,2.6,0.3,5,0.5c1.1,0.1,2.2,0.2,3.2,0.3c1,0.1,2.1,0.2,2.5,0.3l0.7,0.1l1-0.7l1-0.7
				l-0.4-0.6c-0.2-0.3-0.4-0.6-0.4-0.6C-69.4,22-70.1,22-70.8,21.9z M-72.2,25.7c-0.2,0-0.5,0-0.7-0.1s-0.6-0.1-0.9-0.1l-0.5-0.1
				l-0.9,0.7c-0.5,0.4-0.9,0.6-0.9,0.6c0,0-0.4-0.6-0.7-1.2c-0.2-0.4-0.3-0.4-0.4-0.5c-0.1,0-0.7-0.1-1.3-0.1
				c-0.6-0.1-1.1-0.1-1.1-0.1c0,0,0.4,0.7,0.9,1.6l1,1.6l1.2,0.1c0.7,0,1.3,0.1,1.3,0.1c0.1,0,3.4-2.5,3.4-2.5
				C-71.9,25.7-72.1,25.7-72.2,25.7z M-80.6,26.5c-0.2,0-0.4,0-0.6-0.1c-0.6-0.1-0.5,0-0.8-0.4c-0.2-0.3-0.3-0.4-0.4-0.4
				c-0.1,0-0.6-0.1-1.3-0.1c-0.6-0.1-1.2-0.1-1.2-0.1c-0.2-0.1-0.1,0.2,0.6,1.2l0.8,1.2l0.9,0.1c0.5,0,1.5,0.1,2.2,0.2
				c0.7,0.1,1.3,0.1,1.3,0.1c0,0-0.2-0.3-0.5-0.7l-0.5-0.7L-80.6,26.5z"/>
		</g>
	</g>
	<g>
		<path class="st0" d="M-62.7,81.5c0,0.1,0,0.2,0,0.4c0,0,0,0,0,0c0,0.1,0,0.3,0,0.4c0,0,0,0.1,0,0.1c0,0,0,0.1,0,0.1
			c0,0.1-0.1,0.2-0.1,0.4c0,0.1-0.1,0.3-0.1,0.4c0,0,0,0.1-0.1,0.1c0,0,0,0.1,0,0.1c0,0.1-0.1,0.2-0.2,0.3c-0.1,0.1-0.1,0.3-0.2,0.4
			c0,0.1-0.1,0.1-0.1,0.2c0,0,0,0.1-0.1,0.1c0,0.1-0.1,0.2-0.2,0.3c-0.1,0.1-0.2,0.3-0.3,0.4c-0.1,0.1-0.1,0.2-0.2,0.2
			c0,0.1-0.1,0.1-0.1,0.2c0,0.1-0.1,0.1-0.2,0.2c-0.1,0.1-0.2,0.2-0.3,0.3c-0.2,0.2-0.4,0.4-0.5,0.5c-0.1,0.1-0.1,0.1-0.2,0.2
			c0,0-0.1,0.1-0.1,0.1c0,0-0.1,0.1-0.1,0.1c-0.2,0.1-0.3,0.3-0.5,0.4c-0.2,0.1-0.3,0.3-0.5,0.4c0,0-0.1,0.1-0.1,0.1
			c-0.2,0.1-0.4,0.3-0.6,0.4c-0.2,0.1-0.3,0.2-0.5,0.3c-0.1,0-0.2,0.1-0.2,0.1c-0.6,0.3-1.2,0.6-1.8,0.9c-0.2,0.1-0.4,0.2-0.5,0.2
			c-0.5,0.2-1,0.4-1.5,0.6c-0.1,0-0.2,0.1-0.3,0.1c-0.1,0-0.1,0-0.2,0.1c-0.3,0.1-0.6,0.2-1,0.3c-0.2,0.1-0.5,0.1-0.7,0.2
			c-0.4,0.1-0.7,0.2-1.1,0.2c-0.2,0-0.4,0.1-0.6,0.1c0,0-0.1,0-0.1,0c-0.7,0.1-1.4,0.2-2.1,0.3c-0.1,0-0.1,0-0.2,0
			c-0.2,0-0.3,0-0.5,0c-0.4,0-0.8,0.1-1.3,0.1c-0.1,0-0.2,0-0.3,0c-0.2,0-0.3,0-0.5,0c-0.3,0-0.7,0-1,0c-0.1,0-0.2,0-0.4,0
			c-0.2,0-0.3,0-0.5,0c-0.3,0-0.6,0-1-0.1c-0.1,0-0.3,0-0.4,0c-0.2,0-0.3,0-0.4-0.1c-0.3,0-0.6-0.1-0.9-0.1c-0.1,0-0.3,0-0.4,0
			c-0.1,0-0.3,0-0.4-0.1c-0.3-0.1-0.7-0.1-1-0.2c-0.2,0-0.3-0.1-0.5-0.1c-0.1,0-0.2-0.1-0.3-0.1c-0.4-0.1-0.8-0.2-1.2-0.3
			c-0.2,0-0.3-0.1-0.5-0.1c-0.1,0-0.1,0-0.2-0.1c-0.7-0.2-1.4-0.4-2-0.7c0,0-0.1,0-0.1,0c-0.3-0.1-0.6-0.2-0.9-0.4
			c-0.2-0.1-0.3-0.1-0.5-0.2c-0.5-0.2-0.9-0.5-1.4-0.7c-0.5-0.3-0.9-0.5-1.3-0.8c-0.1-0.1-0.2-0.2-0.3-0.3c-0.3-0.2-0.6-0.4-0.8-0.6
			c-0.1-0.1-0.2-0.2-0.3-0.3c-0.2-0.2-0.4-0.4-0.6-0.6c-0.1-0.1-0.2-0.3-0.3-0.4c-0.2-0.2-0.3-0.4-0.5-0.6c-0.1-0.1-0.2-0.3-0.3-0.4
			c-0.1-0.2-0.2-0.4-0.3-0.6c-0.1-0.1-0.1-0.3-0.2-0.4c-0.1-0.2-0.2-0.4-0.2-0.6c0-0.1-0.1-0.3-0.1-0.4c-0.1-0.2-0.1-0.4-0.1-0.6
			c0-0.1,0-0.3,0-0.4c0-0.2,0-0.4-0.1-0.6l0,3.8c0,2.8,1.8,5.6,5.5,7.7c0.4,0.3,0.9,0.5,1.4,0.7c0.2,0.1,0.3,0.1,0.5,0.2
			c0.3,0.1,0.6,0.2,0.8,0.4c0,0,0.1,0,0.1,0c0.7,0.3,1.3,0.5,2,0.7c0.1,0,0.1,0,0.2,0c0.2,0,0.3,0.1,0.5,0.1
			c0.4,0.1,0.8,0.2,1.2,0.3c0.1,0,0.2,0,0.3,0.1c0.2,0,0.3,0.1,0.5,0.1c0.3,0.1,0.7,0.1,1,0.2c0.1,0,0.3,0,0.4,0.1
			c0.1,0,0.3,0,0.4,0.1c0.3,0,0.6,0.1,0.9,0.1c0.1,0,0.3,0,0.4,0c0.1,0,0.3,0,0.4,0c0.3,0,0.6,0,0.9,0c0.2,0,0.3,0,0.5,0
			c0.1,0,0.3,0,0.4,0c0.3,0,0.7,0,1,0c0.2,0,0.3,0,0.5,0c0.1,0,0.2,0,0.3,0c0.4,0,0.8-0.1,1.3-0.1c0.2,0,0.3,0,0.5,0
			c0,0,0.1,0,0.2,0c0.7-0.1,1.4-0.2,2.1-0.3c0,0,0.1,0,0.1,0c0.2,0,0.4-0.1,0.6-0.1c0.3-0.1,0.7-0.1,1-0.2c0.3-0.1,0.5-0.1,0.7-0.2
			c0.3-0.1,0.6-0.2,1-0.3c0.1,0,0.1,0,0.2-0.1c0.1,0,0.2-0.1,0.3-0.1c0.5-0.2,1-0.4,1.5-0.6c0.2-0.1,0.4-0.2,0.5-0.2
			c0.6-0.3,1.2-0.6,1.8-0.9c0.1,0,0.1-0.1,0.2-0.1c0.2-0.1,0.3-0.2,0.5-0.3c0.2-0.1,0.4-0.3,0.6-0.4c0.2-0.1,0.4-0.3,0.5-0.4
			c0.2-0.2,0.4-0.3,0.5-0.5c0,0,0.1-0.1,0.1-0.1c0.1-0.1,0.1-0.1,0.2-0.2c0.3-0.3,0.5-0.6,0.8-0.8c0.1-0.1,0.1-0.1,0.2-0.2
			c0-0.1,0.1-0.1,0.1-0.2c0.2-0.2,0.3-0.4,0.4-0.6c0.1-0.1,0.1-0.2,0.2-0.3c0,0,0-0.1,0.1-0.1c0.1-0.2,0.2-0.4,0.3-0.6
			c0.1-0.1,0.1-0.3,0.2-0.4c0,0,0-0.1,0-0.1c0.1-0.2,0.1-0.4,0.2-0.5c0-0.2,0.1-0.3,0.1-0.5c0,0,0,0,0,0c0-0.2,0-0.4,0.1-0.6
			c0-0.2,0-0.4,0-0.6c0,0,0,0,0,0l0-3.8C-62.7,81.4-62.7,81.5-62.7,81.5z"/>
		<path class="st1" d="M-100,82.3c0,0.2,0.1,0.4,0.1,0.6c0,0.1,0.1,0.3,0.1,0.4c0.1,0.2,0.2,0.4,0.2,0.6c0.1,0.1,0.1,0.3,0.2,0.4
			c0.1,0.2,0.2,0.4,0.3,0.6c0.1,0.1,0.2,0.3,0.3,0.4c0.1,0.2,0.3,0.4,0.5,0.6c0.1,0.1,0.2,0.3,0.3,0.4c0.2,0.2,0.4,0.4,0.6,0.6
			c0.1,0.1,0.2,0.2,0.3,0.3c0.2,0.2,0.5,0.4,0.8,0.6c0.1,0.1,0.2,0.2,0.3,0.3c0.4,0.3,0.8,0.6,1.3,0.8c0.4,0.3,0.9,0.5,1.4,0.7
			c0.2,0.1,0.3,0.1,0.5,0.2c0.3,0.1,0.6,0.3,1,0.4c0.6,0.3,1.3,0.5,2,0.7c0.2,0.1,0.4,0.1,0.6,0.2c0.4,0.1,0.8,0.2,1.2,0.3
			c0.3,0.1,0.5,0.1,0.8,0.2c0.3,0.1,0.7,0.1,1,0.2c0.3,0,0.6,0.1,0.8,0.1c0.3,0,0.6,0.1,0.9,0.1c0.3,0,0.6,0.1,0.9,0.1
			c0.3,0,0.6,0,1,0.1c0.3,0,0.6,0,0.8,0c0.3,0,0.7,0,1,0c0.3,0,0.5,0,0.8,0c0.4,0,0.8,0,1.3-0.1c0.2,0,0.4,0,0.7-0.1
			c0.7-0.1,1.4-0.2,2.1-0.3c0.2,0,0.4-0.1,0.7-0.1c0.4-0.1,0.7-0.1,1.1-0.2c0.2-0.1,0.5-0.1,0.7-0.2c0.3-0.1,0.6-0.2,1-0.3
			c0.2-0.1,0.4-0.1,0.5-0.2c0.5-0.2,1-0.4,1.5-0.6c0.2-0.1,0.4-0.1,0.5-0.2c0.6-0.3,1.2-0.6,1.8-0.9c0.5-0.3,0.9-0.5,1.3-0.8
			c0,0,0.1-0.1,0.1-0.1c0.4-0.3,0.7-0.5,1-0.8c0,0,0.1-0.1,0.1-0.1c0.3-0.3,0.6-0.5,0.8-0.8c0.1-0.1,0.2-0.2,0.3-0.3
			c0.2-0.2,0.3-0.4,0.5-0.6c0.1-0.1,0.2-0.3,0.3-0.4c0.1-0.2,0.2-0.4,0.3-0.6c0.1-0.1,0.1-0.3,0.2-0.4c0.1-0.2,0.2-0.4,0.2-0.6
			c0-0.1,0.1-0.3,0.1-0.4c0.1-0.2,0.1-0.4,0.1-0.6c0-0.1,0-0.3,0-0.4c0.2-1.6-0.3-3.2-1.3-4.7c-0.9-1.3-2.3-2.5-4.1-3.6
			c-1.6-0.9-3.4-1.6-5.4-2.2c-5-1.3-10.7-1.3-15.7,0c-1.9,0.5-3.7,1.2-5.3,2.2c-1.5,0.9-2.7,1.9-3.6,3c-1.2,1.5-1.8,3-1.8,4.6
			c0,0,0,0,0,0c0,0,0,0,0,0c0,0.2,0,0.4,0.1,0.6C-100,82-100,82.2-100,82.3z"/>
	</g>
	<g>
		<path class="st0" d="M-64.6,74.6c-0.1-0.1-0.2-0.2-0.3-0.3c-0.1-0.2-0.3-0.3-0.4-0.5c-0.1-0.1-0.2-0.2-0.3-0.4
			c-0.1-0.2-0.2-0.4-0.3-0.6c-0.1-0.1-0.2-0.3-0.2-0.4c-0.1-0.2-0.2-0.5-0.3-0.7c0-0.1-0.1-0.3-0.2-0.4c-0.1-0.3-0.2-0.6-0.2-0.9
			c0-0.1-0.1-0.3-0.1-0.4c-0.1-0.3-0.1-0.7-0.2-1.1c0-0.1,0-0.2,0-0.3c0-0.5-0.1-1-0.1-1.5c0-0.5,0-1,0.1-1.5c0,0,0,0,0,0
			c0-0.2,0-0.5,0.1-0.7c0-0.2,0.1-0.5,0.1-0.7c0,0,0,0,0,0c0.2-1.1,0.4-2.2,0.7-3.3c0,0,0-0.1,0-0.1c0,0,0,0,0,0
			c0.1-0.2,0.1-0.4,0.2-0.6c0,0,0,0,0,0c0.1-0.4,0.2-0.7,0.4-1.1l0,0c0.1-0.1,0.1-0.3,0.2-0.4c0,0,0,0,0,0c0.2-0.5,0.4-1,0.6-1.5
			c0,0,0,0,0,0c0-0.1,0.1-0.1,0.1-0.2c0,0,0,0,0,0c0.1-0.2,0.2-0.4,0.3-0.7c0.5-1,1-1.9,1.5-2.8c0.2-0.3,0.4-0.6,0.6-1c0,0,0,0,0,0
			c0.4-0.6,0.8-1.2,1.3-1.8c0,0,0,0,0,0c0.1-0.1,0.2-0.2,0.3-0.3c0.3-0.5,0.7-0.9,1.1-1.3c0.1-0.1,0.2-0.2,0.3-0.3c0,0,0,0,0,0
			c0.3-0.3,0.6-0.6,0.9-0.9c0,0,0,0,0,0c0.2-0.2,0.4-0.4,0.6-0.6h0c0.1-0.1,0.3-0.3,0.4-0.4c0,0,0,0,0,0c0.2-0.2,0.4-0.3,0.5-0.5
			c0.3-0.3,0.7-0.6,1.1-0.9c0.2-0.1,0.3-0.2,0.5-0.3c0,0,0,0,0,0c0.5-0.4,1.1-0.8,1.6-1.1c0.4-0.2,0.7-0.4,1-0.5
			c0.2-0.1,0.4-0.2,0.6-0.3c0,0,0,0,0,0c0,0,0.1,0,0.1,0c0.5-0.2,0.9-0.4,1.4-0.5c0,0,0,0,0,0c0,0,0,0,0,0c0.8-0.2,1.5-0.4,2.2-0.4
			c0,0,0,0,0,0c0.1,0,0.3,0,0.4,0c0.2,0,0.4,0,0.6,0c0,0,0,0,0,0c0.2,0,0.3,0,0.5,0.1c0.2,0,0.5,0.1,0.7,0.1c0,0,0,0,0,0
			c0.1,0,0.2,0.1,0.3,0.1c0.2,0.1,0.4,0.1,0.6,0.2c0,0,0,0,0,0c0.1,0,0.2,0.1,0.3,0.2c0.2,0.1,0.3,0.1,0.5,0.2c0,0,0,0,0,0l-3.3-1.9
			c0,0,0,0-0.1,0c-0.2-0.1-0.4-0.2-0.7-0.3c0,0-0.1,0-0.1,0c-0.1,0-0.1-0.1-0.2-0.1c-0.1,0-0.2-0.1-0.3-0.1c-0.1,0-0.3-0.1-0.4-0.1
			c-0.1,0-0.2,0-0.2-0.1c0,0-0.1,0-0.1,0c-0.3,0-0.5-0.1-0.8-0.1c0,0,0,0-0.1,0c-0.1,0-0.1,0-0.2,0c-0.2,0-0.4,0-0.6,0
			c-0.1,0-0.1,0-0.2,0c-0.1,0-0.3,0-0.4,0c-0.1,0-0.2,0-0.4,0l0,0l0,0c-0.4,0.1-0.8,0.1-1.2,0.2l0,0l0,0c-0.1,0-0.2,0.1-0.3,0.1
			c-0.3,0.1-0.6,0.2-0.9,0.3c-0.1,0-0.2,0.1-0.3,0.1c-0.1,0-0.1,0.1-0.2,0.1c-0.5,0.2-1.1,0.5-1.7,0.8c-0.4,0.2-0.8,0.5-1.3,0.8
			c-0.1,0.1-0.3,0.2-0.4,0.3c-0.3,0.2-0.6,0.4-0.8,0.6c-0.1,0.1-0.3,0.2-0.4,0.4c-0.3,0.2-0.5,0.4-0.8,0.7c-0.1,0.1-0.3,0.3-0.4,0.4
			c-0.1,0.1-0.2,0.2-0.3,0.3c-0.1,0.1-0.2,0.2-0.3,0.3c-0.3,0.3-0.6,0.6-0.9,0.9c-0.1,0.1-0.2,0.2-0.3,0.3c-0.1,0.1-0.1,0.2-0.2,0.3
			c-0.2,0.2-0.3,0.4-0.5,0.6c-0.1,0.1-0.2,0.3-0.3,0.4c-0.1,0.1-0.2,0.2-0.3,0.4c-0.1,0.2-0.3,0.3-0.4,0.5c-0.1,0.1-0.2,0.2-0.2,0.3
			c-0.1,0.2-0.3,0.4-0.4,0.6c-0.1,0.1-0.2,0.3-0.3,0.4c0,0.1-0.1,0.1-0.1,0.2c-0.2,0.4-0.5,0.7-0.7,1.1c0,0,0,0,0,0.1
			c0,0.1-0.1,0.2-0.1,0.2c-0.2,0.3-0.3,0.5-0.4,0.8c-0.1,0.1-0.1,0.3-0.2,0.4c-0.1,0.1-0.1,0.3-0.2,0.4c-0.1,0.1-0.1,0.2-0.2,0.3
			c-0.1,0.3-0.3,0.6-0.4,0.9c0,0.1-0.1,0.1-0.1,0.2c0,0,0,0,0,0c-0.2,0.4-0.3,0.8-0.5,1.2c0,0.1,0,0.1-0.1,0.2
			c-0.1,0.2-0.1,0.3-0.2,0.5c-0.1,0.2-0.1,0.4-0.2,0.6c-0.1,0.2-0.1,0.3-0.1,0.5c-0.1,0.2-0.1,0.4-0.2,0.6c0,0.1-0.1,0.2-0.1,0.3
			c-0.1,0.2-0.1,0.4-0.1,0.6c-0.1,0.2-0.1,0.5-0.2,0.7c0,0.1,0,0.2-0.1,0.2c0,0.2-0.1,0.3-0.1,0.5c-0.1,0.4-0.1,0.7-0.2,1.1
			c0,0.1,0,0.2-0.1,0.3c0,0.2,0,0.4-0.1,0.6c0,0.2,0,0.3,0,0.5c0,0.5-0.1,1-0.1,1.5c0,4.2,1.5,7.1,3.9,8.5l3.3,1.9
			c-0.2-0.1-0.3-0.2-0.5-0.3c-0.1-0.1-0.2-0.2-0.4-0.2C-64.3,74.9-64.4,74.7-64.6,74.6z"/>
		<path class="st1" d="M-53.9,44.2c-7.3,4.2-13.2,14.5-13.2,22.9c0,8.4,6,11.8,13.3,7.6c7.3-4.2,13.2-14.5,13.2-22.9
			C-40.6,43.3-46.6,39.9-53.9,44.2z"/>
	</g>
</g>
<g>
	<path class="st3" d="M-77.4,76.3c-1.1-0.1-2.1-0.1-2.1-0.1c0,0,0.9,1.5,1,1.6c0,0,0.3,0,0.7,0.1l0.6,0l0.2,0.4l0.2,0.4l1.1,0.1
		c1.6,0.2,1.8,0.2,1.8,0.2c0,0-0.2-0.4-0.8-1.3c-0.3-0.4-0.5-0.9-0.6-1c0-0.1-0.1-0.2-0.1-0.2C-75.3,76.4-76.2,76.3-77.4,76.3z
		 M-82.4,75.9l-1.2-0.1l-1.7,1.3c-0.9,0.7-1.7,1.3-1.7,1.3c0,0,0.6,0.1,1.2,0.1l1.2,0.1l1.8-1.3l0.2,0.4c0.2,0.3,0.3,0.5,0.5,0.8
		l0.3,0.5l0.3,0c0.2,0,0.4,0,0.6,0.1c0.2,0,0.6,0.1,0.9,0.1c0.3,0,0.6,0.1,0.7,0.1c0.1,0-0.2-0.4-0.9-1.6c-0.5-0.9-1-1.6-1.1-1.6
		C-81.2,76-81.7,76-82.4,75.9z M-74.6,79.7c-0.8-0.1-1.4-0.1-1.4-0.1c0,0,0.1,0.3,0.3,0.6c0.2,0.3,0.3,0.6,0.3,0.6s-0.5,0-1-0.1
		c-0.6-0.1-2-0.2-3.1-0.3l-3.9-0.4c-1-0.1-1.9-0.2-2-0.2c-2-0.2-2.6-0.3-2.6-0.3c-0.1,0-0.3,0.1-1.1,0.7l-1,0.7l0.4,0.6l0.4,0.6
		l1.4,0.2c0.8,0.1,1.4,0.1,1.4,0.1s0-0.1-0.1-0.2s-0.2-0.3-0.3-0.5c-0.1-0.2-0.2-0.3-0.2-0.4c0,0,0-0.1,0-0.1c0,0,0.6,0,1.4,0.1
		c1.5,0.2,2.6,0.3,5,0.5c1.1,0.1,2.2,0.2,3.2,0.3c1,0.1,2.1,0.2,2.5,0.3l0.7,0.1l1-0.7l1-0.7l-0.4-0.6c-0.2-0.3-0.4-0.6-0.4-0.6
		C-73.2,79.8-73.9,79.7-74.6,79.7z M-76,83.5c-0.2,0-0.5,0-0.7-0.1s-0.6-0.1-0.9-0.1l-0.5-0.1l-0.9,0.7c-0.5,0.4-0.9,0.6-0.9,0.6
		c0,0-0.4-0.6-0.7-1.2c-0.2-0.4-0.3-0.4-0.4-0.5c-0.1,0-0.7-0.1-1.3-0.1c-0.6-0.1-1.1-0.1-1.1-0.1c0,0,0.4,0.7,0.9,1.6l1,1.6
		l1.2,0.1c0.7,0,1.3,0.1,1.3,0.1c0.1,0,3.4-2.5,3.4-2.5C-75.7,83.5-75.9,83.5-76,83.5z M-84.4,84.3c-0.2,0-0.4,0-0.6-0.1
		c-0.6-0.1-0.5,0-0.8-0.4c-0.2-0.3-0.3-0.4-0.4-0.4c-0.1,0-0.6-0.1-1.3-0.1c-0.6-0.1-1.2-0.1-1.2-0.1c-0.2-0.1-0.1,0.2,0.6,1.2
		l0.8,1.2l0.9,0.1c0.5,0,1.5,0.1,2.2,0.2c0.7,0.1,1.3,0.1,1.3,0.1c0,0-0.2-0.3-0.5-0.7l-0.5-0.7L-84.4,84.3z"/>
</g>
<g>
	<path class="st3" d="M-53.4,52.8c-0.9,0.7-1.6,1.3-1.6,1.3c0,0,1.7,0.5,1.8,0.5c0,0,0.3-0.2,0.6-0.4l0.5-0.4l0.4,0.1l0.4,0.1
		l0.9-0.6c1.3-1,1.5-1.1,1.4-1.1c0,0-0.4-0.1-1.4-0.5c-0.5-0.1-1-0.3-1.1-0.3c-0.1,0-0.2-0.1-0.2,0C-51.8,51.5-52.5,52.1-53.4,52.8z
		 M-57.3,55.9l-0.9,0.7l-0.4,2.1c-0.2,1.1-0.4,2.1-0.4,2.1c0,0,0.5-0.3,1-0.7l1-0.7l0.4-2.2l0.4,0.1c0.3,0.1,0.6,0.2,0.9,0.3
		l0.5,0.2l0.3-0.2c0.2-0.1,0.4-0.3,0.5-0.4c0.1-0.1,0.5-0.3,0.7-0.5c0.3-0.2,0.5-0.4,0.6-0.4c0,0-0.4-0.2-1.7-0.6
		c-1-0.3-1.8-0.5-1.9-0.5C-56.4,55.1-56.8,55.5-57.3,55.9z M-49.1,53.4c-0.6,0.5-1.1,0.8-1.1,0.9c0,0,0.3,0.1,0.6,0.2
		c0.3,0.1,0.6,0.2,0.6,0.2s-0.4,0.3-0.8,0.6c-0.5,0.3-1.6,1.2-2.5,1.9l-3.2,2.3c-0.8,0.6-1.5,1.1-1.6,1.2c-1.6,1.2-2.1,1.5-2.1,1.6
		c-0.1,0.1-0.1,0.3-0.3,1.3l-0.2,1.2l0.7,0.2l0.7,0.2l1.1-0.8c0.6-0.5,1.1-0.9,1.1-0.9s-0.1-0.1-0.2-0.1c-0.1,0-0.3-0.1-0.5-0.2
		c-0.2-0.1-0.3-0.1-0.4-0.1c0,0-0.1,0-0.1,0c0,0,0.5-0.4,1.1-0.8c1.2-0.9,2.1-1.5,4.1-3c0.9-0.6,1.8-1.3,2.6-1.9
		c0.8-0.6,1.7-1.2,2-1.5l0.6-0.4l0.3-1.2l0.3-1.2l-0.7-0.2c-0.4-0.1-0.7-0.2-0.7-0.2C-47.9,52.6-48.5,53-49.1,53.4z M-47.5,57.2
		c-0.1,0.1-0.4,0.3-0.5,0.4c-0.2,0.1-0.5,0.4-0.7,0.5l-0.4,0.3l-0.2,1.1c-0.1,0.6-0.2,1.1-0.3,1.1c0,0-0.7-0.2-1.3-0.4
		c-0.5-0.1-0.5-0.1-0.6,0c-0.1,0.1-0.5,0.4-1,0.7c-0.5,0.4-0.9,0.7-0.9,0.7c0,0,0.8,0.3,1.8,0.6l1.8,0.5l1-0.8c0.5-0.4,1-0.8,1-0.8
		C-48,61-47.2,57-47.3,57C-47.3,57-47.4,57.1-47.5,57.2z M-53.2,63.4c-0.2,0.1-0.3,0.2-0.5,0.4c-0.5,0.4-0.4,0.3-0.9,0.2
		c-0.3-0.1-0.5-0.1-0.5,0c-0.1,0-0.5,0.4-1.1,0.8c-0.5,0.4-1,0.7-1,0.7c-0.2,0.1,0.1,0.2,1.2,0.5l1.3,0.4l0.7-0.5
		c0.4-0.3,1.2-0.9,1.7-1.3c0.6-0.4,1-0.8,1-0.8c0,0-0.4-0.1-0.9-0.2l-0.8-0.2L-53.2,63.4z"/>
</g>
<g>
	<g class="st4">
		<path class="st5" d="M69.4,77.4L47.7,90.1c-0.4,0.2-0.8,0.4-1.2,0.5c-0.1,0.1-0.3,0.1-0.5,0.1c-0.2,0.1-0.4,0.1-0.6,0.1
			C45.2,91,44.9,91,44.7,91c-0.1,0-0.1,0-0.2,0c-0.3,0-0.7,0.1-1,0.1c-0.1,0-0.1,0-0.2,0c-0.3,0-0.7,0-1-0.1c0,0-0.1,0-0.1,0
			c-0.3,0-0.7-0.1-1-0.2c-0.1,0-0.1,0-0.2,0c-0.3-0.1-0.6-0.2-0.8-0.3c-0.1,0-0.1,0-0.2-0.1c-0.3-0.1-0.6-0.3-0.9-0.4
			c-1.2-0.7-1.8-1.6-1.8-2.5l0,5.3c0,0.9,0.6,1.8,1.8,2.5c0.3,0.2,0.6,0.3,0.9,0.4c0,0,0,0,0,0c0.1,0,0.1,0,0.2,0.1
			c0.2,0.1,0.3,0.1,0.5,0.2c0.1,0,0.2,0,0.3,0.1c0.1,0,0.1,0,0.2,0c0.1,0,0.1,0,0.2,0c0.2,0,0.4,0.1,0.6,0.1c0.1,0,0.1,0,0.2,0
			c0.1,0,0.1,0,0.1,0c0.1,0,0.1,0,0.2,0c0.2,0,0.4,0,0.6,0c0.1,0,0.1,0,0.2,0c0.1,0,0.1,0,0.2,0c0.1,0,0.2,0,0.3,0
			c0.2,0,0.4,0,0.7,0c0,0,0,0,0.1,0c0.1,0,0.1,0,0.2,0c0.2,0,0.3,0,0.5-0.1c0.1,0,0.1,0,0.2-0.1c0.2,0,0.4-0.1,0.6-0.1
			c0.1,0,0.2,0,0.3-0.1c0,0,0.1,0,0.1-0.1c0.4-0.1,0.8-0.3,1.2-0.5l21.8-12.7l5.8-3.4l0-5.3L69.4,77.4z"/>
		<linearGradient id="SVGID_1_" gradientUnits="userSpaceOnUse" x1="37.31" y1="85.2548" x2="75.2837" y2="85.2548">
			<stop  offset="0" style="stop-color:#4D4D4D"/>
			<stop  offset="1.913556e-02" style="stop-color:#5D5D5D"/>
			<stop  offset="7.652014e-02" style="stop-color:#888888"/>
			<stop  offset="0.1368" style="stop-color:#ADADAD"/>
			<stop  offset="0.1996" style="stop-color:#CBCBCB"/>
			<stop  offset="0.2655" style="stop-color:#E2E2E2"/>
			<stop  offset="0.336" style="stop-color:#F2F2F2"/>
			<stop  offset="0.4143" style="stop-color:#FCFCFC"/>
			<stop  offset="0.516" style="stop-color:#FFFFFF"/>
			<stop  offset="0.6451" style="stop-color:#FDFDFD"/>
			<stop  offset="0.719" style="stop-color:#F4F4F4"/>
			<stop  offset="0.779" style="stop-color:#E6E6E6"/>
			<stop  offset="0.8316" style="stop-color:#D3D3D3"/>
			<stop  offset="0.8793" style="stop-color:#B9B9B9"/>
			<stop  offset="0.9235" style="stop-color:#999999"/>
			<stop  offset="0.9641" style="stop-color:#747474"/>
			<stop  offset="1" style="stop-color:#4D4D4D"/>
		</linearGradient>
		<path class="st6" d="M69.4,77.4L47.7,90.1c-0.4,0.2-0.8,0.4-1.2,0.5c-0.1,0.1-0.3,0.1-0.5,0.1c-0.2,0.1-0.4,0.1-0.6,0.1
			C45.2,91,44.9,91,44.7,91c-0.1,0-0.1,0-0.2,0c-0.3,0-0.7,0.1-1,0.1c-0.1,0-0.1,0-0.2,0c-0.3,0-0.7,0-1-0.1c0,0-0.1,0-0.1,0
			c-0.3,0-0.7-0.1-1-0.2c-0.1,0-0.1,0-0.2,0c-0.3-0.1-0.6-0.2-0.8-0.3c-0.1,0-0.1,0-0.2-0.1c-0.3-0.1-0.6-0.3-0.9-0.4
			c-1.2-0.7-1.8-1.6-1.8-2.5l0,5.3c0,0.9,0.6,1.8,1.8,2.5c0.3,0.2,0.6,0.3,0.9,0.4c0,0,0,0,0,0c0.1,0,0.1,0,0.2,0.1
			c0.2,0.1,0.3,0.1,0.5,0.2c0.1,0,0.2,0,0.3,0.1c0.1,0,0.1,0,0.2,0c0.1,0,0.1,0,0.2,0c0.2,0,0.4,0.1,0.6,0.1c0.1,0,0.1,0,0.2,0
			c0.1,0,0.1,0,0.1,0c0.1,0,0.1,0,0.2,0c0.2,0,0.4,0,0.6,0c0.1,0,0.1,0,0.2,0c0.1,0,0.1,0,0.2,0c0.1,0,0.2,0,0.3,0
			c0.2,0,0.4,0,0.7,0c0,0,0,0,0.1,0c0.1,0,0.1,0,0.2,0c0.2,0,0.3,0,0.5-0.1c0.1,0,0.1,0,0.2-0.1c0.2,0,0.4-0.1,0.6-0.1
			c0.1,0,0.2,0,0.3-0.1c0,0,0.1,0,0.1-0.1c0.4-0.1,0.8-0.3,1.2-0.5l21.8-12.7l5.8-3.4l0-5.3L69.4,77.4z"/>
		<g>
			<path class="st5" d="M75.3,74.1l-5.8,3.4L47.7,90.1c-2.4,1.4-6.2,1.4-8.5,0c-2.4-1.4-2.4-3.6,0-4.9l21.8-12.7l5.8-3.4L75.3,74.1z
				"/>
		</g>
	</g>
	<g>
		<path class="st7" d="M52.3,43c-0.1,0.1-0.3,0.1-0.4,0.2C52,43.1,52.1,43,52.3,43z"/>
		<path class="st7" d="M50.5,43.7c0.1,0,0.2-0.1,0.2-0.1c-0.1,0-0.3,0.1-0.4,0.1C50.4,43.7,50.4,43.7,50.5,43.7z"/>
		<path class="st7" d="M45.9,44.6c0,0,0.1,0,0.1,0c-0.1,0-0.3,0-0.4,0C45.7,44.6,45.8,44.6,45.9,44.6z"/>
		<path class="st7" d="M40.1,44.5c0.1,0,0.2,0,0.3,0c-0.2,0-0.4-0.1-0.6-0.1C39.9,44.4,40,44.5,40.1,44.5z"/>
		<path class="st7" d="M41.5,44.6c0.1,0,0.2,0,0.3,0c-0.2,0-0.4,0-0.6-0.1C41.3,44.6,41.4,44.6,41.5,44.6z"/>
		<path class="st7" d="M47.8,44.3c0.1,0,0.3-0.1,0.4-0.1C48,44.3,47.9,44.3,47.8,44.3C47.7,44.4,47.8,44.4,47.8,44.3z"/>
		<path class="st7" d="M49.6,43.9c-0.2,0-0.4,0.1-0.5,0.1C49.2,44,49.4,44,49.6,43.9z"/>
		<path class="st7" d="M44.4,44.7c0.1,0,0.1,0,0.2,0c-0.2,0-0.4,0-0.6,0C44.1,44.7,44.2,44.7,44.4,44.7z"/>
		<path class="st7" d="M42.9,44.7c0.1,0,0.2,0,0.3,0c-0.2,0-0.4,0-0.6,0C42.7,44.7,42.8,44.7,42.9,44.7z"/>
		<path class="st8" d="M38.7,44.2c0.1,0,0.2,0,0.3,0.1c-0.2,0-0.4-0.1-0.6-0.1C38.5,44.2,38.6,44.2,38.7,44.2z"/>
		<path class="st9" d="M37.4,43.9C37.5,43.9,37.5,43.9,37.4,43.9C37.5,43.9,37.5,43.9,37.4,43.9L37.4,43.9z"/>
		<path class="st10" d="M37.4,43.9L37.4,43.9C37.4,43.9,37.4,43.9,37.4,43.9L37.4,43.9C37.4,43.9,37.4,43.9,37.4,43.9z"/>
		<path class="st10" d="M61,21.3L39.2,33.9c0,0,0,0-0.1,0.1c-0.1,0.1-0.2,0.1-0.3,0.2c-0.1,0.1-0.3,0.2-0.4,0.3c0,0,0,0,0,0
			c0,0-0.1,0.1-0.1,0.1C38.1,34.8,38,34.9,38,35c0,0,0,0-0.1,0.1c0,0,0,0.1-0.1,0.1c0,0.1-0.1,0.1-0.1,0.2c0,0,0,0,0,0
			c-0.1,0.1-0.1,0.2-0.2,0.3c0,0,0,0,0,0c0,0,0,0,0,0.1c0,0.1,0,0.2-0.1,0.3c0,0,0,0.1,0,0.1c0,0.1,0,0.2,0,0.2v0c0,0.1,0,0.2,0,0.2
			c0,0.2,0,0.3,0.1,0.5c0,0.1,0.1,0.2,0.2,0.3c0.1,0.1,0.1,0.3,0.2,0.4c0.1,0.1,0.2,0.3,0.4,0.4c0.2,0.2,0.5,0.4,0.8,0.6
			c0,0,0,0,0.1,0c0,0,0,0,0,0c2.4,1.4,6.2,1.4,8.5,0l13.2-7.7l5.8-3.4l0-9.9L61,21.3z"/>
		<rect x="37.4" y="43.9" class="st11" width="0" height="0"/>
		<path class="st12" d="M53.6,42.3c-0.4,0.3-0.9,0.5-1.4,0.7c-0.1,0.1-0.3,0.1-0.4,0.2c-0.4,0.2-0.8,0.3-1.1,0.4
			c-0.1,0-0.2,0.1-0.2,0.1c0,0-0.1,0-0.2,0c-0.3,0.1-0.5,0.1-0.8,0.2c-0.2,0-0.4,0.1-0.5,0.1c-0.3,0.1-0.6,0.1-0.9,0.2
			c-0.1,0-0.3,0.1-0.4,0.1c0,0,0,0-0.1,0c-0.5,0.1-1.1,0.2-1.7,0.2c0,0-0.1,0-0.1,0c-0.1,0-0.2,0-0.3,0c-0.3,0-0.7,0.1-1,0.1
			c-0.1,0-0.1,0-0.2,0c-0.1,0-0.2,0-0.4,0c-0.3,0-0.5,0-0.8,0c-0.1,0-0.2,0-0.3,0c-0.1,0-0.2,0-0.4,0c-0.3,0-0.5,0-0.8,0
			c-0.1,0-0.2,0-0.3,0c-0.1,0-0.2,0-0.3,0c-0.3,0-0.5-0.1-0.8-0.1c-0.1,0-0.2,0-0.3,0c-0.1,0-0.2,0-0.3,0c-0.3,0-0.5-0.1-0.8-0.1
			c-0.1,0-0.2,0-0.3-0.1c-0.1,0-0.1,0-0.2-0.1c-0.3-0.1-0.6-0.1-0.9-0.2c0,0,0,0-0.1,0c0,0,0,0,0,0c-0.1,0-0.2,0-0.2-0.1
			c0,0-0.1,0-0.1,0c-0.5-0.2-1-0.3-1.5-0.5c0,0-0.1,0-0.1,0c-0.2-0.1-0.5-0.2-0.7-0.3c-0.1,0-0.2-0.1-0.3-0.1
			c-0.4-0.2-0.7-0.4-1.1-0.6c-0.4-0.2-0.7-0.4-1-0.6c-0.1-0.1-0.1-0.1-0.2-0.2c-0.2-0.2-0.4-0.3-0.6-0.5c-0.1-0.1-0.1-0.1-0.2-0.2
			c-0.2-0.2-0.4-0.3-0.5-0.5c-0.1-0.1-0.1-0.2-0.2-0.2c-0.1-0.2-0.3-0.3-0.4-0.5c-0.1-0.1-0.1-0.2-0.2-0.3c-0.1-0.2-0.2-0.3-0.3-0.5
			c-0.1-0.1-0.1-0.2-0.1-0.3c-0.1-0.2-0.1-0.3-0.2-0.5c0-0.1-0.1-0.2-0.1-0.3c0-0.2-0.1-0.3-0.1-0.5c0-0.1,0-0.2,0-0.3
			c0-0.1,0-0.3,0-0.4L29,83.8c0,2.1,1.4,4.3,4.2,5.9c0.6,0.4,1.3,0.7,1.9,0.9c0,0,0.1,0,0.1,0c0,0,0,0,0.1,0c0.5,0.2,1,0.4,1.5,0.5
			c0,0,0.1,0,0.1,0c0.1,0,0.2,0.1,0.4,0.1c0.3,0.1,0.6,0.2,0.9,0.2c0.1,0,0.2,0,0.2,0c0.1,0,0.2,0,0.4,0.1c0.3,0,0.5,0.1,0.8,0.1
			c0.1,0,0.2,0,0.3,0c0.1,0,0.2,0,0.3,0c0.2,0,0.5,0.1,0.7,0.1c0.1,0,0.2,0,0.4,0c0.1,0,0.2,0,0.3,0c0.2,0,0.5,0,0.7,0
			c0.1,0,0.3,0,0.4,0c0.1,0,0.2,0,0.3,0c0.3,0,0.5,0,0.8,0c0.1,0,0.3,0,0.4,0c0.1,0,0.2,0,0.2,0c0.3,0,0.6,0,1-0.1
			c0.1,0,0.3,0,0.4,0c0,0,0.1,0,0.1,0c0.5-0.1,1.1-0.1,1.6-0.2c0,0,0.1,0,0.1,0c0.2,0,0.3-0.1,0.5-0.1c0.3-0.1,0.5-0.1,0.8-0.2
			c0.2,0,0.4-0.1,0.6-0.2c0.2-0.1,0.5-0.1,0.7-0.2c0.1,0,0.1,0,0.2-0.1c0.1,0,0.2-0.1,0.3-0.1c0.4-0.1,0.8-0.3,1.1-0.4
			c0.1-0.1,0.3-0.1,0.4-0.2c0.5-0.2,0.9-0.4,1.4-0.7l27.6-16l0.1-47.4L53.6,42.3z"/>
		<linearGradient id="SVGID_2_" gradientUnits="userSpaceOnUse" x1="28.9907" y1="64.2682" x2="53.6313" y2="64.2682">
			<stop  offset="0" style="stop-color:#4D4D4D"/>
			<stop  offset="1.913556e-02" style="stop-color:#5D5D5D"/>
			<stop  offset="7.652014e-02" style="stop-color:#888888"/>
			<stop  offset="0.1368" style="stop-color:#ADADAD"/>
			<stop  offset="0.1996" style="stop-color:#CBCBCB"/>
			<stop  offset="0.2655" style="stop-color:#E2E2E2"/>
			<stop  offset="0.336" style="stop-color:#F2F2F2"/>
			<stop  offset="0.4143" style="stop-color:#FCFCFC"/>
			<stop  offset="0.516" style="stop-color:#FFFFFF"/>
		</linearGradient>
		<path class="st13" d="M52.3,43c-0.1,0.1-0.3,0.1-0.4,0.2c-0.4,0.2-0.8,0.3-1.1,0.4c-0.1,0-0.2,0.1-0.2,0.1c0,0-0.1,0-0.2,0
			c-0.3,0.1-0.5,0.1-0.8,0.2c-0.2,0-0.4,0.1-0.5,0.1c-0.3,0.1-0.6,0.1-0.9,0.2c-0.1,0-0.3,0.1-0.4,0.1c0,0,0,0-0.1,0
			c-0.5,0.1-1.1,0.2-1.7,0.2c0,0-0.1,0-0.1,0c-0.1,0-0.2,0-0.3,0c-0.3,0-0.7,0.1-1,0.1c-0.1,0-0.1,0-0.2,0c-0.1,0-0.2,0-0.4,0
			c-0.3,0-0.5,0-0.8,0c-0.1,0-0.2,0-0.3,0c-0.1,0-0.2,0-0.4,0c-0.3,0-0.5,0-0.8,0c-0.1,0-0.2,0-0.3,0c-0.1,0-0.2,0-0.3,0
			c-0.3,0-0.5-0.1-0.8-0.1c-0.1,0-0.2,0-0.3,0c-0.1,0-0.2,0-0.3,0c-0.3,0-0.5-0.1-0.8-0.1c-0.1,0-0.2,0-0.3-0.1
			c-0.1,0-0.1,0-0.2-0.1c-0.3-0.1-0.6-0.1-0.9-0.2c0,0,0,0-0.1,0c0,0,0,0,0,0c-0.1,0-0.2,0-0.2-0.1c0,0-0.1,0-0.1,0
			c-0.5-0.2-1-0.3-1.5-0.5c0,0-0.1,0-0.1,0c-0.2-0.1-0.5-0.2-0.7-0.3c-0.1,0-0.2-0.1-0.3-0.1c-0.4-0.2-0.7-0.4-1.1-0.6
			c-0.4-0.2-0.7-0.4-1-0.6c-0.1-0.1-0.1-0.1-0.2-0.2c-0.2-0.2-0.4-0.3-0.6-0.5c-0.1-0.1-0.1-0.1-0.2-0.2c-0.2-0.2-0.4-0.3-0.5-0.5
			c-0.1-0.1-0.1-0.2-0.2-0.2c-0.1-0.2-0.3-0.3-0.4-0.5c-0.1-0.1-0.1-0.2-0.2-0.3c-0.1-0.2-0.2-0.3-0.3-0.5c-0.1-0.1-0.1-0.2-0.1-0.3
			c-0.1-0.2-0.1-0.3-0.2-0.5c0-0.1-0.1-0.2-0.1-0.3c0-0.2-0.1-0.3-0.1-0.5c0-0.1,0-0.2,0-0.3c0-0.1,0-0.3,0-0.4L29,83.8
			c0,2.1,1.4,4.3,4.2,5.9c0.6,0.4,1.3,0.7,1.9,0.9c0,0,0.1,0,0.1,0c0,0,0,0,0.1,0c0.5,0.2,1,0.4,1.5,0.5c0,0,0.1,0,0.1,0
			c0.1,0,0.2,0.1,0.4,0.1c0.3,0.1,0.6,0.2,0.9,0.2c0.1,0,0.2,0,0.2,0c0.1,0,0.2,0,0.4,0.1c0.3,0,0.5,0.1,0.8,0.1c0.1,0,0.2,0,0.3,0
			c0.1,0,0.2,0,0.3,0c0.2,0,0.5,0.1,0.7,0.1c0.1,0,0.2,0,0.4,0c0.1,0,0.2,0,0.3,0c0.2,0,0.5,0,0.7,0c0.1,0,0.3,0,0.4,0
			c0.1,0,0.2,0,0.3,0c0.3,0,0.5,0,0.8,0c0.1,0,0.3,0,0.4,0c0.1,0,0.2,0,0.2,0c0.3,0,0.6,0,1-0.1c0.1,0,0.3,0,0.4,0c0,0,0.1,0,0.1,0
			c0.5-0.1,1.1-0.1,1.6-0.2c0,0,0.1,0,0.1,0c0.2,0,0.3-0.1,0.5-0.1c0.3-0.1,0.5-0.1,0.8-0.2c0.2,0,0.4-0.1,0.6-0.2
			c0.2-0.1,0.5-0.1,0.7-0.2c0.1,0,0.1,0,0.2-0.1c0.1,0,0.2-0.1,0.3-0.1c0.4-0.1,0.8-0.3,1.1-0.4c0.1-0.1,0.3-0.1,0.4-0.2
			c0.5-0.2,0.9-0.4,1.4-0.7l0.1-47.4C53.2,42.5,52.7,42.8,52.3,43z"/>
		<path class="st14" d="M29.1,36.4L29.1,36.4C29.1,36.4,29.1,36.4,29.1,36.4C29.1,36.4,29.1,36.4,29.1,36.4z"/>
		<path class="st15" d="M29.2,37.2c0,0.2,0.1,0.3,0.1,0.5c0,0.1,0,0.2,0.1,0.3c0.1,0.2,0.1,0.3,0.2,0.5c0,0.1,0.1,0.2,0.1,0.3
			c0.1,0.2,0.2,0.3,0.3,0.5c0.1,0.1,0.1,0.2,0.2,0.3c0.1,0.2,0.3,0.3,0.4,0.5c0.1,0.1,0.1,0.2,0.2,0.2c0.2,0.2,0.3,0.3,0.5,0.5
			c0.1,0.1,0.1,0.1,0.2,0.2c0.2,0.2,0.4,0.3,0.6,0.5c0.1,0.1,0.1,0.1,0.2,0.2c0.3,0.2,0.6,0.4,1,0.6c0.3,0.2,0.7,0.4,1.1,0.6
			c0.1,0,0.2,0.1,0.3,0.1c0.3,0.1,0.5,0.2,0.8,0.3c0.5,0.2,1,0.4,1.5,0.5c0.1,0,0.2,0.1,0.4,0.1l0,0c0,0,0,0,0,0c0,0,0,0,0.1,0
			c0.3,0.1,0.6,0.2,0.9,0.2c0.2,0,0.4,0.1,0.6,0.1c0.3,0.1,0.5,0.1,0.8,0.1c0.2,0,0.4,0.1,0.6,0.1c0.2,0,0.5,0.1,0.8,0.1
			c0.2,0,0.4,0,0.6,0.1c0.2,0,0.5,0,0.8,0c0.2,0,0.4,0,0.6,0c0.3,0,0.5,0,0.8,0c0.2,0,0.4,0,0.6,0c0.3,0,0.7,0,1-0.1
			c0.1,0,0.3,0,0.4,0c0.6-0.1,1.1-0.1,1.7-0.2c0.2,0,0.3-0.1,0.5-0.1c0.3-0.1,0.6-0.1,0.9-0.2c0.2,0,0.4-0.1,0.5-0.1
			c0.3-0.1,0.5-0.1,0.8-0.2c0.1,0,0.3-0.1,0.4-0.1c0.4-0.1,0.8-0.3,1.1-0.4c0.1-0.1,0.3-0.1,0.4-0.2c0.5-0.2,0.9-0.4,1.4-0.7
			l27.6-16l-5.9-3.4l-5.8,3.4l-2.8,1.6l-5.8,3.4l-13.2,7.7c-2.4,1.4-6.2,1.4-8.5,0c0,0,0,0,0,0c0,0,0,0-0.1,0
			c-0.3-0.2-0.5-0.4-0.8-0.6c-0.1-0.1-0.3-0.3-0.4-0.4c-0.1-0.1-0.2-0.3-0.2-0.4c-0.1-0.1-0.1-0.2-0.2-0.3c-0.1-0.2-0.1-0.3-0.1-0.5
			c0-0.1,0-0.2,0-0.2c0,0,0,0,0,0c0-0.1,0-0.2,0-0.2c0,0,0-0.1,0-0.1c0-0.1,0-0.2,0.1-0.4c0,0,0,0,0,0c0-0.1,0.1-0.2,0.2-0.3
			c0.1-0.1,0.1-0.2,0.2-0.3c0,0,0,0,0.1-0.1c0.1-0.1,0.2-0.2,0.2-0.3c0.2-0.2,0.4-0.3,0.6-0.5c0.1-0.1,0.2-0.1,0.3-0.2
			c0,0,0,0,0.1-0.1L61,21.3l5.8-3.4l-5.9-3.4L33.3,30.6c-2.8,1.6-4.2,3.7-4.2,5.8c0,0,0,0,0,0c0,0,0,0,0,0c0,0.1,0,0.3,0,0.4
			C29.2,37,29.2,37.1,29.2,37.2z"/>
	</g>
	<g>
		<path class="st16" d="M81.2,43.2l-11.4,6.6c-0.4,0.2-0.8,0.5-1.1,0.8c-0.1,0.1-0.2,0.2-0.3,0.3c-0.2,0.2-0.3,0.3-0.5,0.5
			c-0.1,0.1-0.2,0.1-0.2,0.2c-0.1,0.1-0.1,0.1-0.2,0.2c-0.1,0.1-0.1,0.2-0.2,0.3c-0.2,0.2-0.3,0.4-0.5,0.6c-0.1,0.1-0.1,0.1-0.2,0.2
			c0,0-0.1,0.1-0.1,0.1c-0.1,0.1-0.1,0.1-0.1,0.2c-0.1,0.2-0.2,0.3-0.3,0.5c-0.1,0.2-0.2,0.3-0.3,0.5c0,0,0,0,0,0c0,0,0,0,0,0
			c-0.1,0.1-0.1,0.3-0.2,0.4c-0.1,0.2-0.2,0.3-0.3,0.5c-0.1,0.2-0.2,0.3-0.2,0.5c0,0,0,0,0,0c0,0,0,0,0,0c-0.1,0.2-0.1,0.4-0.2,0.5
			c-0.1,0.2-0.1,0.4-0.2,0.6c0,0.1-0.1,0.2-0.1,0.3c0,0,0,0.1,0,0.1c0,0.1,0,0.1,0,0.2c-0.1,0.2-0.1,0.5-0.2,0.7
			c0,0.1-0.1,0.3-0.1,0.4c0,0.1,0,0.1,0,0.2c0,0.1,0,0.1,0,0.2c0,0.4-0.1,0.8-0.1,1.2c0,1.9,0.7,3.2,1.7,3.8l1.7,1c0,0,0,0,0,0
			c-0.3-0.2-0.5-0.3-0.7-0.6c0,0,0,0,0,0c-0.2-0.2-0.4-0.5-0.5-0.8c0,0,0,0,0,0c-0.1-0.3-0.3-0.7-0.3-1.1c0,0,0,0,0,0
			c-0.1-0.4-0.1-0.8-0.1-1.3c0-0.4,0-0.8,0.1-1.2c0-0.1,0-0.1,0-0.2c0-0.1,0-0.1,0-0.2c0-0.1,0-0.3,0.1-0.4c0-0.2,0.1-0.5,0.2-0.7
			c0-0.1,0-0.1,0.1-0.2c0,0,0-0.1,0-0.1c0-0.1,0.1-0.2,0.1-0.3c0.1-0.2,0.1-0.4,0.2-0.6c0.1-0.2,0.1-0.4,0.2-0.5c0,0,0,0,0,0
			c0,0,0,0,0,0c0.1-0.2,0.1-0.3,0.2-0.5c0.1-0.2,0.2-0.3,0.3-0.5c0.1-0.1,0.2-0.3,0.2-0.4c0,0,0,0,0,0c0,0,0,0,0,0
			c0.1-0.2,0.2-0.3,0.3-0.5c0.1-0.2,0.2-0.3,0.3-0.5c0.1-0.1,0.1-0.1,0.2-0.2c0,0,0.1-0.1,0.1-0.1c0.1-0.1,0.1-0.1,0.2-0.2
			c0.2-0.2,0.3-0.4,0.5-0.6c0.1-0.1,0.2-0.2,0.2-0.2c0.1-0.1,0.1-0.1,0.2-0.2c0.1-0.1,0.1-0.2,0.2-0.2c0.2-0.2,0.4-0.3,0.5-0.5
			c0.1-0.1,0.2-0.2,0.3-0.3c0.4-0.3,0.7-0.6,1.1-0.8l11.4-6.6L81.2,43.2z"/>
		<path class="st15" d="M82.9,44.2l-11.4,6.6c-0.4,0.2-0.8,0.5-1.1,0.8c-0.1,0.1-0.2,0.2-0.3,0.3c-0.3,0.2-0.5,0.5-0.8,0.7
			c-0.1,0.1-0.1,0.1-0.2,0.2c-0.3,0.3-0.6,0.7-0.9,1.1c0,0-0.1,0.1-0.1,0.1c-0.3,0.4-0.6,0.8-0.8,1.3c0,0,0,0,0,0
			c-0.3,0.5-0.5,0.9-0.7,1.4c0,0,0,0,0,0c-0.2,0.5-0.4,0.9-0.5,1.4c0,0,0,0.1,0,0.1c-0.1,0.4-0.2,0.9-0.3,1.3c0,0.1,0,0.1,0,0.2
			c-0.1,0.5-0.1,0.9-0.1,1.4c0,0.5,0,0.9,0.1,1.3c0,0,0,0,0,0c0.1,0.4,0.2,0.7,0.3,1.1c0,0,0,0,0,0c0.1,0.3,0.3,0.6,0.5,0.8
			c0,0,0,0,0,0c0.2,0.2,0.4,0.4,0.7,0.6c1.1,0.6,2.6,0.6,4.3-0.4L82.9,58L82.9,44.2z"/>
	</g>
	<g>
		<g class="st4">
			<path class="st0" d="M74.8,55.2l-0.9-0.5c0,0-0.1,0-0.1-0.1c0,0-0.1,0-0.1,0c0,0-0.1,0-0.1,0c0,0,0,0,0,0c0,0,0,0,0,0
				c0,0-0.1,0-0.2,0c-0.1,0-0.1,0-0.2,0c0,0,0,0-0.1,0c0,0,0,0,0,0c0,0-0.1,0-0.1,0c-0.1,0-0.2,0-0.2,0l0,0c0,0,0,0,0,0l0,0
				c0,0-0.1,0-0.1,0c0,0-0.1,0-0.1,0c0,0-0.1,0-0.1,0c-0.1,0-0.2,0.1-0.4,0.2c-0.2,0.1-0.3,0.2-0.5,0.3c-0.1,0-0.1,0.1-0.2,0.1
				c-0.1,0.1-0.1,0.1-0.2,0.2c0,0-0.1,0.1-0.1,0.1c0,0-0.1,0.1-0.1,0.1c0,0-0.1,0.1-0.1,0.1c-0.1,0.1-0.1,0.2-0.2,0.3
				c0,0,0,0.1-0.1,0.1c0,0,0,0,0,0.1c0,0,0,0.1-0.1,0.1c-0.1,0.1-0.1,0.1-0.1,0.2c0,0.1-0.1,0.1-0.1,0.2c0,0,0,0,0,0c0,0,0,0,0,0
				c0,0.1-0.1,0.1-0.1,0.2c0,0.1-0.1,0.1-0.1,0.2c0,0.1-0.1,0.1-0.1,0.2c0,0,0,0,0,0c0,0,0,0,0,0c0,0.1-0.1,0.2-0.1,0.2
				c0,0.1-0.1,0.2-0.1,0.2c0,0,0,0.1,0,0.1c0,0,0,0,0,0.1c0,0,0,0.1,0,0.1c0,0.1-0.1,0.2-0.1,0.3c0,0.1,0,0.1,0,0.2c0,0,0,0.1,0,0.1
				c0,0,0,0.1,0,0.1c0,0.2,0,0.3,0,0.5c0,0.8,0.3,1.4,0.8,1.7l0.9,0.5c-0.5-0.3-0.7-0.8-0.8-1.7c0-0.2,0-0.4,0-0.6c0,0,0-0.1,0-0.1
				c0-0.2,0.1-0.4,0.1-0.6c0,0,0,0,0-0.1c0.2-0.6,0.5-1.2,0.9-1.8c0,0,0,0,0,0c0.1-0.2,0.2-0.3,0.4-0.5c0,0,0.1-0.1,0.1-0.1
				c0.1-0.1,0.2-0.2,0.3-0.3c0,0,0.1-0.1,0.1-0.1c0.2-0.1,0.3-0.2,0.5-0.3c0.2-0.1,0.3-0.2,0.5-0.2c0,0,0.1,0,0.1,0
				c0.1,0,0.3-0.1,0.4-0.1c0,0,0,0,0,0c0.1,0,0.3,0,0.4,0c0,0,0,0,0,0C74.5,55.1,74.7,55.2,74.8,55.2C74.8,55.2,74.8,55.2,74.8,55.2
				z"/>
			<g>
				<path class="st1" d="M72.9,55.4c1.4-0.8,2.6-0.2,2.6,1.5c0,1.6-1.1,3.6-2.6,4.5c-1.4,0.8-2.6,0.2-2.6-1.5
					C70.4,58.2,71.5,56.3,72.9,55.4z"/>
			</g>
		</g>
	</g>
	<g class="st4">
		<path class="st5" d="M69.4,21L47.7,33.6c-0.4,0.2-0.8,0.4-1.2,0.5c-0.1,0.1-0.3,0.1-0.5,0.1c-0.2,0.1-0.4,0.1-0.6,0.1
			c-0.2,0.1-0.5,0.1-0.8,0.1c-0.1,0-0.1,0-0.2,0c-0.3,0-0.7,0.1-1,0.1c-0.1,0-0.1,0-0.2,0c-0.3,0-0.7,0-1-0.1c0,0-0.1,0-0.1,0
			c-0.3,0-0.7-0.1-1-0.2c-0.1,0-0.1,0-0.2,0c-0.3-0.1-0.6-0.2-0.8-0.3c-0.1,0-0.1,0-0.2-0.1c-0.3-0.1-0.6-0.3-0.9-0.4
			c-1.2-0.7-1.8-1.6-1.8-2.5l0,5.3c0,0.9,0.6,1.8,1.8,2.5c0.3,0.2,0.6,0.3,0.9,0.4c0,0,0,0,0,0c0.1,0,0.1,0,0.2,0.1
			c0.2,0.1,0.3,0.1,0.5,0.2c0.1,0,0.2,0,0.3,0.1c0.1,0,0.1,0,0.2,0c0.1,0,0.1,0,0.2,0c0.2,0,0.4,0.1,0.6,0.1c0.1,0,0.1,0,0.2,0
			c0.1,0,0.1,0,0.1,0c0.1,0,0.1,0,0.2,0c0.2,0,0.4,0,0.6,0c0.1,0,0.1,0,0.2,0c0.1,0,0.1,0,0.2,0c0.1,0,0.2,0,0.3,0
			c0.2,0,0.4,0,0.7,0c0,0,0,0,0.1,0c0.1,0,0.1,0,0.2,0c0.2,0,0.3,0,0.5-0.1c0.1,0,0.1,0,0.2-0.1c0.2,0,0.4-0.1,0.6-0.1
			c0.1,0,0.2,0,0.3-0.1c0,0,0.1,0,0.1-0.1c0.4-0.1,0.8-0.3,1.2-0.5l21.8-12.7l5.8-3.4l0-5.3L69.4,21z"/>
		<linearGradient id="SVGID_3_" gradientUnits="userSpaceOnUse" x1="37.31" y1="28.7789" x2="75.2837" y2="28.7789">
			<stop  offset="0" style="stop-color:#4D4D4D"/>
			<stop  offset="1.913556e-02" style="stop-color:#5D5D5D"/>
			<stop  offset="7.652014e-02" style="stop-color:#888888"/>
			<stop  offset="0.1368" style="stop-color:#ADADAD"/>
			<stop  offset="0.1996" style="stop-color:#CBCBCB"/>
			<stop  offset="0.2655" style="stop-color:#E2E2E2"/>
			<stop  offset="0.336" style="stop-color:#F2F2F2"/>
			<stop  offset="0.4143" style="stop-color:#FCFCFC"/>
			<stop  offset="0.516" style="stop-color:#FFFFFF"/>
			<stop  offset="0.6451" style="stop-color:#FDFDFD"/>
			<stop  offset="0.719" style="stop-color:#F4F4F4"/>
			<stop  offset="0.779" style="stop-color:#E6E6E6"/>
			<stop  offset="0.8316" style="stop-color:#D3D3D3"/>
			<stop  offset="0.8793" style="stop-color:#B9B9B9"/>
			<stop  offset="0.9235" style="stop-color:#999999"/>
			<stop  offset="0.9641" style="stop-color:#747474"/>
			<stop  offset="1" style="stop-color:#4D4D4D"/>
		</linearGradient>
		<path class="st17" d="M69.4,21L47.7,33.6c-0.4,0.2-0.8,0.4-1.2,0.5c-0.1,0.1-0.3,0.1-0.5,0.1c-0.2,0.1-0.4,0.1-0.6,0.1
			c-0.2,0.1-0.5,0.1-0.8,0.1c-0.1,0-0.1,0-0.2,0c-0.3,0-0.7,0.1-1,0.1c-0.1,0-0.1,0-0.2,0c-0.3,0-0.7,0-1-0.1c0,0-0.1,0-0.1,0
			c-0.3,0-0.7-0.1-1-0.2c-0.1,0-0.1,0-0.2,0c-0.3-0.1-0.6-0.2-0.8-0.3c-0.1,0-0.1,0-0.2-0.1c-0.3-0.1-0.6-0.3-0.9-0.4
			c-1.2-0.7-1.8-1.6-1.8-2.5l0,5.3c0,0.9,0.6,1.8,1.8,2.5c0.3,0.2,0.6,0.3,0.9,0.4c0,0,0,0,0,0c0.1,0,0.1,0,0.2,0.1
			c0.2,0.1,0.3,0.1,0.5,0.2c0.1,0,0.2,0,0.3,0.1c0.1,0,0.1,0,0.2,0c0.1,0,0.1,0,0.2,0c0.2,0,0.4,0.1,0.6,0.1c0.1,0,0.1,0,0.2,0
			c0.1,0,0.1,0,0.1,0c0.1,0,0.1,0,0.2,0c0.2,0,0.4,0,0.6,0c0.1,0,0.1,0,0.2,0c0.1,0,0.1,0,0.2,0c0.1,0,0.2,0,0.3,0
			c0.2,0,0.4,0,0.7,0c0,0,0,0,0.1,0c0.1,0,0.1,0,0.2,0c0.2,0,0.3,0,0.5-0.1c0.1,0,0.1,0,0.2-0.1c0.2,0,0.4-0.1,0.6-0.1
			c0.1,0,0.2,0,0.3-0.1c0,0,0.1,0,0.1-0.1c0.4-0.1,0.8-0.3,1.2-0.5l21.8-12.7l5.8-3.4l0-5.3L69.4,21z"/>
		<g>
			<path class="st5" d="M75.3,17.6L69.4,21L47.7,33.6c-2.4,1.4-6.2,1.4-8.5,0c-2.4-1.4-2.4-3.6,0-4.9L60.9,16l5.8-3.4L75.3,17.6z"/>
		</g>
	</g>
</g>
</svg>
