<?xml version="1.0" encoding="utf-8"?>
<!-- Generator: Adobe Illustrator 24.3.0, SVG Export Plug-In . SVG Version: 6.00 Build 0)  -->
<svg version="1.1" id="Capa_1" xmlns="http://www.w3.org/2000/svg" xmlns:xlink="http://www.w3.org/1999/xlink" x="0px" y="0px"
	 viewBox="0 0 57.2 65.7" style="enable-background:new 0 0 57.2 65.7;" xml:space="preserve">
<style type="text/css">
	.st0{fill:#FFFFFF;}
	.st1{fill:#94A6C3;}
	.st2{fill:#1B314F;}
	.st3{fill:#FFD923;}
	.st4{fill:#D82122;}
</style>
<g>
	<path class="st0" d="M13.6,35.6l1.5-11.4L2,15.1l12,4.1l2.8-4.3l10.3-6.4L49.9,21l1.2,19.1L41,54.2l-8,1.2l4.1-7.6v-7.3l-3-5.7
		l-3.1-2l-4.7,4.9v5.1l-3.7,3.4l-4.7,0.6L15.9,48l-3.4-1.1l-1.4-5.1l2.5-3.6V35.6z"/>
	<path class="st1" d="M34.5,15c-2.5-0.5-5.2-0.4-5.2-0.4s-0.9,4.1-6.5,5.2C22.9,19.9,30.2,22.4,34.5,15z"/>
	<path class="st1" d="M36.8,52.7c3-2.4,5.3-5.6,6.3-9.3c0-0.1,0.5-0.4,0.8-0.6c0.5-0.3,0.9-0.5,1-0.9c0.2-1.1,0.3-2.2,0.3-3.3
		c0-0.4-0.4-0.8-0.8-1.3c-0.3-0.3-0.7-0.6-0.7-0.8c-0.5-4.3-2.4-8.3-5.6-11.2l-0.3,0.3c3.1,2.9,5,6.8,5.5,10.9
		c0,0.4,0.4,0.8,0.8,1.1c0.3,0.3,0.7,0.7,0.7,0.9c0,1.1-0.1,2.2-0.3,3.3c0,0.2-0.5,0.4-0.8,0.6c-0.5,0.2-0.9,0.5-1,0.8
		c-1.1,4-3.7,7.5-7.2,9.8c0.6-1.3,2.5-5.6,3.6-7.8l-0.2-7l-6-5.8l-3.4,0.5l-3.7,6c0,0,1.7,2.2-0.7,4.8c-2.4,2.5-4.3,3.1-4.3,3.1
		L19,45.9c0.5-0.7,1.6-1.6,2.4-2.3c1.4-1.1,2.7-1.2,2.7-2.4c0.1-2.6-2.7-1.9-2.7-1.9l-1,0.9L20,43.7l-2.1,2.6l-0.2,0l-3.4-0.8
		c0,0,2.1-1.1,2.4-2.3c0.3-1.2-0.7-5.1-0.7-5.3c0,0,1,0.8,1.4,2.2c0.8-2.1,1.7-4.1,2-4.2c0.3-0.2,4.1-2.2,4.1-2.2l-1.3,3.3l0.9-0.5
		l2.3-5.6c0,0,2.2-1.1,3.9-1.1c3,0,7.4-3.7,5.4-10.2c0.6,0.2,10.4,5.1,12.1,14.8C48.1,41.7,43.9,48.7,36.8,52.7z"/>
	<path class="st2" d="M25.6,16.1c1.1-1.3,0.7-3.2,0.7-3.2l-3.2,4.7C23,17.6,24.2,17.6,25.6,16.1z"/>
	<path class="st2" d="M15,41.6l0.4-1.9c0,0-1.6,2.7-1.7,3.1c-0.1,0.4,0.1,1.2,0.7,1.1c0.6,0,1.4-0.9,1.4-1.6
		C15.7,41.5,15,41.6,15,41.6z"/>
	<path class="st2" d="M43,11.6c0,0,2.4,0.1,4.8,0.4c-5.5-4.3-10.8-5.6-15-5.6C27,6.4,23,8.8,22.8,8.9L24.6,6c0,0-7.4-0.7-10,7.1
		C14,11.4,13.4,9,13.4,9s-3.8,3.4-2,8.9C7,16.3,0.7,14.1,0.4,14.1C0.1,14,0,14.2,0,14.2s-0.1,0.1,0.2,0.4c0.5,0.4,10.4,7.7,12.6,9.1
		c-0.5,1.7-0.5,2.5,0,3.3c0.7,1.1,0.7,1.6,0.6,2.4c-0.1,0.8-0.9,7.7-1.1,8.6s-2.2,3.9-2.1,4.8c0.1,0.9,1.3,4.7,2.4,5.1
		c0.8,0.3,2.8,0.9,4.1,0.9c0.5,0,0.9-0.1,1.1-0.3c0.8-0.7,1-0.8,1.6-0.8c0,0,0.1,0,0.1,0c0.2,0,0.5,0,0.8,0c0.8,0,1.7-0.1,2.4-0.8
		c1-1,2.8-2.4,3.4-3.1c0.7-0.9,1.1-2.1,0.9-3.3c-0.1-1.1,0.5-2.1,1.2-3.1c0.9-1.2,2.5-3.3,2.5-3.3c3.3,2.4,5.3,6.2,5.3,10.3
		c0,7.4-6.4,13.3-14.3,13.3c-1.2,0-2.4-0.1-3.6-0.4c3.6,1.3,6.7,1.7,9.2,1.7c5.3,0,8.2-1.9,8.2-1.9s-1,1.3-2.6,2.7c0,0,0,0,0,0
		c8.8-1.2,13.1-8.5,13.1-8.5s-0.3,2.4-0.8,4c11.7-8.8,9.8-19.9,9.7-20.2c0.1,0.1,1.3,1.6,1.9,2.3C58.9,17.9,43,11.6,43,11.6z
		 M24.9,42.6c-0.2,0.2-1,0.9-1.6,1.5s-1.2,1-1.6,1.5c-0.2,0.2-0.6,0.3-1.1,0.3c-0.2,0-0.4,0-0.5,0c-0.1,0-0.2,0-0.3,0
		c-0.1,0-0.1,0-0.2,0c-0.1,0-0.3,0-0.4,0c0.7-0.9,2.8-3.1,3.5-3.6c0.8-0.6,1.3-1.1,0.8-2.1c-0.5-1-1.9-0.8-1.9-0.8s0.8-0.3,1.5-0.3
		c-0.9-0.2-2,0-2.5,0.5c-0.6,0.5-0.5,2.4-0.7,3.5c-0.2,1.2-1,1.8-2.3,3c-0.7,0.6-1.1,0.8-1.5,0.8c-0.8-0.1-1.7-0.4-2.4-0.6
		c-0.5-0.6-1.2-2.6-1.4-3.5c0.1-0.5,0.7-1.5,1-2c0.6-1.1,0.9-1.7,1-2.3c0.2-0.8,0.8-5.8,1-7.8c0.6,0.8,1.5,2.1,1.3,3
		c1.4-1.9,0.4-3.8-0.1-4.6c-0.4-0.8-1-2.3-0.5-3.9c0.5-1.6,2.2-6,2.2-6s0.6,1,1.4,0.8c0.8-0.2,7.3-9.9,7.3-9.9s1.7,3.8-0.1,6.6
		c-1.9,2.8-3.7,3.3-3.7,3.3s2.6,0.5,5-1.3c1,2.3,1.9,4.7,2,5c-0.1,0.3-2,4.9-2.2,5.1c-0.1,0.1-0.8,0.3-1.2,0.4
		c-0.8,0.2-1.3,0.4-1.5,0.5c-0.3,0.3-1.8,4.4-2.5,6.5c-0.8,0.2-1.7,0.7-2.3,1.6c0.3-0.2,1.4-0.4,2.1-0.5c0.7,0,2.7,1,3.2,3.1
		c0,0,0,0,0,0.1C25.5,41.4,25.3,42.1,24.9,42.6z M20.5,43.2c0.4-0.6,0.4-1.6,0.4-2c0-0.3,0.1-0.9,0.5-1c0.4-0.1,1.3,0,1.3,0.7
		c0,0.6-0.7,0.8-1.1,1.2C21.2,42.4,20.6,43.1,20.5,43.2z M39.3,34.2c0.5-2.4,0.5-4.5,0.4-6.2c1.8,2.4,3,5.4,3.3,8.5
		c0,0.4,0.4,0.8,0.8,1.1c0.3,0.3,0.7,0.7,0.7,0.9c0,1.1-0.1,2.2-0.3,3.3c0,0.1-0.5,0.4-0.8,0.6c-0.5,0.2-0.9,0.5-1,0.8
		c-1,3.6-3.3,6.8-6.2,9.1C40.6,47.7,42.7,40.2,39.3,34.2z M36.3,52.7c3.1-2.4,5.4-5.7,6.5-9.4c0-0.1,0.5-0.4,0.8-0.6
		c0.5-0.2,0.9-0.5,1-0.9c0.2-1.1,0.3-2.2,0.3-3.3c0-0.4-0.4-0.8-0.8-1.3c-0.2-0.3-0.6-0.6-0.6-0.8C43,33,41.7,29.7,39.5,27
		c-0.9-5.7-4.7-7.4-4.8-7.5c0.1,0.1,2.5,3.7,0.8,7.8c-1.7,4.2-6.2,3.5-6.6,3.6c-0.4,0-1.8,1.9-3.7,5.4c-0.2-0.1-1.2-0.3-2.4-0.1
		c0.8-2.4,2.1-5.7,2.4-6c0.1-0.1,0.8-0.3,1.3-0.4c0.9-0.2,1.3-0.4,1.5-0.6c0.1-0.1,0.6-1.2,1-2.4c0.4,0,1.5-0.1,1.6-0.1
		c0.1-0.1,1-2.4,1-2.7c0-0.2-1.8-4.8-2.5-6.6c0.3-0.4,0.7-0.8,1-1.4c9.7,1,17.2,9.2,17.2,19.2C47.3,43,42.9,49.6,36.3,52.7z"/>
	<path class="st2" d="M23.8,27.3c0.9-1,0.4-3-1.2-3.3c0.4-1,1-3,1-3s-4.8,7.5-5.2,7.7c-0.4,0.1-0.8-1.5-0.8-1.5
		c-0.9,3.4,1.5,3.9,1.8,2.8C20.6,29.7,22.9,28.2,23.8,27.3z"/>
	<path class="st3" d="M19.7,29.1l2.4-4.2c0,0,1.4,0.7,0.7,1.8C22,28.1,19.7,29.1,19.7,29.1z"/>
	<path class="st4" d="M50,48.5c-0.7,0.9-1.5,1.9-2.4,2.9c6.1-11.7,0.3-22.4,0-22.8c0.4,0.4,0.8,0.9,1.2,1.3
		C53.5,35.1,54.1,42.9,50,48.5z"/>
	<path class="st4" d="M55.7,33.5c-2.1-5.7-5.1-10.6-11.8-15c-6.4-4.2-13.3-3.9-13.7-3.9c0,0-0.1,0-0.1,0c0.2-0.1,0.5-0.1,0.7-0.2
		c1.5-0.5,3.3-0.8,5.2-1.1c5-0.7,10.1,1,13.5,4.6c0,0,0,0,0.1,0.1C53.6,22.3,55.6,27.4,55.7,33.5z"/>
	<path class="st4" d="M42.4,10.1c-7-1.3-11.6-0.7-14.8,0.6c-0.1-0.4-0.4-1.1-0.7-1.7c-1,1.2-2,2.6-2.7,3.5c-1.8,1.2-2.5,2.4-2.5,2.4
		c1-3.5,4.1-6.2,7.7-6.8c1-0.2,2.2-0.3,3.4-0.3C36,7.8,39.3,8.6,42.4,10.1z"/>
	<path class="st4" d="M16.4,19.2c-5.5-0.2-3.7-6.6-3.6-7C12.8,12.3,13.2,17.3,16.4,19.2z"/>
	<path class="st4" d="M21.8,7.6c-4.2,2.5-3.4,8.6-3.4,8.6C14.4,10.1,21.5,7.8,21.8,7.6z"/>
	<path class="st0" d="M14.8,20.9c0.3,0.2,0.6,0.7,0.2,1.3c-0.2,0.3-0.5,0.3-0.9,0.1c-0.6-0.3-4-2.3-7-4.3
		C10.6,19.2,14.2,20.5,14.8,20.9C14.7,20.8,14.8,20.8,14.8,20.9z"/>
</g>
</svg>
