<?xml version="1.0" encoding="utf-8"?>
<!-- Generator: Adobe Illustrator 24.3.0, SVG Export Plug-In . SVG Version: 6.00 Build 0)  -->
<svg version="1.1" id="Capa_1" xmlns="http://www.w3.org/2000/svg" xmlns:xlink="http://www.w3.org/1999/xlink" x="0px" y="0px"
	 viewBox="0 0 57.2 65.7" style="enable-background:new 0 0 57.2 65.7;" xml:space="preserve">
<style type="text/css">
	.st0{fill:#0052FF;}
	.st1{fill:#FFFFFF;}
</style>
<g>
	<path class="st0" d="M28.6,4.6L28.6,4.6c15.6,0,28.2,12.6,28.2,28.2l0,0c0,15.6-12.6,28.2-28.2,28.2l0,0C13,61.1,0.4,48.5,0.4,32.9
		l0,0C0.4,17.3,13,4.6,28.6,4.6z"/>
	<path class="st1" d="M28.6,42.8c-5.5,0-9.9-4.4-9.9-9.9s4.4-9.9,9.9-9.9c4.9,0,9,3.6,9.8,8.3h10C47.5,21,39,13,28.6,13
		c-11,0-19.8,8.9-19.8,19.8s8.9,19.8,19.8,19.8c10.4,0,18.9-8,19.8-18.2h-10C37.6,39.2,33.5,42.8,28.6,42.8z"/>
</g>
</svg>
