<?xml version="1.0" encoding="utf-8"?>
<!-- Generator: Adobe Illustrator 24.3.0, SVG Export Plug-In . SVG Version: 6.00 Build 0)  -->
<svg version="1.1" id="Capa_1" xmlns="http://www.w3.org/2000/svg" xmlns:xlink="http://www.w3.org/1999/xlink" x="0px" y="0px"
	 viewBox="0 0 57.2 65.7" style="enable-background:new 0 0 57.2 65.7;" xml:space="preserve">
<style type="text/css">
	.st0{fill-rule:evenodd;clip-rule:evenodd;fill:#B2B2B2;}
</style>
<g>
	<path class="st0" d="M21.4,4.5c-3.8,2-6.9,3.7-6.9,3.7c0,0.2,9.1,4.8,9.5,4.8c0.1,0,1.2-0.5,2.4-1.1l2.1-1.1l2.3,1.2l2.3,1.2
		l3.8-1.7c5.7-2.6,6.3-2.8,6.2-2.9c-0.1-0.1-2.2-1.2-7.7-4.1c-2.7-1.4-5.3-2.8-5.8-3.1c-0.5-0.3-1-0.5-1.1-0.5S25.3,2.5,21.4,4.5
		L21.4,4.5z M4.7,13.1l-4,2v9c0,4.9,0.1,9,0.1,9c0.1,0,2-0.8,4.3-1.9l4.2-1.9v-9.5l2.1,1.1c1.6,0.9,3.2,1.7,4.8,2.6l2.7,1.5l1.2-0.5
		c0.8-0.3,1.5-0.7,2.3-1c0.6-0.3,2-0.9,3.2-1.4c1.2-0.5,2.2-1,2.4-1.2c0.2-0.2-2.3-1.5-9.2-5.1c-5.2-2.7-9.6-4.8-9.8-4.8
		C8.9,11.1,6.9,12,4.7,13.1L4.7,13.1z M43.8,13.7c-2.7,1.2-4.9,2.3-4.9,2.3c0,0.1,1.5,0.9,3.3,1.9c1.8,1,3.3,1.9,3.3,2
		c0,0.1-1.6,0.8-3.5,1.7c-1.9,0.9-6.9,3.1-11,4.9l-13.6,6.2c-3.4,1.6-6.5,3-6.9,3.1c-7,3.2-8.9,4.1-9.2,4.2c-0.3,0.2-0.3,1-0.4,5.5
		l-0.1,5.3l3.5,1.8l3.5,1.8l4.9-2.2c2.7-1.2,4.9-2.3,4.9-2.4c0-0.1-0.5-0.4-1.1-0.7c-0.6-0.3-1.9-1-2.8-1.6c-0.9-0.5-1.9-1-2.1-1.1
		c-0.2-0.1-0.4-0.2-0.4-0.3c0-0.1,2.2-1.1,4.8-2.3c5.1-2.3,9.1-4.1,17.5-7.9c3.8-1.7,7.5-3.4,11.3-5.1c3.3-1.5,7.2-3.2,8.6-3.9
		l2.5-1.2l0.1-5.4l0.1-5.4l-3.6-1.8c-2-1-3.7-1.8-3.8-1.8C48.8,11.5,46.5,12.5,43.8,13.7L43.8,13.7z M55.1,33
		c-0.5,0.3-1.6,0.7-2.3,1.1c-0.7,0.3-2.2,1-3.2,1.4l-1.8,0.8l0,4.7c0,2.6-0.1,4.7-0.2,4.7c-0.2,0-3.6-1.8-7-3.6
		c-2.4-1.3-2.6-1.4-3.2-1.1c-0.3,0.2-2.3,1.1-4.4,2c-2.1,0.9-3.9,1.7-4,1.8C29,45,33.2,47.2,38.4,50l9.5,4.9l4.1-2.1
		c2.2-1.2,4.1-2.2,4.2-2.3c0.2-0.3,0.2-17.9,0-17.9C56.2,32.6,55.7,32.8,55.1,33L55.1,33z M32.6,53.7c-0.7,0.3-1.4,0.6-2.1,0.9
		c-2.1,0.9-1.7,1-4.2-0.3c-1.7-0.8-2.4-1.1-2.7-1c-0.2,0.1-2.3,1-4.5,2c-2.3,1-4.2,1.9-4.3,1.9c-0.9,0,0.6,0.9,6.7,4l7.1,3.6l3-1.5
		c1.6-0.8,5-2.4,7.4-3.6c2.4-1.2,4.4-2.2,4.3-2.2c0,0-2.1-1.1-4.5-2.3L34.3,53L32.6,53.7z"/>
</g>
</svg>
