<?xml version="1.0" encoding="utf-8"?>
<!-- Generator: Adobe Illustrator 24.3.0, SVG Export Plug-In . SVG Version: 6.00 Build 0)  -->
<svg version="1.1" id="Capa_1" xmlns:serif="http://www.serif.com/"
	 xmlns="http://www.w3.org/2000/svg" xmlns:xlink="http://www.w3.org/1999/xlink" x="0px" y="0px" viewBox="0 0 49.6 14.2"
	 style="enable-background:new 0 0 49.6 14.2;" xml:space="preserve">
<style type="text/css">
	.st0{fill:#043038;}
	.st1{fill:#11C1E1;}
	.st2{fill-rule:evenodd;clip-rule:evenodd;fill:#11C1E1;}
	.st3{fill:#05A3C9;}
	.st4{fill-rule:evenodd;clip-rule:evenodd;}
	.st5{fill-rule:evenodd;clip-rule:evenodd;fill:#05A3C9;}
	.st6{fill:#1D1D1B;}
	.st7{fill:#FFFFFF;}
	.st8{fill-rule:evenodd;clip-rule:evenodd;fill:#FFFFFF;}
	.st9{fill:#D1D1D1;}
	.st10{fill-rule:evenodd;clip-rule:evenodd;fill:#777777;}
	.st11{fill:#777777;}
</style>
<rect x="-369.4" y="-7.3" class="st0" width="65.6" height="28.3"/>
<g id="Capa1">
</g>
<g id="B">
	<g>
		<path class="st1" d="M-724.6,6.6C-724.6,6.5-724.6,6.5-724.6,6.6l1.4-2.6l0,0l-1.4-2.5l0,0c0,0,0-0.1,0.1-0.1h1.1
			c0.1,0,0.1,0,0.1,0.1l0.8,1.5l0,0l0.8-1.6l0.1-0.1h1.1h0.1c0,0,0,0,0,0.1l-1.3,2.6l0,0l1.3,2.5l0,0c0,0,0,0.1-0.1,0.1h-1.1
			c0,0-0.1,0-0.1-0.1l-0.8-1.5l0,0l-0.8,1.5l-0.1,0.1H-724.6L-724.6,6.6"/>
		<path class="st1" d="M-716.1,2.4L-716.1,2.4C-716.2,2.4-716.2,2.5-716.1,2.4l-1.3,0.1l0,0v4c0,0,0,0,0,0.1c0,0,0,0-0.1,0h-1
			c0,0,0,0-0.1,0c0,0,0,0,0-0.1v-4l0,0h-1.2c0,0,0,0-0.1,0c0,0,0,0,0-0.1V1.5c0,0,0,0,0-0.1c0,0,0,0,0.1,0h3.1
			C-716.8,1.4-716.1,2.4-716.1,2.4"/>
		<path class="st1" d="M-710.7,2.4L-710.7,2.4h-2.3l0,0v0.9l0,0h1.4c0,0,0,0,0.1,0c0,0,0,0,0,0.1v0.9c0,0,0,0,0,0.1c0,0,0,0-0.1,0
			h-1.4l0,0v2c0,0,0,0,0,0.1c0,0,0,0-0.1,0h-1c0,0,0,0-0.1,0c0,0,0,0,0-0.1v-5c0,0,0,0,0-0.1c0,0,0,0,0.1,0h3.4c0,0,0,0,0.1,0
			c0,0,0,0,0,0.1L-710.7,2.4L-710.7,2.4"/>
		<path class="st1" d="M-707.8,5.4c0.1-0.2,0.2-0.4,0.2-0.6V3.2c0-0.3-0.1-0.5-0.2-0.6c-0.1-0.2-0.3-0.2-0.6-0.2
			c-0.2,0-0.4,0.1-0.5,0.2c-0.1,0.2-0.2,0.4-0.2,0.6v1.5c0,0.3,0.1,0.5,0.2,0.6c0.1,0.2,0.3,0.2,0.5,0.2
			C-708.1,5.6-708,5.5-707.8,5.4 M-709.4,6.4c-0.3-0.2-0.5-0.4-0.7-0.7c-0.2-0.3-0.2-0.6-0.2-1V3.2c0-0.4,0.1-0.7,0.2-1
			c0.2-0.3,0.4-0.5,0.7-0.7s0.6-0.2,1-0.2c0.4,0,0.7,0.1,1,0.2c0.3,0.2,0.5,0.4,0.7,0.7s0.2,0.6,0.2,1v1.5c0,0.4-0.1,0.7-0.2,1
			c-0.2,0.3-0.4,0.5-0.7,0.7s-0.6,0.2-1,0.2C-708.8,6.7-709.1,6.6-709.4,6.4"/>
		<path class="st1" d="M-704.6,2.5v1.1l0,0h0.8c0.2,0,0.3-0.1,0.4-0.2c0.1-0.1,0.2-0.2,0.2-0.4s-0.1-0.3-0.2-0.4
			c-0.1-0.1-0.3-0.2-0.4-0.2L-704.6,2.5C-704.6,2.4-704.6,2.5-704.6,2.5 M-703.2,6.5l-0.8-2l0,0h-0.5l0,0v1.9c0,0,0,0,0,0.1
			c0,0,0,0-0.1,0h-1c0,0,0,0-0.1,0c0,0,0,0,0-0.1v-5c0,0,0,0,0-0.1c0,0,0,0,0.1,0h2.1c0.3,0,0.6,0.1,0.8,0.2s0.4,0.3,0.6,0.6
			c0.1,0.2,0.2,0.5,0.2,0.8s-0.1,0.6-0.2,0.9c-0.2,0.2-0.4,0.4-0.7,0.5c0,0,0,0,0,0.1l0.9,2l0,0c0,0,0,0.1-0.1,0.1H-703.2
			C-703.2,6.6-703.2,6.6-703.2,6.5"/>
		<path class="st1" d="M-700.6,6.4c-0.3-0.2-0.5-0.4-0.7-0.7c-0.2-0.3-0.2-0.6-0.2-1V3.2c0-0.4,0.1-0.7,0.2-1
			c0.2-0.3,0.4-0.5,0.7-0.6c0.3-0.2,0.6-0.2,1-0.2c0.4,0,0.7,0.1,1,0.2c0.3,0.1,0.5,0.4,0.7,0.6c0.2,0.3,0.2,0.6,0.2,0.9
			c0,0,0,0,0,0.1c0,0,0,0-0.1,0l-1,0.1c-0.1,0-0.1,0-0.1-0.1c0-0.2-0.1-0.4-0.2-0.6c-0.1-0.1-0.3-0.2-0.5-0.2
			c-0.2,0-0.4,0.1-0.5,0.2c-0.1,0.1-0.2,0.3-0.2,0.6v1.7c0,0.2,0.1,0.4,0.2,0.5c0.1,0.1,0.3,0.2,0.5,0.2c0.2,0,0.4-0.1,0.5-0.2
			c0.1-0.1,0.2-0.3,0.2-0.5c0-0.1,0-0.1,0.1-0.1l1,0.1c0,0,0,0,0.1,0c0,0,0,0,0,0.1c0,0.4-0.1,0.7-0.2,0.9c-0.2,0.3-0.4,0.5-0.7,0.6
			c-0.3,0.1-0.6,0.2-1,0.2C-700,6.6-700.3,6.6-700.6,6.4"/>
		<path class="st1" d="M-693.6,2.4L-693.6,2.4h-2.3l0,0v0.9l0,0h1.4c0,0,0,0,0.1,0c0,0,0,0,0,0.1v0.9c0,0,0,0,0,0.1c0,0,0,0-0.1,0
			h-1.4l0,0v1l0,0h2.2c0,0,0,0,0.1,0c0,0,0,0,0,0.1v0.9c0,0,0,0,0,0.1c0,0,0,0-0.1,0h-3.4c0,0,0,0-0.1,0c0,0,0,0,0-0.1v-5
			c0,0,0,0,0-0.1c0,0,0,0,0.1,0h3.4c0,0,0,0,0.1,0c0,0,0,0,0,0.1V2.4C-693.5,2.4-693.5,2.4-693.6,2.4"/>
		<g id="recorte">
			<g>
				<g>
					<path class="st1" d="M-729.2,4.5V5c0,0.3-0.1,0.6-0.2,0.9c-0.2,0.2-0.4,0.4-0.7,0.5c-0.3,0.1-0.6,0.2-1,0.2h-1.8c0,0,0,0-0.1,0
						c0,0,0,0,0-0.1V5.1l1.2-0.2v0.6l0,0h0.7c0.2,0,0.3-0.1,0.5-0.2c0.2-0.1,0.2-0.3,0.2-0.5V4.7L-729.2,4.5z M-733,4.5v-3
						c0,0,0,0,0-0.1c0,0,0,0,0.1,0h1.8c0.4,0,0.7,0.1,1,0.2c0.3,0.1,0.5,0.3,0.7,0.6c0.1,0.2,0.2,0.5,0.2,0.8v0.7
						c-0.4,0-0.8,0.1-1.2,0.1V3.2c0-0.2-0.1-0.4-0.2-0.6c-0.1-0.1-0.2-0.1-0.4-0.1h-0.7l0,0v1.7C-732.2,4.3-732.6,4.4-733,4.5z"/>
					<path class="st1" d="M-728.6,3.7V1.5c0,0,0,0,0-0.1c0,0,0,0,0.1,0h3.4c0,0,0,0,0.1,0c0,0,0,0,0,0.1v0.9c0,0,0,0,0,0.1
						c0,0,0,0-0.1,0h-2.2l0,0v0.9l0,0h1.4c0,0,0,0,0.1,0c0,0,0,0,0,0.1v0.9c0,0,0,0,0,0.1c0,0,0,0-0.1,0h-1.4l0,0v1l0,0h2.2
						c0,0,0,0,0.1,0c0,0,0,0,0,0.1v0.9c0,0,0,0,0,0.1c0,0,0,0-0.1,0h-3.4c0,0,0,0-0.1,0c0,0,0,0,0-0.1V4.4l2.3-0.4
						C-727.1,3.8-727.8,3.7-728.6,3.7z"/>
				</g>
			</g>
		</g>
	</g>
	<g>
		<g>
			<g id="launcher">
				<path class="st1" d="M-732.7,11.8h0.8V12h-1.1V9.5h0.2C-732.7,9.5-732.7,11.8-732.7,11.8z"/>
				<path class="st1" d="M-716.5,12V9.5l0,0h0.1l0,0l0.8,2l0,0v-2l0,0h0.1l0,0V12l0,0h-0.1l0,0l-0.8-2l0,0L-716.5,12L-716.5,12
					L-716.5,12L-716.5,12"/>
				<path class="st1" d="M-726.5,11.4h-0.7l-0.1,0.6h-0.2l0.6-2.5h0.2l0.5,2.5h-0.1L-726.5,11.4z M-726.5,11.2l-0.3-1.4l-0.3,1.4
					H-726.5z"/>
				<path class="st1" d="M-722,11.3V9.5l0,0h0.1l0,0L-722,11.3c0.1,0.3,0.3,0.5,0.5,0.5s0.4-0.2,0.4-0.5V9.5l0,0h0.1l0,0v1.8
					c0,0.4-0.2,0.7-0.6,0.7C-721.8,12-722,11.7-722,11.3"/>
				<path class="st1" d="M-711.2,10.7c0-0.2,0-0.5,0.1-0.7c0.1-0.2,0.2-0.3,0.3-0.5c0.1-0.1,0.2-0.2,0.4-0.2s0.3,0.1,0.5,0.2
					c0.1,0.1,0.2,0.3,0.3,0.6h-0.2c0-0.2-0.1-0.3-0.2-0.4c-0.1-0.1-0.2-0.1-0.3-0.1c-0.1,0-0.2,0-0.3,0.1c-0.1,0.1-0.2,0.2-0.2,0.4
					c-0.1,0.2-0.1,0.3-0.1,0.6c0,0.2,0,0.4,0.1,0.6c0.1,0.2,0.1,0.3,0.2,0.4c0.1,0.1,0.2,0.1,0.3,0.1c0.1,0,0.2,0,0.3-0.1
					c0.1-0.1,0.2-0.2,0.2-0.4h0.2c-0.1,0.2-0.1,0.4-0.3,0.6c-0.2,0.1-0.4,0.1-0.6,0.1c-0.1,0-0.3-0.1-0.4-0.2
					c-0.1-0.1-0.2-0.3-0.3-0.4C-711.2,11.2-711.2,11-711.2,10.7z"/>
				<path class="st1" d="M-704.2,9.5V12h-0.2v-1.2h-1V12h-0.2V9.5h0.2v1.1h1V9.5H-704.2z"/>
				<path class="st1" d="M-698.9,9.6h-0.8l0,0v1l0,0h0.5l0,0v0.1l0,0h-0.5l0,0v1l0,0h0.8l0,0V12l0,0h-1l0,0V9.5l0,0h1l0,0V9.6
					L-698.9,9.6"/>
				<path class="st1" d="M-694.5,9.7v1l0,0h0.4c0.2,0,0.4-0.2,0.4-0.5s-0.2-0.5-0.4-0.5H-694.5C-694.5,9.6-694.5,9.7-694.5,9.7
					 M-693.7,12l-0.4-1.2l0,0h-0.4l0,0V12l0,0h-0.1l0,0V9.5l0,0h0.6c0.3,0,0.6,0.3,0.6,0.7c0,0.3-0.2,0.6-0.4,0.6l0,0l0.4,1.2l0,0
					H-693.7L-693.7,12"/>
			</g>
		</g>
	</g>
	<g id="AZUL">
		<g>
			<g>
				<path class="st1" d="M-714,8.6c0-0.1,0-0.2,0-0.3c0.1,0,0.2-0.1,0.3-0.1c0.3-0.2,0.7-0.3,1-0.5l0,0l0,0c-0.1,0-0.1-0.1-0.2-0.1
					c0,0,0,0,0.1,0c0.1,0,0.1-0.1,0.2-0.1l0,0c0.1,0,0.1,0.1,0.2,0.1l0,0c0,0.1,0,0.2,0,0.3l0,0c-0.3,0.1-0.5,0.2-0.8,0.3
					c-0.2,0.1-0.4,0.2-0.6,0.3c0.1,0,0.1,0.1,0.2,0.1h-0.1C-713.8,8.6-713.8,8.7-714,8.6L-714,8.6C-713.9,8.6-714,8.6-714,8.6"/>
				<path class="st1" d="M-714,8.1V7.6c0.1,0,0.1-0.1,0.2-0.1l0,0c0.2,0.1,0.4,0.2,0.5,0.3l0,0h-0.1c-0.1,0-0.1,0-0.2,0.1l0,0
					c-0.1,0-0.2-0.1-0.2-0.1l0,0l0,0c0,0.1,0,0.2,0,0.2l0,0C-713.9,8-714,8-714,8.1"/>
				<path class="st1" d="M-712.5,8.1L-712.5,8.1c0,0.2,0,0.4,0,0.5c-0.1,0-0.2,0.1-0.2,0.1l0,0c-0.2-0.1-0.4-0.2-0.5-0.3l0,0h0.1
					c0.1,0,0.1,0,0.2-0.1l0,0c0.1,0,0.2,0.1,0.2,0.1l0,0l0,0c0-0.1,0-0.2,0-0.2l0,0C-712.6,8.1-712.6,8.1-712.5,8.1"/>
				<path class="st1" d="M-713.7,7.4c0.1-0.1,0.3-0.1,0.4-0.2l0,0c0.1,0.1,0.3,0.1,0.4,0.2l0,0l0,0c-0.1,0-0.2,0.1-0.3,0.1l0,0
					c0,0-0.1,0-0.1-0.1l0,0c0,0-0.1,0-0.1,0.1l0,0C-713.5,7.4-713.6,7.4-713.7,7.4L-713.7,7.4"/>
				<path class="st1" d="M-713.7,8.8c0.1,0,0.2-0.1,0.2-0.1l0,0h0.1l0,0c0,0,0.1,0,0.1-0.1l0,0c0.1,0,0.2,0.1,0.2,0.1l0,0
					c0.1,0.1,0,0.2-0.1,0.3l0,0C-713.4,8.9-713.5,8.8-713.7,8.8L-713.7,8.8"/>
			</g>
			<rect x="-733" y="8" class="st2" width="18.4" height="0.3"/>
			<rect x="-711.9" y="8" class="st2" width="18.4" height="0.3"/>
		</g>
	</g>
</g>
<g>
	<path class="st3" d="M-664.3,6.6C-664.3,6.5-664.3,6.5-664.3,6.6l1.4-2.6l0,0l-1.4-2.5l0,0c0,0,0-0.1,0.1-0.1h1.1
		c0.1,0,0.1,0,0.1,0.1l0.8,1.5l0,0l0.8-1.6l0.1-0.1h1.1h0.1c0,0,0,0,0,0.1l-1.3,2.6l0,0l1.3,2.5l0,0c0,0,0,0.1-0.1,0.1h-1.1
		c0,0-0.1,0-0.1-0.1l-0.8-1.5l0,0l-0.8,1.5l-0.1,0.1H-664.3L-664.3,6.6"/>
	<path class="st3" d="M-655.8,2.4L-655.8,2.4C-655.9,2.4-655.9,2.5-655.8,2.4l-1.3,0.1l0,0v4c0,0,0,0,0,0.1c0,0,0,0-0.1,0h-1
		c0,0,0,0-0.1,0c0,0,0,0,0-0.1v-4l0,0h-1.2c0,0,0,0-0.1,0c0,0,0,0,0-0.1V1.5c0,0,0,0,0-0.1c0,0,0,0,0.1,0h3.1
		C-656.5,1.4-655.8,2.4-655.8,2.4"/>
	<path class="st3" d="M-650.4,2.4L-650.4,2.4h-2.3l0,0v0.9l0,0h1.4c0,0,0,0,0.1,0c0,0,0,0,0,0.1v0.9c0,0,0,0,0,0.1c0,0,0,0-0.1,0
		h-1.4l0,0v2c0,0,0,0,0,0.1c0,0,0,0-0.1,0h-1c0,0,0,0-0.1,0c0,0,0,0,0-0.1v-5c0,0,0,0,0-0.1c0,0,0,0,0.1,0h3.4c0,0,0,0,0.1,0
		c0,0,0,0,0,0.1L-650.4,2.4L-650.4,2.4"/>
	<path class="st3" d="M-647.5,5.4c0.1-0.2,0.2-0.4,0.2-0.6V3.2c0-0.3-0.1-0.5-0.2-0.6c-0.1-0.2-0.3-0.2-0.6-0.2
		c-0.2,0-0.4,0.1-0.5,0.2c-0.1,0.2-0.2,0.4-0.2,0.6v1.5c0,0.3,0.1,0.5,0.2,0.6c0.1,0.2,0.3,0.2,0.5,0.2
		C-647.8,5.6-647.7,5.5-647.5,5.4 M-649.1,6.4c-0.3-0.2-0.5-0.4-0.7-0.7c-0.2-0.3-0.2-0.6-0.2-1V3.2c0-0.4,0.1-0.7,0.2-1
		c0.2-0.3,0.4-0.5,0.7-0.7c0.3-0.2,0.6-0.2,1-0.2c0.4,0,0.7,0.1,1,0.2c0.3,0.2,0.5,0.4,0.7,0.7s0.2,0.6,0.2,1v1.5
		c0,0.4-0.1,0.7-0.2,1c-0.2,0.3-0.4,0.5-0.7,0.7c-0.3,0.2-0.6,0.2-1,0.2C-648.5,6.7-648.8,6.6-649.1,6.4"/>
	<path class="st3" d="M-644.3,2.5v1.1l0,0h0.8c0.2,0,0.3-0.1,0.4-0.2c0.1-0.1,0.2-0.2,0.2-0.4s-0.1-0.3-0.2-0.4
		c-0.1-0.1-0.3-0.2-0.4-0.2L-644.3,2.5C-644.3,2.4-644.3,2.5-644.3,2.5 M-642.9,6.5l-0.8-2l0,0h-0.5l0,0v1.9c0,0,0,0,0,0.1
		c0,0,0,0-0.1,0h-1c0,0,0,0-0.1,0c0,0,0,0,0-0.1v-5c0,0,0,0,0-0.1c0,0,0,0,0.1,0h2.1c0.3,0,0.6,0.1,0.8,0.2s0.4,0.3,0.6,0.6
		c0.1,0.2,0.2,0.5,0.2,0.8s-0.1,0.6-0.2,0.9c-0.2,0.2-0.4,0.4-0.7,0.5c0,0,0,0,0,0.1l0.9,2l0,0c0,0,0,0.1-0.1,0.1h-1.1
		C-642.9,6.6-642.9,6.6-642.9,6.5"/>
	<path class="st3" d="M-640.3,6.4c-0.3-0.2-0.5-0.4-0.7-0.7c-0.2-0.3-0.2-0.6-0.2-1V3.2c0-0.4,0.1-0.7,0.2-1
		c0.2-0.3,0.4-0.5,0.7-0.6c0.3-0.2,0.6-0.2,1-0.2c0.4,0,0.7,0.1,1,0.2c0.3,0.1,0.5,0.4,0.7,0.6c0.2,0.3,0.2,0.6,0.2,0.9
		c0,0,0,0,0,0.1c0,0,0,0-0.1,0l-1,0.1c-0.1,0-0.1,0-0.1-0.1c0-0.2-0.1-0.4-0.2-0.6c-0.1-0.1-0.3-0.2-0.5-0.2c-0.2,0-0.4,0.1-0.5,0.2
		c-0.1,0.1-0.2,0.3-0.2,0.6v1.7c0,0.2,0.1,0.4,0.2,0.5c0.1,0.1,0.3,0.2,0.5,0.2c0.2,0,0.4-0.1,0.5-0.2c0.1-0.1,0.2-0.3,0.2-0.5
		c0-0.1,0-0.1,0.1-0.1l1,0.1c0,0,0,0,0.1,0c0,0,0,0,0,0.1c0,0.4-0.1,0.7-0.2,0.9c-0.2,0.3-0.4,0.5-0.7,0.6c-0.3,0.1-0.6,0.2-1,0.2
		C-639.7,6.6-640,6.6-640.3,6.4"/>
	<path class="st3" d="M-633.3,2.4L-633.3,2.4h-2.3l0,0v0.9l0,0h1.4c0,0,0,0,0.1,0c0,0,0,0,0,0.1v0.9c0,0,0,0,0,0.1c0,0,0,0-0.1,0
		h-1.4l0,0v1l0,0h2.2c0,0,0,0,0.1,0c0,0,0,0,0,0.1v0.9c0,0,0,0,0,0.1c0,0,0,0-0.1,0h-3.4c0,0,0,0-0.1,0c0,0,0,0,0-0.1v-5
		c0,0,0,0,0-0.1c0,0,0,0,0.1,0h3.4c0,0,0,0,0.1,0c0,0,0,0,0,0.1V2.4C-633.2,2.4-633.2,2.4-633.3,2.4"/>
	<g id="recorte_1_">
		<g>
			<g>
				<path class="st3" d="M-668.9,4.5V5c0,0.3-0.1,0.6-0.2,0.9c-0.2,0.2-0.4,0.4-0.7,0.5c-0.3,0.1-0.6,0.2-1,0.2h-1.8c0,0,0,0-0.1,0
					c0,0,0,0,0-0.1V5.1l1.2-0.2v0.6l0,0h0.7c0.2,0,0.3-0.1,0.5-0.2c0.2-0.1,0.2-0.3,0.2-0.5V4.7L-668.9,4.5z M-672.7,4.5v-3
					c0,0,0,0,0-0.1c0,0,0,0,0.1,0h1.8c0.4,0,0.7,0.1,1,0.2c0.3,0.1,0.5,0.3,0.7,0.6c0.1,0.2,0.2,0.5,0.2,0.8v0.7
					c-0.4,0-0.8,0.1-1.2,0.1V3.2c0-0.2-0.1-0.4-0.2-0.6c-0.1-0.1-0.2-0.1-0.4-0.1h-0.7l0,0v1.7C-671.9,4.3-672.3,4.4-672.7,4.5z"/>
				<path class="st3" d="M-668.3,3.7V1.5c0,0,0,0,0-0.1c0,0,0,0,0.1,0h3.4c0,0,0,0,0.1,0c0,0,0,0,0,0.1v0.9c0,0,0,0,0,0.1
					c0,0,0,0-0.1,0h-2.2l0,0v0.9l0,0h1.4c0,0,0,0,0.1,0c0,0,0,0,0,0.1v0.9c0,0,0,0,0,0.1c0,0,0,0-0.1,0h-1.4l0,0v1l0,0h2.2
					c0,0,0,0,0.1,0c0,0,0,0,0,0.1v0.9c0,0,0,0,0,0.1c0,0,0,0-0.1,0h-3.4c0,0,0,0-0.1,0c0,0,0,0,0-0.1V4.4L-666,4
					C-666.8,3.8-667.5,3.7-668.3,3.7z"/>
			</g>
		</g>
	</g>
</g>
<g>
	<path d="M-670.9,8h-1.6v1.5h1.4v0.2h-1.4v1.5h1.6v0.2h-1.8V7.8h1.8V8z"/>
	<path d="M-667.1,7.7c0.8,0,1.4,0.4,1.6,1.1h-0.3c-0.2-0.5-0.7-0.9-1.4-0.9c-0.8,0-1.4,0.6-1.4,1.6c0,1,0.6,1.6,1.4,1.6
		c0.7,0,1.2-0.4,1.4-0.9h0.3c-0.2,0.7-0.8,1.1-1.6,1.1c-1,0-1.7-0.7-1.7-1.8C-668.7,8.5-668,7.7-667.1,7.7z"/>
	<path d="M-661.6,11.3c-1,0-1.7-0.7-1.7-1.8c0-1.1,0.7-1.8,1.7-1.8c1,0,1.7,0.7,1.7,1.8C-659.9,10.6-660.6,11.3-661.6,11.3z
		 M-661.6,11.1c0.8,0,1.5-0.6,1.5-1.6c0-1-0.6-1.6-1.5-1.6c-0.8,0-1.5,0.6-1.5,1.6C-663.1,10.5-662.4,11.1-661.6,11.1z"/>
	<path d="M-656.6,11.3c-0.7,0-1.1-0.4-1.2-0.9h0.2c0,0.3,0.3,0.7,0.9,0.7c0.5,0,0.9-0.3,0.9-0.7c0-1.1-2-0.4-2-1.8
		c0-0.5,0.4-0.9,1.1-0.9c0.7,0,1,0.4,1.1,0.8h-0.2c0-0.2-0.3-0.6-0.9-0.6c-0.5,0-0.8,0.3-0.8,0.7c0,1.1,2,0.4,2,1.8
		C-655.5,10.8-655.9,11.3-656.6,11.3z"/>
	<path d="M-653.5,7.8h0.3l1,1.9l1-1.9h0.3l-1.1,2.1v1.4h-0.2V9.9L-653.5,7.8z"/>
	<path d="M-647.9,11.3c-0.7,0-1.1-0.4-1.2-0.9h0.2c0,0.3,0.3,0.7,0.9,0.7c0.5,0,0.9-0.3,0.9-0.7c0-1.1-2-0.4-2-1.8
		c0-0.5,0.4-0.9,1.1-0.9c0.7,0,1,0.4,1.1,0.8h-0.2c0-0.2-0.3-0.6-0.9-0.6c-0.5,0-0.8,0.3-0.8,0.7c0,1.1,2,0.4,2,1.8
		C-646.8,10.8-647.2,11.3-647.9,11.3z"/>
	<path d="M-644.9,7.8h2.2V8h-1v3.3h-0.2V8h-1V7.8z"/>
	<path d="M-638.7,8h-1.6v1.5h1.4v0.2h-1.4v1.5h1.6v0.2h-1.8V7.8h1.8V8z"/>
	<path d="M-636.5,7.8h0.2l1.4,3.1l1.4-3.1h0.2v3.4h-0.2v-3l-1.3,3h-0.2l-1.3-3v3h-0.2V7.8z"/>
</g>
<rect x="-630.2" y="-0.1" class="st4" width="0.1" height="13.6"/>
<g>
	<path class="st5" d="M-624.6,3.1c-0.5,0.2-0.9,0.5-0.9,0.5c0,0,1.1,0.6,1.2,0.6c0,0,0.2-0.1,0.3-0.1l0.3-0.1l0.3,0.1l0.3,0.1
		l0.5-0.2c0.7-0.3,0.8-0.4,0.8-0.4c0,0-0.3-0.2-1-0.5c-0.3-0.2-0.7-0.3-0.7-0.4c-0.1,0-0.1-0.1-0.1-0.1
		C-623.7,2.6-624.1,2.8-624.6,3.1z M-626.7,4.2l-0.5,0.3v1.1c0,0.6,0,1.1,0,1.1c0,0,0.3-0.1,0.5-0.2l0.5-0.2V5l0.3,0.1
		c0.2,0.1,0.4,0.2,0.6,0.3l0.3,0.2l0.2-0.1c0.1,0,0.2-0.1,0.3-0.1c0.1,0,0.3-0.1,0.4-0.2c0.1-0.1,0.3-0.1,0.3-0.1
		c0,0-0.3-0.2-1.1-0.6c-0.6-0.3-1.2-0.6-1.2-0.6C-626.2,3.9-626.4,4-626.7,4.2z M-621.8,4.2c-0.3,0.2-0.6,0.3-0.6,0.3
		s0.2,0.1,0.4,0.2c0.2,0.1,0.4,0.2,0.4,0.2c0,0-0.2,0.1-0.4,0.2c-0.2,0.1-0.9,0.4-1.4,0.6l-1.7,0.8c-0.4,0.2-0.8,0.4-0.9,0.4
		c-0.9,0.4-1.1,0.5-1.2,0.5c0,0,0,0.1,0,0.7l0,0.7l0.4,0.2l0.4,0.2l0.6-0.3c0.3-0.2,0.6-0.3,0.6-0.3c0,0-0.1-0.1-0.1-0.1
		c-0.1,0-0.2-0.1-0.4-0.2c-0.1-0.1-0.2-0.1-0.3-0.1c0,0,0,0,0,0c0,0,0.3-0.1,0.6-0.3c0.6-0.3,1.1-0.5,2.2-1c0.5-0.2,0.9-0.4,1.4-0.6
		c0.4-0.2,0.9-0.4,1.1-0.5l0.3-0.1l0-0.7l0-0.7l-0.4-0.2c-0.2-0.1-0.5-0.2-0.5-0.2C-621.2,4-621.5,4.1-621.8,4.2z M-620.4,6.6
		c-0.1,0-0.2,0.1-0.3,0.1s-0.3,0.1-0.4,0.2l-0.2,0.1l0,0.6c0,0.3,0,0.6,0,0.6c0,0-0.4-0.2-0.9-0.4c-0.3-0.2-0.3-0.2-0.4-0.1
		c0,0-0.3,0.1-0.6,0.2c-0.3,0.1-0.5,0.2-0.5,0.2c0,0,0.5,0.3,1.2,0.6l1.2,0.6l0.5-0.3c0.3-0.1,0.5-0.3,0.5-0.3c0,0,0-2.2,0-2.2
		C-620.3,6.6-620.3,6.6-620.4,6.6z M-623.2,9.2c-0.1,0-0.2,0.1-0.3,0.1c-0.3,0.1-0.2,0.1-0.5,0c-0.2-0.1-0.3-0.1-0.3-0.1
		c0,0-0.3,0.1-0.6,0.3c-0.3,0.1-0.5,0.2-0.5,0.2c-0.1,0,0.1,0.1,0.8,0.5l0.9,0.4l0.4-0.2c0.2-0.1,0.6-0.3,0.9-0.5
		c0.3-0.1,0.5-0.3,0.5-0.3c0,0-0.3-0.1-0.6-0.3l-0.6-0.3L-623.2,9.2z"/>
</g>
<g>
	<path class="st3" d="M-160.5,3.9C-160.5,3.8-160.5,3.8-160.5,3.9l1.4-2.6l0,0l-1.4-2.5l0,0c0,0,0-0.1,0.1-0.1h1.1
		c0.1,0,0.1,0,0.1,0.1l0.8,1.5l0,0l0.8-1.6l0.1-0.1h1.1h0.1c0,0,0,0,0,0.1l-1.3,2.6l0,0l1.3,2.5l0,0c0,0,0,0.1-0.1,0.1h-1.1
		c0,0-0.1,0-0.1-0.1l-0.8-1.5l0,0l-0.8,1.5l-0.1,0.1H-160.5L-160.5,3.9"/>
	<path class="st3" d="M-152-0.3L-152-0.3C-152.1-0.3-152.1-0.2-152-0.3l-1.3,0.1l0,0v4c0,0,0,0,0,0.1c0,0,0,0-0.1,0h-1
		c0,0,0,0-0.1,0c0,0,0,0,0-0.1v-4l0,0h-1.2c0,0,0,0-0.1,0c0,0,0,0,0-0.1v-0.9c0,0,0,0,0-0.1c0,0,0,0,0.1,0h3.1
		C-152.7-1.3-152-0.3-152-0.3"/>
	<path class="st3" d="M-146.6-0.3L-146.6-0.3h-2.3l0,0v0.9l0,0h1.4c0,0,0,0,0.1,0c0,0,0,0,0,0.1v0.9c0,0,0,0,0,0.1c0,0,0,0-0.1,0
		h-1.4l0,0v2c0,0,0,0,0,0.1c0,0,0,0-0.1,0h-1c0,0,0,0-0.1,0c0,0,0,0,0-0.1v-5c0,0,0,0,0-0.1c0,0,0,0,0.1,0h3.4c0,0,0,0,0.1,0
		c0,0,0,0,0,0.1L-146.6-0.3L-146.6-0.3"/>
	<path class="st3" d="M-143.7,2.7c0.1-0.2,0.2-0.4,0.2-0.6V0.5c0-0.3-0.1-0.5-0.2-0.6c-0.1-0.2-0.3-0.2-0.6-0.2
		c-0.2,0-0.4,0.1-0.5,0.2c-0.1,0.2-0.2,0.4-0.2,0.6V2c0,0.3,0.1,0.5,0.2,0.6c0.1,0.2,0.3,0.2,0.5,0.2C-144,2.9-143.9,2.8-143.7,2.7
		 M-145.3,3.7c-0.3-0.2-0.5-0.4-0.7-0.7c-0.2-0.3-0.2-0.6-0.2-1V0.5c0-0.4,0.1-0.7,0.2-1c0.2-0.3,0.4-0.5,0.7-0.7
		c0.3-0.2,0.6-0.2,1-0.2c0.4,0,0.7,0.1,1,0.2c0.3,0.2,0.5,0.4,0.7,0.7c0.2,0.3,0.2,0.6,0.2,1V2c0,0.4-0.1,0.7-0.2,1
		c-0.2,0.3-0.4,0.5-0.7,0.7c-0.3,0.2-0.6,0.2-1,0.2C-144.7,4-145,3.9-145.3,3.7"/>
	<path class="st3" d="M-140.5-0.2v1.1l0,0h0.8c0.2,0,0.3-0.1,0.4-0.2c0.1-0.1,0.2-0.2,0.2-0.4s-0.1-0.3-0.2-0.4
		c-0.1-0.1-0.3-0.2-0.4-0.2L-140.5-0.2C-140.5-0.3-140.5-0.2-140.5-0.2 M-139.1,3.8l-0.8-2l0,0h-0.5l0,0v1.9c0,0,0,0,0,0.1
		c0,0,0,0-0.1,0h-1c0,0,0,0-0.1,0c0,0,0,0,0-0.1v-5c0,0,0,0,0-0.1c0,0,0,0,0.1,0h2.1c0.3,0,0.6,0.1,0.8,0.2s0.4,0.3,0.6,0.6
		c0.1,0.2,0.2,0.5,0.2,0.8s-0.1,0.6-0.2,0.9c-0.2,0.2-0.4,0.4-0.7,0.5c0,0,0,0,0,0.1l0.9,2l0,0c0,0,0,0.1-0.1,0.1H-139.1
		C-139.1,3.9-139.1,3.9-139.1,3.8"/>
	<path class="st3" d="M-136.5,3.7c-0.3-0.2-0.5-0.4-0.7-0.7c-0.2-0.3-0.2-0.6-0.2-1V0.5c0-0.4,0.1-0.7,0.2-1
		c0.2-0.3,0.4-0.5,0.7-0.6c0.3-0.2,0.6-0.2,1-0.2c0.4,0,0.7,0.1,1,0.2s0.5,0.4,0.7,0.6c0.2,0.3,0.2,0.6,0.2,0.9c0,0,0,0,0,0.1
		c0,0,0,0-0.1,0l-1,0.1c-0.1,0-0.1,0-0.1-0.1c0-0.2-0.1-0.4-0.2-0.6c-0.1-0.1-0.3-0.2-0.5-0.2c-0.2,0-0.4,0.1-0.5,0.2
		c-0.1,0.1-0.2,0.3-0.2,0.6v1.7c0,0.2,0.1,0.4,0.2,0.5c0.1,0.1,0.3,0.2,0.5,0.2c0.2,0,0.4-0.1,0.5-0.2c0.1-0.1,0.2-0.3,0.2-0.5
		c0-0.1,0-0.1,0.1-0.1l1,0.1c0,0,0,0,0.1,0c0,0,0,0,0,0.1c0,0.4-0.1,0.7-0.2,0.9c-0.2,0.3-0.4,0.5-0.7,0.6s-0.6,0.2-1,0.2
		C-135.9,3.9-136.2,3.9-136.5,3.7"/>
	<path class="st3" d="M-129.5-0.3L-129.5-0.3h-2.3l0,0v0.9l0,0h1.4c0,0,0,0,0.1,0c0,0,0,0,0,0.1v0.9c0,0,0,0,0,0.1c0,0,0,0-0.1,0
		h-1.4l0,0v1l0,0h2.2c0,0,0,0,0.1,0c0,0,0,0,0,0.1v0.9c0,0,0,0,0,0.1c0,0,0,0-0.1,0h-3.4c0,0,0,0-0.1,0c0,0,0,0,0-0.1v-5
		c0,0,0,0,0-0.1c0,0,0,0,0.1,0h3.4c0,0,0,0,0.1,0c0,0,0,0,0,0.1V-0.3C-129.4-0.3-129.4-0.3-129.5-0.3"/>
	<g id="recorte_6_">
		<g>
			<g>
				<path class="st3" d="M-165.1,1.8v0.5c0,0.3-0.1,0.6-0.2,0.9c-0.2,0.2-0.4,0.4-0.7,0.5c-0.3,0.1-0.6,0.2-1,0.2h-1.8
					c0,0,0,0-0.1,0c0,0,0,0,0-0.1V2.4l1.2-0.2v0.6l0,0h0.7c0.2,0,0.3-0.1,0.5-0.2c0.2-0.1,0.2-0.3,0.2-0.5V2L-165.1,1.8z
					 M-168.9,1.8v-3c0,0,0,0,0-0.1c0,0,0,0,0.1,0h1.8c0.4,0,0.7,0.1,1,0.2c0.3,0.1,0.5,0.3,0.7,0.6c0.1,0.2,0.2,0.5,0.2,0.8V1
					c-0.4,0-0.8,0.1-1.2,0.1V0.5c0-0.2-0.1-0.4-0.2-0.6c-0.1-0.1-0.2-0.1-0.4-0.1h-0.7l0,0v1.7C-168.1,1.6-168.5,1.7-168.9,1.8z"/>
				<path class="st3" d="M-164.5,1v-2.2c0,0,0,0,0-0.1c0,0,0,0,0.1,0h3.4c0,0,0,0,0.1,0c0,0,0,0,0,0.1v0.9c0,0,0,0,0,0.1
					c0,0,0,0-0.1,0h-2.2l0,0v0.9l0,0h1.4c0,0,0,0,0.1,0c0,0,0,0,0,0.1v0.9c0,0,0,0,0,0.1c0,0,0,0-0.1,0h-1.4l0,0v1l0,0h2.2
					c0,0,0,0,0.1,0c0,0,0,0,0,0.1v0.9c0,0,0,0,0,0.1c0,0,0,0-0.1,0h-3.4c0,0,0,0-0.1,0c0,0,0,0,0-0.1V1.7l2.3-0.4
					C-163,1.1-163.7,1-164.5,1z"/>
			</g>
		</g>
	</g>
</g>
<rect x="-126.4" y="-2.7" class="st4" width="0.1" height="13.6"/>
<g>
	<g>
		<path class="st3" d="M-442.5,6.7C-442.5,6.6-442.5,6.6-442.5,6.7l1.4-2.6l0,0l-1.4-2.5l0,0c0,0,0-0.1,0.1-0.1h1.1
			c0.1,0,0.1,0,0.1,0.1l0.8,1.5l0,0l0.8-1.6l0.1-0.1h1.1h0.1c0,0,0,0,0,0.1l-1.3,2.6l0,0l1.3,2.5l0,0c0,0,0,0.1-0.1,0.1h-1.1
			c0,0-0.1,0-0.1-0.1l-0.8-1.5l0,0l-0.8,1.5l-0.1,0.1H-442.5L-442.5,6.7"/>
		<path class="st3" d="M-434,2.5L-434,2.5C-434.1,2.5-434.1,2.6-434,2.5l-1.3,0.1l0,0v4c0,0,0,0,0,0.1c0,0,0,0-0.1,0h-1
			c0,0,0,0-0.1,0c0,0,0,0,0-0.1v-4l0,0h-1.2c0,0,0,0-0.1,0c0,0,0,0,0-0.1V1.6c0,0,0,0,0-0.1c0,0,0,0,0.1,0h3.1
			C-434.7,1.5-434,2.5-434,2.5"/>
		<path class="st3" d="M-428.6,2.5L-428.6,2.5h-2.3l0,0v0.9l0,0h1.4c0,0,0,0,0.1,0c0,0,0,0,0,0.1v0.9c0,0,0,0,0,0.1c0,0,0,0-0.1,0
			h-1.4l0,0v2c0,0,0,0,0,0.1c0,0,0,0-0.1,0h-1c0,0,0,0-0.1,0c0,0,0,0,0-0.1v-5c0,0,0,0,0-0.1c0,0,0,0,0.1,0h3.4c0,0,0,0,0.1,0
			c0,0,0,0,0,0.1L-428.6,2.5L-428.6,2.5"/>
		<path class="st3" d="M-425.7,5.5c0.1-0.2,0.2-0.4,0.2-0.6V3.3c0-0.3-0.1-0.5-0.2-0.6c-0.1-0.2-0.3-0.2-0.6-0.2
			c-0.2,0-0.4,0.1-0.5,0.2c-0.1,0.2-0.2,0.4-0.2,0.6v1.5c0,0.3,0.1,0.5,0.2,0.6c0.1,0.2,0.3,0.2,0.5,0.2
			C-426,5.7-425.9,5.6-425.7,5.5 M-427.3,6.5c-0.3-0.2-0.5-0.4-0.7-0.7c-0.2-0.3-0.2-0.6-0.2-1V3.3c0-0.4,0.1-0.7,0.2-1
			c0.2-0.3,0.4-0.5,0.7-0.7s0.6-0.2,1-0.2s0.7,0.1,1,0.2c0.3,0.2,0.5,0.4,0.7,0.7c0.2,0.3,0.2,0.6,0.2,1v1.5c0,0.4-0.1,0.7-0.2,1
			c-0.2,0.3-0.4,0.5-0.7,0.7s-0.6,0.2-1,0.2C-426.7,6.8-427,6.7-427.3,6.5"/>
		<path class="st3" d="M-422.5,2.6v1.1l0,0h0.8c0.2,0,0.3-0.1,0.4-0.2c0.1-0.1,0.2-0.2,0.2-0.4s-0.1-0.3-0.2-0.4
			c-0.1-0.1-0.3-0.2-0.4-0.2L-422.5,2.6C-422.5,2.5-422.5,2.6-422.5,2.6 M-421.1,6.6l-0.8-2l0,0h-0.5l0,0v1.9c0,0,0,0,0,0.1
			c0,0,0,0-0.1,0h-1c0,0,0,0-0.1,0c0,0,0,0,0-0.1v-5c0,0,0,0,0-0.1c0,0,0,0,0.1,0h2.1c0.3,0,0.6,0.1,0.8,0.2
			c0.2,0.1,0.4,0.3,0.6,0.6c0.1,0.2,0.2,0.5,0.2,0.8s-0.1,0.6-0.2,0.9c-0.2,0.2-0.4,0.4-0.7,0.5c0,0,0,0,0,0.1l0.9,2l0,0
			c0,0,0,0.1-0.1,0.1H-421.1C-421.1,6.7-421.1,6.7-421.1,6.6"/>
		<path class="st3" d="M-418.5,6.5c-0.3-0.2-0.5-0.4-0.7-0.7c-0.2-0.3-0.2-0.6-0.2-1V3.3c0-0.4,0.1-0.7,0.2-1
			c0.2-0.3,0.4-0.5,0.7-0.6c0.3-0.2,0.6-0.2,1-0.2c0.4,0,0.7,0.1,1,0.2c0.3,0.1,0.5,0.4,0.7,0.6c0.2,0.3,0.2,0.6,0.2,0.9
			c0,0,0,0,0,0.1c0,0,0,0-0.1,0l-1,0.1c-0.1,0-0.1,0-0.1-0.1c0-0.2-0.1-0.4-0.2-0.6c-0.1-0.1-0.3-0.2-0.5-0.2
			c-0.2,0-0.4,0.1-0.5,0.2c-0.1,0.1-0.2,0.3-0.2,0.6V5c0,0.2,0.1,0.4,0.2,0.5c0.1,0.1,0.3,0.2,0.5,0.2c0.2,0,0.4-0.1,0.5-0.2
			c0.1-0.1,0.2-0.3,0.2-0.5c0-0.1,0-0.1,0.1-0.1l1,0.1c0,0,0,0,0.1,0c0,0,0,0,0,0.1c0,0.4-0.1,0.7-0.2,0.9c-0.2,0.3-0.4,0.5-0.7,0.6
			c-0.3,0.1-0.6,0.2-1,0.2C-417.9,6.7-418.2,6.7-418.5,6.5"/>
		<path class="st3" d="M-411.5,2.5L-411.5,2.5h-2.3l0,0v0.9l0,0h1.4c0,0,0,0,0.1,0c0,0,0,0,0,0.1v0.9c0,0,0,0,0,0.1c0,0,0,0-0.1,0
			h-1.4l0,0v1l0,0h2.2c0,0,0,0,0.1,0c0,0,0,0,0,0.1v0.9c0,0,0,0,0,0.1c0,0,0,0-0.1,0h-3.4c0,0,0,0-0.1,0c0,0,0,0,0-0.1v-5
			c0,0,0,0,0-0.1c0,0,0,0,0.1,0h3.4c0,0,0,0,0.1,0c0,0,0,0,0,0.1V2.5C-411.4,2.5-411.4,2.5-411.5,2.5"/>
		<g id="recorte_3_">
			<g>
				<g>
					<path class="st3" d="M-447.1,4.6v0.5c0,0.3-0.1,0.6-0.2,0.9c-0.2,0.2-0.4,0.4-0.7,0.5c-0.3,0.1-0.6,0.2-1,0.2h-1.8
						c0,0,0,0-0.1,0c0,0,0,0,0-0.1V5.2l1.2-0.2v0.6l0,0h0.7c0.2,0,0.3-0.1,0.5-0.2c0.2-0.1,0.2-0.3,0.2-0.5V4.8L-447.1,4.6z
						 M-450.9,4.6v-3c0,0,0,0,0-0.1c0,0,0,0,0.1,0h1.8c0.4,0,0.7,0.1,1,0.2c0.3,0.1,0.5,0.3,0.7,0.6c0.1,0.2,0.2,0.5,0.2,0.8v0.7
						c-0.4,0-0.8,0.1-1.2,0.1V3.3c0-0.2-0.1-0.4-0.2-0.6c-0.1-0.1-0.2-0.1-0.4-0.1h-0.7l0,0v1.7C-450.1,4.4-450.5,4.5-450.9,4.6z"/>
					<path class="st3" d="M-446.5,3.8V1.6c0,0,0,0,0-0.1c0,0,0,0,0.1,0h3.4c0,0,0,0,0.1,0c0,0,0,0,0,0.1v0.9c0,0,0,0,0,0.1
						c0,0,0,0-0.1,0h-2.2l0,0v0.9l0,0h1.4c0,0,0,0,0.1,0c0,0,0,0,0,0.1v0.9c0,0,0,0,0,0.1c0,0,0,0-0.1,0h-1.4l0,0v1l0,0h2.2
						c0,0,0,0,0.1,0c0,0,0,0,0,0.1v0.9c0,0,0,0,0,0.1c0,0,0,0-0.1,0h-3.4c0,0,0,0-0.1,0c0,0,0,0,0-0.1V4.5l2.3-0.4
						C-445,3.9-445.7,3.8-446.5,3.8z"/>
				</g>
			</g>
		</g>
	</g>
	<g>
		<path d="M-449.1,8.1h-1.6v1.5h1.4v0.2h-1.4v1.5h1.6v0.2h-1.8V7.9h1.8V8.1z"/>
		<path d="M-445.3,7.8c0.8,0,1.4,0.4,1.6,1.1h-0.3c-0.2-0.5-0.7-0.9-1.4-0.9c-0.8,0-1.4,0.6-1.4,1.6c0,1,0.6,1.6,1.4,1.6
			c0.7,0,1.2-0.4,1.4-0.9h0.3c-0.2,0.7-0.8,1.1-1.6,1.1c-1,0-1.7-0.7-1.7-1.8C-447,8.6-446.3,7.8-445.3,7.8z"/>
		<path d="M-439.8,11.4c-1,0-1.7-0.7-1.7-1.8c0-1.1,0.7-1.8,1.7-1.8c1,0,1.7,0.7,1.7,1.8C-438.1,10.7-438.9,11.4-439.8,11.4z
			 M-439.8,11.2c0.8,0,1.5-0.6,1.5-1.6c0-1-0.6-1.6-1.5-1.6c-0.8,0-1.5,0.6-1.5,1.6C-441.3,10.6-440.7,11.2-439.8,11.2z"/>
		<path d="M-434.8,11.4c-0.7,0-1.1-0.4-1.2-0.9h0.2c0,0.3,0.3,0.7,0.9,0.7c0.5,0,0.9-0.3,0.9-0.7c0-1.1-2-0.4-2-1.8
			c0-0.5,0.4-0.9,1.1-0.9c0.7,0,1,0.4,1.1,0.8h-0.2c0-0.2-0.3-0.6-0.9-0.6c-0.5,0-0.8,0.3-0.8,0.7c0,1.1,2,0.4,2,1.8
			C-433.8,11-434.1,11.4-434.8,11.4z"/>
		<path d="M-431.8,7.9h0.3l1,1.9l1-1.9h0.3l-1.1,2.1v1.4h-0.2V10L-431.8,7.9z"/>
		<path d="M-426.2,11.4c-0.7,0-1.1-0.4-1.2-0.9h0.2c0,0.3,0.3,0.7,0.9,0.7c0.5,0,0.9-0.3,0.9-0.7c0-1.1-2-0.4-2-1.8
			c0-0.5,0.4-0.9,1.1-0.9c0.7,0,1,0.4,1.1,0.8h-0.2c0-0.2-0.3-0.6-0.9-0.6c-0.5,0-0.8,0.3-0.8,0.7c0,1.1,2,0.4,2,1.8
			C-425.1,11-425.5,11.4-426.2,11.4z"/>
		<path d="M-423.1,7.9h2.2v0.2h-1v3.3h-0.2V8.1h-1V7.9z"/>
		<path d="M-417,8.1h-1.6v1.5h1.4v0.2h-1.4v1.5h1.6v0.2h-1.8V7.9h1.8V8.1z"/>
		<path d="M-414.7,8h0.2l1.4,3.1l1.4-3.1h0.2v3.4h-0.2v-3l-1.3,3h-0.2l-1.3-3v3h-0.2V8z"/>
	</g>
	<rect x="-408.4" y="0" class="st4" width="0.1" height="13.6"/>
	<g>
		<path class="st6" d="M-390.1,7.7c-0.4,0.1-0.7,0.3-0.8,0.6c-0.1,0.2-0.1,0.5,0,0.7c0.1,0.3,0.4,0.5,0.7,0.5c0.1,0,0.3,0,0.4,0
			c0.4-0.1,0.7-0.3,0.8-0.7c0-0.1,0-0.1,0-0.3c0-0.2,0-0.2,0-0.3c-0.1-0.4-0.4-0.6-0.7-0.7C-389.8,7.7-390,7.7-390.1,7.7z
			 M-389.9,8.2c0.1,0,0.3,0.1,0.3,0.2c0.1,0.2,0.1,0.4,0,0.5c-0.2,0.3-0.6,0.3-0.8,0.1c-0.2-0.2-0.2-0.5,0-0.7
			C-390.2,8.2-390,8.1-389.9,8.2z"/>
		<path class="st6" d="M-388,7.7c-0.4,0.1-0.7,0.3-0.8,0.6c-0.1,0.2-0.1,0.5,0,0.7c0.1,0.3,0.4,0.5,0.7,0.5c0.1,0,0.3,0,0.4,0
			c0.4-0.1,0.7-0.3,0.8-0.7c0-0.1,0-0.1,0-0.3c0-0.2,0-0.2,0-0.3c-0.1-0.4-0.4-0.6-0.7-0.7C-387.8,7.7-388,7.7-388,7.7z M-387.8,8.2
			c0.1,0,0.3,0.1,0.3,0.2c0.1,0.2,0.1,0.4,0,0.5c-0.2,0.3-0.6,0.3-0.8,0.1c-0.2-0.2-0.2-0.5,0-0.7C-388.2,8.2-388,8.1-387.8,8.2z"/>
		<path class="st6" d="M-385.3,7.7c-0.2,0-0.4,0.2-0.5,0.4c-0.1,0.2,0,0.4,0.1,0.5c0.1,0.1,0.1,0.1,0.4,0.2c0.2,0.1,0.3,0.1,0.3,0.2
			c0,0.1,0,0.2-0.1,0.2c-0.1,0-0.1,0-0.2,0c-0.1,0-0.2-0.1-0.2-0.1c0,0-0.1,0-0.1,0s0,0-0.1,0.1c0,0.1,0,0.1-0.1,0.1l0,0h-0.3h-0.3
			V8.5V7.8h-0.2h-0.2v0.9v0.9h0.5h0.5V9.5c0,0,0,0,0,0c0,0,0,0,0.1,0c0.2,0.1,0.3,0.1,0.4,0.1c0.2,0,0.3,0,0.4-0.1
			c0.1,0,0.2-0.2,0.3-0.3c0.1-0.2,0.1-0.4,0-0.5c0,0-0.1-0.1-0.1-0.1c-0.1-0.1-0.2-0.1-0.4-0.2c-0.1,0-0.2-0.1-0.2-0.1
			c-0.1,0-0.1-0.1,0-0.2c0.1-0.1,0.3-0.1,0.4,0l0,0l0.1-0.2c0.1-0.1,0.1-0.2,0.1-0.2c0,0-0.1-0.1-0.2-0.1
			C-385,7.7-385.1,7.7-385.3,7.7z"/>
		<path class="st6" d="M-398.5,8.4v1.2h0.4c0.2,0,0.5,0,0.5,0c0.5-0.1,0.9-0.4,1-0.9c0-0.2,0.1-0.4,0-0.6c-0.1-0.3-0.2-0.6-0.5-0.7
			c-0.1-0.1-0.2-0.1-0.4-0.2c-0.1,0-0.1,0-0.7,0l-0.5,0L-398.5,8.4L-398.5,8.4z M-397.6,7.7c0.3,0.1,0.6,0.3,0.6,0.7
			c0,0.2-0.1,0.4-0.2,0.6c-0.1,0.1-0.3,0.2-0.6,0.2h-0.1V8.4V7.7h0.1C-397.7,7.7-397.6,7.7-397.6,7.7z"/>
		<path class="st6" d="M-396.3,8.4v1.2l1,0h1l0.3-0.4c0.1-0.2,0.3-0.4,0.3-0.4c0,0,0.1,0.2,0.3,0.4l0.3,0.4h0.3c0.2,0,0.3,0,0.3,0
			c0,0-0.2-0.3-0.4-0.6l-0.4-0.6l0.4-0.6c0.2-0.3,0.4-0.6,0.4-0.6c0,0,0,0,0,0.2v0.2h0.3h0.3v1v1h0.3h0.3v-1v-1l0.3,0l0.3,0
			l-0.2-0.2l-0.2-0.2l-1,0h-1l-0.3,0.4c-0.1,0.2-0.3,0.4-0.3,0.4c0,0-0.1-0.2-0.3-0.4l-0.3-0.4h-1h-1L-396.3,8.4L-396.3,8.4z
			 M-394.5,7.8c0.2,0.3,0.4,0.6,0.4,0.6s-0.2,0.3-0.4,0.6l-0.4,0.6l0-0.2l0-0.2h-0.4h-0.4V8.9V8.6h0.3h0.3V8.4V8.1h-0.3h-0.3V7.9
			V7.7h0.4h0.4V7.4c0-0.1,0-0.2,0-0.2C-394.9,7.2-394.7,7.5-394.5,7.8z"/>
		<path class="st5" d="M-403.3,5.6C-403.7,5.8-404,6-404,6c0,0,0.9,0.5,0.9,0.5c0,0,0.1,0,0.2-0.1l0.2-0.1l0.2,0.1l0.2,0.1l0.4-0.2
			c0.6-0.3,0.6-0.3,0.6-0.3c0,0-0.2-0.1-0.8-0.4c-0.3-0.1-0.5-0.3-0.6-0.3c0,0-0.1,0-0.1,0C-402.6,5.3-402.9,5.4-403.3,5.6z
			 M-404.9,6.5l-0.4,0.2v0.9c0,0.5,0,0.9,0,0.9c0,0,0.2-0.1,0.4-0.2l0.4-0.2V7.2l0.2,0.1c0.2,0.1,0.3,0.2,0.5,0.3l0.3,0.1l0.1-0.1
			c0.1,0,0.2-0.1,0.2-0.1c0.1,0,0.2-0.1,0.3-0.1c0.1-0.1,0.2-0.1,0.2-0.1c0,0-0.2-0.2-0.9-0.5c-0.5-0.3-1-0.5-1-0.5
			C-404.5,6.3-404.7,6.4-404.9,6.5z M-401.1,6.5c-0.3,0.1-0.5,0.2-0.5,0.2c0,0,0.1,0.1,0.3,0.2c0.2,0.1,0.3,0.2,0.3,0.2
			s-0.2,0.1-0.4,0.2c-0.2,0.1-0.7,0.3-1.1,0.5l-1.4,0.6c-0.3,0.2-0.6,0.3-0.7,0.3c-0.7,0.3-0.9,0.4-0.9,0.4s0,0.1,0,0.5l0,0.5
			l0.4,0.2l0.4,0.2l0.5-0.2c0.3-0.1,0.5-0.2,0.5-0.2s0,0-0.1-0.1s-0.2-0.1-0.3-0.2c-0.1-0.1-0.2-0.1-0.2-0.1c0,0,0,0,0,0
			c0,0,0.2-0.1,0.5-0.2c0.5-0.2,0.9-0.4,1.7-0.8c0.4-0.2,0.8-0.3,1.1-0.5c0.3-0.1,0.7-0.3,0.9-0.4l0.3-0.1l0-0.5l0-0.5l-0.4-0.2
			c-0.2-0.1-0.4-0.2-0.4-0.2C-400.6,6.3-400.8,6.4-401.1,6.5z M-399.9,8.5c-0.1,0-0.2,0.1-0.2,0.1s-0.2,0.1-0.3,0.1l-0.2,0.1l0,0.5
			c0,0.3,0,0.5,0,0.5c0,0-0.4-0.2-0.7-0.4c-0.2-0.1-0.3-0.1-0.3-0.1c0,0-0.2,0.1-0.4,0.2c-0.2,0.1-0.4,0.2-0.4,0.2
			c0,0,0.4,0.2,0.9,0.5l0.9,0.5l0.4-0.2c0.2-0.1,0.4-0.2,0.4-0.2c0,0,0-1.8,0-1.8C-399.8,8.4-399.9,8.4-399.9,8.5z M-402.2,10.5
			c-0.1,0-0.1,0.1-0.2,0.1c-0.2,0.1-0.2,0.1-0.4,0c-0.2-0.1-0.2-0.1-0.3-0.1c0,0-0.2,0.1-0.5,0.2c-0.2,0.1-0.4,0.2-0.4,0.2
			c-0.1,0,0.1,0.1,0.7,0.4l0.7,0.4l0.3-0.1c0.2-0.1,0.5-0.2,0.7-0.4c0.2-0.1,0.4-0.2,0.4-0.2c0,0-0.2-0.1-0.4-0.2l-0.4-0.2
			L-402.2,10.5z"/>
		<text transform="matrix(1 0 0 1 -394.8817 6.2889)" style="font-family:'Poppins-ExtraLight'; font-size:1.7868px;">Powered by</text>
	</g>
</g>
<g>
	<g>
		<path class="st7" d="M-353.9,6.7C-353.9,6.6-353.9,6.6-353.9,6.7l1.4-2.6l0,0l-1.4-2.5l0,0c0,0,0-0.1,0.1-0.1h1.1
			c0.1,0,0.1,0,0.1,0.1l0.8,1.5l0,0l0.8-1.6l0.1-0.1h1.1h0.1c0,0,0,0,0,0.1l-1.3,2.6l0,0l1.3,2.5l0,0c0,0,0,0.1-0.1,0.1h-1.1
			c0,0-0.1,0-0.1-0.1l-0.8-1.5l0,0l-0.8,1.5l-0.1,0.1H-353.9L-353.9,6.7"/>
		<path class="st7" d="M-345.4,2.5L-345.4,2.5C-345.5,2.5-345.5,2.6-345.4,2.5l-1.3,0.1l0,0v4c0,0,0,0,0,0.1c0,0,0,0-0.1,0h-1
			c0,0,0,0-0.1,0c0,0,0,0,0-0.1v-4l0,0h-1.2c0,0,0,0-0.1,0c0,0,0,0,0-0.1V1.6c0,0,0,0,0-0.1c0,0,0,0,0.1,0h3.1
			C-346.1,1.5-345.4,2.5-345.4,2.5"/>
		<path class="st7" d="M-340,2.5L-340,2.5h-2.3l0,0v0.9l0,0h1.4c0,0,0,0,0.1,0c0,0,0,0,0,0.1v0.9c0,0,0,0,0,0.1c0,0,0,0-0.1,0h-1.4
			l0,0v2c0,0,0,0,0,0.1c0,0,0,0-0.1,0h-1c0,0,0,0-0.1,0c0,0,0,0,0-0.1v-5c0,0,0,0,0-0.1c0,0,0,0,0.1,0h3.4c0,0,0,0,0.1,0
			c0,0,0,0,0,0.1L-340,2.5L-340,2.5"/>
		<path class="st7" d="M-337.1,5.5c0.1-0.2,0.2-0.4,0.2-0.6V3.3c0-0.3-0.1-0.5-0.2-0.6c-0.1-0.2-0.3-0.2-0.6-0.2
			c-0.2,0-0.4,0.1-0.5,0.2c-0.1,0.2-0.2,0.4-0.2,0.6v1.5c0,0.3,0.1,0.5,0.2,0.6c0.1,0.2,0.3,0.2,0.5,0.2
			C-337.4,5.7-337.3,5.6-337.1,5.5 M-338.7,6.5c-0.3-0.2-0.5-0.4-0.7-0.7c-0.2-0.3-0.2-0.6-0.2-1V3.3c0-0.4,0.1-0.7,0.2-1
			c0.2-0.3,0.4-0.5,0.7-0.7c0.3-0.2,0.6-0.2,1-0.2s0.7,0.1,1,0.2c0.3,0.2,0.5,0.4,0.7,0.7c0.2,0.3,0.2,0.6,0.2,1v1.5
			c0,0.4-0.1,0.7-0.2,1c-0.2,0.3-0.4,0.5-0.7,0.7c-0.3,0.2-0.6,0.2-1,0.2C-338.1,6.8-338.4,6.7-338.7,6.5"/>
		<path class="st7" d="M-333.9,2.6v1.1l0,0h0.8c0.2,0,0.3-0.1,0.4-0.2c0.1-0.1,0.2-0.2,0.2-0.4s-0.1-0.3-0.2-0.4
			c-0.1-0.1-0.3-0.2-0.4-0.2L-333.9,2.6C-333.9,2.5-333.9,2.6-333.9,2.6 M-332.5,6.6l-0.8-2l0,0h-0.5l0,0v1.9c0,0,0,0,0,0.1
			c0,0,0,0-0.1,0h-1c0,0,0,0-0.1,0c0,0,0,0,0-0.1v-5c0,0,0,0,0-0.1c0,0,0,0,0.1,0h2.1c0.3,0,0.6,0.1,0.8,0.2
			c0.2,0.1,0.4,0.3,0.6,0.6c0.1,0.2,0.2,0.5,0.2,0.8s-0.1,0.6-0.2,0.9c-0.2,0.2-0.4,0.4-0.7,0.5c0,0,0,0,0,0.1l0.9,2l0,0
			c0,0,0,0.1-0.1,0.1h-1.1C-332.5,6.7-332.5,6.7-332.5,6.6"/>
		<path class="st7" d="M-329.9,6.5c-0.3-0.2-0.5-0.4-0.7-0.7c-0.2-0.3-0.2-0.6-0.2-1V3.3c0-0.4,0.1-0.7,0.2-1
			c0.2-0.3,0.4-0.5,0.7-0.6c0.3-0.2,0.6-0.2,1-0.2s0.7,0.1,1,0.2c0.3,0.1,0.5,0.4,0.7,0.6c0.2,0.3,0.2,0.6,0.2,0.9c0,0,0,0,0,0.1
			c0,0,0,0-0.1,0l-1,0.1c-0.1,0-0.1,0-0.1-0.1c0-0.2-0.1-0.4-0.2-0.6c-0.1-0.1-0.3-0.2-0.5-0.2c-0.2,0-0.4,0.1-0.5,0.2
			c-0.1,0.1-0.2,0.3-0.2,0.6V5c0,0.2,0.1,0.4,0.2,0.5s0.3,0.2,0.5,0.2c0.2,0,0.4-0.1,0.5-0.2c0.1-0.1,0.2-0.3,0.2-0.5
			c0-0.1,0-0.1,0.1-0.1l1,0.1c0,0,0,0,0.1,0c0,0,0,0,0,0.1c0,0.4-0.1,0.7-0.2,0.9c-0.2,0.3-0.4,0.5-0.7,0.6c-0.3,0.1-0.6,0.2-1,0.2
			C-329.3,6.7-329.6,6.7-329.9,6.5"/>
		<path class="st7" d="M-322.9,2.5L-322.9,2.5h-2.3l0,0v0.9l0,0h1.4c0,0,0,0,0.1,0c0,0,0,0,0,0.1v0.9c0,0,0,0,0,0.1c0,0,0,0-0.1,0
			h-1.4l0,0v1l0,0h2.2c0,0,0,0,0.1,0c0,0,0,0,0,0.1v0.9c0,0,0,0,0,0.1c0,0,0,0-0.1,0h-3.4c0,0,0,0-0.1,0c0,0,0,0,0-0.1v-5
			c0,0,0,0,0-0.1c0,0,0,0,0.1,0h3.4c0,0,0,0,0.1,0c0,0,0,0,0,0.1V2.5C-322.8,2.5-322.8,2.5-322.9,2.5"/>
		<g id="recorte_4_">
			<g>
				<g>
					<path class="st7" d="M-358.5,4.6v0.5c0,0.3-0.1,0.6-0.2,0.9c-0.2,0.2-0.4,0.4-0.7,0.5c-0.3,0.1-0.6,0.2-1,0.2h-1.8
						c0,0,0,0-0.1,0c0,0,0,0,0-0.1V5.2l1.2-0.2v0.6l0,0h0.7c0.2,0,0.3-0.1,0.5-0.2c0.2-0.1,0.2-0.3,0.2-0.5V4.8L-358.5,4.6z
						 M-362.3,4.6v-3c0,0,0,0,0-0.1c0,0,0,0,0.1,0h1.8c0.4,0,0.7,0.1,1,0.2c0.3,0.1,0.5,0.3,0.7,0.6c0.1,0.2,0.2,0.5,0.2,0.8v0.7
						c-0.4,0-0.8,0.1-1.2,0.1V3.3c0-0.2-0.1-0.4-0.2-0.6c-0.1-0.1-0.2-0.1-0.4-0.1h-0.7l0,0v1.7C-361.5,4.4-361.9,4.5-362.3,4.6z"/>
					<path class="st7" d="M-357.9,3.8V1.6c0,0,0,0,0-0.1c0,0,0,0,0.1,0h3.4c0,0,0,0,0.1,0c0,0,0,0,0,0.1v0.9c0,0,0,0,0,0.1
						c0,0,0,0-0.1,0h-2.2l0,0v0.9l0,0h1.4c0,0,0,0,0.1,0c0,0,0,0,0,0.1v0.9c0,0,0,0,0,0.1c0,0,0,0-0.1,0h-1.4l0,0v1l0,0h2.2
						c0,0,0,0,0.1,0c0,0,0,0,0,0.1v0.9c0,0,0,0,0,0.1c0,0,0,0-0.1,0h-3.4c0,0,0,0-0.1,0c0,0,0,0,0-0.1V4.5l2.3-0.4
						C-356.4,3.9-357.1,3.8-357.9,3.8z"/>
				</g>
			</g>
		</g>
	</g>
	<g>
		<path class="st3" d="M-360.6,8.1h-1.6v1.5h1.4v0.2h-1.4v1.5h1.6v0.2h-1.8V7.9h1.8V8.1z"/>
		<path class="st3" d="M-356.7,7.8c0.8,0,1.4,0.4,1.6,1.1h-0.3c-0.2-0.5-0.7-0.9-1.4-0.9c-0.8,0-1.4,0.6-1.4,1.6
			c0,1,0.6,1.6,1.4,1.6c0.7,0,1.2-0.4,1.4-0.9h0.3c-0.2,0.7-0.8,1.1-1.6,1.1c-1,0-1.7-0.7-1.7-1.8C-358.4,8.6-357.7,7.8-356.7,7.8z"
			/>
		<path class="st3" d="M-351.3,11.4c-1,0-1.7-0.7-1.7-1.8c0-1.1,0.7-1.8,1.7-1.8c1,0,1.7,0.7,1.7,1.8
			C-349.6,10.7-350.3,11.4-351.3,11.4z M-351.3,11.2c0.8,0,1.5-0.6,1.5-1.6c0-1-0.6-1.6-1.5-1.6c-0.8,0-1.5,0.6-1.5,1.6
			C-352.8,10.6-352.1,11.2-351.3,11.2z"/>
		<path class="st3" d="M-346.3,11.4c-0.7,0-1.1-0.4-1.2-0.9h0.2c0,0.3,0.3,0.7,0.9,0.7c0.5,0,0.9-0.3,0.9-0.7c0-1.1-2-0.4-2-1.8
			c0-0.5,0.4-0.9,1.1-0.9c0.7,0,1,0.4,1.1,0.8h-0.2c0-0.2-0.3-0.6-0.9-0.6c-0.5,0-0.8,0.3-0.8,0.7c0,1.1,2,0.4,2,1.8
			C-345.2,11-345.6,11.4-346.3,11.4z"/>
		<path class="st3" d="M-343.2,7.9h0.3l1,1.9l1-1.9h0.3l-1.1,2.1v1.4h-0.2V10L-343.2,7.9z"/>
		<path class="st3" d="M-337.6,11.4c-0.7,0-1.1-0.4-1.2-0.9h0.2c0,0.3,0.3,0.7,0.9,0.7c0.5,0,0.9-0.3,0.9-0.7c0-1.1-2-0.4-2-1.8
			c0-0.5,0.4-0.9,1.1-0.9c0.7,0,1,0.4,1.1,0.8h-0.2c0-0.2-0.3-0.6-0.9-0.6c-0.5,0-0.8,0.3-0.8,0.7c0,1.1,2,0.4,2,1.8
			C-336.5,11-336.9,11.4-337.6,11.4z"/>
		<path class="st3" d="M-334.6,7.9h2.2v0.2h-1v3.3h-0.2V8.1h-1V7.9z"/>
		<path class="st3" d="M-328.4,8.1h-1.6v1.5h1.4v0.2h-1.4v1.5h1.6v0.2h-1.8V7.9h1.8V8.1z"/>
		<path class="st3" d="M-326.1,8h0.2l1.4,3.1l1.4-3.1h0.2v3.4h-0.2v-3l-1.3,3h-0.2l-1.3-3v3h-0.2V8z"/>
	</g>
	<rect x="-319.9" y="0" class="st8" width="0.1" height="13.6"/>
	<g>
		<path class="st5" d="M-314,3.1c-0.5,0.3-0.9,0.5-0.9,0.5c0,0,1.2,0.6,1.3,0.6c0,0,0.2-0.1,0.3-0.1l0.3-0.1l0.3,0.2l0.3,0.2L-312,4
			c0.8-0.3,0.8-0.4,0.8-0.4c0,0-0.3-0.2-1-0.5c-0.4-0.2-0.7-0.4-0.8-0.4c-0.1,0-0.1-0.1-0.1-0.1C-313.1,2.6-313.5,2.8-314,3.1z
			 M-316.2,4.2l-0.5,0.3v1.2c0,0.7,0,1.2,0,1.2c0,0,0.3-0.1,0.6-0.2l0.6-0.2V5.1l0.3,0.1c0.2,0.1,0.4,0.2,0.6,0.3l0.4,0.2l0.2-0.1
			c0.1,0,0.2-0.1,0.3-0.1c0.1,0,0.3-0.1,0.4-0.2c0.2-0.1,0.3-0.1,0.3-0.2c0,0-0.3-0.2-1.2-0.7c-0.7-0.4-1.3-0.6-1.3-0.6
			C-315.7,3.9-316,4.1-316.2,4.2z M-311.1,4.3c-0.4,0.2-0.7,0.3-0.7,0.3s0.2,0.1,0.4,0.3c0.2,0.1,0.4,0.3,0.4,0.3s-0.2,0.1-0.5,0.2
			c-0.3,0.1-0.9,0.4-1.5,0.7l-1.8,0.8c-0.5,0.2-0.9,0.4-0.9,0.4c-0.9,0.4-1.2,0.5-1.2,0.6c0,0,0,0.1,0,0.7l0,0.7l0.5,0.2l0.5,0.2
			l0.7-0.3c0.4-0.2,0.7-0.3,0.7-0.3c0,0-0.1-0.1-0.1-0.1c-0.1,0-0.2-0.1-0.4-0.2c-0.1-0.1-0.2-0.1-0.3-0.1c0,0,0,0,0,0
			c0,0,0.3-0.1,0.6-0.3c0.7-0.3,1.2-0.5,2.3-1c0.5-0.2,1-0.5,1.5-0.7c0.4-0.2,1-0.4,1.1-0.5l0.3-0.2l0-0.7l0-0.7l-0.5-0.2
			c-0.3-0.1-0.5-0.2-0.5-0.2C-310.4,4-310.7,4.1-311.1,4.3z M-309.6,6.8c-0.1,0-0.2,0.1-0.3,0.1c-0.1,0-0.3,0.1-0.4,0.2l-0.2,0.1
			l0,0.6c0,0.3,0,0.6,0,0.6c0,0-0.5-0.2-0.9-0.5c-0.3-0.2-0.3-0.2-0.4-0.1c0,0-0.3,0.1-0.6,0.3c-0.3,0.1-0.5,0.2-0.5,0.2
			c0,0,0.5,0.3,1.2,0.7l1.3,0.7l0.5-0.3c0.3-0.2,0.5-0.3,0.6-0.3c0,0,0-2.4,0-2.4C-309.4,6.8-309.5,6.8-309.6,6.8z M-312.5,9.6
			c-0.1,0-0.2,0.1-0.3,0.1c-0.3,0.1-0.2,0.1-0.6,0c-0.2-0.1-0.3-0.1-0.4-0.1c0,0-0.3,0.1-0.6,0.3c-0.3,0.1-0.6,0.2-0.6,0.2
			c-0.1,0,0.1,0.1,0.9,0.5l0.9,0.5l0.4-0.2c0.2-0.1,0.7-0.3,1-0.5c0.3-0.2,0.6-0.3,0.6-0.3c0,0-0.3-0.1-0.6-0.3l-0.6-0.3L-312.5,9.6
			z"/>
	</g>
</g>
<rect x="-91.7" y="-7.3" class="st0" width="65.6" height="28.3"/>
<rect x="-42.2" y="-0.5" class="st8" width="0.1" height="14.6"/>
<g>
	<path class="st5" d="M-36.4,3.1c-0.5,0.3-0.9,0.5-0.9,0.5c0,0,1.2,0.6,1.3,0.6c0,0,0.2-0.1,0.3-0.1l0.3-0.1l0.3,0.2l0.3,0.2
		l0.5-0.2c0.8-0.3,0.8-0.4,0.8-0.4c0,0-0.3-0.2-1-0.5c-0.4-0.2-0.7-0.4-0.8-0.4c-0.1,0-0.1-0.1-0.1-0.1C-35.4,2.6-35.9,2.8-36.4,3.1
		z M-38.6,4.2l-0.5,0.3v1.2c0,0.7,0,1.2,0,1.2c0,0,0.3-0.1,0.6-0.2l0.6-0.2V5.1l0.3,0.1c0.2,0.1,0.4,0.2,0.6,0.3l0.4,0.2l0.2-0.1
		c0.1,0,0.2-0.1,0.3-0.1c0.1,0,0.3-0.1,0.4-0.2s0.3-0.1,0.3-0.2c0,0-0.3-0.2-1.2-0.7C-37.4,4.2-38,3.9-38,3.9
		C-38,3.9-38.3,4.1-38.6,4.2z M-33.4,4.3c-0.4,0.2-0.7,0.3-0.7,0.3s0.2,0.1,0.4,0.3c0.2,0.1,0.4,0.3,0.4,0.3s-0.2,0.1-0.5,0.2
		c-0.3,0.1-0.9,0.4-1.5,0.7l-1.8,0.8c-0.5,0.2-0.9,0.4-0.9,0.4c-0.9,0.4-1.2,0.5-1.2,0.6c0,0,0,0.1,0,0.7l0,0.7l0.5,0.2l0.5,0.2
		l0.7-0.3c0.4-0.2,0.7-0.3,0.7-0.3c0,0-0.1-0.1-0.1-0.1c-0.1,0-0.2-0.1-0.4-0.2c-0.1-0.1-0.2-0.1-0.3-0.1c0,0,0,0,0,0
		c0,0,0.3-0.1,0.6-0.3c0.7-0.3,1.2-0.5,2.3-1c0.5-0.2,1-0.5,1.5-0.7c0.4-0.2,1-0.4,1.1-0.5l0.3-0.2l0-0.7l0-0.7l-0.5-0.2
		C-32.5,4.1-32.7,4-32.7,4C-32.7,4-33,4.1-33.4,4.3z M-31.9,6.8c-0.1,0-0.2,0.1-0.3,0.1c-0.1,0-0.3,0.1-0.4,0.2l-0.2,0.1l0,0.6
		c0,0.3,0,0.6,0,0.6c0,0-0.5-0.2-0.9-0.5c-0.3-0.2-0.3-0.2-0.4-0.1c0,0-0.3,0.1-0.6,0.3c-0.3,0.1-0.5,0.2-0.5,0.2
		c0,0,0.5,0.3,1.2,0.7l1.3,0.7l0.5-0.3c0.3-0.2,0.5-0.3,0.6-0.3c0,0,0-2.4,0-2.4C-31.8,6.8-31.8,6.8-31.9,6.8z M-34.9,9.6
		c-0.1,0-0.2,0.1-0.3,0.1c-0.3,0.1-0.2,0.1-0.6,0c-0.2-0.1-0.3-0.1-0.4-0.1c0,0-0.3,0.1-0.6,0.3c-0.3,0.1-0.6,0.2-0.6,0.2
		c-0.1,0,0.1,0.1,0.9,0.5l0.9,0.5l0.4-0.2c0.2-0.1,0.7-0.3,1-0.5c0.3-0.2,0.6-0.3,0.6-0.3c0,0-0.3-0.1-0.6-0.3l-0.6-0.3L-34.9,9.6z"
		/>
</g>
<g>
	<g>
		<path class="st7" d="M-253.3,5C-253.3,4.9-253.3,4.9-253.3,5l1.4-2.6l0,0l-1.4-2.5l0,0c0,0,0-0.1,0.1-0.1h1.1c0.1,0,0.1,0,0.1,0.1
			l0.8,1.5l0,0l0.8-1.6l0.1-0.1h1.1h0.1c0,0,0,0,0,0.1l-1.3,2.6l0,0l1.3,2.5l0,0c0,0,0,0.1-0.1,0.1h-1.1c0,0-0.1,0-0.1-0.1l-0.8-1.5
			l0,0l-0.8,1.5l-0.1,0.1H-253.3L-253.3,5"/>
		<path class="st7" d="M-244.8,0.8L-244.8,0.8C-244.9,0.8-244.9,0.9-244.8,0.8l-1.3,0.1l0,0v4c0,0,0,0,0,0.1c0,0,0,0-0.1,0h-1
			c0,0,0,0-0.1,0c0,0,0,0,0-0.1v-4l0,0h-1.2c0,0,0,0-0.1,0c0,0,0,0,0-0.1v-0.9c0,0,0,0,0-0.1c0,0,0,0,0.1,0h3.1
			C-245.5-0.2-244.8,0.8-244.8,0.8"/>
		<path class="st7" d="M-239.4,0.8L-239.4,0.8h-2.3l0,0v0.9l0,0h1.4c0,0,0,0,0.1,0c0,0,0,0,0,0.1v0.9c0,0,0,0,0,0.1c0,0,0,0-0.1,0
			h-1.4l0,0v2c0,0,0,0,0,0.1c0,0,0,0-0.1,0h-1c0,0,0,0-0.1,0c0,0,0,0,0-0.1v-5c0,0,0,0,0-0.1c0,0,0,0,0.1,0h3.4c0,0,0,0,0.1,0
			c0,0,0,0,0,0.1L-239.4,0.8L-239.4,0.8"/>
		<path class="st7" d="M-236.5,3.8c0.1-0.2,0.2-0.4,0.2-0.6V1.6c0-0.3-0.1-0.5-0.2-0.6c-0.1-0.2-0.3-0.2-0.6-0.2
			c-0.2,0-0.4,0.1-0.5,0.2c-0.1,0.2-0.2,0.4-0.2,0.6v1.5c0,0.3,0.1,0.5,0.2,0.6c0.1,0.2,0.3,0.2,0.5,0.2
			C-236.8,4-236.7,3.9-236.5,3.8 M-238.1,4.8c-0.3-0.2-0.5-0.4-0.7-0.7c-0.2-0.3-0.2-0.6-0.2-1V1.6c0-0.4,0.1-0.7,0.2-1
			c0.2-0.3,0.4-0.5,0.7-0.7c0.3-0.2,0.6-0.2,1-0.2c0.4,0,0.7,0.1,1,0.2c0.3,0.2,0.5,0.4,0.7,0.7s0.2,0.6,0.2,1v1.5
			c0,0.4-0.1,0.7-0.2,1c-0.2,0.3-0.4,0.5-0.7,0.7s-0.6,0.2-1,0.2C-237.5,5.1-237.8,5-238.1,4.8"/>
		<path class="st7" d="M-233.3,0.9V2l0,0h0.8c0.2,0,0.3-0.1,0.4-0.2c0.1-0.1,0.2-0.2,0.2-0.4s-0.1-0.3-0.2-0.4
			c-0.1-0.1-0.3-0.2-0.4-0.2L-233.3,0.9C-233.3,0.8-233.3,0.9-233.3,0.9 M-231.9,4.9l-0.8-2l0,0h-0.5l0,0v1.9c0,0,0,0,0,0.1
			c0,0,0,0-0.1,0h-1c0,0,0,0-0.1,0c0,0,0,0,0-0.1v-5c0,0,0,0,0-0.1c0,0,0,0,0.1,0h2.1c0.3,0,0.6,0.1,0.8,0.2s0.4,0.3,0.6,0.6
			c0.1,0.2,0.2,0.5,0.2,0.8s-0.1,0.6-0.2,0.9c-0.2,0.2-0.4,0.4-0.7,0.5c0,0,0,0,0,0.1l0.9,2l0,0c0,0,0,0.1-0.1,0.1H-231.9
			C-231.9,5-231.9,5-231.9,4.9"/>
		<path class="st7" d="M-229.3,4.8c-0.3-0.2-0.5-0.4-0.7-0.7c-0.2-0.3-0.2-0.6-0.2-1V1.6c0-0.4,0.1-0.7,0.2-1
			c0.2-0.3,0.4-0.5,0.7-0.6c0.3-0.2,0.6-0.2,1-0.2c0.4,0,0.7,0.1,1,0.2c0.3,0.1,0.5,0.4,0.7,0.6c0.2,0.3,0.2,0.6,0.2,0.9
			c0,0,0,0,0,0.1c0,0,0,0-0.1,0l-1,0.1c-0.1,0-0.1,0-0.1-0.1c0-0.2-0.1-0.4-0.2-0.6c-0.1-0.1-0.3-0.2-0.5-0.2
			c-0.2,0-0.4,0.1-0.5,0.2c-0.1,0.1-0.2,0.3-0.2,0.6v1.7c0,0.2,0.1,0.4,0.2,0.5c0.1,0.1,0.3,0.2,0.5,0.2c0.2,0,0.4-0.1,0.5-0.2
			c0.1-0.1,0.2-0.3,0.2-0.5c0-0.1,0-0.1,0.1-0.1l1,0.1c0,0,0,0,0.1,0c0,0,0,0,0,0.1c0,0.4-0.1,0.7-0.2,0.9c-0.2,0.3-0.4,0.5-0.7,0.6
			c-0.3,0.1-0.6,0.2-1,0.2C-228.7,5-229,5-229.3,4.8"/>
		<path class="st7" d="M-222.3,0.8L-222.3,0.8h-2.3l0,0v0.9l0,0h1.4c0,0,0,0,0.1,0c0,0,0,0,0,0.1v0.9c0,0,0,0,0,0.1c0,0,0,0-0.1,0
			h-1.4l0,0v1l0,0h2.2c0,0,0,0,0.1,0c0,0,0,0,0,0.1v0.9c0,0,0,0,0,0.1c0,0,0,0-0.1,0h-3.4c0,0,0,0-0.1,0c0,0,0,0,0-0.1v-5
			c0,0,0,0,0-0.1c0,0,0,0,0.1,0h3.4c0,0,0,0,0.1,0c0,0,0,0,0,0.1V0.8C-222.2,0.8-222.2,0.8-222.3,0.8"/>
		<g id="recorte_5_">
			<g>
				<g>
					<path class="st7" d="M-257.9,2.9v0.5c0,0.3-0.1,0.6-0.2,0.9c-0.2,0.2-0.4,0.4-0.7,0.5c-0.3,0.1-0.6,0.2-1,0.2h-1.8
						c0,0,0,0-0.1,0c0,0,0,0,0-0.1V3.5l1.2-0.2v0.6l0,0h0.7c0.2,0,0.3-0.1,0.5-0.2c0.2-0.1,0.2-0.3,0.2-0.5V3.1L-257.9,2.9z
						 M-261.7,2.9v-3c0,0,0,0,0-0.1c0,0,0,0,0.1,0h1.8c0.4,0,0.7,0.1,1,0.2c0.3,0.1,0.5,0.3,0.7,0.6c0.1,0.2,0.2,0.5,0.2,0.8v0.7
						c-0.4,0-0.8,0.1-1.2,0.1V1.6c0-0.2-0.1-0.4-0.2-0.6c-0.1-0.1-0.2-0.1-0.4-0.1h-0.7l0,0v1.7C-260.9,2.7-261.3,2.8-261.7,2.9z"/>
					<path class="st7" d="M-257.3,2.1v-2.2c0,0,0,0,0-0.1c0,0,0,0,0.1,0h3.4c0,0,0,0,0.1,0c0,0,0,0,0,0.1v0.9c0,0,0,0,0,0.1
						c0,0,0,0-0.1,0h-2.2l0,0v0.9l0,0h1.4c0,0,0,0,0.1,0c0,0,0,0,0,0.1v0.9c0,0,0,0,0,0.1c0,0,0,0-0.1,0h-1.4l0,0v1l0,0h2.2
						c0,0,0,0,0.1,0c0,0,0,0,0,0.1v0.9c0,0,0,0,0,0.1c0,0,0,0-0.1,0h-3.4c0,0,0,0-0.1,0c0,0,0,0,0-0.1V2.8l2.3-0.4
						C-255.8,2.2-256.5,2.1-257.3,2.1z"/>
				</g>
			</g>
		</g>
	</g>
	<g>
		<path class="st3" d="M-259.9,6.3h-1.6v1.5h1.4V8h-1.4v1.5h1.6v0.2h-1.8V6.2h1.8V6.3z"/>
		<path class="st3" d="M-256.1,6.1c0.8,0,1.4,0.4,1.6,1.1h-0.3c-0.2-0.5-0.7-0.9-1.4-0.9c-0.8,0-1.4,0.6-1.4,1.6
			c0,1,0.6,1.6,1.4,1.6c0.7,0,1.2-0.4,1.4-0.9h0.3c-0.2,0.7-0.8,1.1-1.6,1.1c-1,0-1.7-0.7-1.7-1.8C-257.8,6.9-257.1,6.1-256.1,6.1z"
			/>
		<path class="st3" d="M-250.6,9.7c-1,0-1.7-0.7-1.7-1.8c0-1.1,0.7-1.8,1.7-1.8c1,0,1.7,0.7,1.7,1.8C-248.9,9-249.6,9.7-250.6,9.7z
			 M-250.6,9.5c0.8,0,1.5-0.6,1.5-1.6c0-1-0.6-1.6-1.5-1.6c-0.8,0-1.5,0.6-1.5,1.6C-252.1,8.9-251.5,9.5-250.6,9.5z"/>
		<path class="st3" d="M-245.6,9.7c-0.7,0-1.1-0.4-1.2-0.9h0.2c0,0.3,0.3,0.7,0.9,0.7c0.5,0,0.9-0.3,0.9-0.7c0-1.1-2-0.4-2-1.8
			c0-0.5,0.4-0.9,1.1-0.9c0.7,0,1,0.4,1.1,0.8h-0.2c0-0.2-0.3-0.6-0.9-0.6c-0.5,0-0.8,0.3-0.8,0.7c0,1.1,2,0.4,2,1.8
			C-244.6,9.2-244.9,9.7-245.6,9.7z"/>
		<path class="st3" d="M-242.6,6.2h0.3l1,1.9l1-1.9h0.3l-1.1,2.1v1.4h-0.2V8.2L-242.6,6.2z"/>
		<path class="st3" d="M-237,9.7c-0.7,0-1.1-0.4-1.2-0.9h0.2c0,0.3,0.3,0.7,0.9,0.7c0.5,0,0.9-0.3,0.9-0.7c0-1.1-2-0.4-2-1.8
			c0-0.5,0.4-0.9,1.1-0.9c0.7,0,1,0.4,1.1,0.8h-0.2c0-0.2-0.3-0.6-0.9-0.6c-0.5,0-0.8,0.3-0.8,0.7c0,1.1,2,0.4,2,1.8
			C-235.9,9.2-236.2,9.7-237,9.7z"/>
		<path class="st3" d="M-233.9,6.2h2.2v0.2h-1v3.3h-0.2V6.3h-1V6.2z"/>
		<path class="st3" d="M-227.8,6.3h-1.6v1.5h1.4V8h-1.4v1.5h1.6v0.2h-1.8V6.2h1.8V6.3z"/>
		<path class="st3" d="M-225.5,6.2h0.2l1.4,3.1l1.4-3.1h0.2v3.4h-0.2v-3l-1.3,3h-0.2l-1.3-3v3h-0.2V6.2z"/>
	</g>
	<rect x="-219.2" y="-1.7" class="st8" width="0.1" height="13.6"/>
	<g>
		<path class="st7" d="M-201,6c-0.4,0.1-0.7,0.3-0.8,0.6c-0.1,0.2-0.1,0.5,0,0.7c0.1,0.3,0.4,0.5,0.7,0.5c0.1,0,0.3,0,0.4,0
			c0.4-0.1,0.7-0.3,0.8-0.7c0-0.1,0-0.1,0-0.3s0-0.2,0-0.3c-0.1-0.4-0.4-0.6-0.7-0.7C-200.7,6-200.9,6-201,6z M-200.7,6.5
			c0.1,0,0.3,0.1,0.3,0.2c0.1,0.2,0.1,0.4,0,0.5c-0.2,0.3-0.6,0.3-0.8,0.1c-0.2-0.2-0.2-0.5,0-0.7C-201.1,6.5-200.9,6.4-200.7,6.5z"
			/>
		<path class="st7" d="M-198.9,6c-0.4,0.1-0.7,0.3-0.8,0.6c-0.1,0.2-0.1,0.5,0,0.7c0.1,0.3,0.4,0.5,0.7,0.5c0.1,0,0.3,0,0.4,0
			c0.4-0.1,0.7-0.3,0.8-0.7c0-0.1,0-0.1,0-0.3s0-0.2,0-0.3c-0.1-0.4-0.4-0.6-0.7-0.7C-198.7,6-198.9,6-198.9,6z M-198.7,6.5
			c0.1,0,0.3,0.1,0.3,0.2c0.1,0.2,0.1,0.4,0,0.5c-0.2,0.3-0.6,0.3-0.8,0.1c-0.2-0.2-0.2-0.5,0-0.7C-199.1,6.5-198.9,6.4-198.7,6.5z"
			/>
		<path class="st7" d="M-196.2,6c-0.2,0-0.4,0.2-0.5,0.4c-0.1,0.2,0,0.4,0.1,0.5c0.1,0.1,0.1,0.1,0.4,0.2c0.2,0.1,0.3,0.1,0.3,0.2
			c0,0.1,0,0.2-0.1,0.2c-0.1,0-0.1,0-0.2,0c-0.1,0-0.2-0.1-0.2-0.1c0,0-0.1,0-0.1,0s0,0-0.1,0.1c0,0.1,0,0.1-0.1,0.1l0,0h-0.3h-0.3
			V6.8V6h-0.2h-0.2V7v0.9h0.5h0.5V7.8c0,0,0,0,0,0s0,0,0.1,0c0.2,0.1,0.3,0.1,0.4,0.1c0.2,0,0.3,0,0.4-0.1c0.1,0,0.2-0.2,0.3-0.3
			c0.1-0.2,0.1-0.4,0-0.5c0,0-0.1-0.1-0.1-0.1c-0.1-0.1-0.2-0.1-0.4-0.2c-0.1,0-0.2-0.1-0.2-0.1c-0.1,0-0.1-0.1,0-0.2
			c0.1-0.1,0.3-0.1,0.4,0l0,0l0.1-0.2c0.1-0.1,0.1-0.2,0.1-0.2c0,0-0.1-0.1-0.2-0.1C-195.9,6-196,6-196.2,6z"/>
		<path class="st7" d="M-209.4,6.7v1.2h0.4c0.2,0,0.5,0,0.5,0c0.5-0.1,0.9-0.4,1-0.9c0-0.2,0.1-0.4,0-0.6c-0.1-0.3-0.2-0.6-0.5-0.7
			c-0.1-0.1-0.2-0.1-0.4-0.2c-0.1,0-0.1,0-0.7,0l-0.5,0L-209.4,6.7L-209.4,6.7z M-208.5,6c0.3,0.1,0.6,0.3,0.6,0.7
			c0,0.2-0.1,0.4-0.2,0.6c-0.1,0.1-0.3,0.2-0.6,0.2h-0.1V6.7V6h0.1C-208.6,6-208.5,6-208.5,6z"/>
		<path class="st7" d="M-207.2,6.7v1.2l1,0h1l0.3-0.4c0.1-0.2,0.3-0.4,0.3-0.4c0,0,0.1,0.2,0.3,0.4l0.3,0.4h0.3c0.2,0,0.3,0,0.3,0
			c0,0-0.2-0.3-0.4-0.6l-0.4-0.6l0.4-0.6c0.2-0.3,0.4-0.6,0.4-0.6c0,0,0,0,0,0.2V6h0.3h0.3v1v1h0.3h0.3V7V6l0.3,0l0.3,0l-0.2-0.2
			l-0.2-0.2l-1,0h-1l-0.3,0.4c-0.1,0.2-0.3,0.4-0.3,0.4c0,0-0.1-0.2-0.3-0.4l-0.3-0.4h-1h-1L-207.2,6.7L-207.2,6.7z M-205.4,6.1
			c0.2,0.3,0.4,0.6,0.4,0.6c0,0-0.2,0.3-0.4,0.6l-0.4,0.6l0-0.2l0-0.2h-0.4h-0.4V7.2V6.9h0.3h0.3V6.7V6.4h-0.3h-0.3V6.2V6h0.4h0.4
			V5.7c0-0.1,0-0.2,0-0.2C-205.8,5.5-205.6,5.8-205.4,6.1z"/>
		<path class="st5" d="M-214.1,3.9c-0.4,0.2-0.7,0.4-0.7,0.4c0,0,0.9,0.5,0.9,0.5c0,0,0.1,0,0.2-0.1l0.2-0.1l0.2,0.1l0.2,0.1
			l0.4-0.2c0.6-0.3,0.6-0.3,0.6-0.3c0,0-0.2-0.1-0.8-0.4c-0.3-0.1-0.5-0.3-0.6-0.3c0,0-0.1,0-0.1,0S-213.7,3.7-214.1,3.9z
			 M-215.7,4.8l-0.4,0.2v0.9c0,0.5,0,0.9,0,0.9c0,0,0.2-0.1,0.4-0.2l0.4-0.2V5.4l0.2,0.1c0.2,0.1,0.3,0.2,0.5,0.3l0.3,0.1l0.1-0.1
			c0.1,0,0.2-0.1,0.2-0.1c0.1,0,0.2-0.1,0.3-0.1s0.2-0.1,0.2-0.1c0,0-0.2-0.2-0.9-0.5c-0.5-0.3-1-0.5-1-0.5
			C-215.3,4.5-215.5,4.6-215.7,4.8z M-211.9,4.8c-0.3,0.1-0.5,0.2-0.5,0.2s0.1,0.1,0.3,0.2c0.2,0.1,0.3,0.2,0.3,0.2
			c0,0-0.2,0.1-0.4,0.2c-0.2,0.1-0.7,0.3-1.1,0.5l-1.4,0.6c-0.3,0.2-0.6,0.3-0.7,0.3c-0.7,0.3-0.9,0.4-0.9,0.4c0,0,0,0.1,0,0.5
			l0,0.5l0.4,0.2l0.4,0.2l0.5-0.2c0.3-0.1,0.5-0.2,0.5-0.2s0,0-0.1-0.1c-0.1,0-0.2-0.1-0.3-0.2c-0.1-0.1-0.2-0.1-0.2-0.1
			c0,0,0,0,0,0c0,0,0.2-0.1,0.5-0.2c0.5-0.2,0.9-0.4,1.7-0.8c0.4-0.2,0.8-0.3,1.1-0.5c0.3-0.1,0.7-0.3,0.9-0.4l0.3-0.1l0-0.5l0-0.5
			l-0.4-0.2c-0.2-0.1-0.4-0.2-0.4-0.2C-211.4,4.6-211.6,4.7-211.9,4.8z M-210.7,6.7c-0.1,0-0.2,0.1-0.2,0.1c-0.1,0-0.2,0.1-0.3,0.1
			l-0.2,0.1l0,0.5c0,0.3,0,0.5,0,0.5c0,0-0.4-0.2-0.7-0.4c-0.2-0.1-0.3-0.1-0.3-0.1c0,0-0.2,0.1-0.4,0.2c-0.2,0.1-0.4,0.2-0.4,0.2
			c0,0,0.4,0.2,0.9,0.5l0.9,0.5l0.4-0.2c0.2-0.1,0.4-0.2,0.4-0.2c0,0,0-1.8,0-1.8C-210.6,6.7-210.7,6.7-210.7,6.7z M-213,8.8
			c-0.1,0-0.1,0.1-0.2,0.1c-0.2,0.1-0.2,0.1-0.4,0c-0.2-0.1-0.2-0.1-0.3-0.1c0,0-0.2,0.1-0.5,0.2c-0.2,0.1-0.4,0.2-0.4,0.2
			c-0.1,0,0.1,0.1,0.7,0.4l0.7,0.4l0.3-0.1c0.2-0.1,0.5-0.2,0.7-0.4c0.2-0.1,0.4-0.2,0.4-0.2c0,0-0.2-0.1-0.4-0.2l-0.4-0.2L-213,8.8
			z"/>
		<text transform="matrix(1 0 0 1 -205.7753 4.5877)" class="st7" style="font-family:'Poppins-ExtraLight'; font-size:1.7868px;">Powered by</text>
	</g>
</g>
<text transform="matrix(1 0 0 1 -142.6075 9.2088)" style="font-family:'Poppins-Medium'; font-size:5px; letter-spacing:1;">HUB</text>
<g>
	<g>
		<path class="st7" d="M-76.3,6.2C-76.3,6.1-76.3,6.1-76.3,6.2l1.4-2.6l0,0l-1.4-2.5l0,0c0,0,0-0.1,0.1-0.1h1.1C-75,1-75,1-75,1.1
			l0.8,1.5l0,0l0.8-1.6l0.1-0.1h1.1h0.1c0,0,0,0,0,0.1l-1.3,2.6l0,0l1.3,2.5l0,0c0,0,0,0.1-0.1,0.1h-1.1c0,0-0.1,0-0.1-0.1l-0.8-1.5
			l0,0L-75,6.1l-0.1,0.1H-76.3L-76.3,6.2"/>
		<path class="st7" d="M-67.8,2L-67.8,2C-67.9,2-67.9,2.1-67.8,2l-1.3,0.1l0,0v4c0,0,0,0,0,0.1c0,0,0,0-0.1,0h-1c0,0,0,0-0.1,0
			c0,0,0,0,0-0.1v-4l0,0h-1.2c0,0,0,0-0.1,0c0,0,0,0,0-0.1V1.1c0,0,0,0,0-0.1c0,0,0,0,0.1,0h3.1C-68.5,1-67.8,2-67.8,2"/>
		<path class="st7" d="M-62.4,2L-62.4,2h-2.3l0,0v0.9l0,0h1.4c0,0,0,0,0.1,0c0,0,0,0,0,0.1v0.9c0,0,0,0,0,0.1c0,0,0,0-0.1,0h-1.4
			l0,0v2c0,0,0,0,0,0.1c0,0,0,0-0.1,0h-1c0,0,0,0-0.1,0c0,0,0,0,0-0.1V1c0,0,0,0,0-0.1c0,0,0,0,0.1,0h3.4c0,0,0,0,0.1,0
			c0,0,0,0,0,0.1L-62.4,2L-62.4,2"/>
		<path class="st7" d="M-59.5,5c0.1-0.2,0.2-0.4,0.2-0.6V2.8c0-0.3-0.1-0.5-0.2-0.6C-59.6,2-59.8,2-60.1,2c-0.2,0-0.4,0.1-0.5,0.2
			c-0.1,0.2-0.2,0.4-0.2,0.6v1.5c0,0.3,0.1,0.5,0.2,0.6c0.1,0.2,0.3,0.2,0.5,0.2C-59.8,5.2-59.7,5.1-59.5,5 M-61.1,6
			c-0.3-0.2-0.5-0.4-0.7-0.7C-62,5-62,4.7-62,4.3V2.8c0-0.4,0.1-0.7,0.2-1c0.2-0.3,0.4-0.5,0.7-0.7s0.6-0.2,1-0.2
			c0.4,0,0.7,0.1,1,0.2c0.3,0.2,0.5,0.4,0.7,0.7s0.2,0.6,0.2,1v1.5c0,0.4-0.1,0.7-0.2,1c-0.2,0.3-0.4,0.5-0.7,0.7
			c-0.3,0.2-0.6,0.2-1,0.2C-60.5,6.3-60.8,6.2-61.1,6"/>
		<path class="st7" d="M-56.3,2.1v1.1l0,0h0.8c0.2,0,0.3-0.1,0.4-0.2c0.1-0.1,0.2-0.2,0.2-0.4s-0.1-0.3-0.2-0.4
			C-55.2,2.1-55.4,2-55.5,2L-56.3,2.1C-56.3,2-56.3,2.1-56.3,2.1 M-54.9,6.1l-0.8-2l0,0h-0.5l0,0V6c0,0,0,0,0,0.1c0,0,0,0-0.1,0h-1
			c0,0,0,0-0.1,0c0,0,0,0,0-0.1V1c0,0,0,0,0-0.1c0,0,0,0,0.1,0h2.1c0.3,0,0.6,0.1,0.8,0.2c0.2,0.1,0.4,0.3,0.6,0.6
			c0.1,0.2,0.2,0.5,0.2,0.8s-0.1,0.6-0.2,0.9c-0.2,0.2-0.4,0.4-0.7,0.5c0,0,0,0,0,0.1l0.9,2l0,0c0,0,0,0.1-0.1,0.1H-54.9
			C-54.9,6.2-54.9,6.2-54.9,6.1"/>
		<path class="st7" d="M-52.3,6c-0.3-0.2-0.5-0.4-0.7-0.7c-0.2-0.3-0.2-0.6-0.2-1V2.8c0-0.4,0.1-0.7,0.2-1c0.2-0.3,0.4-0.5,0.7-0.6
			C-52,1-51.7,1-51.3,1s0.7,0.1,1,0.2c0.3,0.1,0.5,0.4,0.7,0.6c0.2,0.3,0.2,0.6,0.2,0.9c0,0,0,0,0,0.1c0,0,0,0-0.1,0l-1,0.1
			c-0.1,0-0.1,0-0.1-0.1c0-0.2-0.1-0.4-0.2-0.6C-50.9,2.1-51.1,2-51.3,2s-0.4,0.1-0.5,0.2C-51.9,2.3-52,2.5-52,2.8v1.7
			c0,0.2,0.1,0.4,0.2,0.5c0.1,0.1,0.3,0.2,0.5,0.2s0.4-0.1,0.5-0.2s0.2-0.3,0.2-0.5c0-0.1,0-0.1,0.1-0.1l1,0.1c0,0,0,0,0.1,0
			c0,0,0,0,0,0.1c0,0.4-0.1,0.7-0.2,0.9C-49.8,5.8-50,6-50.3,6.1s-0.6,0.2-1,0.2C-51.7,6.2-52,6.2-52.3,6"/>
		<path class="st7" d="M-45.3,2L-45.3,2h-2.3l0,0v0.9l0,0h1.4c0,0,0,0,0.1,0c0,0,0,0,0,0.1v0.9c0,0,0,0,0,0.1c0,0,0,0-0.1,0h-1.4
			l0,0v1l0,0h2.2c0,0,0,0,0.1,0c0,0,0,0,0,0.1V6c0,0,0,0,0,0.1c0,0,0,0-0.1,0h-3.4c0,0,0,0-0.1,0c0,0,0,0,0-0.1V1c0,0,0,0,0-0.1
			c0,0,0,0,0.1,0h3.4c0,0,0,0,0.1,0c0,0,0,0,0,0.1V2C-45.2,2-45.2,2-45.3,2"/>
		<g id="recorte_7_">
			<g>
				<g>
					<path class="st7" d="M-80.9,4.1v0.5c0,0.3-0.1,0.6-0.2,0.9c-0.2,0.2-0.4,0.4-0.7,0.5c-0.3,0.1-0.6,0.2-1,0.2h-1.8
						c0,0,0,0-0.1,0c0,0,0,0,0-0.1V4.7l1.2-0.2v0.6l0,0h0.7c0.2,0,0.3-0.1,0.5-0.2c0.2-0.1,0.2-0.3,0.2-0.5V4.3L-80.9,4.1z
						 M-84.7,4.1v-3c0,0,0,0,0-0.1c0,0,0,0,0.1,0h1.8c0.4,0,0.7,0.1,1,0.2c0.3,0.1,0.5,0.3,0.7,0.6c0.1,0.2,0.2,0.5,0.2,0.8v0.7
						c-0.4,0-0.8,0.1-1.2,0.1V2.8c0-0.2-0.1-0.4-0.2-0.6c-0.1-0.1-0.2-0.1-0.4-0.1h-0.7l0,0v1.7C-83.9,3.9-84.3,4-84.7,4.1z"/>
					<path class="st7" d="M-80.3,3.3V1.1c0,0,0,0,0-0.1c0,0,0,0,0.1,0h3.4c0,0,0,0,0.1,0c0,0,0,0,0,0.1V2c0,0,0,0,0,0.1
						c0,0,0,0-0.1,0H-79l0,0V3l0,0h1.4c0,0,0,0,0.1,0c0,0,0,0,0,0.1V4c0,0,0,0,0,0.1c0,0,0,0-0.1,0H-79l0,0v1l0,0h2.2c0,0,0,0,0.1,0
						c0,0,0,0,0,0.1v0.9c0,0,0,0,0,0.1c0,0,0,0-0.1,0h-3.4c0,0,0,0-0.1,0c0,0,0,0,0-0.1V4l2.3-0.4C-78.8,3.4-79.5,3.3-80.3,3.3z"/>
				</g>
			</g>
		</g>
	</g>
	<rect x="-57" y="7.7" class="st5" width="11.8" height="5.1"/>
	<g>
		<path class="st9" d="M-53.9,10.4h-1.4v1.3h-0.4V8.8h0.4v1.2h1.4V8.8h0.4v2.8h-0.4V10.4z"/>
		<path class="st9" d="M-51.9,8.8h0.4v1.8c0,0.5,0.3,0.7,0.7,0.7c0.4,0,0.7-0.2,0.7-0.7V8.8h0.4v1.8c0,0.7-0.5,1.1-1.1,1.1
			c-0.6,0-1-0.3-1-1.1V8.8z"/>
		<path class="st9" d="M-47.2,11.6h-1V8.8h1c0.6,0,0.9,0.3,0.9,0.7c0,0.4-0.2,0.6-0.5,0.6c0.3,0.1,0.6,0.3,0.6,0.7
			C-46.3,11.3-46.6,11.6-47.2,11.6z M-47.3,9.1h-0.6V10h0.6c0.3,0,0.5-0.2,0.5-0.5C-46.7,9.3-46.9,9.1-47.3,9.1z M-47.2,10.3h-0.6v1
			h0.6c0.4,0,0.6-0.2,0.6-0.5C-46.6,10.5-46.9,10.3-47.2,10.3z"/>
	</g>
</g>
<g>
	<rect x="39.3" y="0.5" class="st8" width="0.1" height="13.3"/>
	<g>
		<path class="st5" d="M44.7,3.7c-0.5,0.2-0.8,0.4-0.8,0.5c0,0,1.1,0.6,1.1,0.6c0,0,0.1-0.1,0.3-0.1l0.3-0.1l0.3,0.1l0.3,0.1
			l0.5-0.2c0.7-0.3,0.8-0.3,0.7-0.4c0,0-0.3-0.1-0.9-0.5c-0.3-0.2-0.6-0.3-0.7-0.4c-0.1,0-0.1-0.1-0.1-0.1S45.1,3.5,44.7,3.7z
			 M42.7,4.7L42.2,5v1.1c0,0.6,0,1.1,0,1.1c0,0,0.2-0.1,0.5-0.2l0.5-0.2V5.6l0.2,0.1c0.2,0.1,0.4,0.2,0.6,0.3l0.3,0.2l0.1-0.1
			c0.1,0,0.2-0.1,0.3-0.1c0.1,0,0.2-0.1,0.4-0.2c0.1-0.1,0.3-0.1,0.3-0.1c0,0-0.3-0.2-1.1-0.6c-0.6-0.3-1.2-0.6-1.2-0.6
			C43.2,4.5,42.9,4.6,42.7,4.7z M47.4,4.8c-0.3,0.1-0.6,0.3-0.6,0.3s0.2,0.1,0.4,0.2c0.2,0.1,0.4,0.2,0.4,0.2s-0.2,0.1-0.4,0.2
			c-0.2,0.1-0.8,0.4-1.3,0.6l-1.7,0.7c-0.4,0.2-0.8,0.4-0.8,0.4C42.5,7.9,42.3,8,42.2,8c0,0,0,0.1,0,0.7l0,0.6l0.4,0.2L43,9.8
			l0.6-0.3c0.3-0.1,0.6-0.3,0.6-0.3c0,0-0.1,0-0.1-0.1c-0.1,0-0.2-0.1-0.3-0.2c-0.1-0.1-0.2-0.1-0.2-0.1c0,0,0,0,0,0
			c0,0,0.3-0.1,0.6-0.3c0.6-0.3,1.1-0.5,2.1-1c0.5-0.2,0.9-0.4,1.4-0.6c0.4-0.2,0.9-0.4,1-0.5l0.3-0.1l0-0.6l0-0.6l-0.4-0.2
			C48.2,4.7,48,4.5,48,4.5C48,4.5,47.7,4.7,47.4,4.8z M48.8,7.2c-0.1,0-0.2,0.1-0.3,0.1c-0.1,0-0.3,0.1-0.4,0.2l-0.2,0.1l0,0.6
			c0,0.3,0,0.6,0,0.6c0,0-0.4-0.2-0.8-0.4c-0.3-0.2-0.3-0.2-0.4-0.1c0,0-0.3,0.1-0.5,0.2c-0.3,0.1-0.5,0.2-0.5,0.2
			c0,0,0.5,0.3,1.1,0.6l1.2,0.6l0.5-0.3c0.3-0.1,0.5-0.3,0.5-0.3c0,0,0-2.2,0-2.2C48.9,7.1,48.8,7.1,48.8,7.2z M46,9.7
			c-0.1,0-0.2,0.1-0.3,0.1c-0.3,0.1-0.2,0.1-0.5,0c-0.2-0.1-0.3-0.1-0.3-0.1c0,0-0.3,0.1-0.5,0.2c-0.3,0.1-0.5,0.2-0.5,0.2
			c-0.1,0,0.1,0.1,0.8,0.5l0.9,0.4l0.4-0.2c0.2-0.1,0.6-0.3,0.9-0.4c0.3-0.1,0.5-0.3,0.5-0.3c0,0-0.2-0.1-0.5-0.3l-0.5-0.3L46,9.7z"
			/>
	</g>
	<g>
		<g>
			<g>
				<path class="st7" d="M8.3,7C8.3,6.9,8.3,6.9,8.3,7l1.3-2.4l0,0L8.3,2.3l0,0c0,0,0-0.1,0.1-0.1h1c0.1,0,0.1,0,0.1,0.1l0.7,1.4
					l0,0l0.7-1.5L11,2.1h1h0.1c0,0,0,0,0,0.1l-1.2,2.4l0,0l1.2,2.3l0,0c0,0,0,0.1-0.1,0.1h-1c0,0-0.1,0-0.1-0.1l-0.7-1.4l0,0
					L9.5,6.9L9.4,7H8.3L8.3,7"/>
				<path class="st7" d="M16,3.1L16,3.1C16,3.1,16,3.2,16,3.1l-1.2,0.1l0,0v3.6c0,0,0,0,0,0.1c0,0,0,0-0.1,0h-0.9c0,0,0,0-0.1,0
					c0,0,0,0,0-0.1V3.2l0,0h-1.1c0,0,0,0-0.1,0c0,0,0,0,0-0.1V2.3c0,0,0,0,0-0.1c0,0,0,0,0.1,0h2.8C15.4,2.2,16,3.1,16,3.1"/>
				<path class="st7" d="M21,3.1L21,3.1h-2.1l0,0V4l0,0h1.3c0,0,0,0,0.1,0c0,0,0,0,0,0.1v0.8c0,0,0,0,0,0.1c0,0,0,0-0.1,0h-1.3l0,0
					v1.8c0,0,0,0,0,0.1c0,0,0,0-0.1,0h-0.9c0,0,0,0-0.1,0c0,0,0,0,0-0.1V2.2c0,0,0,0,0-0.1c0,0,0,0,0.1,0H21c0,0,0,0,0.1,0
					c0,0,0,0,0,0.1L21,3.1L21,3.1"/>
				<path class="st7" d="M23.6,5.9c0.1-0.2,0.2-0.4,0.2-0.5V3.9c0-0.3-0.1-0.5-0.2-0.5c-0.1-0.2-0.3-0.2-0.5-0.2
					c-0.2,0-0.4,0.1-0.5,0.2c-0.1,0.2-0.2,0.4-0.2,0.5v1.4c0,0.3,0.1,0.5,0.2,0.5C22.7,6,22.9,6,23.1,6C23.3,6,23.4,6,23.6,5.9
					 M22.2,6.8c-0.3-0.2-0.5-0.4-0.6-0.6c-0.2-0.3-0.2-0.5-0.2-0.9V3.9c0-0.4,0.1-0.6,0.2-0.9c0.2-0.3,0.4-0.5,0.6-0.6
					c0.3-0.2,0.5-0.2,0.9-0.2s0.6,0.1,0.9,0.2c0.3,0.2,0.5,0.4,0.6,0.6c0.2,0.3,0.2,0.5,0.2,0.9v1.4c0,0.4-0.1,0.6-0.2,0.9
					c-0.2,0.3-0.4,0.5-0.6,0.6C23.7,7,23.4,7,23.1,7C22.7,7.1,22.4,7,22.2,6.8"/>
				<path class="st7" d="M26.5,3.2v1l0,0h0.7c0.2,0,0.3-0.1,0.4-0.2c0.1-0.1,0.2-0.2,0.2-0.4c0-0.2-0.1-0.3-0.2-0.4
					c-0.1-0.1-0.3-0.2-0.4-0.2L26.5,3.2C26.5,3.1,26.5,3.2,26.5,3.2 M27.8,6.9L27.1,5l0,0h-0.5l0,0v1.7c0,0,0,0,0,0.1c0,0,0,0-0.1,0
					h-0.9c0,0,0,0-0.1,0c0,0,0,0,0-0.1V2.2c0,0,0,0,0-0.1c0,0,0,0,0.1,0h1.9c0.3,0,0.5,0.1,0.7,0.2s0.4,0.3,0.5,0.5
					C28.9,3,29,3.3,29,3.6s-0.1,0.5-0.2,0.8c-0.2,0.2-0.4,0.4-0.6,0.5c0,0,0,0,0,0.1L29,6.8l0,0c0,0,0,0.1-0.1,0.1H27.8
					C27.8,7,27.8,7,27.8,6.9"/>
				<path class="st7" d="M30.2,6.8c-0.3-0.2-0.5-0.4-0.6-0.6c-0.2-0.3-0.2-0.5-0.2-0.9V3.9c0-0.4,0.1-0.6,0.2-0.9
					c0.2-0.3,0.4-0.5,0.6-0.5c0.3-0.2,0.5-0.2,0.9-0.2s0.6,0.1,0.9,0.2c0.3,0.1,0.5,0.4,0.6,0.5c0.2,0.3,0.2,0.5,0.2,0.8
					c0,0,0,0,0,0.1c0,0,0,0-0.1,0L31.8,4c-0.1,0-0.1,0-0.1-0.1c0-0.2-0.1-0.4-0.2-0.5c-0.1-0.1-0.3-0.2-0.5-0.2
					c-0.2,0-0.4,0.1-0.5,0.2c-0.1,0.1-0.2,0.3-0.2,0.5v1.5c0,0.2,0.1,0.4,0.2,0.5C30.7,6,30.9,6,31.1,6c0.2,0,0.4-0.1,0.5-0.2
					c0.1-0.1,0.2-0.3,0.2-0.5c0-0.1,0-0.1,0.1-0.1l0.9,0.1c0,0,0,0,0.1,0c0,0,0,0,0,0.1c0,0.4-0.1,0.6-0.2,0.8
					c-0.2,0.3-0.4,0.5-0.6,0.5c-0.3,0.1-0.5,0.2-0.9,0.2C30.7,7,30.5,7,30.2,6.8"/>
				<path class="st7" d="M36.6,3.1L36.6,3.1h-2.1l0,0V4l0,0h1.3c0,0,0,0,0.1,0c0,0,0,0,0,0.1v0.8c0,0,0,0,0,0.1c0,0,0,0-0.1,0h-1.3
					l0,0v0.9l0,0h2c0,0,0,0,0.1,0c0,0,0,0,0,0.1v0.8c0,0,0,0,0,0.1c0,0,0,0-0.1,0h-3.1c0,0,0,0-0.1,0c0,0,0,0,0-0.1V2.2
					c0,0,0,0,0-0.1c0,0,0,0,0.1,0h3.1c0,0,0,0,0.1,0c0,0,0,0,0,0.1V3.1C36.6,3.1,36.6,3.1,36.6,3.1"/>
				<g id="recorte_8_">
					<g>
						<g>
							<path class="st7" d="M4.1,5v0.5C4.1,5.8,4,6,3.9,6.3C3.7,6.5,3.6,6.7,3.3,6.8S2.7,7,2.4,7H0.7c0,0,0,0-0.1,0c0,0,0,0,0-0.1
								V5.6l1.1-0.2V6l0,0h0.6c0.2,0,0.3-0.1,0.5-0.2C3,5.7,3,5.5,3,5.3V5.2L4.1,5z M0.6,5V2.3c0,0,0,0,0-0.1c0,0,0,0,0.1,0h1.6
								c0.4,0,0.6,0.1,0.9,0.2s0.5,0.3,0.6,0.5C4,3.1,4.1,3.4,4.1,3.7v0.6C3.7,4.3,3.4,4.4,3,4.4V3.9c0-0.2-0.1-0.4-0.2-0.5
								C2.7,3.2,2.7,3.2,2.5,3.2H1.8l0,0v1.5C1.4,4.9,1,5,0.6,5z"/>
							<path class="st7" d="M4.7,4.3v-2c0,0,0,0,0-0.1c0,0,0,0,0.1,0h3.1c0,0,0,0,0.1,0c0,0,0,0,0,0.1v0.8c0,0,0,0,0,0.1
								c0,0,0,0-0.1,0h-2l0,0V4l0,0h1.3c0,0,0,0,0.1,0c0,0,0,0,0,0.1V5c0,0,0,0,0,0.1c0,0,0,0-0.1,0H5.8l0,0V6l0,0h2c0,0,0,0,0.1,0
								c0,0,0,0,0,0.1v0.8c0,0,0,0,0,0.1c0,0,0,0-0.1,0H4.7c0,0,0,0-0.1,0c0,0,0,0,0-0.1V5l2.1-0.4C6,4.4,5.4,4.3,4.7,4.3z"/>
						</g>
					</g>
				</g>
			</g>
		</g>
		<g>
			<g>
				<path class="st3" d="M26.4,8.6v3.4h-0.6v-1.5H24v1.5h-0.6V8.6H24v1.4h1.8V8.6H26.4z"/>
				<path class="st3" d="M28.5,10.6V8.6h0.6v1.9c0,0.7,0.3,1,0.9,1s0.9-0.3,0.9-1V8.6h0.6v1.9c0,1-0.6,1.6-1.5,1.6
					C29.1,12.1,28.5,11.6,28.5,10.6z"/>
				<path class="st3" d="M36.7,11.2c0,0.6-0.5,0.9-1.3,0.9h-1.7V8.6h1.6c0.8,0,1.3,0.3,1.3,0.9c0,0.4-0.2,0.6-0.4,0.8
					C36.4,10.4,36.7,10.7,36.7,11.2z M34.3,9.2v1h0.9c0.4,0,0.7-0.2,0.7-0.5c0-0.3-0.3-0.5-0.7-0.5H34.3z M36,11.1
					c0-0.3-0.3-0.5-0.7-0.5h-1v1h1C35.8,11.6,36,11.4,36,11.1z"/>
			</g>
		</g>
	</g>
</g>
<g>
	<rect x="117.6" y="-2.3" class="st10" width="0.2" height="13.3"/>
	<g>
		<path class="st5" d="M122.9,0.9c-0.5,0.2-0.8,0.4-0.8,0.5c0,0,1.1,0.6,1.1,0.6c0,0,0.1-0.1,0.3-0.1l0.3-0.1l0.3,0.1l0.3,0.1
			l0.5-0.2c0.7-0.3,0.8-0.3,0.7-0.4c0,0-0.3-0.1-0.9-0.5c-0.3-0.2-0.6-0.3-0.7-0.4c-0.1,0-0.1-0.1-0.1-0.1S123.4,0.6,122.9,0.9z
			 M120.9,1.9l-0.5,0.2v1.1c0,0.6,0,1.1,0,1.1c0,0,0.2-0.1,0.5-0.2l0.5-0.2V2.7l0.2,0.1c0.2,0.1,0.4,0.2,0.6,0.3l0.3,0.2l0.1-0.1
			c0.1,0,0.2-0.1,0.3-0.1c0.1,0,0.2-0.1,0.4-0.2c0.1-0.1,0.3-0.1,0.3-0.1c0,0-0.3-0.2-1.1-0.6c-0.6-0.3-1.2-0.6-1.2-0.6
			C121.4,1.7,121.2,1.8,120.9,1.9z M125.6,2c-0.3,0.1-0.6,0.3-0.6,0.3s0.2,0.1,0.4,0.2c0.2,0.1,0.4,0.2,0.4,0.2s-0.2,0.1-0.4,0.2
			c-0.2,0.1-0.8,0.4-1.3,0.6l-1.7,0.7c-0.4,0.2-0.8,0.4-0.8,0.4c-0.8,0.4-1.1,0.5-1.1,0.5c0,0,0,0.1,0,0.7l0,0.6l0.4,0.2l0.4,0.2
			l0.6-0.3c0.3-0.1,0.6-0.3,0.6-0.3c0,0-0.1,0-0.1-0.1c-0.1,0-0.2-0.1-0.3-0.2C121.9,6,121.8,6,121.7,6c0,0,0,0,0,0
			c0,0,0.3-0.1,0.6-0.3c0.6-0.3,1.1-0.5,2.1-1c0.5-0.2,0.9-0.4,1.4-0.6c0.4-0.2,0.9-0.4,1-0.5l0.3-0.1l0-0.6l0-0.6l-0.4-0.2
			c-0.2-0.1-0.4-0.2-0.5-0.2C126.2,1.7,125.9,1.8,125.6,2z M127,4.3c-0.1,0-0.2,0.1-0.3,0.1c-0.1,0-0.3,0.1-0.4,0.2l-0.2,0.1l0,0.6
			c0,0.3,0,0.6,0,0.6c0,0-0.4-0.2-0.8-0.4c-0.3-0.2-0.3-0.2-0.4-0.1c0,0-0.3,0.1-0.5,0.2c-0.3,0.1-0.5,0.2-0.5,0.2
			c0,0,0.5,0.3,1.1,0.6l1.2,0.6l0.5-0.3c0.3-0.1,0.5-0.3,0.5-0.3c0,0,0-2.2,0-2.2C127.1,4.3,127.1,4.3,127,4.3z M124.3,6.8
			c-0.1,0-0.2,0.1-0.3,0.1c-0.3,0.1-0.2,0.1-0.5,0c-0.2-0.1-0.3-0.1-0.3-0.1c0,0-0.3,0.1-0.5,0.2c-0.3,0.1-0.5,0.2-0.5,0.2
			c-0.1,0,0.1,0.1,0.8,0.5l0.9,0.4l0.4-0.2c0.2-0.1,0.6-0.3,0.9-0.4c0.3-0.1,0.5-0.3,0.5-0.3c0,0-0.2-0.1-0.5-0.3l-0.5-0.3
			L124.3,6.8z"/>
	</g>
	<g>
		<g>
			<g>
				<path class="st3" d="M86.5,4.1C86.5,4,86.5,4,86.5,4.1l1.3-2.4l0,0l-1.3-2.3l0,0c0,0,0-0.1,0.1-0.1h1c0.1,0,0.1,0,0.1,0.1
					l0.7,1.4l0,0l0.7-1.5l0.1-0.1h1h0.1c0,0,0,0,0,0.1l-1.2,2.4l0,0L90.4,4l0,0c0,0,0,0.1-0.1,0.1h-1c0,0-0.1,0-0.1-0.1l-0.7-1.4
					l0,0L87.7,4l-0.1,0.1H86.5L86.5,4.1"/>
				<path class="st3" d="M94.3,0.3L94.3,0.3C94.2,0.3,94.2,0.4,94.3,0.3l-1.2,0.1l0,0V4c0,0,0,0,0,0.1c0,0,0,0-0.1,0h-0.9
					c0,0,0,0-0.1,0c0,0,0,0,0-0.1V0.4l0,0h-1.1c0,0,0,0-0.1,0c0,0,0,0,0-0.1v-0.8c0,0,0,0,0-0.1c0,0,0,0,0.1,0h2.8
					C93.6-0.6,94.3,0.3,94.3,0.3"/>
				<path class="st3" d="M99.2,0.3L99.2,0.3h-2.1l0,0v0.8l0,0h1.3c0,0,0,0,0.1,0c0,0,0,0,0,0.1V2c0,0,0,0,0,0.1c0,0,0,0-0.1,0h-1.3
					l0,0v1.8c0,0,0,0,0,0.1c0,0,0,0-0.1,0h-0.9c0,0,0,0-0.1,0c0,0,0,0,0-0.1v-4.6c0,0,0,0,0-0.1c0,0,0,0,0.1,0h3.1c0,0,0,0,0.1,0
					c0,0,0,0,0,0.1L99.2,0.3L99.2,0.3"/>
				<path class="st3" d="M101.8,3c0.1-0.2,0.2-0.4,0.2-0.5V1c0-0.3-0.1-0.5-0.2-0.5c-0.1-0.2-0.3-0.2-0.5-0.2
					c-0.2,0-0.4,0.1-0.5,0.2c-0.1,0.2-0.2,0.4-0.2,0.5v1.4c0,0.3,0.1,0.5,0.2,0.5c0.1,0.2,0.3,0.2,0.5,0.2
					C101.6,3.2,101.7,3.1,101.8,3 M100.4,3.9c-0.3-0.2-0.5-0.4-0.6-0.6c-0.2-0.3-0.2-0.5-0.2-0.9V1c0-0.4,0.1-0.6,0.2-0.9
					c0.2-0.3,0.4-0.5,0.6-0.6s0.5-0.2,0.9-0.2s0.6,0.1,0.9,0.2c0.3,0.2,0.5,0.4,0.6,0.6S103,0.7,103,1v1.4c0,0.4-0.1,0.6-0.2,0.9
					c-0.2,0.3-0.4,0.5-0.6,0.6c-0.3,0.2-0.5,0.2-0.9,0.2C100.9,4.2,100.7,4.1,100.4,3.9"/>
				<path class="st3" d="M104.8,0.4v1l0,0h0.7c0.2,0,0.3-0.1,0.4-0.2c0.1-0.1,0.2-0.2,0.2-0.4s-0.1-0.3-0.2-0.4s-0.3-0.2-0.4-0.2
					L104.8,0.4C104.8,0.3,104.8,0.4,104.8,0.4 M106,4l-0.7-1.8l0,0h-0.5l0,0v1.7c0,0,0,0,0,0.1c0,0,0,0-0.1,0h-0.9c0,0,0,0-0.1,0
					c0,0,0,0,0-0.1v-4.6c0,0,0,0,0-0.1c0,0,0,0,0.1,0h1.9c0.3,0,0.5,0.1,0.7,0.2s0.4,0.3,0.5,0.5c0.1,0.2,0.2,0.5,0.2,0.7
					s-0.1,0.5-0.2,0.8c-0.2,0.2-0.4,0.4-0.6,0.5c0,0,0,0,0,0.1l0.8,1.8l0,0c0,0,0,0.1-0.1,0.1H106C106,4.1,106,4.1,106,4"/>
				<path class="st3" d="M108.4,3.9c-0.3-0.2-0.5-0.4-0.6-0.6c-0.2-0.3-0.2-0.5-0.2-0.9V1c0-0.4,0.1-0.6,0.2-0.9
					c0.2-0.3,0.4-0.5,0.6-0.5c0.3-0.2,0.5-0.2,0.9-0.2s0.6,0.1,0.9,0.2s0.5,0.4,0.6,0.5c0.2,0.3,0.2,0.5,0.2,0.8c0,0,0,0,0,0.1
					c0,0,0,0-0.1,0L110,1.1c-0.1,0-0.1,0-0.1-0.1c0-0.2-0.1-0.4-0.2-0.5c-0.1-0.1-0.3-0.2-0.5-0.2s-0.4,0.1-0.5,0.2
					s-0.2,0.3-0.2,0.5v1.5c0,0.2,0.1,0.4,0.2,0.5s0.3,0.2,0.5,0.2s0.4-0.1,0.5-0.2s0.2-0.3,0.2-0.5c0-0.1,0-0.1,0.1-0.1l0.9,0.1
					c0,0,0,0,0.1,0c0,0,0,0,0,0.1c0,0.4-0.1,0.6-0.2,0.8c-0.2,0.3-0.4,0.5-0.6,0.5c-0.3,0.1-0.5,0.2-0.9,0.2
					C109,4.1,108.7,4.1,108.4,3.9"/>
				<path class="st3" d="M114.8,0.3L114.8,0.3h-2.1l0,0v0.8l0,0h1.3c0,0,0,0,0.1,0c0,0,0,0,0,0.1V2c0,0,0,0,0,0.1c0,0,0,0-0.1,0
					h-1.3l0,0V3l0,0h2c0,0,0,0,0.1,0c0,0,0,0,0,0.1v0.8c0,0,0,0,0,0.1c0,0,0,0-0.1,0h-3.1c0,0,0,0-0.1,0c0,0,0,0,0-0.1v-4.6
					c0,0,0,0,0-0.1c0,0,0,0,0.1,0h3.1c0,0,0,0,0.1,0c0,0,0,0,0,0.1V0.3C114.9,0.3,114.9,0.3,114.8,0.3"/>
				<g id="recorte_10_">
					<g>
						<g>
							<path class="st3" d="M82.3,2.2v0.5c0,0.3-0.1,0.5-0.2,0.8c-0.2,0.2-0.4,0.4-0.6,0.5C81.2,4,81,4.1,80.6,4.1H79c0,0,0,0-0.1,0
								c0,0,0,0,0-0.1V2.8L80,2.6v0.5l0,0h0.6c0.2,0,0.3-0.1,0.5-0.2c0.2-0.1,0.2-0.3,0.2-0.5V2.4L82.3,2.2z M78.9,2.2v-2.7
								c0,0,0,0,0-0.1c0,0,0,0,0.1,0h1.6c0.4,0,0.6,0.1,0.9,0.2s0.5,0.3,0.6,0.5c0.1,0.2,0.2,0.5,0.2,0.7v0.6
								c-0.4,0-0.7,0.1-1.1,0.1V1c0-0.2-0.1-0.4-0.2-0.5c-0.1-0.1-0.2-0.1-0.4-0.1h-0.6l0,0v1.5C79.6,2,79.2,2.1,78.9,2.2z"/>
							<path class="st3" d="M82.9,1.5v-2c0,0,0,0,0-0.1c0,0,0,0,0.1,0h3.1c0,0,0,0,0.1,0c0,0,0,0,0,0.1v0.8c0,0,0,0,0,0.1
								c0,0,0,0-0.1,0h-2l0,0v0.8l0,0h1.3c0,0,0,0,0.1,0c0,0,0,0,0,0.1v0.8c0,0,0,0,0,0.1c0,0,0,0-0.1,0h-1.3l0,0v0.9l0,0h2
								c0,0,0,0,0.1,0c0,0,0,0,0,0.1V4c0,0,0,0,0,0.1c0,0,0,0-0.1,0H83c0,0,0,0-0.1,0c0,0,0,0,0-0.1V2.1L85,1.8
								C84.3,1.6,83.6,1.5,82.9,1.5z"/>
						</g>
					</g>
				</g>
			</g>
		</g>
		<g>
			<g>
				<path class="st11" d="M104.6,5.8v3.4H104V7.8h-1.8v1.5h-0.6V5.8h0.6v1.4h1.8V5.8H104.6z"/>
				<path class="st11" d="M106.7,7.8V5.8h0.6v1.9c0,0.7,0.3,1,0.9,1c0.6,0,0.9-0.3,0.9-1V5.8h0.6v1.9c0,1-0.6,1.6-1.5,1.6
					C107.3,9.3,106.7,8.8,106.7,7.8z"/>
				<path class="st11" d="M114.9,8.3c0,0.6-0.5,0.9-1.3,0.9h-1.7V5.8h1.6c0.8,0,1.3,0.3,1.3,0.9c0,0.4-0.2,0.6-0.4,0.8
					C114.7,7.6,114.9,7.9,114.9,8.3z M112.5,6.3v1h0.9c0.4,0,0.7-0.2,0.7-0.5c0-0.3-0.3-0.5-0.7-0.5H112.5z M114.3,8.3
					c0-0.3-0.3-0.5-0.7-0.5h-1v1h1C114,8.8,114.3,8.6,114.3,8.3z"/>
			</g>
		</g>
	</g>
</g>
</svg>
