<?xml version="1.0" encoding="utf-8"?>
<!-- Generator: Adobe Illustrator 16.0.3, SVG Export Plug-In . SVG Version: 6.00 Build 0)  -->
<!DOCTYPE svg PUBLIC "-//W3C//DTD SVG 1.1//EN" "http://www.w3.org/Graphics/SVG/1.1/DTD/svg11.dtd">
<svg version="1.1" id="Capa_1" xmlns="http://www.w3.org/2000/svg" xmlns:xlink="http://www.w3.org/1999/xlink" x="0px" y="0px"
	 width="419.064px" height="120px" viewBox="0 0 419.064 120" enable-background="new 0 0 419.064 120" xml:space="preserve">
<g>
	<g id="Gruppe_24892" transform="translate(5229.713 416.42)">
		<g id="Gruppe_24889" transform="translate(0 0)">
			<path id="Pfad_67475" fill="#4C4C4C" d="M-5081.289-377.662c5.731,0,11.789,0.848,17.13,5.993
				c3.843,3.713,6.254,8.794,6.254,15.567c0,6.838-2.346,11.79-5.927,15.374c-5.991,6.059-13.481,6.514-17.131,6.514h-14.069
				v-43.446L-5081.289-377.662L-5081.289-377.662z M-5085.003-342.686h2.67c2.086,0,6.645-0.194,9.9-2.933
				c2.344-1.952,4.23-5.666,4.23-10.487c0.127-3.483-1.166-6.868-3.581-9.381c-3.256-3.256-7.49-3.712-10.552-3.712h-2.668
				L-5085.003-342.686L-5085.003-342.686z"/>
			<path id="Pfad_67476" fill="#4C4C4C" d="M-5030.177-369.194h-14.525v8.4h11.826v8.468h-11.826v9.639h14.525v8.47h-24.556v-43.443
				h24.556V-369.194z"/>
		</g>
		<g id="Gruppe_24891" transform="translate(108.235 0)">
			<g id="Gruppe_24890">
				<path id="Pfad_67477" fill="#4C4C4C" d="M-5070.391-377.662h-24.644v9.066h9.127v34.344h10.672v-34.344h10.651
					L-5070.391-377.662z"/>
			</g>
		</g>
		<path id="Pfad_67478" fill="#4C4C4C" d="M-4986.798-377.662h-12.053l-9.638,13.368l-9.64-13.368h-12.048l15.664,21.723
			l-15.664,21.722h12.048l9.641-13.367l9.641,13.367h12.053l-15.672-21.72L-4986.798-377.662z"/>
	</g>
	<g>
		<path fill="#4C4C4C" d="M310.007,75.743c-4.29,4.102-10.348,6.246-16.595,6.246c-6.245,0-12.304-2.146-16.593-6.246
			c-4.479-4.29-6.624-10.158-6.624-15.71c0-5.616,2.145-11.546,6.624-15.773c4.289-4.102,10.348-6.247,16.593-6.247
			c6.247,0,12.305,2.145,16.595,6.247c4.479,4.227,6.625,10.158,6.625,15.773C316.632,65.585,314.487,71.453,310.007,75.743z
			 M284.896,51.957c-2.271,2.208-3.344,5.299-3.344,8.264c0,3.722,1.77,6.309,3.344,7.824c2.021,1.956,4.858,3.344,8.52,3.344
			c3.725,0,6.5-1.324,8.456-3.281c1.956-1.955,3.405-4.854,3.405-8.072c0-3.281-1.449-6.183-3.405-8.076
			c-2.334-2.209-5.556-3.344-8.456-3.344C290.385,48.614,287.167,49.686,284.896,51.957z"/>
		<path fill="#4C4C4C" d="M356.923,75.743c-4.29,4.102-10.347,6.246-16.594,6.246c-6.246,0-12.305-2.146-16.594-6.246
			c-4.479-4.29-6.624-10.158-6.624-15.71c0-5.616,2.146-11.546,6.624-15.773c4.289-4.102,10.348-6.247,16.594-6.247
			c6.247,0,12.304,2.145,16.594,6.247c4.48,4.227,6.625,10.158,6.625,15.773C363.548,65.585,361.404,71.453,356.923,75.743z
			 M331.813,51.957c-2.272,2.208-3.347,5.299-3.347,8.264c0,3.722,1.769,6.309,3.347,7.824c2.018,1.956,4.854,3.344,8.517,3.344
			c3.723,0,6.499-1.324,8.455-3.281c1.955-1.955,3.407-4.854,3.407-8.072c0-3.281-1.452-6.183-3.407-8.076
			c-2.334-2.209-5.552-3.344-8.455-3.344C337.302,48.614,334.083,49.686,331.813,51.957z"/>
		<path fill="#4C4C4C" d="M376.82,38.96v32.808h13.124v9.275h-24.038V38.96H376.82z"/>
		<path fill="#4C4C4C" d="M392.692,68.423c2.334,2.21,5.864,4.291,9.651,4.291c2.206,0,3.532-0.692,4.229-1.45
			c0.632-0.631,1.07-1.576,1.07-2.647c0-0.82-0.313-1.769-1.197-2.523c-1.071-0.944-2.713-1.388-5.428-2.208L398.18,63
			c-1.768-0.566-4.354-1.516-6.058-3.406c-2.146-2.335-2.396-5.301-2.396-7.446c0-5.173,2.021-8.328,3.851-10.158
			c2.146-2.146,5.678-3.975,10.79-3.975c4.163,0,9.021,1.325,12.997,3.407l-4.354,8.518c-3.28-2.587-5.741-2.839-7.192-2.839
			c-1.07,0-2.521,0.252-3.598,1.263c-0.63,0.63-1.072,1.324-1.072,2.271c0,0.757,0.127,1.325,0.568,1.892
			c0.316,0.379,1.072,1.137,3.659,1.893l3.344,1.009c2.648,0.821,5.427,1.767,7.636,4.165c2.146,2.271,2.713,4.604,2.713,7.51
			c0,3.85-0.944,7.569-3.978,10.601c-3.594,3.596-7.946,4.29-12.428,4.29c-2.649,0-5.174-0.252-8.266-1.389
			c-0.694-0.254-3.347-1.265-6.373-3.347L392.692,68.423z"/>
	</g>
</g>
<g id="Gruppe_24888" transform="translate(5095.035 377.663)">
	<g id="Gruppe_24879" transform="translate(0 17.139)">
		
			<linearGradient id="Pfad_67466_1_" gradientUnits="userSpaceOnUse" x1="-6132.7241" y1="162.1189" x2="-6132.7241" y2="161.1189" gradientTransform="matrix(104.5708 0 0 -68.572 636261.1875 10747.6318)">
			<stop  offset="0" style="stop-color:#00A3BF"/>
			<stop  offset="0.502" style="stop-color:#00B8D8"/>
			<stop  offset="1" style="stop-color:#00A3BF"/>
		</linearGradient>
		<path id="Pfad_67466" fill="url(#Pfad_67466_1_)" d="M-4990.464-351.944v-17.143l-104.571,51.429v17.144L-4990.464-351.944z"/>
		<g id="Gruppe_265" transform="translate(69.83)">
			
				<linearGradient id="Pfad_449_1_" gradientUnits="userSpaceOnUse" x1="-6198.9805" y1="156.1521" x2="-6198.9805" y2="155.1521" gradientTransform="matrix(34.7422 0 0 -25.718 210288.4688 3638.2485)">
				<stop  offset="0" style="stop-color:#00A3BF"/>
				<stop  offset="0.531" style="stop-color:#00B7D7"/>
				<stop  offset="1" style="stop-color:#00B8D8"/>
			</linearGradient>
			<path id="Pfad_449" fill="url(#Pfad_449_1_)" d="M-5060.293-369.225l-17.191-8.438l-17.551,8.632l34.742,17.086
				L-5060.293-369.225z"/>
		</g>
		<g id="Gruppe_24878" transform="translate(0 60.004)">
			
				<linearGradient id="Pfad_67468_1_" gradientUnits="userSpaceOnUse" x1="-6129.168" y1="96.1471" x2="-6129.168" y2="95.1471" gradientTransform="matrix(34.8584 0 0 -25.715 208575.375 2094.761)">
				<stop  offset="0" style="stop-color:#00B8D8"/>
				<stop  offset="0.356" style="stop-color:#00B5D5"/>
				<stop  offset="1" style="stop-color:#00A3BF"/>
			</linearGradient>
			<path id="Pfad_67468" fill="url(#Pfad_67468_1_)" d="M-5095.035-377.662v17.144l17.43,8.571l17.428-8.571L-5095.035-377.662z"/>
		</g>
	</g>
	<g id="Gruppe_24883" transform="translate(0 0)">
		<g id="Gruppe_266" transform="translate(0 17.143)">
			
				<linearGradient id="Pfad_450_1_" gradientUnits="userSpaceOnUse" x1="-6123.8325" y1="160.6403" x2="-6123.8325" y2="159.6403" gradientTransform="matrix(17.4292 0 0 -48.583 101647.1875 7426.7383)">
				<stop  offset="0" style="stop-color:#00A3BF"/>
				<stop  offset="0.339" style="stop-color:#00A3BF"/>
				<stop  offset="0.761" style="stop-color:#00B8D8"/>
				<stop  offset="1" style="stop-color:#00B8D8"/>
			</linearGradient>
			<path id="Pfad_450" fill="url(#Pfad_450_1_)" d="M-5095.035-369.09v40.012l17.429-8.556v-40.028L-5095.035-369.09z"/>
			
				<linearGradient id="Pfad_451_1_" gradientUnits="userSpaceOnUse" x1="-6131.3052" y1="157.1071" x2="-6131.3052" y2="156.1071" gradientTransform="matrix(58.1558 0 0 -28.59 351504.75 4114.0327)">
				<stop  offset="0" style="stop-color:#00B8D8"/>
				<stop  offset="0.498" style="stop-color:#00B8D8"/>
				<stop  offset="1" style="stop-color:#00A3BF"/>
			</linearGradient>
			<path id="Pfad_451" fill="url(#Pfad_451_1_)" d="M-5077.606-377.662l-17.429,8.571l40.709,20.019l17.447-8.58L-5077.606-377.662z
				"/>
		</g>
		<g id="Gruppe_267" transform="translate(29.046)">
			
				<linearGradient id="Pfad_452_1_" gradientUnits="userSpaceOnUse" x1="-6159.5571" y1="170.5626" x2="-6159.5571" y2="169.5626" gradientTransform="matrix(46.5903 0 0 -20 281904.0625 3033.5771)">
				<stop  offset="0" style="stop-color:#00A3BF"/>
				<stop  offset="1" style="stop-color:#00B8D8"/>
			</linearGradient>
			<path id="Pfad_452" fill="url(#Pfad_452_1_)" d="M-5077.608-357.663l5.849-2.874l5.828,2.848l17.485-8.6l-23.349-11.374
				l-23.241,11.428L-5077.608-357.663z"/>
		</g>
	</g>
	<g id="Gruppe_268" transform="translate(46.496 54.298)">
		
			<linearGradient id="Pfad_453_1_" gradientUnits="userSpaceOnUse" x1="-6177.7974" y1="119.9628" x2="-6177.7974" y2="118.9628" gradientTransform="matrix(58.0762 0 0 -28.629 353716.8125 3076.7061)">
			<stop  offset="0" style="stop-color:#00B8D8"/>
			<stop  offset="0.314" style="stop-color:#00B8D8"/>
			<stop  offset="0.807" style="stop-color:#00A4C0"/>
			<stop  offset="1" style="stop-color:#00A3BF"/>
		</linearGradient>
		<path id="Pfad_453" fill="url(#Pfad_453_1_)" d="M-5077.537-357.733l-17.5,8.588l40.646,20.041l17.43-8.571L-5077.537-357.733z"/>
		
			<linearGradient id="Pfad_454_1_" gradientUnits="userSpaceOnUse" x1="-6170.3291" y1="123.4843" x2="-6170.3291" y2="122.4843" gradientTransform="matrix(17.4292 0 0 -48.563 102498.2188 5619.064)">
			<stop  offset="0" style="stop-color:#00A3BF"/>
			<stop  offset="1" style="stop-color:#00B8D8"/>
		</linearGradient>
		<path id="Pfad_454" fill="url(#Pfad_454_1_)" d="M-5036.978-377.659l-17.412,8.563v40l17.429-8.571L-5036.978-377.659z"/>
	</g>
	<g id="Gruppe_24887" transform="translate(29.047 99.999)">
		
			<linearGradient id="Pfad_67474_1_" gradientUnits="userSpaceOnUse" x1="-6159.5483" y1="70.5636" x2="-6159.5483" y2="69.5636" gradientTransform="matrix(46.4756 0 0 -20 281196.8125 1033.5981)">
			<stop  offset="0" style="stop-color:#00A3BF"/>
			<stop  offset="1" style="stop-color:#00B8D8"/>
		</linearGradient>
		<path id="Pfad_67474" fill="url(#Pfad_67474_1_)" d="M-5065.989-377.662l-5.81,2.856l-5.81-2.856l-17.427,8.571l23.237,11.429
			l23.239-11.429L-5065.989-377.662z"/>
	</g>
</g>
</svg>
