<?xml version="1.0" encoding="utf-8"?>
<!-- Generator: Adobe Illustrator 24.3.0, SVG Export Plug-In . SVG Version: 6.00 Build 0)  -->
<svg version="1.1" id="Capa_1" xmlns="http://www.w3.org/2000/svg" xmlns:xlink="http://www.w3.org/1999/xlink" x="0px" y="0px"
	 viewBox="0 0 57.2 65.7" style="enable-background:new 0 0 57.2 65.7;" xml:space="preserve">
<style type="text/css">
	.st0{fill-rule:evenodd;clip-rule:evenodd;fill:#633001;}
	.st1{fill:#FEDC90;}
	.st2{fill-rule:evenodd;clip-rule:evenodd;fill:#D1884F;}
	.st3{fill:#633001;}
</style>
<g>
	<path class="st0" d="M10.8,12.3C10,7.7,13.5,3.5,18,3.5c4,0,7.3,3.3,7.3,7.3V20c1,0,2.1-0.2,3.1-0.2c1,0,1.9,0,3,0.2v-9.1
		c0-4,3.3-7.3,7.3-7.3c4.5,0,8,4.2,7.3,8.7l-1.9,10.7c6.8,3,12.1,8.2,12.1,14.7v4c0,5.4-3.5,10-8.6,12.9c-5.1,3.1-11.7,4.9-19.2,4.9
		s-14.2-1.7-19.2-4.9c-4.9-3-8.4-7.5-8.4-12.9v-4c0-6.5,5.1-11.7,11.9-14.7L10.8,12.3z M41.6,24.3l2.3-12.6c0.5-3.1-1.7-6.1-5.1-6.1
		c-2.8,0-5.1,2.3-5.1,5.1v11.5c-0.7-0.2-1.6-0.2-2.3-0.2c-1,0-1.9-0.2-3-0.2c-1,0-2.1,0-3.1,0.2c-0.7,0-1.6,0.2-2.3,0.2V10.9
		c0-2.8-2.3-5.1-5.1-5.1c-3.1,0-5.6,3-4.9,6.1l2.3,12.6C8,27.3,3.1,32.2,3.1,37.8v4c0,8.6,11.4,15.6,25.4,15.6s25.4-7,25.4-15.6v-4
		C54,32,49.1,27.1,41.6,24.3z"/>
	<path class="st1" d="M54,41.6c0,8.6-11.4,15.6-25.4,15.6s-25.4-7-25.4-15.6v-4h50.9v4H54z"/>
	<path class="st2" d="M13.1,11.9c-0.7-3.1,1.7-6.1,4.9-6.1c2.8,0,5.1,2.3,5.1,5.1v11.5c1.7-0.2,3.5-0.3,5.4-0.3
		c1.7,0,3.5,0.2,5.2,0.3V10.9c0-2.8,2.3-5.1,5.1-5.1c3.1,0,5.6,3,5.1,6.1l-2.3,12.6C48.9,27.3,54,32.2,54,37.8
		c0,8.6-11.4,15.6-25.4,15.6s-25.4-7-25.4-15.6c0-5.6,4.9-10.5,12.2-13.3L13.1,11.9z"/>
	<path class="st3" d="M21.5,36.6c0,2.3-1.2,4.2-2.8,4.2s-2.8-1.9-2.8-4.2c0-2.3,1.2-4.2,2.8-4.2S21.5,34.3,21.5,36.6z"/>
	<path class="st3" d="M40.9,36.6c0,2.3-1.2,4.2-2.8,4.2c-1.6,0-2.8-1.9-2.8-4.2c0-2.3,1.2-4.2,2.8-4.2S40.9,34.3,40.9,36.6z"/>
</g>
</svg>
