<?xml version="1.0" encoding="utf-8"?>
<!-- Generator: Adobe Illustrator 24.3.0, SVG Export Plug-In . SVG Version: 6.00 Build 0)  -->
<svg version="1.1" id="Capa_1" xmlns="http://www.w3.org/2000/svg" xmlns:xlink="http://www.w3.org/1999/xlink" x="0px" y="0px"
	 viewBox="0 0 57.2 65.7" style="enable-background:new 0 0 57.2 65.7;" xml:space="preserve">
<style type="text/css">
	.st0{fill:#FF007A;}
	.st1{fill-rule:evenodd;clip-rule:evenodd;fill:#FF007A;}
</style>
<g>
	<path class="st0" d="M22.5,15.3c-0.7-0.1-0.7-0.1-0.4-0.2c0.6-0.1,2.1,0,3.1,0.3c2.4,0.6,4.6,2,6.8,4.6l0.6,0.7l0.9-0.1
		c3.7-0.6,7.5-0.1,10.6,1.3c0.9,0.4,2.2,1.2,2.4,1.4c0.1,0.1,0.2,0.5,0.2,0.9c0.2,1.6,0.1,2.7-0.4,3.6c-0.3,0.5-0.3,0.6-0.1,1.1
		c0.1,0.3,0.5,0.6,0.9,0.6c0.8,0,1.6-1.3,2-3l0.2-0.7l0.3,0.3c1.7,1.9,3,4.5,3.2,6.4l0.1,0.5l-0.3-0.4c-0.5-0.8-1-1.3-1.6-1.7
		c-1.1-0.8-2.3-1-5.5-1.2c-2.9-0.2-4.5-0.4-6.1-0.9c-2.7-0.9-4.1-2.1-7.3-6.3c-1.4-1.9-2.3-2.9-3.2-3.8
		C27.1,16.7,25.1,15.7,22.5,15.3z"/>
	<path class="st0" d="M47.3,19.5c0.1-1.3,0.2-2.1,0.6-2.9c0.1-0.3,0.3-0.6,0.3-0.6c0,0,0,0.2-0.1,0.5c-0.3,0.7-0.3,1.8-0.1,2.9
		c0.2,1.5,0.3,1.7,1.9,3.3c0.7,0.8,1.6,1.7,1.9,2.1l0.6,0.7l-0.6-0.5c-0.7-0.7-2.3-1.9-2.7-2.1c-0.2-0.1-0.3-0.1-0.4,0
		c-0.1,0.1-0.2,0.3-0.2,1.3c0,1.5-0.2,2.4-0.7,3.4c-0.3,0.5-0.3,0.4-0.1-0.2c0.2-0.4,0.2-0.6,0.2-2.1c0-2.9-0.3-3.6-2.4-4.8
		c-0.5-0.3-1.4-0.7-1.9-1c-0.5-0.2-0.9-0.4-0.9-0.4c0.1-0.1,2,0.5,2.8,0.8c1.2,0.5,1.4,0.5,1.5,0.5C47.2,20.6,47.3,20.3,47.3,19.5z"
		/>
	<path class="st0" d="M23.9,24.5c-1.4-1.9-2.3-4.9-2.1-7.1l0.1-0.7l0.3,0.1c0.6,0.1,1.6,0.5,2.1,0.8c1.3,0.8,1.9,1.9,2.5,4.6
		c0.2,0.8,0.4,1.7,0.5,2c0.2,0.5,0.8,1.7,1.3,2.4c0.4,0.5,0.1,0.8-0.7,0.7C26.7,27.1,25,26,23.9,24.5z"/>
	<path class="st0" d="M45.6,38.9c-6.6-2.7-8.9-5-8.9-8.8c0-0.6,0-1,0-1c0,0,0.3,0.2,0.6,0.4c1.3,1.1,2.8,1.5,7,2.1
		c2.4,0.4,3.8,0.6,5.1,1.1c4,1.3,6.5,4.1,7.1,7.7c0.2,1.1,0.1,3.1-0.2,4.2c-0.2,0.8-0.9,2.4-1.1,2.4c0,0-0.1-0.2-0.1-0.4
		c-0.1-1.4-0.8-2.7-1.9-3.8C51.8,41.6,50,40.7,45.6,38.9z"/>
	<path class="st0" d="M40.9,40c-0.1-0.5-0.2-1.1-0.3-1.4l-0.2-0.5l0.3,0.4c0.4,0.5,0.8,1.1,1.1,1.9c0.2,0.6,0.2,0.8,0.2,1.9
		c0,1,0,1.2-0.2,1.8c-0.3,0.9-0.7,1.5-1.4,2.2c-1.2,1.2-2.8,1.9-5,2.2c-0.4,0-1.5,0.1-2.5,0.2c-2.5,0.1-4.2,0.4-5.6,0.9
		c-0.2,0.1-0.4,0.1-0.4,0.1c-0.1-0.1,1-0.7,1.8-1.1c1.2-0.6,2.4-0.9,5-1.3c1.3-0.2,2.6-0.5,3-0.6C39.9,45.7,41.5,43.1,40.9,40z"/>
	<path class="st0" d="M44,45.4c-0.9-1.9-1.1-3.7-0.6-5.4c0.1-0.2,0.1-0.3,0.2-0.3c0.1,0,0.3,0.1,0.5,0.2c0.4,0.3,1.2,0.7,3.4,1.9
		c2.7,1.5,4.2,2.6,5.3,3.9c0.9,1.1,1.5,2.4,1.8,4c0.2,0.9,0.1,3.1-0.2,4c-0.7,2.8-2.4,5.1-4.8,6.4c-0.4,0.2-0.7,0.3-0.7,0.3
		c0,0,0.1-0.3,0.3-0.7c0.8-1.7,0.9-3.3,0.3-5.2c-0.4-1.1-1.1-2.5-2.7-4.8C44.9,47,44.4,46.3,44,45.4z"/>
	<path class="st0" d="M19.2,55.5c2.5-2.1,5.5-3.5,8.3-4c1.2-0.2,3.2-0.1,4.3,0.2c1.8,0.5,3.4,1.5,4.2,2.7c0.8,1.2,1.2,2.2,1.5,4.5
		c0.1,0.9,0.3,1.8,0.3,2c0.3,1.2,0.8,2.1,1.5,2.6c1,0.8,2.8,0.8,4.6,0.1c0.3-0.1,0.6-0.2,0.6-0.2c0.1,0.1-0.8,0.7-1.4,1
		c-0.8,0.4-1.5,0.6-2.4,0.6c-1.6,0-3-0.8-4.1-2.5c-0.2-0.3-0.7-1.3-1.1-2.2c-1.2-2.7-1.8-3.5-3.1-4.4c-1.2-0.8-2.7-0.9-3.9-0.4
		c-1.5,0.7-1.9,2.7-0.9,3.9c0.4,0.5,1.2,0.9,1.9,1c1.2,0.2,2.3-0.8,2.3-2c0-0.8-0.3-1.3-1.1-1.6c-1.1-0.5-2.2,0.1-2.2,1.1
		c0,0.4,0.2,0.7,0.6,0.9c0.3,0.1,0.3,0.1,0.1,0.1c-1-0.2-1.2-1.4-0.4-2.2c0.9-0.9,2.9-0.5,3.6,0.8c0.3,0.5,0.3,1.6,0.1,2.3
		c-0.6,1.5-2.2,2.2-3.8,1.8c-1.1-0.3-1.6-0.6-2.9-2c-2.3-2.4-3.2-2.9-6.5-3.4l-0.6-0.1L19.2,55.5z"/>
	<path class="st1" d="M1.7,2.1c7.7,9.4,19.7,24,20.3,24.8c0.5,0.7,0.3,1.3-0.5,1.8c-0.5,0.3-1.4,0.5-1.9,0.5c-0.5,0-1.2-0.3-1.6-0.7
		c-0.3-0.3-1.6-2.2-4.5-6.7c-2.2-3.5-4.1-6.4-4.2-6.4c-0.1-0.1-0.1-0.1,3.9,7.2c2.6,4.6,3.4,6.2,3.4,6.4c0,0.4-0.1,0.7-0.7,1.3
		c-0.9,1-1.3,2.1-1.6,4.5c-0.3,2.6-1.2,4.5-3.8,7.6c-1.5,1.9-1.7,2.2-2.1,3c-0.5,0.9-0.6,1.5-0.7,2.7c-0.1,1.3,0.1,2.1,0.4,3.3
		c0.3,1.1,0.7,1.8,1.6,3.1c0.8,1.2,1.2,2.1,1.2,2.4c0,0.3,0.1,0.3,1.3,0c2.9-0.7,5.2-1.8,6.5-3.2c0.8-0.9,1-1.3,1-2.5
		c0-0.8,0-0.9-0.2-1.4c-0.3-0.7-1-1.3-2.3-2.3c-1.8-1.2-2.6-2.2-2.8-3.6c-0.2-1.1,0-1.9,1-4c1-2.2,1.3-3.1,1.5-5.3
		c0.1-1.4,0.3-2,0.7-2.4c0.4-0.5,0.8-0.6,1.8-0.8c1.7-0.2,2.8-0.7,3.7-1.5c0.8-0.7,1.1-1.4,1.1-2.4l0-0.8l-0.4-0.5
		C22.3,24.4,0.7,0.6,0.6,0.6C0.6,0.6,1.1,1.3,1.7,2.1z M11.9,49.3c0.4-0.6,0.2-1.4-0.4-1.8c-0.6-0.4-1.4-0.2-1.4,0.3
		c0,0.1,0.1,0.3,0.3,0.3c0.3,0.2,0.3,0.3,0.1,0.7c-0.2,0.4-0.2,0.7,0.1,0.9C11,50.1,11.6,49.9,11.9,49.3z"/>
	<path class="st1" d="M25.4,31.8c-0.8,0.2-1.6,1.1-1.8,2c-0.1,0.5-0.1,1.5,0.2,1.8c0.4,0.5,0.7,0.6,1.6,0.6c1.8,0,3.4-0.8,3.6-1.8
		c0.2-0.8-0.5-1.9-1.5-2.4C27,31.8,25.9,31.7,25.4,31.8z M27.5,33.5c0.3-0.4,0.2-0.8-0.3-1.1c-0.9-0.6-2.3-0.1-2.3,0.8
		c0,0.4,0.7,0.9,1.4,0.9C26.7,34,27.3,33.8,27.5,33.5z"/>
</g>
</svg>
