<?xml version="1.0" encoding="utf-8"?>
<!-- Generator: Adobe Illustrator 24.3.0, SVG Export Plug-In . SVG Version: 6.00 Build 0)  -->
<svg version="1.1" id="Capa_1" xmlns="http://www.w3.org/2000/svg" xmlns:xlink="http://www.w3.org/1999/xlink" x="0px" y="0px"
	 viewBox="0 0 89.6 89.9" style="enable-background:new 0 0 89.6 89.9;" xml:space="preserve">
<style type="text/css">
	.st0{fill-rule:evenodd;clip-rule:evenodd;fill:url(#SVGID_1_);}
	.st1{fill:none;}
</style>
<g>
	
		<radialGradient id="SVGID_1_" cx="-2828.9087" cy="2859.9653" r="1" gradientTransform="matrix(-21.1243 -82.1724 -80.6302 20.7278 170882.8906 -291650.3125)" gradientUnits="userSpaceOnUse">
		<stop  offset="0" style="stop-color:#6ED7FB"/>
		<stop  offset="1" style="stop-color:#8081D9"/>
	</radialGradient>
	<path class="st0" d="M10.5,64.7C-0.7,45.4,5.7,21,24.6,10.2c13-7.4,28.5-6.6,40.6,0.8l3.1-4C54.6-1.6,36.9-2.6,22.1,5.9
		C0.8,18.1-6.3,45.6,6.2,67.1c12.5,21.6,40,29.2,61.3,16.9C85,74,92.9,53.6,88.2,34.7l-4.9,0.9c-0.4-1.8-0.8-3.2-1.6-4.8
		c7.2,18.2,0.4,39.2-16.7,49C46.1,90.6,21.7,83.9,10.5,64.7z"/>
	<path class="st1" d="M10.5,64.7C-0.7,45.4,5.7,21,24.6,10.2c13-7.4,28.5-6.6,40.6,0.8l3.1-4C54.6-1.6,36.9-2.6,22.1,5.9
		C0.8,18.1-6.3,45.6,6.2,67.1c12.5,21.6,40,29.2,61.3,16.9C85,74,92.9,53.6,88.2,34.7l-4.9,0.9c-0.4-1.8-0.8-3.2-1.6-4.8
		c7.2,18.2,0.4,39.2-16.7,49C46.1,90.6,21.7,83.9,10.5,64.7z"/>
</g>
</svg>
