<?xml version="1.0" encoding="utf-8"?>
<!-- Generator: Adobe Illustrator 24.3.0, SVG Export Plug-In . SVG Version: 6.00 Build 0)  -->
<svg version="1.1" id="Layer_1" xmlns="http://www.w3.org/2000/svg" xmlns:xlink="http://www.w3.org/1999/xlink" x="0px" y="0px"
	 viewBox="0 0 160 78.5" style="enable-background:new 0 0 160 78.5;" xml:space="preserve">
<style type="text/css">
	.st0{fill:#485063;}
</style>
<g>
	<g>
		<g>
			<path class="st0" d="M51.2,51.2c-1.3,0-2.7,0-4.1-0.2c-1.4-0.1-2.7-0.3-3.8-0.6l5.4-22.5c1.3-0.2,2.6-0.4,4-0.5
				c1.4-0.1,2.7-0.1,3.9-0.1c1.3,0,2.5,0.1,3.5,0.4c1,0.3,1.8,0.6,2.4,1.2c0.6,0.5,1.1,1,1.4,1.7c0.3,0.6,0.5,1.3,0.5,2
				c0,0.5,0,1-0.1,1.6c-0.1,0.6-0.3,1.1-0.6,1.6c-0.3,0.5-0.7,1-1.2,1.5c-0.5,0.5-1.2,0.9-2.1,1.3c1,0.5,1.7,1.1,2.2,1.8
				s0.7,1.6,0.7,2.6c0,1.1-0.2,2.1-0.6,3.1s-1.1,1.9-2.1,2.7c-0.9,0.8-2.2,1.4-3.7,1.8C55.2,51,53.3,51.2,51.2,51.2z M50.7,40.7
				l-1.5,6.1c0.4,0,0.8,0.1,1.4,0.1c0.6,0,1.1,0,1.5,0c0.7,0,1.3,0,2-0.1c0.6-0.1,1.2-0.3,1.8-0.6c0.5-0.3,1-0.6,1.3-1.1
				c0.3-0.5,0.5-1.1,0.5-1.8c0-0.3,0-0.6-0.2-0.9c-0.1-0.3-0.3-0.6-0.6-0.8c-0.3-0.2-0.6-0.5-1.1-0.6c-0.5-0.1-1-0.2-1.6-0.2
				L50.7,40.7L50.7,40.7z M51.7,36.8H55c1.3,0,2.3-0.3,3-0.9c0.6-0.6,1-1.3,1-2.1c0-0.4-0.1-0.8-0.3-1.1c-0.2-0.3-0.5-0.6-0.7-0.7
				c-0.3-0.2-0.7-0.3-1.1-0.4c-0.4-0.1-0.8-0.1-1.2-0.1c-0.5,0-1,0-1.5,0s-0.9,0.1-1.2,0.1L51.7,36.8z"/>
		</g>
		<g>
			<path class="st0" d="M69.5,50.9h-5l4.2-17.7h5L69.5,50.9z M71.9,31c-0.7,0-1.3-0.2-1.9-0.6c-0.6-0.4-0.8-1.1-0.8-1.9
				c0-0.5,0.1-0.9,0.3-1.3c0.2-0.4,0.5-0.8,0.7-1.1c0.3-0.3,0.7-0.6,1.1-0.7c0.4-0.2,0.9-0.3,1.3-0.3c0.7,0,1.3,0.2,1.9,0.6
				c0.6,0.4,0.8,1.1,0.8,1.9c0,0.5-0.1,0.9-0.3,1.3c-0.2,0.4-0.5,0.8-0.7,1.1c-0.3,0.3-0.7,0.6-1.1,0.7C72.8,30.9,72.4,31,71.9,31z"
				/>
		</g>
		<g>
			<path class="st0" d="M78.2,28.8l5.2-0.8l-1.3,5.2h5.6l-1,4.1h-5.6l-1.5,6.2c-0.1,0.5-0.2,1-0.2,1.4c0,0.5,0,0.8,0.2,1.2
				c0.1,0.3,0.4,0.6,0.7,0.7c0.4,0.2,0.9,0.3,1.5,0.3c0.6,0,1.1,0,1.6-0.1c0.5-0.1,1-0.2,1.5-0.4l0.4,3.8c-0.7,0.2-1.4,0.5-2.2,0.6
				c-0.8,0.2-1.7,0.3-2.8,0.3c-1.6,0-2.8-0.2-3.6-0.7c-0.9-0.5-1.5-1.1-1.8-1.9c-0.4-0.8-0.5-1.7-0.5-2.8c0-1,0.2-2.1,0.5-3.3
				L78.2,28.8z"/>
		</g>
		<g>
			<path class="st0" d="M94.8,51.2c-1.3,0-2.7,0-4.1-0.2c-1.4-0.1-2.7-0.3-3.8-0.6l5.4-22.5c1.3-0.2,2.6-0.4,4-0.5
				c1.4-0.1,2.7-0.1,3.9-0.1c1.3,0,2.5,0.1,3.5,0.4c1,0.3,1.8,0.6,2.4,1.2c0.6,0.5,1.1,1,1.4,1.7c0.3,0.6,0.5,1.3,0.5,2
				c0,0.5,0,1-0.1,1.6s-0.3,1.1-0.6,1.6c-0.3,0.5-0.7,1-1.2,1.5c-0.5,0.5-1.2,0.9-2.1,1.3c1,0.5,1.7,1.1,2.2,1.8s0.7,1.6,0.7,2.6
				c0,1.1-0.2,2.1-0.6,3.1c-0.4,1-1.1,1.9-2.1,2.7c-0.9,0.8-2.2,1.4-3.7,1.8C98.8,51,97,51.2,94.8,51.2z M94.4,40.7l-1.4,6.1
				c0.4,0,0.8,0.1,1.4,0.1c0.6,0,1.1,0,1.5,0c0.7,0,1.3,0,2-0.1c0.6-0.1,1.2-0.3,1.8-0.6c0.5-0.3,1-0.6,1.3-1.1
				c0.3-0.5,0.5-1.1,0.5-1.8c0-0.3,0-0.6-0.2-0.9c-0.1-0.3-0.3-0.6-0.6-0.8c-0.3-0.2-0.6-0.5-1.1-0.6c-0.5-0.1-1-0.2-1.6-0.2
				L94.4,40.7L94.4,40.7z M95.3,36.8h3.3c1.3,0,2.3-0.3,3-0.9c0.6-0.6,1-1.3,1-2.1c0-0.4-0.1-0.8-0.3-1.1c-0.2-0.3-0.5-0.6-0.7-0.7
				c-0.3-0.2-0.7-0.3-1.1-0.4c-0.4-0.1-0.8-0.1-1.2-0.1c-0.5,0-1,0-1.5,0s-0.9,0.1-1.2,0.1L95.3,36.8z"/>
		</g>
		<g>
			<path class="st0" d="M124.7,43.3c-0.3,1.3-0.4,2.6-0.3,3.9c0.1,1.3,0.4,2.4,0.8,3.5l-4.5,0.6c-0.1-0.3-0.3-0.5-0.4-0.8
				c-0.1-0.2-0.2-0.5-0.3-0.8c-0.6,0.5-1.3,0.9-2.1,1.3c-0.8,0.3-1.6,0.5-2.6,0.5c-1.1,0-2.1-0.2-2.9-0.6c-0.8-0.4-1.4-0.9-1.9-1.6
				s-0.9-1.4-1.1-2.3c-0.2-0.9-0.3-1.8-0.3-2.9c0-1.6,0.3-3,0.8-4.4c0.6-1.4,1.3-2.6,2.3-3.6c1-1,2.1-1.8,3.5-2.4
				c1.3-0.6,2.8-0.9,4.3-0.9c0.2,0,0.6,0,1.1,0c0.5,0,1.1,0.1,1.7,0.1c0.6,0.1,1.3,0.2,2.1,0.4c0.7,0.2,1.4,0.4,2.1,0.7L124.7,43.3z
				 M121.2,37.1c-0.3,0-0.6-0.1-0.8-0.1c-0.2,0-0.5,0-0.9,0c-0.8,0-1.5,0.2-2.1,0.6s-1.2,0.9-1.7,1.5c-0.5,0.6-0.9,1.3-1.2,2.1
				c-0.3,0.8-0.4,1.7-0.4,2.5c0,1.1,0.2,1.9,0.6,2.6s1,0.9,2,0.9c0.5,0,1-0.1,1.4-0.3c0.4-0.2,0.9-0.6,1.3-1c0-0.6,0.1-1.2,0.2-1.7
				c0.1-0.6,0.2-1.2,0.3-1.7L121.2,37.1z"/>
		</g>
		<g>
			<path class="st0" d="M133,47.3c1.2,0,1.9-0.2,2.3-0.5c0.4-0.3,0.6-0.7,0.6-1.1c0-0.2,0-0.5-0.1-0.6c-0.1-0.2-0.2-0.4-0.4-0.5
				c-0.2-0.1-0.4-0.3-0.7-0.5c-0.3-0.2-0.7-0.4-1.2-0.6c-0.6-0.2-1.1-0.5-1.6-0.8c-0.5-0.3-0.9-0.6-1.3-1c-0.4-0.4-0.6-0.8-0.9-1.3
				s-0.3-1.1-0.3-1.8c0-1.8,0.7-3.3,2-4.3c1.3-1.1,3.3-1.6,5.8-1.6c1.2,0,2.3,0.1,3.2,0.4c0.9,0.3,1.7,0.6,2.3,0.9l-1.7,3.7
				c-0.5-0.2-1.1-0.5-1.8-0.7c-0.7-0.2-1.5-0.3-2.2-0.3c-0.3,0-0.6,0-0.9,0c-0.3,0-0.6,0.1-0.8,0.2c-0.3,0.1-0.5,0.3-0.6,0.5
				c-0.1,0.2-0.2,0.5-0.2,0.8c0,0.5,0.2,0.8,0.5,1c0.4,0.2,0.8,0.5,1.5,0.8c0.9,0.4,1.6,0.8,2.2,1.2s1.1,0.7,1.4,1.2
				c0.4,0.4,0.6,0.9,0.7,1.4c0.1,0.5,0.2,1.1,0.2,1.8c0,0.7-0.1,1.4-0.5,2.1c-0.3,0.7-0.8,1.3-1.4,1.8c-0.6,0.6-1.5,1-2.5,1.3
				c-1,0.4-2.2,0.5-3.6,0.5c-0.9,0-1.7,0-2.4-0.2c-0.7-0.1-1.3-0.2-1.9-0.4c-0.6-0.2-1-0.3-1.4-0.5s-0.6-0.3-0.9-0.5l1.7-3.8
				c0.4,0.2,1,0.5,1.8,0.8C130.9,47.2,131.9,47.3,133,47.3z"/>
		</g>
		<g>
			<path class="st0" d="M143.9,44c0-1.4,0.2-2.8,0.7-4.2c0.5-1.3,1.2-2.5,2.1-3.6c0.9-1.1,2-1.9,3.4-2.5c1.3-0.6,2.8-1,4.4-1
				c0.8,0,1.5,0.1,2.2,0.3c0.7,0.2,1.2,0.6,1.7,1c0.5,0.4,0.9,1,1.2,1.6c0.3,0.6,0.4,1.3,0.4,2.1c0,1.2-0.3,2.3-0.8,3.2
				c-0.6,0.9-1.3,1.6-2.3,2.1c-1,0.6-2.2,1-3.5,1.2s-2.9,0.4-4.5,0.4c0.1,0.9,0.5,1.6,1,2c0.5,0.4,1.4,0.6,2.5,0.6
				c0.7,0,1.4,0,2.2-0.2c0.7-0.1,1.4-0.3,2.1-0.6l0.4,4c-0.6,0.2-1.4,0.5-2.4,0.7c-1,0.2-2,0.3-3.2,0.3c-1.4,0-2.6-0.2-3.5-0.6
				c-1-0.4-1.7-0.9-2.3-1.6c-0.6-0.7-1-1.5-1.3-2.3C144,45.9,143.9,45,143.9,44z M153.7,36.7c-1.2,0-2.2,0.4-3,1.2
				c-0.9,0.8-1.4,1.9-1.7,3.3c1.4,0,2.5-0.2,3.4-0.4c0.9-0.2,1.5-0.4,2-0.7s0.8-0.6,0.9-0.9c0.1-0.3,0.2-0.6,0.2-0.9
				C155.4,37.2,154.8,36.7,153.7,36.7z"/>
		</g>
	</g>
	<g>
		<path class="st0" d="M18.1,57.3c-10,0-18.1-8.1-18.1-18s8.1-18.1,18.1-18.1s18.1,8.1,18.1,18.1S28,57.3,18.1,57.3z M18.1,22.8
			C9,22.8,1.6,30.2,1.6,39.3S9,55.8,18.1,55.8s16.5-7.4,16.5-16.5S27.2,22.8,18.1,22.8z"/>
	</g>
	<path class="st0" d="M23.8,32.1L23.8,32.1c0-0.6-0.2-1.2-0.6-1.6c-0.4-0.5-0.9-0.9-1.5-1.2c-0.6-0.3-1.3-0.5-2-0.6
		c-0.7-0.1-1.5-0.1-2.2-0.1c-0.9,0-1.7,0-2.6,0.1c-0.9,0-1.7,0.2-2.4,0.4L8.4,46.2c0.7,0.2,1.6,0.3,2.6,0.4c0.6,0,1.2,0.1,1.8,0.1
		l0,0c0.1,0,0.1,0,0.2,0c0.2,0,0.4,0,0.5,0h0l0,0l0,0c0,0,0.1,0,0.1,0c0.9,0,1.7,0,2.5-0.1l0,0c1.7-0.2,3.2-0.7,4.3-1.5
		c1-0.7,1.7-1.6,2.1-2.7c0.2-0.6,0.3-1.2,0.3-2c0-0.5-0.1-1-0.3-1.4c-0.1-0.2-0.2-0.5-0.4-0.6c-0.4-0.6-1-1-1.7-1.3
		c1.2-0.5,2.1-1.2,2.6-1.9c0-0.1,0.1-0.2,0.1-0.3c0.4-0.7,0.6-1.5,0.6-2.3C23.8,32.3,23.8,32.2,23.8,32.1L23.8,32.1z M19.4,35.3
		c-0.1,0.1-0.3,0.2-0.5,0.2l0,0l-0.8,3.2l0,0l0,0c0.3,0.1,0.5,0.2,0.7,0.4c0.1,0.1,0.2,0.2,0.3,0.3c0.3,0.4,0.5,0.8,0.5,1.3
		c0,0.5,0,0.8-0.2,1.2c-0.1,0.2-0.2,0.4-0.3,0.6c-0.3,0.5-0.7,0.8-1.2,1c-0.3,0.1-0.6,0.3-0.9,0.3l0,0c-0.1,0-0.1,0-0.2,0l0,0l0,0
		c-0.2,0-0.3,0-0.5,0.1C15.5,44,15,44,14.4,44h-0.1c-0.2,0-0.5,0-0.6,0c-0.2,0-0.4,0-0.6,0c-0.4,0-0.7,0-1-0.1l1.3-5.5H15l0,0
		l0.4-1.7l0.2-0.7l0,0H14l1.2-4.7c0.2,0,0.6,0,1-0.1c0.4,0,0.8,0,1.2,0c1,0,1.8,0.1,2.4,0.4c0.2,0.1,0.4,0.2,0.5,0.4l0,0l0,0l0,0
		c0.3,0.3,0.4,0.7,0.4,1.2s-0.1,0.9-0.3,1.2c0,0,0,0.1-0.1,0.1C20,34.8,19.7,35,19.4,35.3z"/>
	<path class="st0" d="M15,38.4L13.6,44c0.2,0,0.4,0,0.6,0l0,0h0.1c0.6,0,1.2,0,1.8-0.1c0.2,0,0.4,0,0.5-0.1c0.1,0,0.1,0,0.2,0
		l0.5-1.9h2.9c1,0,1.8,0.2,2.3,0.5c0,0,0.1,0.1,0.2,0.1c0.5,0.4,0.7,1,0.7,1.6c0,0.7-0.2,1.3-0.5,1.7c-0.3,0.5-0.7,0.8-1.2,1
		c-0.5,0.2-1.1,0.4-1.7,0.5c-0.6,0.1-1.2,0.1-1.8,0.1c-0.5,0-0.9,0-1.3,0c-0.4,0-0.7,0-1-0.1l0.2-0.8c-0.8,0.1-1.6,0.1-2.5,0.1
		c0,0-0.1,0-0.1,0c-0.2,0-0.4,0-0.6,0l0,0l-0.7,2.9c0.7,0.2,1.6,0.3,2.6,0.4s1.9,0.1,2.8,0.1c2.9,0,5.2-0.6,6.8-1.7
		c1.6-1.1,2.3-2.7,2.3-4.6c0-0.8-0.2-1.4-0.6-2c-0.4-0.6-1-1-1.7-1.3c1.2-0.5,2.1-1.2,2.6-1.9c0.5-0.8,0.7-1.7,0.7-2.6
		c0-0.8-0.2-1.5-0.6-2c-0.4-0.5-0.9-0.9-1.5-1.2c-0.6-0.3-1.2-0.5-1.9-0.6c0,0,0,0.1,0,0.1c0,0,0,0,0,0.1v0v0c0,0,0,0.1,0,0.1
		c0,0,0,0,0,0.1l0,0l0,0v0c0,0,0,0.1,0,0.1c0,0,0,0,0,0.1v0c0,0,0,0.1,0,0.1c0,0.1,0,0.1,0,0.2c0,0,0,0,0,0.1c0,0,0,0,0,0.1
		c0,0,0,0,0,0.1s0,0.1,0,0.1c0,0,0,0,0,0.1c0,0,0,0,0,0.1c0,0,0,0,0,0.1c0,0,0,0,0,0.1l0,0c0,0,0,0,0,0.1c0,0,0,0,0,0.1
		c0,0,0,0,0,0.1c0,0,0,0,0,0c0,0,0,0,0,0.1c0,0,0,0.1,0,0.1c0,0,0,0.1-0.1,0.1l0,0c0.1,0,0.3,0.1,0.4,0.1c0.6,0.3,0.9,0.8,0.9,1.6
		c0,0.5-0.1,0.9-0.3,1.2c-0.2,0.3-0.5,0.6-0.9,0.9c-0.2,0.1-0.4,0.2-0.6,0.3c-0.2,0.1-0.4,0.1-0.6,0.2c-0.5,0.1-1,0.1-1.6,0.1h-2.4
		l0.2-0.7l0,0l0,0l0.8-3.1l0.2-0.9c0.2,0,0.6,0,1-0.1c0,0,0.1,0,0.1,0c0,0,0-0.1,0.1-0.1c0.2-0.3,0.3-0.8,0.3-1.2
		c0-0.5-0.1-0.9-0.4-1.2c-0.5,0-0.9,0-1.3,0.1c-0.9,0-1.7,0.2-2.4,0.4l-0.9,3.6L15,38.4"/>
</g>
</svg>
