<?xml version="1.0" encoding="utf-8"?>
<!-- Generator: Adobe Illustrator 24.3.0, SVG Export Plug-In . SVG Version: 6.00 Build 0)  -->
<svg version="1.1" id="Capa_1" xmlns="http://www.w3.org/2000/svg" xmlns:xlink="http://www.w3.org/1999/xlink" x="0px" y="0px"
	 viewBox="0 0 359 64" style="enable-background:new 0 0 359 64;" xml:space="preserve">
<style type="text/css">
	.st0{clip-path:url(#SVGID_2_);}
	.st1{fill:#485063;}
</style>
<g>
	<defs>
		<rect id="SVGID_1_" y="0" width="358.3" height="64"/>
	</defs>
	<clipPath id="SVGID_2_">
		<use xlink:href="#SVGID_1_"  style="overflow:visible;"/>
	</clipPath>
	<g class="st0">
		<path class="st1" d="M72.3,17.9c-13,0-23.2,9.9-23.2,23.1c0,13.2,9.9,23,23.2,23c13.3,0,23.4-10,23.4-23.1
			C95.7,27.8,85.8,17.9,72.3,17.9z M72.4,54.5c-7.4,0-12.8-5.8-12.8-13.5c0-7.8,5.3-13.6,12.8-13.6c7.5,0,12.9,5.8,12.9,13.6
			S79.8,54.5,72.4,54.5z M98.5,27.9h6.5v35.2h10.3V18.7H98.5V27.9z M23.1,27.4c5.4,0,9.7,3.3,11.4,8.3h10.9
			c-2-10.7-10.8-17.9-22.2-17.9C10.2,17.9,0,27.7,0,41s9.9,23,23.2,23c11.2,0,20.2-7.2,22.2-18H34.5c-1.6,5-5.9,8.4-11.3,8.4
			c-7.5,0-12.8-5.8-12.8-13.5C10.4,33.2,15.6,27.4,23.1,27.4z M295,36.7l-7.6-1.1c-3.6-0.5-6.2-1.7-6.2-4.6c0-3.1,3.4-4.6,7.9-4.6
			c5,0,8.2,2.1,8.9,5.7h10c-1.1-8.9-8-14.2-18.6-14.2c-10.9,0-18.2,5.6-18.2,13.5c0,7.6,4.7,11.9,14.3,13.3l7.6,1.1
			c3.7,0.5,5.8,2,5.8,4.7c0,3.5-3.6,5-8.6,5c-6.1,0-9.6-2.5-10.1-6.3H270c1,8.7,7.8,14.8,20.2,14.8c11.3,0,18.8-5.2,18.8-14
			C309,42.1,303.5,38,295,36.7z M110.1,0.4c-3.8,0-6.6,2.7-6.6,6.5s2.8,6.5,6.6,6.5c3.8,0,6.6-2.7,6.6-6.5S113.9,0.4,110.1,0.4z
			 M261.9,33.9c0-9.6-5.9-16.1-18.3-16.1c-11.7,0-18.3,5.9-19.6,15h10.3c0.5-3.5,3.3-6.4,9.1-6.4c5.3,0,7.8,2.3,7.8,5.2
			c0,3.7-4.7,4.6-10.6,5.2c-7.9,0.9-17.8,3.6-17.8,13.9c0,8,5.9,13.1,15.4,13.1c7.4,0,12.1-3.1,14.4-8c0.3,4.4,3.6,7.2,8.2,7.2h6V54
			h-5.1L261.9,33.9L261.9,33.9z M251.7,45.1c0,5.9-5.2,10.3-11.5,10.3c-3.9,0-7.2-1.6-7.2-5.1c0-4.4,5.3-5.6,10.1-6.1
			c4.7-0.4,7.2-1.5,8.5-3.4V45.1z M196.8,17.9c-5.8,0-10.6,2.4-14,6.4V0h-10.3v63.1h10.2v-5.8c3.4,4.2,8.4,6.7,14.2,6.7
			c12.4,0,21.8-9.8,21.8-23S209.1,17.9,196.8,17.9z M195.3,54.5c-7.4,0-12.8-5.8-12.8-13.5s5.5-13.6,12.9-13.6
			c7.5,0,12.8,5.8,12.8,13.6C208.1,48.7,202.7,54.5,195.3,54.5z M147.7,17.9c-6.7,0-11.1,2.7-13.7,6.6v-5.8h-10.3v44.4h10.3V39
			c0-6.8,4.3-11.6,10.7-11.6c5.9,0,9.7,4.2,9.7,10.3v25.4h10.3V36.9C164.8,25.8,159,17.9,147.7,17.9z M358.3,39.5
			c0-12.7-9.3-21.6-21.8-21.6c-13.3,0-23,10-23,23.1c0,13.8,10.4,23,23.2,23c10.8,0,19.2-6.4,21.4-15.4h-10.8
			c-1.6,4-5.3,6.2-10.4,6.2c-6.6,0-11.6-4.1-12.8-11.3h34.2L358.3,39.5L358.3,39.5z M324.7,36.1c1.6-6.2,6.3-9.2,11.6-9.2
			c5.9,0,10.3,3.3,11.4,9.2H324.7z"/>
	</g>
</g>
</svg>
