<?xml version="1.0" encoding="utf-8"?>
<!-- Generator: Adobe Illustrator 24.3.0, SVG Export Plug-In . SVG Version: 6.00 Build 0)  -->
<svg version="1.1" id="Layer_1" xmlns="http://www.w3.org/2000/svg" xmlns:xlink="http://www.w3.org/1999/xlink" x="0px" y="0px"
	 viewBox="0 0 160 48.2" style="enable-background:new 0 0 160 48.2;" xml:space="preserve">
<style type="text/css">
	.st0{fill:#485063;}
	.st1{fill:url(#SVGID_1_);stroke:url(#SVGID_2_);stroke-width:1.1532;stroke-linecap:round;stroke-linejoin:round;}
</style>
<path class="st0" d="M56.6,39.7c-2.9-1.6-5.1-3.8-6.7-6.6c-1.6-2.8-2.4-6-2.4-9.4c0-3.5,0.8-6.6,2.4-9.4c1.6-2.8,3.9-5,6.7-6.6
	c1.6-0.9,3.3-1.5,5.2-1.9L63.2,7c-2,0.3-3.9,1-5.6,1.9c-2.6,1.5-4.6,3.5-6.1,6c-1.5,2.6-2.2,5.4-2.2,8.6s0.7,6,2.2,8.6
	s3.5,4.6,6.1,6c2,1.1,4.2,1.8,6.6,2.1l0,0l-1.4,1.4l0,0C60.5,41.4,58.5,40.7,56.6,39.7z M110,39.7c2.9-1.6,5.1-3.8,6.7-6.6
	s2.4-6,2.4-9.4c0-3.5-0.8-6.6-2.4-9.4s-3.9-5-6.7-6.6c-1.6-0.9-3.3-1.5-5.2-1.9L103.4,7c2,0.3,3.9,1,5.6,1.9c2.6,1.5,4.6,3.5,6.1,6
	c1.5,2.6,2.2,5.4,2.2,8.6s-0.7,6-2.2,8.6s-3.5,4.6-6.1,6c-2,1.1-4.2,1.8-6.6,2.1l0,0l1.4,1.4l0,0C106.1,41.4,108.1,40.7,110,39.7z
	 M107.3,1.3L106.1,0L83.2,22.8L60.4,0l-1.2,1.3L82,24.1L59.2,46.9l1.2,1.3l22.8-22.8L106,48.2l1.2-1.3L84.5,24.1L107.3,1.3z
	 M155,7.3v36.5h-1.5l-25.9-33.2v33.2h-1.8V7.3h1.5l25.9,33.2V7.3H155z M75,48.1h1v-6.8h-1V48.1z M82.9,41.3v5.1l-4.1-5.1H78v6.8h1
	V43l4.1,5.1h0.8v-6.8H82.9z M88.9,48.2c0.5,0,1-0.1,1.5-0.3c0.4-0.2,0.8-0.4,1.1-0.8l-0.6-0.6c-0.5,0.5-1.2,0.8-1.9,0.8
	c-0.5,0-1-0.1-1.4-0.3s-0.7-0.5-1-0.9c-0.2-0.4-0.3-0.8-0.3-1.3s0.1-0.9,0.3-1.3c0.2-0.4,0.5-0.7,1-0.9c0.4-0.2,0.9-0.3,1.4-0.3
	c0.8,0,1.4,0.3,1.9,0.8l0.6-0.6c-0.3-0.3-0.7-0.6-1.1-0.8s-0.9-0.3-1.5-0.3c-0.7,0-1.3,0.2-1.8,0.5s-1,0.7-1.3,1.2s-0.5,1.1-0.5,1.8
	s0.2,1.3,0.5,1.8s0.7,0.9,1.3,1.2C87.6,48,88.3,48.2,88.9,48.2z M39.7,43.7l-0.1-32.9l-16,27.8h-0.9L6.7,11v32.8H5V7.3h1.5
	l16.8,29.2L39.9,7.3h1.5l0.1,36.5L39.7,43.7L39.7,43.7z"/>
<linearGradient id="SVGID_1_" gradientUnits="userSpaceOnUse" x1="-307" y1="415.1756" x2="-275.8" y2="415.1756" gradientTransform="matrix(1 0 0 -1 5 49.2756)">
	<stop  offset="0" style="stop-color:#A901FF"/>
	<stop  offset="1" style="stop-color:#6AABDA"/>
</linearGradient>
<linearGradient id="SVGID_2_" gradientUnits="userSpaceOnUse" x1="-400.4544" y1="815.7211" x2="-351.0533" y2="815.7211" gradientTransform="matrix(0.7061 -0.7081 0.7081 0.7061 -598.7697 -1208.1907)">
	<stop  offset="0" style="stop-color:#A901FF"/>
	<stop  offset="1" style="stop-color:#6AABDA"/>
</linearGradient>
<path class="st1" d="M-282-351.8c6.9,7.8-4.5,19.6-4.5,19.6c-11.5-15.2-3.6-20-3.6-20 M-282.4-355.5c12.5-35.8-4.2-44.2-4.2-44.2
	s-17.1,10.9-3.5,44.2H-282.4z M-286.3-347.5v-21.3 M-281.4-358.4l10.6,10.5l-0.9-14.2l-6.9-6.9L-281.4-358.4z M-294.2-368.7
	l-6.7,6.7l-1.1,14.5l10.8-10.8L-294.2-368.7z M-284.1-381.8c1.3-1.3,1.3-3.5,0-4.8s-3.5-1.3-4.8,0s-1.3,3.5,0,4.8
	S-285.5-380.5-284.1-381.8L-284.1-381.8z M-290.2-352.1c0,0-7.9,4.8,3.6,20c0,0,11.4-11.8,4.5-19.6"/>
</svg>
